<svg width="1553" height="2280" viewBox="0 0 1553 2500" fill="none" xmlns="http://www.w3.org/2000/svg">
<path fill-rule="evenodd" clip-rule="evenodd" d="M483.95 909.813C484.948 894.353 489.358 878.387 492.691 863.536C495.973 848.92 499.915 834.744 502.963 820.075C505.7 811.242 510.226 804.239 518.255 799.401C529.084 792.864 544.92 792.657 556.606 786.561C566.346 781.477 574.673 774.395 579.394 764.305C588.914 743.955 583.337 718.625 580.458 697.368C578.836 685.436 575.944 672.673 575.944 660.625C575.944 646.436 566.269 627.616 563.221 613.415C559.608 596.249 556.678 578.947 554.44 561.548C549.799 527.197 546.58 492.668 544.791 458.05C544.194 445.793 545.361 431.825 539.201 420.697C526.296 397.377 492.406 388.143 469.073 379.596C454.729 374.33 440.293 369.103 426.662 362.112C416.883 357.093 393.511 345.952 389.711 334.746C383.084 315.201 387.429 289.352 359.232 300.895C358.662 301.129 359.907 289.65 360.309 288.366C361.761 283.736 364.2 279.443 366.846 275.384C372.332 266.94 379.076 259.392 384.407 250.819C388.933 243.543 385.937 233.336 388.609 225.385L393.81 205.023C421.254 182.351 419.451 145.037 415.301 140.472C414.056 137.774 410.554 136.75 409.827 135.972C407.947 134 408.284 126.153 409.257 121.277C416.727 107.918 413.42 82.16 411.695 73.4444C410.359 66.9724 406.831 60.0206 403.861 53.3023C396.287 36.1303 389.841 18.0764 368.571 11.384C340.491 3.9783 269.533 6.29989 237.368 45.2481C209.457 73.9113 221.753 149.577 216.513 150.692C215.411 149.888 210.56 152.275 210.288 157.826C208.212 171.729 208.601 204.374 228.912 218.771C232.362 221.027 230.015 236.863 230.015 242.57C229.496 255.021 240.909 273.71 240.131 279.936C240.131 289.274 236.966 294.799 244.8 299.391C250.468 303.113 283.074 315.266 280.532 328.806C278.962 337.185 283.567 350.089 286.005 358.066C288.417 366.003 291.024 376.172 296.264 382.76C305.2 394.005 329.57 364.512 335.562 359.285C357.572 347.431 368.571 382.151 387.195 389.764C407.506 474.405 398.232 632.052 393.122 666.552C386.482 700.312 383.81 675.864 383.81 675.864C380.282 600.769 254.722 320.505 231.454 316.135C212.869 307.185 203.53 334.759 185.749 334.759C180.561 326.264 183.998 317.237 189.899 310.895C202.415 302.387 198.667 297.562 192.765 292.737C187.941 288.444 184.815 279.365 187.863 271.402C189.315 262.686 187.318 251.117 180.029 243.893C175.295 239.198 155.231 233.971 160.328 225.502C162.39 222.078 172.494 223.167 175.632 221.222C184.556 215.658 180.522 208.369 171.677 207.085C163.83 205.943 160.004 199.679 158.772 191.327C157.643 183.623 160.017 175.867 160.276 168.176C160.406 164.544 160.445 160.757 159.148 157.294C157.799 153.701 153.895 151.795 152.559 148.838C152.416 148.513 151.846 147.489 152.3 139.681C152.429 137.32 155.866 140.472 156.048 137.632C155.412 137.943 163.908 3.62812 163.921 3.34278C163.428 0.696952 143.065 -0.625971 141.82 1.12495C142.093 1.3584 134.363 136.244 134.505 136.4C134.466 138.929 138.681 136.75 138.63 138.968C138.889 141.289 138.176 147.995 137.89 150.563C118.449 164.544 131.548 204.724 103.637 212.908C85.0126 218.356 100.239 244.671 93.858 255.592C89.6947 262.699 81.9128 266.11 78.5666 274.541C75.4279 282.478 75.0129 291.375 75.402 299.806C76.1802 317.133 85.0385 325.901 85.0126 350.025C84.9866 369.661 102.794 383.422 121.146 387.092C144.401 396.275 162.04 376.262 176.423 386.418C176.683 401.592 174.984 415.872 168.642 427.688C154.453 454.107 117.476 461.137 94.3249 438.05C62.4063 425.638 79.9414 407.584 76.5433 392.345C76.7897 393.434 39.8389 405.224 36.1944 407.662C25.8704 414.549 27.777 423.797 27.8029 434.873C28.0234 514.3 17.3753 592.935 7.88138 671.636C6.2861 684.865 4.80755 698.12 3.29008 711.349C2.13578 721.531 -1.35309 733.579 2.20063 743.307C13.8864 775.355 45.6234 802.008 73.1582 818.946C91.6531 830.321 110.122 808.986 126.594 816.015C142.702 822.902 140.173 852.759 141.146 866.429C142.793 890.034 140.393 914.209 136.386 937.49C128.409 983.948 113.442 1028.94 106.426 1075.58C104.335 1089.01 102.967 1102.54 102.327 1116.11C102.068 1122.39 98.968 1156.03 103.819 1159.9C106.867 1166.56 116.399 1166.3 115.466 1184.59C106.944 1287.84 102.742 1391.37 98.4233 1494.85C94.1173 1598.26 89.7725 1701.73 80.966 1804.88C76.3617 1858.81 66.4269 1912.18 64.2869 1966.34C62.4841 2011.74 45.4418 2059.79 57.9057 2104.68C63.2882 2124.08 54.5207 2149.54 67.2181 2165.62C66.1027 2184.44 54.5596 2192.39 51.9786 2199.49C44.3654 2227.4 64.9094 2253.26 79.0724 2262.97C107.878 2285.52 122.197 2280.33 140.017 2275.67C165.412 2268.05 175.567 2246.06 191.65 2226.58C199.393 2209.54 184.037 2191.87 185.723 2171.56C220.845 2164.81 217.641 1916.53 237.355 1839.74C241.35 1810.51 258.457 1706.7 266.589 1607.25C269.222 1587.47 268.159 1575.84 271.207 1556.17C287.341 1488.91 305.914 1395.37 316.912 1312.41H320.297C329.168 1378.19 330.05 1453.58 345.394 1510.09C365.393 1597.16 366.353 1617.27 350.659 1672.64C336.756 1748.28 336.859 1848.67 339.531 1925.15C342.203 2001.53 341.178 2084.69 356.703 2159.7C357.468 2163.37 359.025 2163.5 361.645 2163.29C365.147 2162.73 367.987 2183.28 368.078 2192.32C367.87 2193.81 368.376 2197.92 368.558 2199.49C371.515 2221.07 417.713 2227.53 424.665 2228.51C446.013 2231.48 470.124 2212.17 499.747 2239.25C499.721 2239.2 503.275 2240.13 504.442 2240.19C553.649 2248.16 613.517 2251.16 654.645 2224.03C662.115 2218.58 659.625 2205.66 645.579 2201.91C609.951 2193.73 582.105 2170.95 551.379 2153.76C540.277 2147.54 526.166 2131.69 528.981 2125.34C529.914 2122.15 534.389 2121.29 530.213 2108.06C494.663 1986.17 501.173 1823.87 516.4 1696.04C516.815 1681.63 528.202 1664.6 530.213 1647.58C544.596 1465.61 507.918 1292.01 507.918 1115.09C513.132 1111.18 515.674 1100.46 511.861 1091.69C505.324 1065.18 500.784 1038.17 495.311 1011.43C491.589 993.312 489.449 964.35 485.156 948.255C483.599 942.328 483.56 915.882 483.95 909.813V909.813ZM145.945 218.784L143.402 222.169C139.174 217.084 139.174 208.628 143.402 203.544C148.487 206.929 146.839 213.855 145.945 218.784ZM240.741 776.587C236.512 791.827 216.202 783.357 204.347 785.899C198.42 783.37 201.805 777.443 200.962 773.202C222.972 749.506 208.576 714.799 204.347 687.718H240.741C249.223 713.956 256.823 752.035 240.741 776.587ZM435.43 511.654C434.042 511.33 435.754 492.601 437.998 492.42C441.953 492.601 504.87 494.313 493.833 526.88C476.466 523.845 449.696 519.124 435.43 511.654Z" fill="#F7F7F7"/>
<path fill-rule="evenodd" clip-rule="evenodd" d="M122.82 405.574C123.261 401.45 120.057 397.727 115.673 397.26C111.29 396.806 107.386 399.764 106.945 403.901C106.504 408.038 109.707 411.748 114.091 412.215C118.488 412.668 122.392 409.698 122.82 405.574ZM225.748 773.591C228.173 768.818 227.382 763.54 223.984 761.815C220.586 760.103 215.865 762.58 213.439 767.353C211.014 772.126 211.805 777.404 215.203 779.129C218.601 780.854 223.322 778.39 225.748 773.591ZM1168.77 313.826L1193.38 278.756H1265.83C1260.76 295.707 1233.38 327.885 1184.11 375.121C1138.03 420.762 1109.33 458.296 1097.73 488.152H1152.22L1159.77 474.236L1160.35 473.808V473.367L1161.06 471.772C1180.04 440.32 1205.55 409.893 1237.58 380.763C1299.75 320.907 1331.03 276.719 1331.19 247.589H1177.02L1138.74 313.8H1168.77V313.826V313.826ZM1529.87 283.541C1544.36 271.661 1552.04 260.066 1552.78 248.912H1345.69C1341.33 266.59 1335.13 281.946 1326.28 295.136H1435.11C1437.14 290.921 1439.16 287.873 1441.04 285.565C1442.51 283.541 1445.55 282.958 1450.18 283.541H1529.87V283.541ZM1390.33 323.398L1415.26 318.767L1427.29 305.577H1320.21C1296.88 330.505 1295.13 347.897 1314.84 357.884C1316.87 358.04 1317.45 356.432 1316.6 352.67C1315.13 347.884 1315.86 342.671 1318.62 337.158C1320.64 332.671 1323.11 329.48 1325.99 327.288H1367.31L1325.99 374.693C1320.91 377.728 1314.84 379.038 1307.88 378.169H1260.36L1247.01 389.906H1306.44C1319.18 390.633 1329.03 387.741 1335.41 381.645L1376.13 334.396C1381.35 327.288 1385.97 323.527 1390.33 323.398V323.398ZM1130.93 313.113C1135.56 278.328 1127.03 257.174 1105.29 249.34C1079.78 239.496 1050.96 249.638 1018.63 279.91C1007.02 290.934 996.307 303.541 985.88 317.743C977.618 328.611 971.522 338.027 967.891 345.706L959.201 363.539C952.658 377.268 947.417 391.58 943.546 406.287C931.666 449.464 938.047 476.856 962.547 488.152C987.319 499.592 1016.15 490.902 1048.93 461.785C1067.96 444.556 1084.49 424.749 1098.04 402.941L1106.89 387.728C1118.9 364.525 1126.87 340.479 1130.49 315.123L1130.93 313.113V313.113ZM1010.07 360.491C1018.78 343.682 1030.24 325.576 1043.84 306.731C1065.29 276.46 1081.39 263.542 1092.1 267.316C1108.34 273.412 1096.3 311.362 1056.31 381.502C1046.18 398.311 1033.87 416.144 1019.5 434.976C997.332 462.797 982.105 474.833 973.701 470.475C965.011 465.844 967.476 447.881 981.249 416.572L1010.07 360.491V360.491ZM963.559 312.373C968.344 277.744 959.629 256.59 938.047 248.614C912.406 238.9 883.561 249.34 851.539 279.469C839.931 290.338 829.075 302.957 818.635 317.146C810.373 328.015 804.303 337.431 800.671 345.265L791.826 362.942C785.436 376.686 780.2 390.937 776.171 405.548C764.447 448.88 770.958 476.272 795.6 487.582C820.1 499.021 848.919 490.189 881.525 461.201C901.239 443.096 917.749 423.68 930.953 402.37L939.642 387.144C951.481 364.473 959.459 339.988 963.247 314.695L963.559 312.373ZM842.862 359.907C851.552 343.099 862.848 325.278 876.48 306.29C898.061 276.149 914.144 262.958 924.883 266.733C941.095 272.815 929.059 310.934 889.086 380.776C879.229 397.727 866.765 415.561 852.408 434.393C830.242 462.356 814.86 474.236 806.482 469.904C797.766 465.261 800.256 447.142 814.004 415.989L842.862 359.907V359.907Z" fill="#F7F7F7"/>
</svg>