<svg viewBox="0 0 800 435" fill="none" xmlns="http://www.w3.org/2000/svg">
<rect fill="white"/>
<path d="M418.618 391.308H544.562V434.968H418.618V391.308Z" fill="#596C76"/>
<path d="M444.554 391.308V291.36C444.448 280.733 448.181 270.425 455.069 262.331C461.957 254.237 471.535 248.903 482.042 247.308L482.47 247.252C496.823 245.418 510.16 238.871 520.39 228.64L543.202 205.812C545.11 203.904 547.375 202.39 549.868 201.358C552.361 200.325 555.032 199.794 557.73 199.794C560.429 199.794 563.1 200.325 565.593 201.358C568.086 202.39 570.351 203.904 572.258 205.812L583.058 216.632L617.214 133.296C618.245 130.782 619.881 128.561 621.976 126.832C624.072 125.102 626.562 123.917 629.226 123.382C631.89 122.847 634.645 122.978 637.246 123.764C639.847 124.55 642.213 125.967 644.134 127.888C646.142 129.893 647.599 132.383 648.362 135.116C649.125 137.849 649.169 140.733 648.49 143.488L613.774 250.344C610.014 261.902 603.572 272.405 594.974 280.996L594.042 281.924C586.512 289.459 577.499 295.348 567.574 299.22L518.614 318.324V391.308H444.554Z" fill="#FDE4E4"/>
<path d="M255.442 391.308H381.386V434.968H255.442V391.308Z" fill="#596C76"/>
<path d="M355.45 391.308V291.36C355.557 280.733 351.823 270.425 344.936 262.331C338.048 254.237 328.47 248.903 317.962 247.308L317.53 247.252C303.175 245.419 289.835 238.873 279.602 228.64L256.802 205.812C254.895 203.904 252.63 202.39 250.137 201.358C247.644 200.325 244.972 199.794 242.274 199.794C239.576 199.794 236.904 200.325 234.412 201.358C231.919 202.39 229.654 203.904 227.746 205.812L216.946 216.632L182.754 133.296C181.724 130.782 180.088 128.561 177.993 126.832C175.897 125.102 173.407 123.917 170.743 123.382C168.079 122.847 165.324 122.978 162.723 123.764C160.122 124.55 157.756 125.967 155.834 127.888C153.826 129.893 152.37 132.383 151.607 135.116C150.844 137.849 150.8 140.733 151.478 143.488L186.23 250.344C189.991 261.902 196.433 272.405 205.03 280.996L205.958 281.924C213.483 289.455 222.487 295.344 232.402 299.22L281.362 318.324V391.308H355.45Z" fill="#FDE4E4"/>
<path d="M272.922 279.644C272.003 279.645 271.092 279.465 270.243 279.113C269.394 278.761 268.623 278.244 267.974 277.592L228.558 238.176C227.908 237.526 227.392 236.754 227.041 235.905C226.689 235.056 226.508 234.145 226.508 233.226C226.508 232.307 226.689 231.396 227.041 230.547C227.392 229.698 227.908 228.926 228.558 228.276C229.208 227.626 229.98 227.11 230.829 226.758C231.679 226.407 232.589 226.226 233.508 226.226C234.427 226.226 235.338 226.407 236.187 226.758C237.036 227.11 237.808 227.626 238.458 228.276L277.87 267.696C278.848 268.675 279.515 269.922 279.784 271.279C280.054 272.637 279.916 274.044 279.386 275.322C278.857 276.601 277.96 277.694 276.809 278.463C275.659 279.232 274.306 279.643 272.922 279.644Z" fill="#FCCED3"/>
<path d="M527.078 279.644C525.694 279.643 524.341 279.232 523.191 278.463C522.04 277.694 521.144 276.601 520.614 275.322C520.085 274.044 519.946 272.637 520.216 271.279C520.486 269.922 521.152 268.675 522.13 267.696L561.546 228.276C562.867 227.001 564.635 226.296 566.47 226.312C568.306 226.329 570.061 227.065 571.359 228.363C572.656 229.661 573.392 231.417 573.408 233.253C573.423 235.088 572.717 236.856 571.442 238.176L532.03 277.584C531.381 278.237 530.61 278.755 529.76 279.109C528.91 279.462 527.999 279.644 527.078 279.644Z" fill="#FCCED3"/>
<path d="M290 207.503C290 200.601 295.595 195.006 302.497 195.006H497.503C504.405 195.006 510 200.601 510 207.503C510 214.405 504.405 220 497.503 220H302.497C295.595 220 290 214.405 290 207.503Z" fill="black"/>
<path d="M472.5 85C472.5 125.041 440.041 157.5 400 157.5C359.959 157.5 327.5 125.041 327.5 85C327.5 44.9594 359.959 12.5 400 12.5C440.041 12.5 472.5 44.9594 472.5 85Z" fill="white" stroke="black" stroke-width="25"/>
<path d="M400 128.562C424.059 128.562 443.562 109.059 443.562 85C443.562 60.9411 424.059 41.4375 400 41.4375C375.941 41.4375 356.438 60.9411 356.438 85C356.438 109.059 375.941 128.562 400 128.562Z" fill="#F0F0F0"/>
<path d="M398.106 85.0002H443.562C443.562 81.0683 443.038 77.2593 442.062 73.636H398.106V85.0002Z" fill="#D80027"/>
<path d="M398.106 62.2719H437.169C434.502 57.9204 431.092 54.0742 427.117 50.9077H398.106V62.2719Z" fill="#D80027"/>
<path d="M400 128.563C410.252 128.563 419.675 125.019 427.117 119.093H372.883C380.324 125.019 389.747 128.563 400 128.563Z" fill="#D80027"/>
<path d="M362.831 107.728H437.168C439.309 104.235 440.97 100.417 442.062 96.3643H357.938C359.03 100.417 360.69 104.235 362.831 107.728Z" fill="#D80027"/>
<path d="M376.616 48.2404H380.586L376.894 50.9231L378.304 55.2638L374.612 52.5812L370.919 55.2638L372.138 51.5139C368.887 54.2221 366.037 57.395 363.689 60.9304H364.961L362.61 62.638C362.244 63.2489 361.893 63.8695 361.556 64.4992L362.679 67.9538L360.584 66.4323C360.064 67.5352 359.588 68.6629 359.16 69.814L360.396 73.6203H364.961L361.268 76.303L362.679 80.6437L358.986 77.9611L356.774 79.5681C356.553 81.3477 356.438 83.1603 356.438 85H400C400 60.9412 400 58.1049 400 41.4375C391.394 41.4375 383.372 43.9338 376.616 48.2404ZM378.304 80.6437L374.612 77.9611L370.919 80.6437L372.33 76.303L368.637 73.6203H373.201L374.612 69.2796L376.022 73.6203H380.586L376.894 76.303L378.304 80.6437ZM376.894 63.613L378.304 67.9538L374.612 65.2711L370.919 67.9538L372.33 63.613L368.637 60.9304H373.201L374.612 56.5896L376.022 60.9304H380.586L376.894 63.613ZM393.93 80.6437L390.237 77.9611L386.545 80.6437L387.955 76.303L384.263 73.6203H388.827L390.237 69.2796L391.648 73.6203H396.212L392.519 76.303L393.93 80.6437ZM392.519 63.613L393.93 67.9538L390.237 65.2711L386.545 67.9538L387.955 63.613L384.263 60.9304H388.827L390.237 56.5896L391.648 60.9304H396.212L392.519 63.613ZM392.519 50.9231L393.93 55.2638L390.237 52.5812L386.545 55.2638L387.955 50.9231L384.263 48.2404H388.827L390.237 43.8996L391.648 48.2404H396.212L392.519 50.9231Z" fill="#0052B4"/>
</svg>
