<svg  viewBox="0 0 435 374" fill="none" xmlns="http://www.w3.org/2000/svg">
<g clip-path="url(#clip0)">
<path d="M55.6933 46.0765C55.6933 46.0765 61.4026 59.6282 48.5566 66.0474C35.7105 72.4666 82.8127 84.5918 87.8084 68.9004C87.8084 68.9004 74.9623 63.9076 80.6717 48.9295L55.6933 46.0765Z" fill="#FFB9B9"/>
<path d="M71.0374 326.025L70.3236 341.004L82.4557 343.144V328.165L71.0374 326.025Z" fill="#FFB9B9"/>
<path d="M25.3623 326.025L26.076 341.004L13.9439 343.144V328.165L25.3623 326.025Z" fill="#FFB9B9"/>
<path d="M69.6098 54.2789C80.646 54.2789 89.5925 45.3376 89.5925 34.308C89.5925 23.2784 80.646 14.3372 69.6098 14.3372C58.5736 14.3372 49.6271 23.2784 49.6271 34.308C49.6271 45.3376 58.5736 54.2789 69.6098 54.2789Z" fill="#FFB9B9"/>
<path d="M97.4434 179.097L96.7291 184.802L100.298 198.355L105.293 186.23L97.4434 179.097Z" fill="#FFB9B9"/>
<path d="M18.2257 181.237L13.9437 231.877C13.9437 231.877 8.94796 241.149 11.8027 248.995C11.8027 248.995 7.52066 259.694 8.94798 263.26C10.3753 266.826 11.089 270.392 9.66162 271.819C8.23426 273.245 7.52062 313.187 9.66162 316.753C11.8026 320.32 13.23 328.878 13.23 328.878C13.23 328.878 25.3623 331.731 28.217 323.886C31.0717 316.04 29.6444 315.327 32.499 313.187C35.3537 311.047 35.3537 281.091 35.3537 281.091C35.3537 281.091 31.7854 277.525 33.9264 276.098C36.0674 274.672 37.4947 276.098 35.3537 272.532C33.2127 268.966 29.6444 268.966 33.2127 267.539C35.2011 266.769 37.1126 265.814 38.9221 264.686L59.6185 210.48C59.6185 210.48 67.4688 271.105 68.8961 273.958C70.3234 276.811 72.4645 273.245 70.3234 276.811C68.1824 280.378 67.4688 278.238 68.1824 280.378C68.8961 282.517 63.9004 313.187 66.7551 319.606C68.4212 323.316 69.8514 327.128 71.0371 331.018C71.0371 331.018 82.4558 336.011 83.8832 332.445C85.3105 328.878 84.5968 322.459 86.7379 321.746C88.8789 321.033 91.0199 319.606 91.0199 313.9C91.0199 308.194 95.3018 280.378 95.3018 280.378C95.3018 280.378 90.3061 278.238 91.7335 274.672C93.1608 271.106 93.1609 271.819 92.4472 268.966C91.7335 266.113 90.3062 265.4 91.7335 263.26C93.1608 261.12 93.1609 254.701 93.1609 254.701L101.725 198.354L95.1115 179.097L18.2257 181.237Z" fill="black"/>
<path d="M71.7508 337.437C71.7508 337.437 69.6098 335.298 68.8961 337.437C68.1825 339.577 68.1825 359.548 68.1825 359.548C68.1825 359.548 73.8918 363.827 73.8918 365.967C73.8918 368.107 78.1738 375.239 88.1652 373.813C88.2652 373.799 88.364 373.784 88.4618 373.768C89.9083 373.534 91.2804 372.966 92.4697 372.111C93.659 371.255 94.6328 370.135 95.3143 368.838C95.9957 367.542 96.3661 366.105 96.3961 364.64C96.4261 363.176 96.115 361.725 95.4872 360.402L85.3106 338.864C85.3106 338.864 78.1738 331.731 71.7508 337.437Z" fill="#2F2E41"/>
<path d="M24.6487 337.437C24.6487 337.437 26.7897 335.298 27.5034 337.437C28.217 339.577 28.217 359.548 28.217 359.548C28.217 359.548 22.5077 363.827 22.5077 365.967C22.5077 368.107 18.2257 375.239 8.23427 373.813C8.13436 373.799 8.03551 373.784 7.93774 373.768C6.49125 373.534 5.11913 372.966 3.92985 372.111C2.74057 371.255 1.76672 370.135 1.08527 368.838C0.403813 367.542 0.0334348 366.105 0.00341214 364.64C-0.0266106 363.176 0.284545 361.725 0.91228 360.402L11.0889 338.864C11.0889 338.864 18.2257 331.731 24.6487 337.437Z" fill="#2F2E41"/>
<path d="M54.3798 12.6763L50.8095 11.2478C50.8095 11.2478 58.2745 3.03408 68.6608 3.74835L65.7396 0.534236C65.7396 0.534236 72.8801 -2.32269 79.3715 5.17679C82.7839 9.11911 86.7321 13.7531 89.1933 18.9732H93.0168L91.4211 22.4849L97.0064 25.9965L91.2736 25.3658C91.8166 28.3975 91.6308 31.5148 90.7314 34.4606L90.8851 37.2362C90.8851 37.2362 84.24 26.9611 84.24 25.5326V29.1038C84.24 29.1038 80.6698 25.8897 80.6698 23.747L78.7224 26.2468L77.7487 22.3185L65.7396 26.2468L67.687 23.0328L60.2219 24.1041L63.1431 20.1758C63.1431 20.1758 54.7044 24.8183 54.3797 28.7467C54.0552 32.6749 49.8359 37.6746 49.8359 37.6746L47.8885 34.1034C47.8885 34.1034 44.9673 18.0331 54.3798 12.6763Z" fill="black"/>
<path d="M100.298 78.5293H108.249C108.833 78.529 109.4 78.7275 109.856 79.092C110.313 79.4566 110.631 79.9656 110.76 80.5352C111.987 85.965 115.149 101.357 114.571 113.478C113.857 128.456 115.285 139.155 114.571 141.295C113.857 143.435 114.571 144.148 114.571 146.288C114.571 148.427 116.712 147.001 114.571 149.854C112.43 152.707 112.43 151.994 112.43 154.133C112.43 156.273 105.293 189.082 105.293 189.082C105.293 189.082 100.387 181.023 94.9897 182.557L96.0156 153.42L97.4429 141.295L95.3019 119.898L100.298 78.5293Z" fill="#3F3D56"/>
<path d="M65.6847 71.0402C65.6847 71.0402 53.5523 70.5994 49.6271 65.4705C49.6271 65.4705 24.2919 73.8931 21.4372 81.0256C18.5826 88.1581 31.4286 120.254 31.4286 120.254C31.4286 120.254 9.30481 185.873 20.0098 185.873C30.7148 185.873 54.9796 194.432 69.253 189.439C78.0975 186.373 87.1638 183.989 96.3724 182.306C96.3724 182.306 97.7998 163.049 96.3724 159.483C94.9451 155.916 91.3767 158.056 93.5178 153.063C95.6588 148.071 94.9451 147.357 94.2314 145.218C93.5178 143.078 95.6588 140.225 95.6588 137.372C95.6588 134.519 94.9451 128.1 94.9451 128.1C94.9451 128.1 114.214 83.1653 109.932 78.8859C105.65 74.6064 83.8536 66.3606 83.8536 66.3606C83.8536 66.3606 77.817 73.8931 65.6847 71.0402Z" fill="#3F3D56"/>
<path d="M9.66162 186.229C9.66162 186.229 3.23863 219.752 13.9436 216.899C24.6486 214.046 19.653 186.229 19.653 186.229H9.66162Z" fill="#FFB9B9"/>
<path d="M26.076 78.5293L23.5414 79.7958C22.5548 80.2888 21.6958 81.0034 21.0315 81.8835C20.3673 82.7636 19.9158 83.7854 19.7125 84.8689L9.66162 138.442C9.66162 138.442 6.80694 144.861 6.80694 145.574C6.80694 146.288 8.23427 146.288 6.80694 148.427C5.37962 150.567 3.23859 149.854 4.66594 151.28C5.48063 152.021 5.98962 153.038 6.09329 154.133L7.52062 189.082C7.52062 189.082 19.653 185.516 23.2213 189.082C23.2213 189.082 19.653 178.384 21.794 174.817C23.935 171.251 23.935 166.259 23.935 166.259C23.935 166.259 22.5076 166.259 26.076 162.692C29.6444 159.126 30.358 157.7 29.6444 156.986C28.9307 156.273 28.217 149.854 28.217 149.141C28.217 148.427 35.3537 100.64 35.3537 100.64L26.076 78.5293Z" fill="#3F3D56"/>
<path d="M174.647 8.87402C173.551 8.87525 172.501 9.31078 171.726 10.0851C170.951 10.8594 170.516 11.9092 170.514 13.0042V187.65C170.516 188.745 170.952 189.795 171.726 190.569C172.501 191.343 173.551 191.779 174.647 191.78H430.867C431.963 191.779 433.013 191.343 433.788 190.569C434.563 189.795 434.999 188.745 435 187.65V13.0042C434.999 11.9092 434.563 10.8594 433.788 10.0851C433.013 9.31085 431.963 8.8753 430.867 8.87402H174.647Z" fill="#E6E6E6"/>
<path d="M180.551 14.7742C179.455 14.7754 178.405 15.2109 177.63 15.9852C176.855 16.7595 176.419 17.8093 176.418 18.9043V181.749C176.419 182.844 176.855 183.894 177.63 184.668C178.405 185.443 179.455 185.878 180.551 185.88H424.964C426.059 185.878 427.11 185.443 427.884 184.668C428.659 183.894 429.095 182.844 429.096 181.749V18.9043C429.095 17.8093 428.659 16.7595 427.884 15.9853C427.11 15.211 426.059 14.7754 424.964 14.7742H180.551Z" fill="white"/>
<path opacity="0.2" d="M194.653 150.455L207.579 141.008L258.667 132.91L290.06 124.813L307.294 131.627L330 106.5L346.688 101.87L365 83L383.004 79.6019L411.318 33.0411V150.39L194.653 150.455Z" fill="#6C63FF"/>
<path d="M196.129 150.16C195.815 150.16 195.515 150.036 195.294 149.814C195.072 149.593 194.948 149.293 194.948 148.98C194.948 148.667 195.072 148.367 195.294 148.146C195.515 147.924 195.815 147.8 196.129 147.8C250.688 147.8 302.72 136.882 342.641 117.058C380.074 98.4682 403.929 73.2599 408.087 47.8959C408.112 47.7429 408.167 47.5964 408.249 47.4646C408.33 47.3329 408.437 47.2185 408.563 47.128C408.689 47.0375 408.831 46.9727 408.982 46.9373C409.133 46.9019 409.29 46.8966 409.443 46.9216C409.596 46.9467 409.743 47.0016 409.874 47.0833C410.006 47.165 410.121 47.2719 410.211 47.3978C410.302 47.5237 410.366 47.6662 410.402 47.8171C410.437 47.968 410.442 48.1244 410.417 48.2774C408.258 61.4528 401.246 74.3771 389.58 86.6914C378.073 98.8367 362.634 109.765 343.692 119.171C303.451 139.155 251.045 150.16 196.129 150.16Z" fill="#0037FF"/>
<path d="M420.241 150.398H194.72V39.0452H195.901V149.218H420.241V150.398Z" fill="#E6E6E6"/>
</g>
<defs>
<clipPath id="clip0">
<rect width="435" height="374" fill="white"/>
</clipPath>
</defs>
</svg>
