<svg  viewBox="0 0 503 353" fill="none" xmlns="http://www.w3.org/2000/svg">
<path d="M189.193 353C293.682 353 378.387 346.381 378.387 338.216C378.387 330.051 293.682 323.432 189.193 323.432C84.7048 323.432 0 330.051 0 338.216C0 346.381 84.7048 353 189.193 353Z" fill="#3F3D56"/>
<path d="M71.0142 327.763C70.9098 327.592 68.4489 323.482 67.5957 314.948C66.8131 307.118 67.3163 293.919 74.1595 275.509C87.1238 240.632 71.1718 212.491 71.0089 212.21L71.7959 211.754C71.8372 211.825 75.9534 219 78.385 230.424C81.598 245.571 80.428 261.321 75.0123 275.826C62.0703 310.644 71.6919 327.126 71.7905 327.289L71.0142 327.763Z" fill="#3F3D56"/>
<path d="M65.9448 210.162C69.2101 210.162 71.8571 207.515 71.8571 204.249C71.8571 200.983 69.2101 198.335 65.9448 198.335C62.6796 198.335 60.0325 200.983 60.0325 204.249C60.0325 207.515 62.6796 210.162 65.9448 210.162Z" fill="#0037FF"/>
<path d="M84.5913 231.997C87.8566 231.997 90.5036 229.35 90.5036 226.084C90.5036 222.818 87.8566 220.17 84.5913 220.17C81.326 220.17 78.679 222.818 78.679 226.084C78.679 229.35 81.326 231.997 84.5913 231.997Z" fill="#3F3D56"/>
<path d="M71.8571 246.554C75.1224 246.554 77.7694 243.906 77.7694 240.64C77.7694 237.374 75.1224 234.727 71.8571 234.727C68.5919 234.727 65.9448 237.374 65.9448 240.64C65.9448 243.906 68.5919 246.554 71.8571 246.554Z" fill="#0037FF"/>
<path d="M87.3201 258.836C90.5853 258.836 93.2324 256.189 93.2324 252.923C93.2324 249.657 90.5853 247.009 87.3201 247.009C84.0548 247.009 81.4078 249.657 81.4078 252.923C81.4078 256.189 84.0548 258.836 87.3201 258.836Z" fill="#0037FF"/>
<path d="M67.3092 277.942C70.5745 277.942 73.2215 275.294 73.2215 272.028C73.2215 268.762 70.5745 266.115 67.3092 266.115C64.044 266.115 61.3969 268.762 61.3969 272.028C61.3969 275.294 64.044 277.942 67.3092 277.942Z" fill="#3F3D56"/>
<path d="M74.5859 327.981C74.5859 327.981 68.6736 313.424 86.4105 302.506L74.5859 327.981Z" fill="#3F3D56"/>
<path d="M67.3147 327.717C67.3147 327.717 64.6239 312.237 43.7981 312.369L67.3147 327.717Z" fill="#3F3D56"/>
<path d="M168.273 70.509C168.273 70.509 168.728 82.3364 165.999 85.0657C163.27 87.7951 179.643 97.3479 179.643 97.3479L189.193 82.3364C189.193 82.3364 185.555 75.9678 186.465 70.509H168.273Z" fill="#A0616A"/>
<path d="M138.939 310.922V322.294L153.038 323.204L152.128 310.922H138.939Z" fill="#A0616A"/>
<path d="M216.254 310.922V322.294L202.155 323.204L203.065 310.922H216.254Z" fill="#A0616A"/>
<path d="M146.216 184.916C146.216 184.916 138.939 211.3 143.487 232.225C143.487 232.225 143.487 241.323 145.306 243.142C147.125 244.962 147.58 244.962 146.216 245.872C144.851 246.782 142.123 249.056 143.487 250.421C144.851 251.785 145.306 253.605 144.396 254.06C143.487 254.515 142.577 255.425 143.487 257.244C144.396 259.064 138.939 307.738 138.939 307.738C138.939 307.738 133.481 313.651 138.939 314.106C144.396 314.561 153.492 316.836 154.402 313.197C155.311 309.557 162.588 258.154 162.588 258.154C162.588 258.154 163.498 256.789 165.317 254.515C167.136 252.24 166.227 251.331 166.227 250.876C166.227 250.421 175.777 207.206 175.777 207.206C175.777 207.206 189.876 256.334 191.24 257.244C192.604 258.154 193.059 258.154 193.059 259.519C193.059 260.883 192.15 261.793 193.059 263.158C193.556 263.89 194.012 264.649 194.424 265.432C194.424 265.432 196.698 316.381 201.245 316.381C205.793 316.381 219.437 315.471 218.073 311.377C216.708 307.283 214.889 308.193 214.889 308.193C214.889 308.193 218.073 266.342 210.341 254.06V244.052C210.341 243.142 210.796 242.688 210.341 241.778C209.887 240.868 211.706 186.735 203.065 183.551C194.424 180.367 146.216 184.916 146.216 184.916Z" fill="#201E29"/>
<path d="M147.58 319.11C147.58 319.11 145.306 315.471 142.123 315.471C138.939 315.471 136.665 319.11 136.665 319.11L128.479 330.483C128.479 330.483 116.654 337.761 121.202 341.855C125.75 345.949 138.029 343.675 138.029 343.675C138.029 343.675 148.035 336.396 149.399 335.941C150.764 335.486 154.402 333.212 154.857 332.757C155.311 332.302 153.947 315.926 152.583 317.063C151.218 318.2 150.309 321.84 147.58 319.11Z" fill="#2F2E41"/>
<path d="M207.613 319.11C207.613 319.11 209.887 315.471 213.07 315.471C216.254 315.471 218.528 319.11 218.528 319.11L226.714 330.483C226.714 330.483 238.538 337.761 233.991 341.855C229.443 345.949 217.163 343.675 217.163 343.675C217.163 343.675 207.158 336.396 205.793 335.941C204.429 335.486 200.791 333.212 200.336 332.757C199.881 332.302 201.245 315.926 202.61 317.063C203.974 318.2 204.884 321.84 207.613 319.11Z" fill="#2F2E41"/>
<path d="M176.232 77.105C185.274 77.105 192.604 69.7731 192.604 60.7287C192.604 51.6844 185.274 44.3524 176.232 44.3524C167.19 44.3524 159.859 51.6844 159.859 60.7287C159.859 69.7731 167.19 77.105 176.232 77.105Z" fill="#A0616A"/>
<path d="M171.911 86.4304C171.911 86.4304 168.852 86.5991 167.425 81.9658L143.259 99.6224L153.265 126.461C153.265 126.461 154.629 141.018 153.265 145.112C151.901 149.206 150.991 152.39 150.991 154.21C150.991 156.03 141.44 186.508 145.079 187.872C148.717 189.237 204.202 194.696 205.566 185.598C206.93 176.5 201.018 116.454 201.018 116.454L210.569 93.2539L187.349 78.0619C187.349 78.0619 185.1 87.3402 171.911 86.4304Z" fill="black"/>
<path d="M141.668 128.508L139.849 142.61C139.849 142.61 132.572 157.622 134.391 177.637L133.936 190.829C133.936 190.829 129.388 213.574 138.484 214.484C147.58 215.394 141.668 189.465 141.668 189.465L146.67 177.182L151.792 149.86L154.402 130.783L141.668 128.508Z" fill="#A0616A"/>
<path d="M149.854 98.9401L143.259 99.6224C143.259 99.6224 138.939 131.693 140.303 131.693C141.668 131.693 157.131 135.332 157.585 134.422C158.04 133.512 149.854 98.9401 149.854 98.9401Z" fill="black"/>
<path d="M163.829 44.386L164.842 43.8619L163.77 43.472L161.599 42.6823C161.732 42.5693 161.885 42.4417 162.059 42.3027C162.755 41.7458 163.772 41.0071 165.053 40.2847C167.616 38.8381 171.209 37.4713 175.374 37.7317L176.694 37.8142L175.759 36.8791L173.964 35.0843C174.003 35.0769 174.043 35.0695 174.084 35.0622C174.688 34.9549 175.55 34.8668 176.573 34.9468C178.611 35.106 181.308 35.9321 183.897 38.6509C186.725 41.6206 189.938 45.0541 191.935 48.9042L192.075 49.174H192.379H194.73L193.773 51.0894L193.562 51.5124L193.972 51.747L196.55 53.2207L194.148 52.9804L193.477 52.9133L193.608 53.5745C194.039 55.7655 193.891 58.0312 193.178 60.1472L192.507 61.9947C192.459 61.8972 192.408 61.7941 192.355 61.6861C191.953 60.8656 191.418 59.7611 190.883 58.6236C190.347 57.4851 189.814 56.3183 189.416 55.3717C189.216 54.8978 189.053 54.4854 188.941 54.1624C188.884 54.0006 188.843 53.8674 188.816 53.7637C188.803 53.7121 188.794 53.6717 188.789 53.6415C188.784 53.6141 188.784 53.6022 188.784 53.6022C188.784 53.6022 188.784 53.6026 188.784 53.6032H188.284H187.784V55.1625C187.593 54.9776 187.385 54.7669 187.177 54.5402C186.819 54.1501 186.474 53.7238 186.22 53.309C185.96 52.8828 185.832 52.5259 185.832 52.2614V50.9095L184.953 51.936L183.957 53.0983L183.4 51.0564L183.266 50.5628L182.775 50.7086L174.173 53.2666L175.016 52.002L175.626 51.0866L174.535 51.2289L169.614 51.871L171.231 49.8943L170.62 49.1305L170.844 49.5777C170.62 49.1305 170.62 49.1306 170.62 49.1306L170.62 49.1308L170.618 49.1314L170.614 49.1336L170.598 49.1418L170.537 49.1728C170.484 49.2 170.407 49.2398 170.31 49.2914C170.115 49.3945 169.837 49.5447 169.503 49.734C168.836 50.1122 167.941 50.6489 167.036 51.2812C166.133 51.9114 165.204 52.6473 164.479 53.4259C163.766 54.1905 163.184 55.0652 163.101 55.9734C162.98 57.3098 162.11 58.8944 161.21 60.1957C160.767 60.8348 160.332 61.3848 160.008 61.7751C159.977 61.8121 159.947 61.8477 159.919 61.8817L158.708 59.8638C158.706 59.8509 158.703 59.8365 158.701 59.8206C158.685 59.7351 158.664 59.6076 158.639 59.443C158.59 59.1138 158.527 58.6366 158.476 58.0506C158.373 56.877 158.316 55.2751 158.496 53.5547C158.858 50.0935 160.163 46.2827 163.829 44.386Z" fill="black" stroke="black"/>
<path d="M206.589 277.26C223.355 277.26 236.947 257.912 236.947 234.044C236.947 210.177 223.355 190.829 206.589 190.829C189.823 190.829 176.232 210.177 176.232 234.044C176.232 257.912 189.823 277.26 206.589 277.26Z" fill="#3F3D56"/>
<path opacity="0.1" d="M206.589 277.26C223.355 277.26 236.947 257.912 236.947 234.044C236.947 210.177 223.355 190.829 206.589 190.829C189.823 190.829 176.232 210.177 176.232 234.044C176.232 257.912 189.823 277.26 206.589 277.26Z" fill="black"/>
<path d="M210.682 277.26C227.448 277.26 241.04 257.912 241.04 234.044C241.04 210.177 227.448 190.829 210.682 190.829C193.916 190.829 180.325 210.177 180.325 234.044C180.325 257.912 193.916 277.26 210.682 277.26Z" fill="#3F3D56"/>
<path opacity="0.1" d="M210.682 271.109C225.062 271.109 236.719 254.515 236.719 234.044C236.719 213.574 225.062 196.98 210.682 196.98C196.303 196.98 184.646 213.574 184.646 234.044C184.646 254.515 196.303 271.109 210.682 271.109Z" fill="black"/>
<path d="M210.457 251.898V247.547C208.258 247.504 205.983 246.729 204.656 245.652L205.566 242.766C207.143 243.948 209.055 244.596 211.026 244.618C213.717 244.618 215.537 242.852 215.537 240.396C215.537 238.027 214.058 236.562 211.253 235.27C207.386 233.547 204.998 231.565 204.998 227.817C204.998 224.242 207.234 221.528 210.722 220.882V216.531H213.073V220.71C214.825 220.734 216.535 221.256 218.001 222.217L217.053 225.06C215.647 224.098 213.981 223.587 212.277 223.596C209.358 223.596 208.258 225.577 208.258 227.3C208.258 229.541 209.661 230.661 212.959 232.212C216.864 234.021 218.835 236.261 218.835 240.095C218.835 243.498 216.75 246.686 212.845 247.418V251.898H210.457Z" fill="white"/>
<path d="M217.163 123.505V142.155C217.163 142.155 217.618 164.9 209.887 179.002L205.793 188.1C205.793 188.1 197.607 214.484 192.604 206.296C187.602 198.108 198.062 184.461 198.062 184.461L203.982 149.834L200.336 126.689L217.163 123.505Z" fill="#A0616A"/>
<path d="M201.7 92.1166L210.569 93.2539C210.569 93.2539 221.256 125.779 218.528 127.144C215.799 128.508 198.062 129.418 198.062 129.418L201.7 92.1166Z" fill="black"/>
<path d="M477 58H269V256H477V58Z" fill="#F2F2F2"/>
<path d="M306.985 198.706H301.527V197.796H306.985V198.706ZM296.07 198.706H290.612V197.796H296.07V198.706ZM285.155 198.706H279.697V197.796H285.155V198.706ZM274.24 198.706H268.782V197.796H274.24V198.706Z" fill="#E6E6E6"/>
<path d="M383.39 155.575H377.932V154.665H383.39V155.575ZM372.475 155.575H367.017V154.665H372.475V155.575ZM361.56 155.575H356.102V154.665H361.56V155.575ZM350.645 155.575H345.187V154.665H350.645V155.575ZM339.73 155.575H334.272V154.665H339.73V155.575ZM328.815 155.575H323.357V154.665H328.815V155.575ZM317.9 155.575H312.442V154.665H317.9V155.575ZM306.985 155.575H301.527V154.665H306.985V155.575ZM296.07 155.575H290.612V154.665H296.07V155.575ZM285.155 155.575H279.697V154.665H285.155V155.575ZM274.24 155.575H268.782V154.665H274.24V155.575Z" fill="#E6E6E6"/>
<path d="M492.54 128.736H487.082V127.826H492.54V128.736ZM481.625 128.736H476.167V127.826H481.625V128.736ZM470.71 128.736H465.252V127.826H470.71V128.736ZM459.795 128.736H454.337V127.826H459.795V128.736ZM448.88 128.736H443.422V127.826H448.88V128.736ZM437.965 128.736H432.507V127.826H437.965V128.736ZM427.05 128.736H421.592V127.826H427.05V128.736ZM416.135 128.736H410.677V127.826H416.135V128.736ZM405.22 128.736H399.762V127.826H405.22V128.736ZM394.305 128.736H388.847V127.826H394.305V128.736ZM383.39 128.736H377.932V127.826H383.39V128.736ZM372.475 128.736H367.017V127.826H372.475V128.736ZM361.56 128.736H356.102V127.826H361.56V128.736ZM350.645 128.736H345.187V127.826H350.645V128.736ZM339.73 128.736H334.272V127.826H339.73V128.736ZM328.815 128.736H323.357V127.826H328.815V128.736ZM317.9 128.736H312.442V127.826H317.9V128.736ZM306.985 128.736H301.527V127.826H306.985V128.736ZM296.07 128.736H290.612V127.826H296.07V128.736ZM285.155 128.736H279.697V127.826H285.155V128.736ZM274.24 128.736H268.782V127.826H274.24V128.736Z" fill="#E6E6E6"/>
<path d="M310.168 0.352951H309.259V3.08233H310.168V0.352951Z" fill="#E6E6E6"/>
<path d="M310.168 207.069H309.259V201.701H310.168V207.069ZM310.168 196.332H309.259V190.964H310.168V196.332ZM310.168 185.596H309.259V180.228H310.168V185.596ZM310.168 174.86H309.259V169.492H310.168V174.86ZM310.168 164.124H309.259V158.756H310.168V164.124ZM310.168 153.388H309.259V148.02H310.168V153.388ZM310.168 142.652H309.259V137.284H310.168V142.652ZM310.168 131.916H309.259V126.548H310.168V131.916ZM310.168 121.179H309.259V115.812H310.168V121.179ZM310.168 110.444H309.259V105.075H310.168V110.444ZM310.168 99.7073H309.259V94.3394H310.168V99.7073ZM310.168 88.9712H309.259V83.6031H310.168V88.9712ZM310.168 78.2352H309.259V72.867H310.168V78.2352ZM310.168 67.4989H309.259V62.131H310.168V67.4989ZM310.168 56.7628H309.259V51.3947H310.168V56.7628ZM310.168 46.0268H309.259V40.6586H310.168V46.0268ZM310.168 35.2905H309.259V29.9226H310.168V35.2905ZM310.168 24.5544H309.259V19.1863H310.168V24.5544ZM310.168 13.8184H309.259V8.45024H310.168V13.8184Z" fill="#E6E6E6"/>
<path d="M310.168 212.437H309.259V215.166H310.168V212.437Z" fill="#E6E6E6"/>
<path d="M389.302 0.352951H388.392V3.08233H389.302V0.352951Z" fill="#E6E6E6"/>
<path d="M389.302 165.623H388.392V160.205H389.302V165.623ZM389.302 154.787H388.392V149.369H389.302V154.787ZM389.302 143.951H388.392V138.533H389.302V143.951ZM389.302 133.115H388.392V127.697H389.302V133.115ZM389.302 122.279H388.392V116.861H389.302V122.279ZM389.302 111.443H388.392V106.025H389.302V111.443ZM389.302 100.607H388.392V95.1887H389.302V100.607ZM389.302 89.7706H388.392V84.3527H389.302V89.7706ZM389.302 78.9346H388.392V73.5165H389.302V78.9346ZM389.302 68.0986H388.392V62.6805H389.302V68.0986ZM389.302 57.2626H388.392V51.8445H389.302V57.2626ZM389.302 46.4264H388.392V41.0085H389.302V46.4264ZM389.302 35.5903H388.392V30.1722H389.302V35.5903ZM389.302 24.7543H388.392V19.3362H389.302V24.7543ZM389.302 13.9183H388.392V8.5002H389.302V13.9183Z" fill="#E6E6E6"/>
<path d="M389.302 171.041H388.392V173.771H389.302V171.041Z" fill="#E6E6E6"/>
<path d="M268.782 256.107L343 222L438.5 161L497.088 112V256.107H268.782Z" fill="#0037FF"/>
<path d="M498 257H268V44H498V257ZM268.913 256.245H497.087V44.7553H268.913V256.245Z" fill="#3F3D56"/>
<path d="M342.912 228.827C346.178 228.827 348.825 226.18 348.825 222.914C348.825 219.648 346.178 217 342.912 217C339.647 217 337 219.648 337 222.914C337 226.18 339.647 228.827 342.912 228.827Z" fill="#3F3D56"/>
<path d="M438.912 167.827C442.178 167.827 444.825 165.18 444.825 161.914C444.825 158.648 442.178 156 438.912 156C435.647 156 433 158.648 433 161.914C433 165.18 435.647 167.827 438.912 167.827Z" fill="#3F3D56"/>
<path d="M443.724 108C441.079 108.768 437.53 109.361 434.902 109.151L438.331 111.429L277 230.911L277.541 231.643L438.872 112.16L440.05 116.105C440.616 113.53 442.219 110.308 443.724 108Z" fill="#3F3D56"/>
</svg>
