<svg  viewBox="0 0 419 409" fill="none" xmlns="http://www.w3.org/2000/svg">
<g clip-path="url(#clip0)">
<path d="M280.181 176.861L275.757 187.184L248.621 223.168C248.621 223.168 230.039 243.224 240.362 244.404C250.685 245.584 257.469 225.822 257.469 225.822L289.325 194.263L292.864 179.811L280.181 176.861Z" fill="#FFB9B9"/>
<path d="M293.749 134.979L289.473 136.176C289.473 136.176 270.275 187.175 272.045 193.368C273.815 199.562 281.778 207.231 285.318 206.641C288.857 206.051 293.749 134.979 293.749 134.979Z" fill="#0037FF"/>
<path d="M353.49 397.064C353.49 397.064 351.612 406.472 357.255 402.707C362.898 398.941 365.84 391.66 365.84 391.66L353.49 397.064Z" fill="#2F2E41"/>
<path d="M286.67 184.825C286.67 184.825 226.794 396.006 248.031 402.2C269.268 408.394 300.533 401.61 300.238 397.481C299.943 393.352 294.634 311.652 294.634 311.652C294.634 311.652 325.604 420.192 363.948 394.826C402.293 369.461 393.739 364.742 390.199 362.972C386.66 361.203 333.273 277.143 333.568 261.511C333.863 245.879 332.978 196.918 326.489 189.544L286.67 184.825Z" fill="black"/>
<path d="M418.75 409H55.3588V407.619H419L418.75 409Z" fill="#3F3D56"/>
<path d="M324.701 109.741C322.397 107.658 320.96 104.784 320.675 101.691C320.39 98.598 321.278 95.5107 323.162 93.0411C322.913 93.275 322.669 93.5178 322.435 93.7759C320.234 96.2133 319.092 99.4249 319.258 102.705C319.424 105.984 320.886 109.064 323.322 111.266C325.758 113.469 328.969 114.614 332.249 114.45C335.529 114.286 338.609 112.826 340.813 110.392C341.047 110.134 341.264 109.867 341.472 109.595C339.204 111.718 336.221 112.911 333.115 112.938C330.008 112.965 327.005 111.824 324.701 109.741Z" fill="#2F2E41"/>
<path d="M323.54 112.71C337.63 112.71 349.053 101.288 349.053 87.1977C349.053 73.1073 337.63 61.6848 323.54 61.6848C309.449 61.6848 298.026 73.1073 298.026 87.1977C298.026 101.288 309.449 112.71 323.54 112.71Z" fill="black"/>
<path d="M254.815 401.315C254.815 401.315 248.031 408.099 254.815 408.099C261.599 408.099 268.088 403.675 268.088 403.675L254.815 401.315Z" fill="#2F2E41"/>
<path d="M307.317 103.125C307.317 103.125 311.741 121.411 308.497 124.951C305.252 128.49 298.173 131.145 298.173 131.145L299.353 164.179C299.353 164.179 312.921 159.459 313.511 158.87C314.101 158.28 326.194 139.108 326.194 139.108L337.992 127.9C337.992 127.9 320 119.347 325.309 104.599C330.618 89.8522 307.317 103.125 307.317 103.125Z" fill="#FFB9B9"/>
<path d="M333.37 97.0281C334.727 88.6669 329.049 80.789 320.687 79.4321C312.326 78.0753 304.447 83.7534 303.091 92.1146C301.734 100.476 307.412 108.354 315.773 109.71C324.135 111.067 332.013 105.389 333.37 97.0281Z" fill="#FFB9B9"/>
<path d="M326.489 189.544C326.489 189.544 333.273 167.128 336.518 164.179C339.762 161.229 347.726 133.504 347.726 133.504C347.726 133.504 342.712 126.72 338.582 126.72C334.453 126.72 330.618 128.195 325.899 132.619C323.677 134.703 319.623 136.995 315.956 138.838C314.655 139.503 313.234 139.902 311.776 140.011C310.319 140.121 308.854 139.939 307.468 139.476C306.082 139.014 304.801 138.279 303.702 137.316C302.603 136.353 301.706 135.181 301.065 133.868C300.332 132.31 300.09 130.817 300.828 129.67C300.828 129.67 289.915 132.619 289.325 136.749C288.735 140.878 289.325 149.431 288.44 151.201C287.555 152.971 284.9 155.625 286.08 166.833C287.26 178.041 284.849 192.214 284.849 192.214C295.867 202.727 311.131 196.237 326.489 189.544Z" fill="#0037FF"/>
<path d="M318.083 89.7047C325.25 89.7047 331.061 85.7432 331.061 80.8563C331.061 75.9695 325.25 72.0079 318.083 72.0079C310.915 72.0079 305.105 75.9695 305.105 80.8563C305.105 85.7432 310.915 89.7047 318.083 89.7047Z" fill="black"/>
<path d="M340.205 80.2664C347.046 80.2664 352.593 74.7203 352.593 67.8787C352.593 61.0371 347.046 55.491 340.205 55.491C333.363 55.491 327.816 61.0371 327.816 67.8787C327.816 74.7203 333.363 80.2664 340.205 80.2664Z" fill="black"/>
<path d="M349.053 76.7271C345.947 76.7266 342.954 75.5591 340.668 73.4558C338.382 71.3525 336.97 68.4672 336.711 65.3716C336.683 65.7124 336.665 66.056 336.665 66.404C336.666 69.6882 337.97 72.8378 340.292 75.1604C342.614 77.483 345.764 78.7885 349.048 78.7899C352.332 78.7913 355.483 77.4884 357.807 75.1678C360.131 72.8472 361.438 69.6987 361.441 66.4145V66.404C361.441 66.056 361.423 65.7124 361.395 65.3716C361.137 68.4672 359.724 71.3526 357.438 73.4558C355.152 75.5591 352.16 76.7266 349.053 76.7271Z" fill="black"/>
<path d="M319.998 266.185H315.877L307.642 338.016L334.804 337.104L319.998 266.185Z" fill="#0037FF"/>
<path opacity="0.2" d="M319.998 266.185H315.877L307.642 338.016L334.804 337.104L319.998 266.185Z" fill="black"/>
<path d="M318.624 265.268L313.592 337.56L375.239 342.136L380.272 271.673L318.624 265.268Z" fill="#0037FF"/>
<path opacity="0.2" d="M339.38 272.591C339.887 272.591 340.298 272.18 340.298 271.673C340.298 271.167 339.887 270.756 339.38 270.756C338.873 270.756 338.462 271.167 338.462 271.673C338.462 272.18 338.873 272.591 339.38 272.591Z" fill="black"/>
<path opacity="0.2" d="M358.598 274.876C359.105 274.876 359.516 274.465 359.516 273.958C359.516 273.451 359.105 273.041 358.598 273.041C358.091 273.041 357.68 273.451 357.68 273.958C357.68 274.465 358.091 274.876 358.598 274.876Z" fill="black"/>
<path d="M358.826 273.965H358.37C358.37 273.769 358.693 254.469 347.609 252.69C345.425 252.342 343.64 252.836 342.305 254.159C337.728 258.697 339.621 271.515 339.64 271.642L339.19 271.711C339.108 271.173 337.247 258.533 341.988 253.836C343.431 252.399 345.356 251.861 347.685 252.235C359.155 254.07 358.832 273.769 358.826 273.965Z" fill="#3F3D56"/>
<path d="M348.611 174.207L347.136 190.724L350.086 240.275C350.086 240.275 356.87 265.345 346.546 264.755C336.223 264.165 340.057 238.505 340.057 238.505L335.338 180.991L348.611 174.207Z" fill="#FFB9B9"/>
<path d="M340.057 129.375L347.726 133.504C347.726 133.504 358.049 203.668 352.15 210.452C346.251 217.236 334.158 219.89 333.568 217.236C332.978 214.581 330.913 160.639 330.913 160.639L340.057 129.375Z" fill="#0037FF"/>
<path d="M41.7535 0H33.1517C32.8493 0 32.5592 0.120145 32.3453 0.334009C32.1315 0.547872 32.0113 0.837935 32.0113 1.14038V4.91583C32.0113 5.21828 32.1315 5.50834 32.3453 5.72221C32.5592 5.93607 32.8493 6.05622 33.1517 6.05622H34.5772V11.7131H40.3281V6.05622H41.7535C42.0559 6.05621 42.346 5.93607 42.5599 5.72221C42.7738 5.50834 42.8939 5.21828 42.8939 4.91583V1.14038C42.8939 0.837941 42.7738 0.547885 42.5599 0.334023C42.346 0.120161 42.056 1.00723e-05 41.7535 0Z" fill="#E6E6E6"/>
<path d="M50.3691 34.5529C45.1012 26.8446 42.4081 17.6669 42.6757 8.3344C42.6805 8.11906 42.6106 7.90872 42.4779 7.73906C42.3452 7.56941 42.1578 7.4509 41.9477 7.40369V5.77234H32.863V7.38102H32.7379C32.6155 7.38118 32.4943 7.40545 32.3812 7.45244C32.2682 7.49943 32.1655 7.56822 32.0791 7.65489C31.9926 7.74156 31.9241 7.8444 31.8774 7.95755C31.8307 8.07071 31.8068 8.19196 31.8069 8.31437C31.8069 8.337 31.8078 8.35961 31.8094 8.38221C32.5252 18.3585 30.1084 27.3051 24.5592 35.2219C24.2399 35.6769 24.0768 36.2232 24.0943 36.7787L25.0876 67.5051C25.1115 68.1904 25.3992 68.84 25.8906 69.3184C26.382 69.7967 27.0391 70.0668 27.7249 70.0723H48.2729C48.9665 70.0666 49.6305 69.7904 50.1234 69.3024C50.6163 68.8144 50.8992 68.1533 50.9117 67.4598L51.2945 37.627C51.3059 36.532 50.9831 35.4596 50.3691 34.5529Z" fill="#E6E6E6"/>
<path d="M47.1163 44.7592H29.2308C28.9661 44.7592 28.7045 44.8164 28.4639 44.927C28.2234 45.0376 28.0096 45.1988 27.8372 45.3998C27.6648 45.6007 27.5379 45.8365 27.4652 46.0911C27.3925 46.3456 27.3757 46.6129 27.4159 46.8746L30.1187 64.4419H45.6382L48.9211 46.9337C48.9708 46.6686 48.9615 46.3957 48.8938 46.1345C48.8261 45.8734 48.7016 45.6303 48.5293 45.4227C48.357 45.2151 48.141 45.048 47.8968 44.9333C47.6526 44.8186 47.3861 44.7592 47.1163 44.7592V44.7592Z" fill="white"/>
<path d="M137.508 92.0446H128.906C128.604 92.0446 128.314 92.1648 128.1 92.3786C127.886 92.5925 127.766 92.8825 127.766 93.185V96.9604C127.766 97.2629 127.886 97.5529 128.1 97.7668C128.314 97.9807 128.604 98.1008 128.906 98.1008H130.331V103.758H136.082V98.1008H137.508C137.81 98.1008 138.1 97.9807 138.314 97.7668C138.528 97.5529 138.648 97.2629 138.648 96.9604V93.185C138.648 92.8825 138.528 92.5925 138.314 92.3786C138.1 92.1648 137.81 92.0446 137.508 92.0446Z" fill="#E6E6E6"/>
<path d="M146.123 126.597C140.855 118.889 138.162 109.712 138.43 100.379C138.435 100.164 138.365 99.9533 138.232 99.7837C138.099 99.614 137.912 99.4955 137.702 99.4483V97.817H128.617V99.4256H128.492C128.37 99.4258 128.249 99.4501 128.136 99.4971C128.022 99.5441 127.92 99.6129 127.833 99.6995C127.747 99.7862 127.678 99.889 127.632 100.002C127.585 100.115 127.561 100.237 127.561 100.359C127.561 100.382 127.562 100.404 127.564 100.427C128.279 110.403 125.863 119.35 120.314 127.267C119.994 127.722 119.831 128.268 119.849 128.823L120.842 159.55C120.866 160.235 121.153 160.885 121.645 161.363C122.136 161.841 122.793 162.111 123.479 162.117H144.027C144.721 162.111 145.385 161.835 145.878 161.347C146.371 160.859 146.653 160.198 146.666 159.504L147.049 129.672C147.06 128.577 146.737 127.504 146.123 126.597Z" fill="#E6E6E6"/>
<path d="M142.871 136.804H124.985C124.72 136.804 124.459 136.861 124.218 136.972C123.978 137.082 123.764 137.244 123.592 137.444C123.419 137.645 123.292 137.881 123.22 138.136C123.147 138.39 123.13 138.658 123.17 138.919L125.873 156.487H141.393L144.675 138.978C144.725 138.713 144.716 138.44 144.648 138.179C144.58 137.918 144.456 137.675 144.284 137.467C144.111 137.26 143.895 137.093 143.651 136.978C143.407 136.863 143.14 136.804 142.871 136.804V136.804Z" fill="white"/>
<path d="M29.6606 222.169H25.5804C25.4369 222.169 25.2993 222.226 25.1979 222.327C25.0964 222.429 25.0394 222.566 25.0394 222.71V224.5C25.0394 224.644 25.0964 224.782 25.1979 224.883C25.2993 224.984 25.4369 225.041 25.5804 225.041H26.2565V227.725H28.9844V225.041H29.6606C29.8041 225.041 29.9416 224.984 30.0431 224.883C30.1445 224.782 30.2015 224.644 30.2015 224.5V222.71C30.2015 222.566 30.1445 222.429 30.0431 222.327C29.9416 222.226 29.8041 222.169 29.6606 222.169Z" fill="#E6E6E6"/>
<path d="M33.7473 238.559C31.2485 234.902 29.9711 230.549 30.098 226.122C30.1003 226.02 30.0671 225.92 30.0042 225.84C29.9412 225.759 29.8523 225.703 29.7526 225.681V224.907H25.4434V225.67H25.384C25.326 225.67 25.2685 225.681 25.2149 225.704C25.1612 225.726 25.1125 225.759 25.0715 225.8C25.0305 225.841 24.998 225.89 24.9759 225.943C24.9537 225.997 24.9424 226.054 24.9424 226.113C24.9424 226.123 24.9429 226.134 24.9437 226.145C25.3414 230.662 24.1227 235.174 21.5045 238.876C21.3531 239.092 21.2757 239.351 21.284 239.614L21.7552 254.189C21.7665 254.514 21.903 254.823 22.1361 255.05C22.3691 255.276 22.6809 255.405 23.0062 255.407H32.753C33.082 255.404 33.397 255.273 33.6308 255.042C33.8646 254.81 33.9988 254.497 34.0047 254.168L34.1863 240.017C34.1917 239.497 34.0386 238.989 33.7473 238.559Z" fill="#E6E6E6"/>
<path d="M32.3445 243.916H23.0444V248.566H32.3445V243.916Z" fill="white"/>
<path d="M48.654 222.169H44.5738C44.4304 222.169 44.2928 222.226 44.1913 222.327C44.0899 222.429 44.0329 222.566 44.0329 222.71V224.5C44.0329 224.644 44.0899 224.782 44.1913 224.883C44.2928 224.984 44.4304 225.041 44.5738 225.041H45.25V227.725H47.9779V225.041H48.6541C48.7975 225.041 48.9351 224.984 49.0366 224.883C49.138 224.782 49.195 224.644 49.195 224.5V222.71C49.195 222.639 49.181 222.568 49.1538 222.503C49.1267 222.437 49.0868 222.377 49.0366 222.327C48.9863 222.277 48.9267 222.237 48.8611 222.21C48.7954 222.183 48.7251 222.169 48.654 222.169Z" fill="#E6E6E6"/>
<path d="M52.7408 238.559C50.242 234.902 48.9645 230.549 49.0914 226.122C49.0937 226.02 49.0606 225.92 48.9976 225.84C48.9347 225.759 48.8458 225.703 48.7461 225.681V224.907H44.4369V225.67H44.3775C44.3194 225.67 44.2619 225.681 44.2083 225.704C44.1547 225.726 44.106 225.759 44.065 225.8C44.024 225.841 43.9915 225.89 43.9693 225.943C43.9472 225.997 43.9358 226.054 43.9359 226.113C43.9359 226.123 43.9363 226.134 43.9371 226.145C44.3348 230.662 43.1161 235.174 40.498 238.876C40.3465 239.092 40.2691 239.351 40.2775 239.614L40.7487 254.189C40.76 254.514 40.8964 254.823 41.1295 255.05C41.3626 255.276 41.6743 255.405 41.9996 255.407H51.7465C52.0755 255.404 52.3905 255.273 52.6243 255.042C52.8581 254.81 52.9922 254.497 52.9982 254.168L53.1798 240.017C53.1851 239.497 53.032 238.989 52.7408 238.559Z" fill="#E6E6E6"/>
<path d="M51.3381 243.916H42.038V248.566H51.3381V243.916Z" fill="white"/>
<path d="M67.6476 222.169H63.5673C63.4239 222.169 63.2863 222.226 63.1848 222.327C63.0834 222.429 63.0264 222.566 63.0264 222.71V224.5C63.0264 224.644 63.0834 224.782 63.1848 224.883C63.2863 224.984 63.4239 225.041 63.5673 225.041H64.2435V227.725H66.9714V225.041H67.6476C67.791 225.041 67.9286 224.984 68.0301 224.883C68.1315 224.782 68.1885 224.644 68.1885 224.5V222.71C68.1885 222.566 68.1315 222.429 68.0301 222.327C67.9286 222.226 67.791 222.169 67.6476 222.169Z" fill="#E6E6E6"/>
<path d="M71.7343 238.559C69.2354 234.902 67.958 230.549 68.0849 226.122C68.0872 226.02 68.054 225.92 67.9911 225.84C67.9281 225.759 67.8393 225.703 67.7396 225.681V224.907H63.4303V225.67H63.371C63.3129 225.67 63.2554 225.681 63.2018 225.704C63.1482 225.726 63.0995 225.759 63.0585 225.8C63.0175 225.841 62.985 225.89 62.9628 225.943C62.9407 225.997 62.9293 226.054 62.9294 226.113C62.9294 226.123 62.9298 226.134 62.9306 226.145C63.3283 230.662 62.1096 235.174 59.4915 238.876C59.34 239.092 59.2626 239.351 59.2709 239.614L59.7421 254.189C59.7534 254.514 59.8899 254.823 60.123 255.05C60.3561 255.276 60.6678 255.405 60.9931 255.407H70.74C71.069 255.404 71.3839 255.273 71.6177 255.042C71.8515 254.81 71.9857 254.497 71.9917 254.168L72.1733 240.017C72.1786 239.497 72.0255 238.989 71.7343 238.559Z" fill="#E6E6E6"/>
<path d="M70.3315 243.916H61.0314V248.566H70.3315V243.916Z" fill="white"/>
<path d="M122.565 186.56H113.963C113.66 186.56 113.37 186.68 113.156 186.894C112.943 187.108 112.822 187.398 112.822 187.701V191.476C112.822 191.778 112.943 192.069 113.156 192.282C113.37 192.496 113.66 192.616 113.963 192.616H115.388V198.273H121.139V192.616H122.565C122.714 192.616 122.863 192.587 123.001 192.53C123.139 192.472 123.265 192.388 123.371 192.282C123.477 192.177 123.561 192.051 123.618 191.912C123.676 191.774 123.705 191.626 123.705 191.476V187.701C123.705 187.398 123.585 187.108 123.371 186.894C123.157 186.68 122.867 186.56 122.565 186.56Z" fill="#E6E6E6"/>
<path d="M131.18 221.113C125.912 213.405 123.219 204.227 123.487 194.895C123.491 194.679 123.422 194.469 123.289 194.299C123.156 194.13 122.969 194.011 122.759 193.964V192.333H113.674V193.941H113.549C113.426 193.941 113.305 193.966 113.192 194.013C113.079 194.06 112.977 194.128 112.89 194.215C112.804 194.302 112.735 194.405 112.688 194.518C112.642 194.631 112.618 194.752 112.618 194.875C112.618 194.897 112.619 194.92 112.621 194.942C113.336 204.919 110.919 213.865 105.37 221.782C105.051 222.237 104.888 222.783 104.905 223.339L105.899 254.065C105.923 254.751 106.21 255.4 106.702 255.879C107.193 256.357 107.85 256.627 108.536 256.632H129.084C129.778 256.627 130.442 256.351 130.934 255.863C131.427 255.375 131.71 254.713 131.723 254.02L132.106 224.187C132.117 223.092 131.794 222.02 131.18 221.113Z" fill="#E6E6E6"/>
<path d="M127.927 231.319H110.042C109.777 231.319 109.516 231.377 109.275 231.487C109.034 231.598 108.821 231.759 108.648 231.96C108.476 232.161 108.349 232.397 108.276 232.651C108.204 232.906 108.187 233.173 108.227 233.435L110.93 251.002H126.449L129.732 233.494C129.782 233.229 129.773 232.956 129.705 232.695C129.637 232.434 129.513 232.191 129.34 231.983C129.168 231.775 128.952 231.608 128.708 231.493C128.464 231.379 128.197 231.319 127.927 231.319V231.319Z" fill="white"/>
<path d="M127.261 74.0278H75.9857C79.5705 54.6469 78.7457 31.2439 75.9857 6.07544H127.261C124.574 31.2439 123.771 54.647 127.261 74.0278Z" fill="#E6E6E6"/>
<path d="M101.932 50.5534C108.756 50.5534 114.287 45.0219 114.287 38.1984C114.287 31.375 108.756 25.8434 101.932 25.8434C95.1083 25.8434 89.5766 31.375 89.5766 38.1984C89.5766 45.0219 95.1083 50.5534 101.932 50.5534Z" fill="white"/>
<path d="M80.31 164.219H29.0352C32.62 144.838 31.7953 121.435 29.0352 96.2668H80.31C77.6234 121.435 76.8205 144.838 80.31 164.219Z" fill="#E6E6E6"/>
<path d="M54.9815 140.745C61.8052 140.745 67.3369 135.213 67.3369 128.39C67.3369 121.566 61.8052 116.035 54.9815 116.035C48.1578 116.035 42.6261 121.566 42.6261 128.39C42.6261 135.213 48.1578 140.745 54.9815 140.745Z" fill="white"/>
<path d="M156.296 78.3521H105.021C108.606 58.9712 107.781 35.5681 105.021 10.3997H156.296C153.609 35.5682 152.806 58.9713 156.296 78.3521Z" fill="#E6E6E6"/>
<path d="M130.967 54.8776C137.791 54.8776 143.323 49.3461 143.323 42.5226C143.323 35.6992 137.791 30.1677 130.967 30.1677C124.143 30.1677 118.612 35.6992 118.612 42.5226C118.612 49.3461 124.143 54.8776 130.967 54.8776Z" fill="white"/>
<path d="M156.296 75.2634H105.021C108.606 55.8825 107.781 32.4794 105.021 7.31097H156.296C153.609 32.4795 152.806 55.8825 156.296 75.2634Z" fill="#E6E6E6"/>
<path d="M130.967 51.7889C137.791 51.7889 143.323 46.2574 143.323 39.4339C143.323 32.6104 137.791 27.0789 130.967 27.0789C124.143 27.0789 118.612 32.6104 118.612 39.4339C118.612 46.2574 124.143 51.7889 130.967 51.7889Z" fill="white"/>
<path d="M156.296 78.3521H105.021C108.606 58.9712 107.781 35.5681 105.021 10.3997H156.296C153.609 35.5682 152.806 58.9713 156.296 78.3521Z" fill="#E6E6E6"/>
<path d="M130.967 54.8776C137.791 54.8776 143.323 49.3461 143.323 42.5226C143.323 35.6992 137.791 30.1677 130.967 30.1677C124.143 30.1677 118.612 35.6992 118.612 42.5226C118.612 49.3461 124.143 54.8776 130.967 54.8776Z" fill="white"/>
<path d="M168.033 70.3214H0V88.8539H168.033V70.3214Z" fill="#E6E6E6"/>
<path d="M168.033 162.366H0V180.898H168.033V162.366Z" fill="#E6E6E6"/>
<path d="M168.033 254.411H0V272.943H168.033V254.411Z" fill="#E6E6E6"/>
</g>
<defs>
<clipPath id="clip0">
<rect width="419" height="409" fill="white"/>
</clipPath>
</defs>
</svg>
