<svg viewBox="0 0 800 400" fill="none" xmlns="http://www.w3.org/2000/svg">
<rect width="800" height="400" fill="white"/>
<path d="M440.518 344.828H549.711V379.31C549.711 390.737 540.448 400 529.021 400H461.207C449.781 400 440.518 390.737 440.518 379.31V344.828Z" fill="black"/>
<path d="M248.566 344.828H357.759V379.31C357.759 390.737 348.496 400 337.069 400H269.256C257.829 400 248.566 390.737 248.566 379.31V344.828Z" fill="black"/>
<path d="M221 89.6552V331.035C221 346.27 233.351 358.621 248.586 358.621H550.862C566.098 358.621 578.448 346.27 578.448 331.035V27.5862C578.448 12.3508 566.098 0 550.862 0H248.586C233.351 0 221 12.3508 221 27.5862V89.6552Z" fill="black"/>
<path d="M530.173 282.758V296.552C530.15 304.16 523.988 310.322 516.379 310.345H281.897C274.288 310.322 268.126 304.16 268.104 296.552V62.0687C268.126 54.4605 274.288 48.2984 281.897 48.2756H516.379C523.988 48.2984 530.15 54.4605 530.173 62.0687V282.758Z" fill="#363434"/>
<path d="M471.482 201.862C470.184 206.263 468.427 210.517 466.241 214.551C459.169 228.211 448.038 239.342 434.379 246.414C432.364 247.512 430.292 248.502 428.172 249.379C426.034 250.276 423.827 251.034 421.689 251.724C407.008 256.358 391.253 256.334 376.586 251.655C372.184 250.356 367.931 248.6 363.896 246.414C350.237 239.342 339.105 228.211 332.034 214.551C330.935 212.537 329.945 210.465 329.068 208.345C328.172 206.207 327.413 204.069 326.724 201.862C322.09 187.181 322.114 171.425 326.793 156.758C328.091 152.357 329.848 148.104 332.034 144.069C339.105 130.41 350.237 119.278 363.896 112.207C365.91 111.108 367.982 110.118 370.103 109.241C372.241 108.345 374.448 107.586 376.586 106.896C391.267 102.262 407.022 102.286 421.689 106.965C426.091 108.264 430.344 110.021 434.379 112.207C448.038 119.278 459.169 130.41 466.241 144.069C467.34 146.083 468.33 148.155 469.206 150.276C470.103 152.414 470.862 154.551 471.551 156.758C476.185 171.439 476.161 187.195 471.482 201.862V201.862Z" fill="#BDC3C7"/>
<path d="M399.138 213.793C418.182 213.793 433.621 198.355 433.621 179.31C433.621 160.266 418.182 144.828 399.138 144.828C380.094 144.828 364.655 160.266 364.655 179.31C364.655 198.355 380.094 213.793 399.138 213.793Z" fill="black"/>
<path d="M399.193 220.69C378.425 220.713 360.857 205.339 358.127 184.751C355.396 164.164 368.348 144.742 388.403 139.35C408.459 133.958 429.404 144.267 437.365 163.448C442.662 176.21 441.239 190.773 433.573 202.268C425.907 213.764 413.01 220.674 399.193 220.69V220.69ZM399.137 151.724C386.989 151.738 376.28 159.697 372.764 171.326C369.247 182.954 373.752 195.514 383.857 202.257C393.962 209 407.289 208.339 416.677 200.629C426.065 192.919 429.304 179.975 424.655 168.752C420.395 158.421 410.311 151.692 399.137 151.724Z" fill="#95A5A5"/>
<path d="M537.069 75.8618H523.276C515.658 75.8618 509.483 82.0372 509.483 89.6549V131.034C509.483 138.652 515.658 144.827 523.276 144.827H537.069C544.687 144.827 550.862 138.652 550.862 131.034V89.6549C550.862 82.0372 544.687 75.8618 537.069 75.8618Z" fill="#BDC3C7"/>
<path d="M537.069 213.793H523.276C515.658 213.793 509.483 219.968 509.483 227.586V268.965C509.483 276.583 515.658 282.759 523.276 282.759H537.069C544.687 282.759 550.862 276.583 550.862 268.965V227.586C550.862 219.968 544.687 213.793 537.069 213.793Z" fill="#BDC3C7"/>
<path d="M434.38 246.414C432.365 247.512 430.293 248.502 428.173 249.379C426.035 250.276 423.828 251.034 421.69 251.724L416.518 239.31C415.051 235.787 416.719 231.742 420.242 230.276C423.765 228.809 427.81 230.477 429.276 234L434.38 246.414Z" fill="#95A5A5"/>
<path d="M378.034 128.345C377.201 128.685 376.313 128.872 375.414 128.896C372.611 128.89 370.084 127.205 369 124.62L363.896 112.207C365.911 111.108 367.983 110.118 370.103 109.241C372.241 108.345 374.448 107.586 376.586 106.896L381.759 119.31C382.466 121.002 382.472 122.905 381.773 124.601C381.074 126.296 379.729 127.643 378.034 128.345V128.345Z" fill="#95A5A5"/>
<path d="M344.448 209.448L332.034 214.552C330.936 212.537 329.946 210.465 329.069 208.345C328.172 206.207 327.414 204.069 326.724 201.862L339.138 196.69C342.661 195.223 346.706 196.89 348.172 200.414C349.639 203.937 347.971 207.982 344.448 209.448V209.448Z" fill="#95A5A5"/>
<path d="M471.551 156.758L459.137 161.931C458.304 162.271 457.416 162.458 456.517 162.482C453.175 162.56 450.259 160.23 449.597 156.954C448.935 153.678 450.718 150.398 453.827 149.172L466.241 144.069C467.34 146.083 468.33 148.155 469.206 150.276C470.103 152.413 470.862 154.551 471.551 156.758Z" fill="#95A5A5"/>
<path d="M471.482 201.862C470.184 206.263 468.427 210.517 466.241 214.552L453.827 209.448C450.304 207.982 448.637 203.937 450.103 200.414C451.57 196.89 455.614 195.223 459.138 196.69L471.482 201.862Z" fill="#95A5A5"/>
<path d="M348.172 158.207C347.088 160.792 344.562 162.476 341.758 162.482C340.859 162.458 339.971 162.271 339.138 161.931L326.793 156.758C328.092 152.357 329.848 148.104 332.034 144.069L344.448 149.172C346.142 149.873 347.488 151.221 348.186 152.916C348.885 154.611 348.88 156.515 348.172 158.207V158.207Z" fill="#95A5A5"/>
<path d="M381.759 239.31L376.586 251.655C372.185 250.356 367.931 248.6 363.896 246.414L369 234C370.466 230.477 374.511 228.809 378.034 230.276C381.558 231.742 383.225 235.787 381.759 239.31V239.31Z" fill="#95A5A5"/>
<path d="M434.379 112.207L429.276 124.621C428.192 127.205 425.665 128.89 422.862 128.896C421.962 128.872 421.074 128.685 420.241 128.345C418.547 127.643 417.202 126.296 416.503 124.601C415.804 122.906 415.809 121.002 416.517 119.31L421.689 106.965C426.091 108.264 430.344 110.021 434.379 112.207V112.207Z" fill="#95A5A5"/>
<path d="M295.69 117.241C291.881 117.241 288.793 114.154 288.793 110.345V75.8621C288.793 72.0533 291.881 68.9656 295.69 68.9656H330.172C333.981 68.9656 337.069 72.0533 337.069 75.8621C337.069 79.671 333.981 82.7587 330.172 82.7587H302.586V110.345C302.586 114.154 299.498 117.241 295.69 117.241Z" fill="white"/>
</svg>
