<svg viewBox="0 0 800 437" fill="none" xmlns="http://www.w3.org/2000/svg">
<rect fill="white"/>
<path d="M487.746 7.86602C477.944 3.80585 466.714 8.4575 462.654 18.2593C462.259 19.2135 461.949 20.1848 461.712 21.1578L456.904 41.0609L486.08 53.1458L496.754 35.6727C497.275 34.8166 497.743 33.911 498.138 32.9568C502.199 23.1559 497.547 11.9262 487.746 7.86602Z" fill="#FF4C50"/>
<path d="M487.232 38.7685C488.776 42.5581 488.875 46.9136 487.222 50.9038C486.905 51.6685 486.53 52.4188 486.08 53.1468L475.767 70.0396L459.11 76.9974L452.252 60.2993L456.905 41.0611C457.102 40.228 457.367 39.4326 457.684 38.6678C460.993 30.6798 470.275 26.6256 478.555 30.0558C482.694 31.7706 485.685 34.9866 487.232 38.7685Z" fill="#FF764C"/>
<path d="M313.252 7.86601C303.45 11.9262 298.799 23.1559 302.859 32.9576C303.254 33.9119 303.722 34.8174 304.242 35.6735L314.917 53.1467L344.093 41.0618L339.285 21.1586C339.048 20.1848 338.738 19.2143 338.343 18.2601C334.284 8.45749 323.054 3.80584 313.252 7.86601Z" fill="#FF4C50"/>
<path d="M334.74 30.0809C338.511 31.6693 341.662 34.6788 343.314 38.669C343.631 39.4337 343.896 40.2292 344.093 41.0622L348.746 60.3004L341.888 76.9986L325.231 70.0408L314.918 53.1471C314.468 52.4191 314.093 51.6688 313.776 50.9041C310.466 42.9161 314.164 33.4856 322.444 30.0562C326.583 28.3414 330.973 28.5002 334.74 30.0809Z" fill="#FF764C"/>
<path d="M189.867 131.251C185.807 141.053 190.459 152.283 200.26 156.343C201.215 156.738 202.186 157.048 203.159 157.285L223.062 162.093L235.147 132.917L217.674 122.242C216.818 121.722 215.912 121.254 214.958 120.859C205.157 116.798 193.927 121.45 189.867 131.251Z" fill="#FF4C50"/>
<path d="M220.77 131.765C224.56 130.221 228.915 130.122 232.905 131.775C233.67 132.092 234.42 132.467 235.148 132.917L252.041 143.231L258.999 159.887L242.301 166.745L223.063 162.093C222.229 161.895 221.434 161.631 220.669 161.313C212.681 158.004 208.627 148.722 212.057 140.442C213.772 136.303 216.988 133.312 220.77 131.765Z" fill="#FF764C"/>
<path d="M189.867 305.744C193.927 315.546 205.157 320.197 214.959 316.137C215.913 315.742 216.819 315.274 217.675 314.754L235.148 304.08L223.063 274.903L203.16 279.711C202.186 279.948 201.216 280.258 200.261 280.653C190.459 284.713 185.807 295.942 189.867 305.744Z" fill="#FF4C50"/>
<path d="M212.082 284.256C213.671 280.485 216.68 277.335 220.67 275.682C221.435 275.366 222.23 275.1 223.063 274.903L242.302 270.25L259 277.108L252.042 293.765L235.148 304.08C234.42 304.529 233.67 304.904 232.905 305.222C224.917 308.531 215.487 304.833 212.057 296.553C210.343 292.413 210.501 288.023 212.082 284.256Z" fill="#FF764C"/>
<path d="M313.252 429.129C323.054 433.189 334.284 428.538 338.344 418.736C338.739 417.782 339.049 416.81 339.286 415.837L344.094 395.934L314.918 383.849L304.243 401.323C303.723 402.179 303.255 403.084 302.86 404.038C298.799 413.839 303.451 425.069 313.252 429.129Z" fill="#FF4C50"/>
<path d="M313.765 398.226C312.221 394.437 312.122 390.081 313.776 386.091C314.092 385.326 314.468 384.576 314.918 383.848L325.231 366.955L341.888 359.998L348.746 376.696L344.093 395.934C343.896 396.767 343.632 397.562 343.314 398.327C340.005 406.315 330.723 410.369 322.443 406.939C318.304 405.224 315.313 402.008 313.765 398.226Z" fill="#FF764C"/>
<path d="M487.745 429.129C497.547 425.069 502.199 413.839 498.138 404.037C497.743 403.083 497.276 402.178 496.755 401.322L486.081 383.848L456.904 395.933L461.712 415.836C461.949 416.81 462.259 417.781 462.654 418.735C466.714 428.538 477.943 433.189 487.745 429.129Z" fill="#FF4C50"/>
<path d="M466.257 406.914C462.486 405.326 459.336 402.316 457.683 398.326C457.367 397.561 457.101 396.766 456.904 395.933L452.251 376.695L459.109 359.997L475.766 366.954L486.08 383.847C486.529 384.575 486.904 385.325 487.222 386.09C490.531 394.078 486.833 403.509 478.553 406.938C474.414 408.654 470.024 408.495 466.257 406.914Z" fill="#FF764C"/>
<path d="M611.13 305.744C615.191 295.942 610.539 284.712 600.737 280.652C599.783 280.257 598.812 279.947 597.839 279.71L577.936 274.902L565.851 304.079L583.324 314.753C584.18 315.273 585.085 315.741 586.04 316.136C595.841 320.197 607.07 315.546 611.13 305.744Z" fill="#FF4C50"/>
<path d="M580.227 305.231C576.438 306.775 572.082 306.874 568.092 305.221C567.327 304.904 566.577 304.528 565.849 304.079L548.956 293.765L541.999 277.108L558.697 270.25L577.935 274.903C578.768 275.1 579.563 275.365 580.328 275.682C588.316 278.991 592.37 288.273 588.94 296.553C587.225 300.693 584.009 303.684 580.227 305.231Z" fill="#FF764C"/>
<path d="M611.13 131.251C607.07 121.449 595.84 116.798 586.039 120.858C585.084 121.253 584.179 121.721 583.323 122.241L565.85 132.916L577.935 162.092L597.838 157.284C598.811 157.047 599.782 156.737 600.736 156.342C610.539 152.283 615.19 141.053 611.13 131.251Z" fill="#FF4C50"/>
<path d="M588.916 152.74C587.327 156.51 584.318 159.661 580.328 161.313C579.563 161.63 578.767 161.895 577.934 162.092L558.696 166.745L541.998 159.887L548.956 143.231L565.849 132.917C566.577 132.467 567.327 132.092 568.092 131.775C576.08 128.466 585.51 132.163 588.94 140.443C590.655 144.583 590.496 148.972 588.916 152.74Z" fill="#FF764C"/>
<path d="M344.935 117.633L368.594 107.826L393.299 167.428L369.64 177.235L344.935 117.633Z" fill="#FF4C50"/>
<path d="M289.936 186.568L299.743 162.908L359.345 187.613L349.538 211.273L289.936 186.568Z" fill="#FF4C50"/>
<path d="M289.965 250.455L349.566 225.75L359.373 249.41L299.772 274.115L289.965 250.455Z" fill="#FF4C50"/>
<path d="M344.962 319.391L369.667 259.79L393.327 269.597L368.622 329.198L344.962 319.391Z" fill="#FF4C50"/>
<path d="M407.889 269.484L431.549 259.677L456.254 319.278L432.594 329.085L407.889 269.484Z" fill="#FF4C50"/>
<path d="M441.844 249.468L451.651 225.808L511.253 250.513L501.446 274.173L441.844 249.468Z" fill="#FF4C50"/>
<path d="M441.815 187.5L501.417 162.795L511.224 186.455L451.622 211.16L441.815 187.5Z" fill="#FF4C50"/>
<path d="M407.862 167.483L432.567 107.882L456.227 117.689L431.522 177.29L407.862 167.483Z" fill="#FF4C50"/>
<path d="M400.499 282.513C435.853 282.513 464.514 253.853 464.514 218.499C464.514 183.144 435.853 154.484 400.499 154.484C365.145 154.484 336.484 183.144 336.484 218.499C336.484 253.853 365.145 282.513 400.499 282.513Z" fill="#FFD17E"/>
<path d="M400.5 180.09V256.907C421.712 256.907 438.908 239.711 438.908 218.498C438.908 197.286 421.711 180.09 400.5 180.09Z" fill="#FF764C"/>
<path d="M413.303 218.498C413.303 197.286 407.57 180.09 400.5 180.09C379.287 180.09 362.091 197.286 362.091 218.498C362.091 239.711 379.287 256.907 400.5 256.907C407.57 256.907 413.303 239.71 413.303 218.498Z" fill="#FF9A42"/>
<path d="M400.499 52.0596C308.577 52.0596 234.061 126.576 234.061 218.498C234.061 310.42 308.577 384.936 400.499 384.936C492.421 384.936 566.937 310.419 566.937 218.498C566.937 126.577 492.421 52.0596 400.499 52.0596ZM400.499 333.724C336.861 333.724 285.272 282.135 285.272 218.498C285.272 154.86 336.861 103.271 400.499 103.271C464.137 103.271 515.725 154.86 515.725 218.498C515.725 282.136 464.137 333.724 400.499 333.724Z" fill="#FF9A42"/>
<path d="M400.499 90.4683C329.79 90.4683 272.469 147.789 272.469 218.498C272.469 289.207 329.79 346.527 400.499 346.527C471.208 346.527 528.528 289.207 528.528 218.498C528.528 147.789 471.208 90.4683 400.499 90.4683ZM400.499 320.921C343.932 320.921 298.075 275.065 298.075 218.498C298.075 161.931 343.932 116.074 400.499 116.074C457.066 116.074 502.922 161.931 502.922 218.498C502.922 275.065 457.066 320.921 400.499 320.921Z" fill="#FFD17E"/>
<path d="M400.499 327.323C460.505 327.323 509.324 278.505 509.324 218.498C509.324 158.492 460.505 109.673 400.499 109.673C340.492 109.673 291.674 158.492 291.674 218.498C291.674 278.505 340.493 327.323 400.499 327.323ZM304.477 218.498C304.477 212.255 305.083 206.15 306.227 200.236L330.576 210.322C330.264 213.007 330.086 215.731 330.086 218.498C330.086 221.266 330.264 223.99 330.576 226.675L306.227 236.761C305.084 230.846 304.477 224.742 304.477 218.498ZM367.76 156.188L357.927 132.447C361.732 130.557 365.677 128.905 369.747 127.526L379.577 151.258C375.461 152.542 371.515 154.207 367.76 156.188ZM400.499 160.889C432.266 160.889 458.109 186.732 458.109 218.498C458.109 250.265 432.266 276.108 400.499 276.108C368.732 276.108 342.889 250.265 342.889 218.498C342.889 186.732 368.733 160.889 400.499 160.889ZM421.421 151.259L431.252 127.527C435.321 128.906 439.266 130.558 443.071 132.448L433.238 156.188C429.483 154.207 425.537 152.542 421.421 151.259ZM496.521 218.498C496.521 224.742 495.915 230.846 494.771 236.761L470.422 226.675C470.734 223.99 470.912 221.266 470.912 218.498C470.912 215.731 470.734 213.007 470.422 210.322L494.771 200.235C495.915 206.15 496.521 212.255 496.521 218.498ZM467.739 239.421L491.471 249.251C490.092 253.321 488.441 257.266 486.55 261.072L462.81 251.237C464.79 247.483 466.455 243.536 467.739 239.421ZM467.739 197.576C466.456 193.46 464.791 189.514 462.81 185.76L486.55 175.926C488.441 179.732 490.092 183.676 491.471 187.747L467.739 197.576ZM433.239 280.809L443.072 304.55C439.266 306.44 435.321 308.092 431.252 309.471L421.421 285.739C425.537 284.455 429.483 282.79 433.239 280.809ZM379.577 285.738L369.747 309.47C365.677 308.091 361.732 306.439 357.927 304.549L367.761 280.809C371.516 282.79 375.461 284.455 379.577 285.738ZM338.189 251.237L314.449 261.071C312.558 257.265 310.906 253.321 309.527 249.25L333.26 239.42C334.543 243.536 336.208 247.483 338.189 251.237ZM333.26 197.576L309.527 187.746C310.906 183.676 312.558 179.731 314.449 175.925L338.189 185.76C336.208 189.514 334.543 193.46 333.26 197.576ZM320.958 272.232L345.309 262.145C348.7 266.424 352.574 270.298 356.853 273.689L346.766 298.04C336.611 291.159 327.839 282.386 320.958 272.232ZM382.237 312.771L392.322 288.421C395.007 288.734 397.732 288.911 400.499 288.911C403.266 288.911 405.991 288.733 408.676 288.421L418.762 312.771C412.847 313.914 406.743 314.52 400.5 314.52C394.255 314.52 388.152 313.914 382.237 312.771ZM454.234 298.041L444.147 273.69C448.425 270.299 452.3 266.425 455.691 262.146L480.041 272.233C473.16 282.386 464.387 291.159 454.234 298.041ZM480.041 164.764L455.69 174.851C452.299 170.573 448.425 166.699 444.146 163.307L454.233 138.957C464.387 145.838 473.16 154.61 480.041 164.764ZM418.762 124.226L408.677 148.576C405.991 148.263 403.267 148.086 400.5 148.086C397.733 148.086 395.007 148.264 392.323 148.576L382.237 124.226C388.152 123.082 394.255 122.476 400.499 122.476C406.743 122.476 412.847 123.082 418.762 124.226ZM346.765 138.956L356.852 163.307C352.573 166.698 348.699 170.572 345.308 174.851L320.958 164.764C327.839 154.611 336.611 145.837 346.765 138.956Z" fill="black"/>
<path d="M266.068 218.498C266.068 292.624 326.373 352.929 400.499 352.929C474.624 352.929 534.93 292.624 534.93 218.498C534.93 144.373 474.624 84.0674 400.499 84.0674C326.373 84.0674 266.068 144.373 266.068 218.498ZM400.499 96.8703C467.565 96.8703 522.127 151.432 522.127 218.498C522.127 285.564 467.565 340.126 400.499 340.126C333.433 340.126 278.871 285.564 278.871 218.498C278.871 151.432 333.433 96.8703 400.499 96.8703Z" fill="black"/>
<path d="M603.187 274.738C601.943 274.223 600.643 273.803 599.339 273.491L566.807 265.626C571.06 250.639 573.338 234.83 573.338 218.498C573.338 202.167 571.06 186.358 566.807 171.371L599.322 163.51C600.645 163.194 601.946 162.772 603.191 162.256C616.234 156.854 622.45 141.845 617.048 128.801C614.431 122.482 609.508 117.561 603.191 114.943C596.871 112.326 589.911 112.325 583.593 114.944C582.352 115.458 581.135 116.079 579.986 116.783L551.369 134.257C535.741 106.38 512.617 83.2558 484.74 67.6285L502.206 39.0233C502.918 37.8634 503.54 36.6463 504.054 35.4052C509.456 22.3616 503.24 7.35311 490.196 1.94941C477.151 -3.45428 462.142 2.76368 456.739 15.8116C456.223 17.056 455.803 18.356 455.492 19.6593L447.626 52.1916C432.639 47.9384 416.83 45.6604 400.499 45.6604C384.32 45.6604 368.555 47.8326 353.358 52.1412L345.51 19.6764C345.194 18.3534 344.773 17.0526 344.256 15.8082C338.855 2.76454 323.846 -3.45257 310.801 1.95112C297.757 7.35482 291.54 22.3624 296.944 35.4061C297.458 36.6471 298.079 37.8642 298.783 39.0131L318 78.1551C318.781 79.434 317.797 80.5808 319.5 80C321.518 78.8471 326.478 76.5688 328.121 75.7328C335.222 72.1241 342.504 69.0761 349.94 66.5932C350.043 66.5744 350.147 66.5514 350.25 66.5266C350.696 66.4191 351.12 66.2663 351.517 66.0768C367.221 61.0171 383.613 58.4642 400.499 58.4642C488.743 58.4642 560.535 130.256 560.535 218.501C560.535 306.746 488.743 378.538 400.499 378.538C312.254 378.538 240.462 306.746 240.462 218.501C240.462 167.171 265.371 118.589 307.094 88.5443C308.775 87.334 316 82 319.5 80C321.44 78.3496 318.856 79.3433 318 78.1551C315.934 75.2872 351.791 45.6604 299.612 78.1551C279.113 92.916 261.893 112.232 249.573 134.225L221.023 116.79C219.863 116.078 218.646 115.456 217.405 114.942C204.363 109.541 189.353 115.757 183.949 128.8C178.547 141.845 184.763 156.853 197.811 162.258C199.055 162.773 200.355 163.193 201.659 163.505L234.209 171.374C229.895 186.652 227.66 202.544 227.66 218.498C227.66 234.829 229.938 250.638 234.191 265.625L201.676 273.486C200.353 273.802 199.052 274.224 197.808 274.74C184.763 280.144 178.546 295.151 183.95 308.197C186.567 314.515 191.489 319.437 197.807 322.055C200.966 323.363 204.286 324.018 207.605 324.018C210.925 324.018 214.245 323.363 217.404 322.054C218.645 321.54 219.862 320.919 221.011 320.214L249.628 302.741C265.255 330.617 288.38 353.742 316.256 369.369L298.79 397.974C298.078 399.134 297.456 400.351 296.942 401.593C291.54 414.636 297.757 429.645 310.8 435.048C313.994 436.371 317.305 436.997 320.565 436.997C330.618 436.997 340.177 431.039 344.258 421.186C344.773 419.942 345.193 418.642 345.505 417.338L353.37 384.806C368.357 389.059 384.166 391.337 400.498 391.337C416.829 391.337 432.638 389.059 447.625 384.806L455.486 417.321C455.802 418.644 456.224 419.945 456.74 421.19C460.819 431.04 470.376 436.998 480.43 436.997C483.689 436.997 487.002 436.37 490.195 435.047C496.514 432.431 501.435 427.508 504.053 421.19C506.67 414.872 506.67 407.911 504.052 401.593C503.538 400.351 502.917 399.134 502.213 397.986L484.739 369.368C512.616 353.741 535.74 330.616 551.368 302.74L579.973 320.206C581.133 320.918 582.35 321.54 583.591 322.054C586.785 323.377 590.096 324.002 593.355 324.002C603.407 324.002 612.966 318.046 617.047 308.195C622.451 295.151 616.235 280.144 603.187 274.738ZM327.652 61.7195L309.704 32.3265C309.343 31.7385 309.029 31.1248 308.771 30.5034C306.07 23.9816 309.179 16.4773 315.7 13.7759C317.28 13.1204 318.94 12.7944 320.6 12.7944C322.259 12.7944 323.92 13.1221 325.499 13.7759C328.659 15.0844 331.119 17.5451 332.428 20.704C332.686 21.3262 332.897 21.9809 333.06 22.6654L341.146 56.105C336.591 57.7779 332.089 59.6497 327.652 61.7195ZM467.941 22.6501C468.101 21.9818 468.312 21.3262 468.568 20.7057C471.27 14.1831 478.773 11.0779 485.298 13.7768C491.819 16.479 494.927 23.9833 492.227 30.5051C491.969 31.1265 491.656 31.7393 491.287 32.3393L473.317 61.7708C468.919 59.7197 464.428 57.8368 459.84 56.1554L467.941 22.6501ZM204.65 151.056C203.982 150.896 203.326 150.685 202.706 150.429C196.184 147.726 193.076 140.222 195.777 133.699C198.478 127.177 205.982 124.072 212.505 126.77C213.127 127.028 213.739 127.341 214.34 127.71L243.741 145.662C241.69 150.078 239.828 154.581 238.16 159.158L204.65 151.056ZM214.328 309.294C213.739 309.655 213.126 309.969 212.504 310.226C209.344 311.535 205.865 311.535 202.706 310.226C199.547 308.918 197.086 306.456 195.778 303.297C194.468 300.139 194.469 296.658 195.778 293.499C197.086 290.339 199.547 287.878 202.706 286.57C203.328 286.312 203.983 286.101 204.667 285.938L238.156 277.841C239.838 282.429 241.72 286.92 243.771 291.317L214.328 309.294ZM333.057 414.347C332.897 415.015 332.686 415.671 332.43 416.291C329.728 422.814 322.225 425.92 315.7 423.22C309.179 420.518 306.071 413.014 308.771 406.492C309.029 405.87 309.343 405.258 309.711 404.658L327.681 375.226C332.079 377.277 336.57 379.159 341.158 380.841L333.057 414.347ZM491.295 404.669C491.656 405.258 491.969 405.871 492.227 406.493C493.535 409.652 493.535 413.131 492.227 416.291C490.918 419.45 488.457 421.911 485.298 423.219C482.14 424.528 478.659 424.528 475.499 423.219C472.339 421.911 469.879 419.45 468.57 416.291C468.312 415.669 468.101 415.014 467.938 414.33L459.841 380.841C464.429 379.159 468.92 377.277 473.317 375.226L491.295 404.669ZM586.671 127.703C587.259 127.341 587.872 127.028 588.494 126.77C591.654 125.462 595.133 125.462 598.292 126.77C601.451 128.079 603.912 130.54 605.22 133.699C606.53 136.858 606.529 140.339 605.22 143.498C603.912 146.658 601.451 149.118 598.292 150.427C597.67 150.685 597.015 150.896 596.331 151.059L562.842 159.156C561.16 154.568 559.278 150.077 557.227 145.68L586.671 127.703ZM605.221 303.297C602.52 309.819 595.018 312.925 588.493 310.226C587.871 309.968 587.259 309.655 586.659 309.286L557.227 291.315C559.278 286.917 561.16 282.426 562.842 277.838L596.347 285.939C597.015 286.099 597.671 286.311 598.291 286.567C604.813 289.271 607.922 296.775 605.221 303.297Z" fill="black"/>
<path d="M400.499 263.309C425.207 263.309 445.309 243.207 445.309 218.499C445.309 193.791 425.207 173.688 400.499 173.688C375.791 173.688 355.688 193.791 355.688 218.499C355.688 243.207 375.791 263.309 400.499 263.309ZM400.499 186.491C418.148 186.491 432.506 200.849 432.506 218.499C432.506 236.148 418.148 250.506 400.499 250.506C382.849 250.506 368.491 236.148 368.491 218.499C368.491 200.849 382.85 186.491 400.499 186.491Z" fill="black"/>
</svg>
