<svg viewBox="0 0 704 556" fill="none" xmlns="http://www.w3.org/2000/svg">
<path d="M181.69 206.977C180.977 206.977 180.293 207.223 179.789 207.659C179.284 208.095 179.001 208.687 179 209.304V288.673C179.001 289.29 179.284 289.882 179.789 290.317C180.293 290.754 180.977 290.999 181.69 291H494.497C495.211 290.999 495.894 290.754 496.399 290.317C496.903 289.882 497.186 289.29 497.187 288.673V209.304C497.186 208.687 496.903 208.095 496.399 207.659C495.894 207.223 495.211 206.977 494.497 206.977H181.69Z" fill="#E6E6E6"/>
<path d="M184.51 285.49H491.677V212.486H184.51V285.49Z" fill="white"/>
<path d="M467.343 275.848C466.491 275.848 465.673 276.138 465.07 276.655C464.467 277.172 464.129 277.872 464.129 278.603C464.129 279.334 464.467 280.034 465.07 280.551C465.673 281.068 466.491 281.358 467.343 281.358H480.198C481.051 281.358 481.868 281.068 482.472 280.551C483.074 280.034 483.413 279.334 483.413 278.603C483.413 277.872 483.074 277.172 482.472 276.655C481.868 276.138 481.051 275.848 480.198 275.848H467.341H467.343Z" fill="#0037FF"/>
<path d="M216.141 266.793C226.397 266.793 234.711 258.755 234.711 248.839C234.711 238.924 226.397 230.886 216.141 230.886C205.885 230.886 197.57 238.924 197.57 248.839C197.57 258.755 205.885 266.793 216.141 266.793Z" fill="#0037FF"/>
<path d="M210.685 248.793H212.95V251.754C212.583 251.874 212.237 251.957 211.911 252.004C211.588 252.053 211.258 252.078 210.919 252.078C210.057 252.078 209.398 251.826 208.942 251.32C208.489 250.812 208.263 250.085 208.263 249.137C208.263 248.215 208.526 247.496 209.052 246.98C209.581 246.465 210.312 246.207 211.247 246.207C211.833 246.207 212.398 246.324 212.942 246.559L212.54 247.527C212.123 247.319 211.69 247.215 211.239 247.215C210.716 247.215 210.297 247.391 209.982 247.742C209.666 248.094 209.509 248.566 209.509 249.16C209.509 249.78 209.635 250.254 209.888 250.582C210.143 250.908 210.513 251.07 210.997 251.07C211.25 251.07 211.506 251.044 211.767 250.992V249.801H210.685V248.793ZM215.525 248.824H215.915C216.298 248.824 216.581 248.76 216.763 248.633C216.945 248.505 217.036 248.305 217.036 248.031C217.036 247.76 216.942 247.568 216.755 247.453C216.57 247.339 216.282 247.281 215.892 247.281H215.525V248.824ZM215.525 249.809V252H214.314V246.289H215.978C216.754 246.289 217.328 246.431 217.7 246.715C218.073 246.996 218.259 247.424 218.259 248C218.259 248.336 218.166 248.635 217.982 248.898C217.797 249.159 217.535 249.363 217.196 249.512C218.056 250.796 218.616 251.625 218.876 252H217.532L216.169 249.809H215.525ZM224.333 249.09C224.333 250.03 224.065 250.75 223.528 251.25C222.995 251.75 222.222 252 221.212 252H219.595V246.289H221.388C222.32 246.289 223.044 246.535 223.56 247.027C224.075 247.52 224.333 248.207 224.333 249.09ZM223.075 249.121C223.075 247.895 222.534 247.281 221.45 247.281H220.806V251H221.325C222.492 251 223.075 250.374 223.075 249.121Z" fill="white"/>
<path d="M236.852 274.471L245.072 272.253L252.814 267.47H260.557L267.525 270.045C267.525 270.045 274.493 264.894 275.654 265.262C276.816 265.63 284.945 270.781 287.655 270.045C290.365 269.309 295.785 266.366 295.785 266.366C295.785 266.366 299.656 261.215 301.204 260.479C302.753 259.743 307.011 260.479 307.011 260.479C307.011 260.479 313.592 263.79 314.754 263.79C315.915 263.79 319.786 258.639 319.786 258.639L323.657 256.799H329.464C329.464 256.799 333.723 260.479 335.658 260.479C337.594 260.479 345.336 260.479 345.336 260.479L353.466 256.799L358.111 251.648H366.241L373.209 249.073L380.951 250.176C380.951 250.176 386.371 254.224 387.92 253.856C389.468 253.488 391.791 250.912 391.791 250.912L397.985 249.073L401.856 246.129L403.792 242.081L407.276 238.034L414.244 235.459L421.212 236.562L428.567 233.987L431.664 230.307H435.536L438.245 228.1L445.214 227.364C445.214 227.364 451.02 229.939 451.795 229.571C452.569 229.203 454.117 225.892 454.117 225.892L459.15 222.948L473.771 220.751" stroke="black"/>
<path d="M466.066 148.118H243.996V149.614H466.066V148.118Z" fill="#E6E6E6"/>
<path d="M181.695 103.234C180.98 103.235 180.295 103.481 179.79 103.92C179.285 104.359 179.001 104.954 179 105.575V185.425C179.001 186.046 179.285 186.641 179.79 187.079C180.295 187.518 180.98 187.765 181.695 187.766H495.096C495.811 187.765 496.496 187.518 497.001 187.079C497.506 186.641 497.79 186.046 497.791 185.425V105.575C497.79 104.954 497.506 104.359 497.001 103.92C496.496 103.481 495.811 103.235 495.096 103.234H181.695Z" fill="#E6E6E6"/>
<path d="M185.964 181.033H491.601V109.967H185.964V181.033Z" fill="white"/>
<path d="M216.141 163.828C226.397 163.828 234.711 155.79 234.711 145.874C234.711 135.958 226.397 127.92 216.141 127.92C205.885 127.92 197.57 135.958 197.57 145.874C197.57 155.79 205.885 163.828 216.141 163.828Z" fill="#0037FF"/>
<path d="M207.296 149V143.289H208.507V149H207.296ZM214.593 143.289V146.984C214.593 147.406 214.498 147.776 214.308 148.094C214.12 148.411 213.848 148.655 213.491 148.824C213.135 148.993 212.713 149.078 212.226 149.078C211.491 149.078 210.921 148.891 210.515 148.516C210.108 148.138 209.905 147.622 209.905 146.969V143.289H211.112V146.785C211.112 147.225 211.201 147.548 211.378 147.754C211.555 147.96 211.848 148.062 212.257 148.062C212.653 148.062 212.939 147.96 213.116 147.754C213.296 147.546 213.386 147.22 213.386 146.777V143.289H214.593ZM219.362 147.414C219.362 147.93 219.176 148.336 218.804 148.633C218.434 148.93 217.918 149.078 217.257 149.078C216.648 149.078 216.108 148.964 215.64 148.734V147.609C216.025 147.781 216.351 147.902 216.616 147.973C216.885 148.043 217.129 148.078 217.351 148.078C217.616 148.078 217.819 148.027 217.96 147.926C218.103 147.824 218.175 147.673 218.175 147.473C218.175 147.361 218.144 147.262 218.081 147.176C218.019 147.087 217.926 147.003 217.804 146.922C217.684 146.841 217.438 146.712 217.066 146.535C216.717 146.371 216.455 146.214 216.28 146.062C216.106 145.911 215.967 145.736 215.862 145.535C215.758 145.335 215.706 145.1 215.706 144.832C215.706 144.327 215.877 143.93 216.218 143.641C216.562 143.352 217.036 143.207 217.64 143.207C217.937 143.207 218.219 143.242 218.487 143.312C218.758 143.383 219.041 143.482 219.335 143.609L218.944 144.551C218.64 144.426 218.387 144.339 218.187 144.289C217.989 144.24 217.793 144.215 217.601 144.215C217.372 144.215 217.196 144.268 217.073 144.375C216.951 144.482 216.89 144.621 216.89 144.793C216.89 144.9 216.914 144.993 216.964 145.074C217.013 145.152 217.092 145.229 217.198 145.305C217.308 145.378 217.564 145.51 217.968 145.703C218.502 145.958 218.868 146.215 219.066 146.473C219.263 146.728 219.362 147.042 219.362 147.414ZM225.136 146.09C225.136 147.03 224.868 147.75 224.331 148.25C223.797 148.75 223.025 149 222.015 149H220.398V143.289H222.191C223.123 143.289 223.847 143.535 224.362 144.027C224.878 144.52 225.136 145.207 225.136 146.09ZM223.878 146.121C223.878 144.895 223.336 144.281 222.253 144.281H221.608V148H222.128C223.295 148 223.878 147.374 223.878 146.121Z" fill="white"/>
<path d="M467.743 171.308C466.888 171.308 466.068 171.624 465.463 172.185C464.858 172.746 464.519 173.507 464.519 174.301C464.519 175.094 464.858 175.855 465.463 176.416C466.068 176.978 466.888 177.293 467.743 177.293H480.639C481.494 177.293 482.314 176.978 482.919 176.416C483.523 175.855 483.863 175.094 483.863 174.301C483.863 173.507 483.523 172.746 482.919 172.185C482.314 171.624 481.494 171.308 480.639 171.308H467.743Z" fill="#0037FF"/>
<path d="M241.675 172.431C384.047 166.072 421.962 164.95 474.191 133.531" stroke="black"/>
<path d="M181.701 0C180.985 0.000681703 180.298 0.247554 179.792 0.686448C179.286 1.12534 179.001 1.72041 179 2.3411V82.1907C179.001 82.8116 179.286 83.4071 179.792 83.8454C180.298 84.2846 180.985 84.5314 181.701 84.5322H495.863C496.579 84.5314 497.266 84.2846 497.772 83.8454C498.279 83.4071 498.564 82.8116 498.565 82.1907V2.3411C498.564 1.72041 498.279 1.12534 497.772 0.686448C497.266 0.247554 496.579 0.000681703 495.863 0H181.701Z" fill="#E6E6E6"/>
<path d="M185.964 78.5476H491.601V5.98462H185.964V78.5476Z" fill="white"/>
<path d="M467.743 68.8228C466.888 68.8228 466.068 69.138 465.463 69.6992C464.858 70.2603 464.519 71.0214 464.519 71.815C464.519 72.6087 464.858 73.3698 465.463 73.9309C466.068 74.4921 466.888 74.8073 467.743 74.8073H480.639C481.494 74.8073 482.314 74.4921 482.919 73.9309C483.523 73.3698 483.863 72.6087 483.863 71.815C483.863 71.0214 483.523 70.2603 482.919 69.6992C482.314 69.138 481.494 68.8228 480.639 68.8228H467.743Z" fill="#0037FF"/>
<path d="M216.141 60.5939C226.397 60.5939 234.711 52.5557 234.711 42.6401C234.711 32.7246 226.397 24.6864 216.141 24.6864C205.885 24.6864 197.57 32.7246 197.57 42.6401C197.57 52.5557 205.885 60.5939 216.141 60.5939Z" fill="#0037FF"/>
<path d="M210.396 43.1367C210.396 44.082 210.162 44.8086 209.693 45.3164C209.224 45.8242 208.552 46.0781 207.677 46.0781C206.802 46.0781 206.131 45.8242 205.662 45.3164C205.193 44.8086 204.959 44.0794 204.959 43.1289C204.959 42.1784 205.193 41.4531 205.662 40.9531C206.133 40.4505 206.808 40.1992 207.685 40.1992C208.563 40.1992 209.233 40.4518 209.697 40.957C210.163 41.4622 210.396 42.1888 210.396 43.1367ZM206.228 43.1367C206.228 43.7747 206.349 44.2552 206.592 44.5781C206.834 44.901 207.196 45.0625 207.677 45.0625C208.644 45.0625 209.127 44.4206 209.127 43.1367C209.127 41.8503 208.646 41.207 207.685 41.207C207.204 41.207 206.84 41.3698 206.595 41.6953C206.351 42.0182 206.228 42.4987 206.228 43.1367ZM216.228 40.2891V43.9844C216.228 44.4062 216.133 44.776 215.943 45.0938C215.756 45.4115 215.483 45.6549 215.127 45.8242C214.77 45.9935 214.348 46.0781 213.861 46.0781C213.127 46.0781 212.556 45.8906 212.15 45.5156C211.744 45.138 211.541 44.6224 211.541 43.9688V40.2891H212.748V43.7852C212.748 44.2253 212.836 44.5482 213.013 44.7539C213.19 44.9596 213.483 45.0625 213.892 45.0625C214.288 45.0625 214.575 44.9596 214.752 44.7539C214.931 44.5456 215.021 44.2201 215.021 43.7773V40.2891H216.228ZM220.998 44.4141C220.998 44.9297 220.812 45.3359 220.439 45.6328C220.069 45.9297 219.554 46.0781 218.892 46.0781C218.283 46.0781 217.744 45.9635 217.275 45.7344V44.6094C217.661 44.7812 217.986 44.9023 218.252 44.9727C218.52 45.043 218.765 45.0781 218.986 45.0781C219.252 45.0781 219.455 45.0273 219.595 44.9258C219.739 44.8242 219.81 44.6732 219.81 44.4727C219.81 44.3607 219.779 44.2617 219.717 44.1758C219.654 44.0872 219.562 44.0026 219.439 43.9219C219.319 43.8411 219.073 43.7122 218.701 43.5352C218.352 43.3711 218.09 43.2135 217.916 43.0625C217.741 42.9115 217.602 42.7357 217.498 42.5352C217.394 42.3346 217.342 42.1003 217.342 41.832C217.342 41.3268 217.512 40.9297 217.853 40.6406C218.197 40.3516 218.671 40.207 219.275 40.207C219.572 40.207 219.855 40.2422 220.123 40.3125C220.394 40.3828 220.676 40.4818 220.97 40.6094L220.58 41.5508C220.275 41.4258 220.023 41.3385 219.822 41.2891C219.624 41.2396 219.429 41.2148 219.236 41.2148C219.007 41.2148 218.831 41.2682 218.709 41.375C218.586 41.4818 218.525 41.6211 218.525 41.793C218.525 41.8997 218.55 41.9935 218.599 42.0742C218.649 42.1523 218.727 42.2292 218.834 42.3047C218.943 42.3776 219.2 42.5104 219.603 42.7031C220.137 42.9583 220.503 43.2148 220.701 43.4727C220.899 43.7279 220.998 44.0417 220.998 44.4141ZM226.771 43.0898C226.771 44.0299 226.503 44.75 225.967 45.25C225.433 45.75 224.661 46 223.65 46H222.033V40.2891H223.826C224.758 40.2891 225.482 40.5352 225.998 41.0273C226.513 41.5195 226.771 42.207 226.771 43.0898ZM225.513 43.1211C225.513 41.8945 224.972 41.2812 223.888 41.2812H223.244V45H223.763C224.93 45 225.513 44.3737 225.513 43.1211Z" fill="white"/>
<path d="M244.77 41.8922H477.673" stroke="black"/>
<path d="M703.676 555H0V553H704L703.676 555Z" fill="#3F3D56"/>
<path d="M595.147 208.401L573.407 251.438L508.406 280.989C501.465 292.72 479.407 293.618 477.803 286.032C476.003 277.521 504.589 263.823 504.589 263.823L558.957 227.049L563.714 195.392L595.147 208.401Z" fill="#D78C97"/>
<path d="M592.582 497.215L596.591 529.288L573.338 530.892L570.933 497.215H592.582Z" fill="#D78C97"/>
<path d="M589.375 524.478C591.453 522.279 593.371 519.934 595.112 517.461C598.445 512.849 601.402 536.505 601.402 536.505C601.402 536.505 604.609 546.127 603.807 550.938C603.005 555.749 584.564 555.749 581.356 554.947C578.149 554.145 562.113 554.947 562.113 554.947H538.058C517.211 545.325 538.058 538.91 538.058 538.91C544.473 538.109 566.122 518.063 566.122 518.063L570.933 509.243C574.14 508.441 577.347 520.468 577.347 520.468L589.375 524.478Z" fill="#2F2E41"/>
<path d="M652.718 497.616L656.728 529.689L633.475 531.293L631.069 497.616H652.718Z" fill="#D78C97"/>
<path d="M649.511 524.878C651.59 522.68 653.508 520.335 655.249 517.861C658.582 513.25 661.539 536.906 661.539 536.906C661.539 536.906 664.746 545.726 663.944 550.537C663.142 555.348 644.7 555.348 641.493 554.546C638.286 553.744 622.249 555.348 622.249 555.348H598.195C577.347 545.726 598.195 539.311 598.195 539.311C604.609 538.509 626.258 518.464 626.258 518.464L631.069 509.644C634.277 508.842 637.484 520.869 637.484 520.869L649.511 524.878Z" fill="#2F2E41"/>
<path d="M626.258 290.747C629.466 294.756 627.862 308.387 627.862 308.387C627.862 308.387 633.475 352.487 631.069 356.496C628.664 360.505 632.673 363.712 635.078 369.325C637.484 374.938 639.889 388.569 639.889 388.569C653.52 399.794 652.719 451.111 652.719 451.111L657.529 496.815C655.926 501.626 633.475 502.428 630.268 501.626C627.06 500.824 617.438 428.66 617.438 428.66L595.789 387.767C595.789 387.767 597.393 496.815 597.393 501.626C597.393 506.437 575.744 504.031 570.933 504.031C566.122 504.031 566.122 423.849 566.122 423.849L561.311 403.002L535.653 307.585V296.359L539.662 290.747C539.662 290.747 623.051 286.738 626.258 290.747Z" fill="black"/>
<path d="M590.978 108.733C604.706 108.733 615.835 97.6046 615.835 83.8767C615.835 70.1489 604.706 59.0203 590.978 59.0203C577.25 59.0203 566.122 70.1489 566.122 83.8767C566.122 97.6046 577.25 108.733 590.978 108.733Z" fill="#D78C97"/>
<path d="M578.55 95.5032C583.588 106.723 580.605 122.393 570.532 139.603L611.425 120.36L605.01 114.747L606.614 98.7105L578.55 95.5032Z" fill="#D78C97"/>
<path d="M578.55 121.161C573.195 124.345 569.992 130.194 568.153 136.147C564.748 147.167 562.699 158.56 562.05 170.076L560.108 204.551L536.053 295.959C556.901 313.599 568.928 309.59 596.992 295.157C625.056 280.724 628.263 299.968 628.263 299.968C628.263 299.968 630.668 299.166 628.263 296.76C625.857 294.355 628.263 296.76 630.668 294.355C633.074 291.949 630.668 294.355 629.867 291.949C629.065 289.544 629.867 291.148 630.668 290.346C631.47 289.544 627.461 282.327 627.461 282.327L633.876 222.191L641.894 137.198C632.272 125.171 605.01 114.747 605.01 114.747L580.154 132.387C572.135 135.594 578.55 122.765 578.55 122.765V121.161Z" fill="#6C63FF"/>
<path d="M655.124 188.113L658.331 236.223L617.438 294.756C617.438 308.387 610.222 311.594 610.222 311.594C607.489 307.232 605.077 302.676 603.006 297.963C598.997 289.143 605.411 281.927 605.411 281.927L633.475 222.592L621.448 192.924L655.124 188.113Z" fill="#D78C97"/>
<path d="M641.493 137.599C655.124 142.41 657.529 194.528 657.529 194.528C641.493 185.708 622.249 200.141 622.249 200.141C622.249 200.141 618.24 186.51 613.429 168.87C611.977 163.908 611.803 158.659 612.925 153.612C614.046 148.565 616.426 143.884 619.844 140.004C619.844 140.004 627.862 132.788 641.493 137.599Z" fill="#6C63FF"/>
<path d="M613.83 91.494C610.666 88.9625 606.349 93.564 606.349 93.564L603.817 70.7807C603.817 70.7807 587.996 72.6794 577.87 70.1479C567.744 67.6164 566.162 79.3244 566.162 79.3244C565.64 74.5963 565.534 69.8315 565.845 65.0849C566.478 59.3891 574.705 53.6932 589.261 49.896C603.817 46.0988 611.412 62.5534 611.412 62.5534C621.538 67.6164 616.994 94.0255 613.83 91.494Z" fill="black"/>
<path d="M64.976 204.113C64.976 204.113 60.7848 230.457 78.1483 228.062C78.1483 228.062 147.003 212.495 150.596 216.087C154.188 219.68 176.522 220.903 175.357 205.757C174.188 190.561 151.793 199.323 151.793 199.323C151.793 199.323 117.066 204.113 109.882 200.52C102.697 196.928 82.3395 198.125 82.3395 198.125L64.976 204.113Z" fill="#A0616A"/>
<path d="M117.521 290.025L107.973 380.611C107.973 380.611 104.979 416.536 95.9984 424.32C95.9984 424.32 95.9983 435.696 93.0046 439.288L88.8134 486.589C88.8134 486.589 94.8008 503.952 94.2021 506.946C93.6034 509.939 96.5971 519.519 95.9984 520.717C95.3996 521.914 67.2588 520.717 67.2588 520.717L73.2462 424.32L91.8072 290.202L117.521 290.025Z" fill="black"/>
<path d="M65.0653 515.82C65.0653 515.82 52.5086 547.485 59.0599 551.306C65.6113 555.128 134.4 552.398 134.4 552.398C134.4 552.398 145.865 545.301 132.762 540.387C132.762 540.387 121.843 539.841 114.746 535.474C107.649 531.106 99.4599 522.917 99.4599 522.917C99.4599 522.917 98.914 510.906 94.5464 513.636C93.2397 514.497 92.1275 515.622 91.2813 516.938C90.4351 518.254 89.8736 519.733 89.6329 521.279L65.0653 515.82Z" fill="#2F2E41"/>
<path d="M45.7041 511.526C45.7041 511.526 31.9331 546.253 39.118 550.444C46.3029 554.636 121.744 551.642 121.744 551.642C121.744 551.642 134.318 543.858 119.948 538.47C119.948 538.47 107.973 537.871 100.19 533.081C92.4059 528.291 83.4249 519.31 83.4249 519.31C83.4249 519.31 82.8261 506.138 78.0362 509.131C76.6031 510.076 75.3834 511.309 74.4553 512.753C73.5273 514.196 72.9115 515.818 72.6475 517.514L45.7041 511.526Z" fill="#2F2E41"/>
<path d="M101.387 288.795C101.387 288.795 94.8009 350.465 91.8072 363.637C89.925 372.312 88.7238 381.12 88.2148 389.982C88.2148 389.982 87.616 409.142 82.2274 414.53C80.6507 416.091 79.4119 417.96 78.5879 420.02C77.7639 422.08 77.3723 424.287 77.4374 426.505C77.4374 426.505 72.0487 486.978 75.0424 494.163C78.0361 501.348 82.1002 510.682 79.1066 515.472C76.1129 520.262 42.1117 516.915 42.1117 513.323C42.1117 509.73 42.1117 506.736 40.3155 504.94C38.5192 503.144 40.3155 491.768 40.3155 491.768C40.3155 491.768 33.1306 438.48 39.7167 422.913C46.3029 407.345 49.2966 364.835 49.2966 364.835C49.2966 364.835 44.5067 316.337 38.5193 308.553C32.5318 300.77 39.7167 273.228 39.7167 273.228L101.387 288.795Z" fill="black"/>
<path d="M84.5303 97.282C85.2263 98.8676 86.8924 99.7505 88.4091 100.586C97.1998 105.429 104.558 112.451 111.808 119.391C109.999 113.261 110.384 106.692 112.898 100.815C113.763 98.8105 114.898 96.6559 114.279 94.5621C113.669 93.0654 112.608 91.7957 111.243 90.9294C108.285 88.6417 105.193 86.5322 101.984 84.6123C99.7418 83.2711 95.1327 79.7005 92.56 80.0891C92.425 83.5651 92.3545 86.6728 90.8323 89.9215C90.4712 90.6921 84.7963 97.8882 84.5303 97.282Z" fill="#A0616A"/>
<path d="M115.158 104.981C128.716 104.981 139.707 93.9907 139.707 80.433C139.707 66.8753 128.716 55.8846 115.158 55.8846C101.601 55.8846 90.6099 66.8753 90.6099 80.433C90.6099 93.9907 101.601 104.981 115.158 104.981Z" fill="#A0616A"/>
<path d="M116.356 138.511C116.356 138.511 120.547 117.555 108.572 110.37C96.5973 103.185 82.8262 94.8027 82.8262 94.8027C82.8262 94.8027 78.635 94.204 76.8388 103.185C76.8388 103.185 42.7105 109.771 39.1181 142.103C35.5256 174.435 41.5131 221.736 41.5131 221.736C41.5131 221.736 36.1244 263.049 29.5383 285.202C29.5383 285.202 24.1496 289.992 48.0993 282.807C72.049 275.622 113.961 303.164 113.961 303.164C113.961 303.164 118.152 298.973 118.152 295.98C118.152 292.986 127.133 201.977 128.929 193.595C130.725 185.213 121.744 139.708 116.356 138.511Z" fill="#535461"/>
<path d="M109.373 82.9619C110.847 82.1446 112.501 81.7041 114.187 81.6797C115.875 81.6545 117.523 81.1634 118.95 80.2606C121.269 78.4804 121.439 75.04 123.135 72.6591C125.591 69.2121 130.491 68.7972 134.719 68.9697C137.306 69.0752 140.092 69.2297 142.27 67.8307C144.506 66.3945 145.519 63.6884 146.273 61.1401C147.165 58.1265 147.742 54.4411 145.532 52.2061C143.998 50.6541 141.576 50.3471 139.872 48.9841C138.949 48.2464 126.756 45.2842 115.31 42.6207C109.611 41.2968 103.625 42.1067 98.4834 44.8973C93.3416 47.6878 89.4004 52.2657 87.4052 57.7651C84.7621 65.0329 82.4969 71.8618 82.7307 73.3369C83.8497 80.3962 90.0928 86.0075 90.523 93.1421C90.9331 91.172 91.8257 89.3345 93.1209 87.7944C94.4161 86.2543 96.0733 85.0597 97.9439 84.3179C98.4129 84.0885 98.9456 84.0239 99.4559 84.1345C100.076 84.3327 100.439 84.9524 100.83 85.4728C101.856 86.8363 105.078 88.905 106.904 87.9377C108.538 87.0722 107.318 84.3553 109.373 82.9619Z" fill="black"/>
<path d="M120.598 212.025C120.085 212.529 119.791 213.216 119.78 213.935C119.77 214.655 120.044 215.349 120.542 215.868L137.805 233.734C138.056 233.994 138.356 234.201 138.688 234.344C139.019 234.486 139.376 234.562 139.738 234.565C140.099 234.569 140.457 234.5 140.792 234.364C141.126 234.228 141.43 234.026 141.686 233.771L194.36 181.326C194.648 181.039 194.868 180.692 195.005 180.309C195.141 179.927 195.19 179.519 195.148 179.115C195.106 178.711 194.975 178.321 194.763 177.975C194.552 177.628 194.265 177.333 193.925 177.112L173.212 163.621C172.694 163.28 172.075 163.127 171.458 163.188C170.841 163.249 170.263 163.519 169.822 163.955L120.598 212.025Z" fill="#3F3D56"/>
<path d="M194.722 177.908C194.617 178.069 194.496 178.218 194.361 178.353L141.81 231.79C141.554 232.045 141.25 232.246 140.916 232.382C140.581 232.519 140.223 232.587 139.861 232.584C139.5 232.58 139.143 232.505 138.811 232.362C138.48 232.219 138.179 232.012 137.928 231.752L120.295 213.143C120.175 213.018 120.067 212.882 119.973 212.737C119.678 213.241 119.574 213.834 119.678 214.408C119.783 214.982 120.089 215.5 120.542 215.868L137.805 233.734C138.056 233.994 138.356 234.201 138.688 234.344C139.019 234.486 139.376 234.562 139.738 234.565C140.099 234.569 140.457 234.5 140.792 234.364C141.126 234.228 141.43 234.026 141.686 233.771L194.36 181.326C194.804 180.884 195.082 180.303 195.147 179.681C195.213 179.059 195.063 178.433 194.722 177.908H194.722Z" fill="#6C63FF"/>
<path d="M189.845 178.555L187.701 177.188C187.927 177.59 188.01 178.057 187.936 178.513C187.863 178.968 187.637 179.385 187.297 179.696C186.956 180.007 186.52 180.194 186.059 180.225C185.599 180.257 185.142 180.131 184.762 179.87L170.891 170.333C170.575 170.117 170.327 169.816 170.174 169.466C170.022 169.115 169.971 168.728 170.027 168.35C170.083 167.972 170.244 167.617 170.493 167.326C170.741 167.035 171.066 166.82 171.43 166.704L170.326 166C170.183 165.909 170.012 165.869 169.843 165.888C169.675 165.907 169.517 165.984 169.398 166.104L122.735 211.962C122.665 212.032 122.61 212.116 122.574 212.208C122.537 212.3 122.519 212.398 122.52 212.497C122.522 212.596 122.544 212.694 122.584 212.784C122.624 212.875 122.682 212.957 122.754 213.025L139.7 229.537C139.841 229.67 140.028 229.742 140.221 229.74C140.414 229.737 140.598 229.659 140.735 229.523L189.97 179.708C190.049 179.629 190.109 179.534 190.146 179.429C190.183 179.324 190.196 179.212 190.184 179.101C190.172 178.99 190.135 178.884 190.076 178.789C190.018 178.695 189.938 178.615 189.845 178.555V178.555Z" fill="white"/>
<path d="M135.988 201.836L150.303 215.333L184.351 181.693L167.071 170.446L135.988 201.836Z" fill="#E6E6E6"/>
<path d="M183.028 189.995C183.122 190.085 183.248 190.135 183.378 190.135C183.509 190.135 183.634 190.085 183.729 189.995L186.706 187.017C186.799 186.924 186.851 186.798 186.851 186.667C186.851 186.536 186.799 186.41 186.706 186.317C186.612 186.227 186.486 186.177 186.356 186.177C186.225 186.177 186.1 186.227 186.006 186.317L183.028 189.294C182.935 189.387 182.883 189.513 182.883 189.645C182.883 189.776 182.935 189.902 183.028 189.995V189.995Z" fill="#3F3D56"/>
<path d="M178.012 195.011C178.105 195.104 178.231 195.156 178.363 195.156C178.494 195.156 178.62 195.104 178.713 195.011L181.69 192.033C181.783 191.94 181.835 191.814 181.834 191.683C181.834 191.552 181.782 191.427 181.689 191.334C181.597 191.241 181.471 191.189 181.34 191.189C181.209 191.189 181.083 191.24 180.99 191.333L178.012 194.31C177.92 194.403 177.867 194.529 177.867 194.661C177.867 194.792 177.92 194.918 178.012 195.011V195.011Z" fill="#3F3D56"/>
<path d="M136.319 216.765C138.166 216.765 139.663 215.268 139.663 213.421C139.663 211.574 138.166 210.077 136.319 210.077C134.472 210.077 132.975 211.574 132.975 213.421C132.975 215.268 134.472 216.765 136.319 216.765Z" fill="#6C63FF"/>
<path d="M47.5004 194.792C47.5004 194.792 43.3093 221.137 60.6727 218.742C60.6727 218.742 129.528 203.175 133.12 206.767C136.713 210.36 159.047 211.583 157.882 196.437C156.713 181.241 134.318 190.003 134.318 190.003C134.318 190.003 99.5909 194.792 92.406 191.2C85.2212 187.608 64.864 188.805 64.864 188.805L47.5004 194.792Z" fill="#A0616A"/>
<path d="M72.0488 111.568C72.0488 111.568 45.1055 114.561 45.1055 153.479V203.175L78.0363 189.404C78.0363 189.404 91.8072 157.072 90.6098 148.091C89.4124 139.11 90.011 112.765 72.0488 111.568Z" fill="#535461"/>
</svg>
