<svg viewBox="0 0 412 512" fill="none" xmlns="http://www.w3.org/2000/svg">
<path d="M386.204 247.742C407.71 226.734 421.161 197.524 421.161 165.161C421.161 107.074 377.943 59.3181 322.065 51.2174V0H256V49.5481H189.935V0H123.87V49.5481H90.8389V115.613H123.871V379.871H90.8389V445.936H123.871V512.001H189.936V445.936H256.001V512.001H322.066V444.267C377.945 436.166 421.162 388.41 421.162 330.323C421.161 297.96 407.71 268.75 386.204 247.742V247.742ZM355.096 165.161C355.096 192.484 332.871 214.709 305.548 214.709H189.935V115.613H305.548C332.871 115.613 355.096 137.838 355.096 165.161ZM305.548 379.87H189.935V280.774H305.548C332.871 280.774 355.096 302.999 355.096 330.322C355.096 357.645 332.871 379.87 305.548 379.87V379.87Z" fill="#F7931A"/>
<defs>
<rect fill="white"/>
</defs>
</svg>
