<svg viewBox="0 0 878 653" fill="none" xmlns="http://www.w3.org/2000/svg">
<circle cx="740" cy="71.3768" r="41" fill="white" stroke="black" stroke-width="10"/>
<circle cx="730" cy="386.377" r="41" fill="white" stroke="black" stroke-width="10"/>
<circle cx="669" cy="560.377" r="41" fill="white" stroke="black" stroke-width="10"/>
<circle cx="474" cy="518.377" r="41" fill="white" stroke="black" stroke-width="10"/>
<circle cx="832" cy="208.377" r="41" fill="white" stroke="black" stroke-width="10"/>
<circle cx="566" cy="194.377" r="41" fill="white" stroke="black" stroke-width="10"/>
<circle cx="533" cy="351.377" r="41" fill="white" stroke="black" stroke-width="10"/>
<circle cx="333" cy="266.377" r="41" fill="white" stroke="black" stroke-width="10"/>
<circle cx="261" cy="443.377" r="41" fill="white" stroke="black" stroke-width="10"/>
<circle cx="159" cy="606.377" r="41" fill="white" stroke="black" stroke-width="10"/>
<path d="M804.751 164.319C805.675 167.241 802.139 169.506 799.872 167.443L785.148 154.051C783.687 152.723 783.886 150.37 785.549 149.305L794.27 143.721C795.932 142.656 798.152 143.46 798.748 145.342L804.751 164.319Z" fill="black"/>
<path d="M586.643 329.798C583.642 330.423 581.746 326.677 584.026 324.629L598.834 311.329C600.303 310.01 602.624 310.445 603.515 312.206L608.193 321.446C609.084 323.207 608.061 325.335 606.128 325.738L586.643 329.798Z" fill="black"/>
<path d="M212.61 608.24C209.605 607.639 209.328 603.449 212.229 602.459L231.064 596.026C232.932 595.388 234.897 596.697 235.027 598.667L235.709 609.001C235.839 610.971 234.064 612.527 232.128 612.14L212.61 608.24Z" fill="black"/>
<path d="M386.182 252.31C384.138 252.316 383.403 249.615 385.167 248.584L406.681 236.007C407.817 235.343 409.274 235.938 409.62 237.208L413.026 249.719C413.372 250.989 412.418 252.241 411.102 252.244L386.182 252.31Z" fill="black"/>
<path d="M283.163 396.16C281.968 397.818 279.35 396.827 279.55 394.794L282 369.994C282.129 368.685 283.467 367.855 284.698 368.32L296.825 372.908C298.056 373.373 298.51 374.881 297.74 375.948L283.163 396.16Z" fill="black"/>
<path d="M188.335 563.963C186.827 565.341 184.466 563.837 185.078 561.887L192.542 538.111C192.936 536.855 194.415 536.316 195.525 537.023L206.459 543.991C207.569 544.698 207.705 546.267 206.734 547.154L188.335 563.963Z" fill="black"/>
<path d="M451.999 474.284C452.549 476.252 450.142 477.681 448.678 476.256L430.822 458.872C429.879 457.954 430.064 456.391 431.196 455.719L442.346 449.101C443.478 448.43 444.939 449.015 445.293 450.283L451.999 474.284Z" fill="black"/>
<path d="M493.012 472.197C491.911 473.918 489.242 473.076 489.328 471.034L490.386 446.137C490.442 444.822 491.731 443.918 492.987 444.314L505.352 448.216C506.607 448.612 507.144 450.092 506.435 451.2L493.012 472.197Z" fill="black"/>
<path d="M521.143 497.036C519.15 497.487 517.843 495.012 519.34 493.621L537.59 476.652C538.554 475.755 540.105 476.018 540.72 477.182L546.775 488.648C547.39 489.812 546.732 491.242 545.448 491.532L521.143 497.036Z" fill="black"/>
<path d="M688.124 513.184C686.956 514.86 684.322 513.912 684.49 511.876L686.536 487.04C686.644 485.728 687.968 484.877 689.207 485.322L701.407 489.712C702.645 490.158 703.123 491.658 702.371 492.738L688.124 513.184Z" fill="black"/>
<path d="M211.485 594.313C209.443 594.381 208.625 591.704 210.357 590.619L231.478 577.393C232.593 576.694 234.068 577.245 234.452 578.504L238.238 590.905C238.622 592.164 237.707 593.444 236.392 593.488L211.485 594.313Z" fill="black"/>
<rect x="705.047" y="91.2743" width="7" height="92.9573" transform="rotate(54.286 705.047 91.2743)" fill="#010101"/>
<rect x="794.572" y="222.913" width="7" height="216.6" transform="rotate(64.4706 794.572 222.913)" fill="#010101"/>
<rect x="632.087" y="558.401" width="7" height="411.896" transform="rotate(84.1339 632.087 558.401)" fill="#010101"/>
<rect x="808.707" y="244.351" width="7" height="88.6003" transform="rotate(29.5576 808.707 244.351)" fill="#010101"/>
<rect x="527.432" y="203.57" width="7" height="129.824" transform="rotate(72.7214 527.432 203.57)" fill="#010101"/>
<rect x="315.724" y="301.468" width="7" height="91.9246" transform="rotate(22.1939 315.724 301.468)" fill="#010101"/>
<rect x="237.845" y="474.077" width="7" height="81.7072" transform="rotate(31.6263 237.845 474.077)" fill="#010101"/>
<rect x="713.871" y="423.342" width="7" height="67.7504" transform="rotate(19.7291 713.871 423.342)" fill="#010101"/>
<rect x="694.475" y="402.071" width="7" height="176.634" transform="rotate(62.8823 694.475 402.071)" fill="#010101"/>
<rect x="433.878" y="525.878" width="7" height="208.881" transform="rotate(74.1637 433.878 525.878)" fill="#010101"/>
<rect x="517.381" y="386.239" width="7" height="78.3981" transform="rotate(19.5251 517.381 386.239)" fill="#010101"/>
<rect x="348.58" y="302.99" width="7" height="178.28" transform="rotate(-29.6323 348.58 302.99)" fill="#010101"/>
<rect x="757.856" y="105.347" width="7" height="55.5375" transform="rotate(-33.8722 757.856 105.347)" fill="#010101"/>
<path d="M790.911 49.1182C788.002 50.0821 785.69 46.5772 787.721 44.2821L800.913 29.378C802.222 27.8996 804.577 28.0664 805.664 29.7145L811.366 38.3593C812.453 40.0074 811.679 42.2381 809.805 42.8589L790.911 49.1182Z" fill="black"/>
<rect x="828.083" y="16.0528" width="7" height="29.8162" transform="rotate(55.3526 828.083 16.0528)" fill="#010101"/>
<path d="M611.904 164.877C609.972 165.543 608.403 163.225 609.739 161.679L626.032 142.823C626.892 141.827 628.464 141.919 629.201 143.009L636.469 153.747C637.207 154.837 636.709 156.33 635.464 156.759L611.904 164.877Z" fill="black"/>
<path d="M759.931 343.777C757.734 345.914 754.125 343.769 754.951 340.818L760.318 321.651C760.85 319.75 763.042 318.873 764.739 319.881L773.642 325.172C775.339 326.18 775.616 328.525 774.201 329.901L759.931 343.777Z" fill="black"/>
<path d="M148.141 103.392H155.565V121.235H155.69C156.689 119.649 158.071 118.397 159.839 117.479C161.607 116.561 163.656 116.102 165.985 116.102C167.815 116.102 169.645 116.435 171.475 117.103C173.306 117.771 174.938 118.783 176.373 120.14C177.809 121.496 178.973 123.187 179.867 125.211C180.762 127.236 181.209 129.625 181.209 132.38C181.209 134.717 180.803 136.888 179.992 138.892C179.181 140.895 178.037 142.617 176.56 144.057C175.084 145.497 173.326 146.624 171.288 147.438C169.25 148.252 167.025 148.659 164.612 148.659C162.158 148.659 159.922 148.273 157.905 147.5C155.888 146.728 154.162 145.622 152.727 144.182C151.292 142.742 150.168 140.999 149.357 138.954C148.546 136.909 148.141 134.634 148.141 132.13V103.392ZM164.612 141.709C167.357 141.709 169.562 140.843 171.226 139.111C172.89 137.378 173.722 135.135 173.722 132.38C173.722 129.625 172.89 127.382 171.226 125.65C169.562 123.917 167.357 123.051 164.612 123.051C161.867 123.051 159.673 123.917 158.03 125.65C156.387 127.382 155.565 129.625 155.565 132.38C155.565 135.135 156.387 137.378 158.03 139.111C159.673 140.843 161.867 141.709 164.612 141.709ZM209.098 143.337H208.974C208.059 144.881 206.832 146.092 205.293 146.968C203.754 147.845 201.965 148.283 199.927 148.283C198.138 148.283 196.412 147.981 194.748 147.375C193.084 146.77 191.608 145.841 190.318 144.589C189.029 143.337 187.999 141.72 187.23 139.737C186.46 137.754 186.076 135.385 186.076 132.631V116.915H193.501V132.631C193.501 135.594 194.207 137.785 195.622 139.204C197.036 140.624 198.929 141.333 201.299 141.333C203.587 141.333 205.459 140.603 206.915 139.142C208.371 137.681 209.098 135.51 209.098 132.631V116.915H216.523V146.781C216.523 149.494 216.128 151.8 215.338 153.699C214.548 155.598 213.455 157.153 212.062 158.364C210.669 159.574 209.036 160.461 207.164 161.024C205.293 161.588 203.296 161.87 201.175 161.87C199.386 161.87 197.691 161.661 196.09 161.244C194.488 160.826 193.032 160.179 191.722 159.303C190.412 158.426 189.289 157.32 188.353 155.984C187.417 154.649 186.741 153.063 186.325 151.226H193.75C194.956 154.022 197.431 155.421 201.175 155.421C203.712 155.421 205.667 154.763 207.04 153.449C208.412 152.134 209.098 149.974 209.098 146.968V143.337ZM248.843 135.949C248.843 138.077 248.542 139.946 247.938 141.553C247.335 143.159 246.472 144.485 245.349 145.529C244.226 146.572 242.895 147.355 241.356 147.876C239.817 148.398 238.111 148.659 236.24 148.659C234.368 148.659 232.662 148.398 231.123 147.876C229.584 147.355 228.253 146.572 227.13 145.529C226.007 144.485 225.144 143.159 224.541 141.553C223.938 139.946 223.636 138.077 223.636 135.949V106.584H231.061V116.915L246.971 116.915V123.677L231.061 123.677V135.949C231.061 138.036 231.539 139.518 232.496 140.394C233.453 141.271 234.701 141.709 236.24 141.709C237.778 141.709 239.027 141.281 239.983 140.425C240.94 139.57 241.418 138.077 241.418 135.949V135.135H248.843V135.949ZM260.136 135.01V135.135C260.635 137.222 261.644 138.871 263.162 140.081C264.68 141.292 266.604 141.897 268.934 141.897C272.261 141.897 274.694 140.916 276.234 138.954L284.157 138.954C282.993 141.917 281.079 144.276 278.417 146.029C275.755 147.782 272.594 148.659 268.934 148.659C266.479 148.659 264.244 148.252 262.226 147.438C260.209 146.624 258.462 145.497 256.985 144.057C255.509 142.617 254.365 140.895 253.554 138.892C252.743 136.888 252.337 134.717 252.337 132.38C252.337 130.043 252.743 127.872 253.554 125.869C254.365 123.865 255.509 122.143 256.985 120.703C258.462 119.263 260.209 118.136 262.226 117.322C264.244 116.508 266.479 116.102 268.934 116.102C271.346 116.102 273.571 116.508 275.61 117.322C277.648 118.136 279.384 119.263 280.819 120.703C282.254 122.143 283.378 123.865 284.189 125.869C285 127.872 285.405 130.043 285.405 132.38V135.01L260.136 135.01ZM268.934 122.863C266.729 122.863 264.888 123.406 263.412 124.492C261.935 125.576 260.906 127.058 260.323 128.937V129.062H277.544V128.937C276.961 127.058 275.922 125.576 274.424 124.492C272.927 123.406 271.097 122.863 268.934 122.863Z" fill="#456C91"/>
<path fill-rule="evenodd" clip-rule="evenodd" d="M73.9812 0.552813C114.731 0.552813 147.777 33.7144 147.777 74.6059C147.777 115.497 114.731 148.659 73.9812 148.659C33.2318 148.659 0.185181 115.497 0.185181 74.6059C0.185181 33.7144 33.2318 0.552813 73.9812 0.552813ZM73.9812 8.64526C110.278 8.64526 139.712 38.1831 139.712 74.6059C139.712 111.029 110.278 140.566 73.9812 140.566C37.6849 140.566 8.24966 111.029 8.24966 74.6059C8.24966 38.1831 37.6849 8.64526 73.9812 8.64526Z" fill="#456C91"/>
</svg>
