<svg viewBox="0 0 1156 486" fill="none" xmlns="http://www.w3.org/2000/svg">
<path d="M495.978 154.994V298.994L463.978 330.994V186.994L495.978 154.994Z" fill="#5C9EFF"/>
<path d="M1148 154.994V298.994L1116 330.994V186.994L1148 154.994Z" fill="#5C9EFF"/>
<path d="M495.978 154.994L463.978 186.994H319.978L351.978 154.994H495.978Z" fill="#94C1FF"/>
<path d="M1148 154.994L1116 186.994H972.003L1004 154.994H1148Z" fill="#94C1FF"/>
<path d="M463.978 186.994V330.994H407.978H319.978V242.914V186.994H463.978Z" fill="#D7E9FF"/>
<path d="M1116 186.994V330.994H1060H972.003V242.914V186.994H1116Z" fill="#D7E9FF"/>
<path d="M183.978 154.994L151.978 186.994H7.97778L39.9778 154.994H183.978Z" fill="#94C1FF"/>
<path d="M836.003 154.994L804.003 186.994H660.003L692.003 154.994H836.003Z" fill="#94C1FF"/>
<path d="M183.978 242.914V298.994L151.978 330.994V186.994L183.978 154.994V242.914Z" fill="#5C9EFF"/>
<path d="M836.003 242.914V298.994L804.003 330.994V186.994L836.003 154.994V242.914Z" fill="#5C9EFF"/>
<path d="M151.978 186.994V330.994H95.9778H7.97778V186.994H151.978Z" fill="#D7E9FF"/>
<path d="M804.003 186.994V330.994H748.003H660.003V186.994H804.003Z" fill="#D7E9FF"/>
<path d="M152.002 339.002H8.00195C3.57795 339.002 0.00195312 335.426 0.00195312 331.002V187.002C0.00195312 182.578 3.57795 179.002 8.00195 179.002H152.002C156.426 179.002 160.002 182.578 160.002 187.002V331.002C160.002 335.426 156.426 339.002 152.002 339.002ZM16.002 323.002H144.002V195.002H16.002C16.002 195.002 16.002 323.002 16.002 323.002Z" fill="#0037FF"/>
<path d="M804.027 339.002H660.027C655.603 339.002 652.027 335.426 652.027 331.002V187.002C652.027 182.578 655.603 179.002 660.027 179.002H804.027C808.451 179.002 812.027 182.578 812.027 187.002V331.002C812.027 335.426 808.451 339.002 804.027 339.002ZM668.027 323.002H796.027V195.002H668.027C668.027 195.002 668.027 323.002 668.027 323.002Z" fill="#0037FF"/>
<path d="M184.002 307.002C179.578 307.002 176.002 303.426 176.002 299.002V163.002H40.002C35.578 163.002 32.002 159.426 32.002 155.002C32.002 150.578 35.578 147.002 40.002 147.002H184.002C188.426 147.002 192.002 150.578 192.002 155.002V299.002C192.002 303.426 188.426 307.002 184.002 307.002Z" fill="#0037FF"/>
<path d="M836.027 307.002C831.603 307.002 828.027 303.426 828.027 299.002V163.002H692.027C687.603 163.002 684.027 159.426 684.027 155.002C684.027 150.578 687.603 147.002 692.027 147.002H836.027C840.451 147.002 844.027 150.578 844.027 155.002V299.002C844.027 303.426 840.451 307.002 836.027 307.002Z" fill="#0037FF"/>
<path d="M8.002 195.002C5.954 195.002 3.906 194.218 2.346 192.658C-0.782 189.53 -0.782 184.474 2.346 181.346L34.346 149.346C37.474 146.218 42.53 146.218 45.658 149.346C48.786 152.474 48.786 157.53 45.658 160.658L13.658 192.658C12.098 194.218 10.05 195.002 8.002 195.002Z" fill="#0037FF"/>
<path d="M660.027 195.002C657.979 195.002 655.931 194.218 654.371 192.658C651.243 189.53 651.243 184.474 654.371 181.346L686.371 149.346C689.499 146.218 694.555 146.218 697.683 149.346C700.811 152.474 700.811 157.53 697.683 160.658L665.683 192.658C664.123 194.218 662.075 195.002 660.027 195.002Z" fill="#0037FF"/>
<path d="M152.002 339.002C149.954 339.002 147.906 338.218 146.346 336.658C143.218 333.53 143.218 328.474 146.346 325.346L178.346 293.346C181.474 290.218 186.53 290.218 189.658 293.346C192.786 296.474 192.786 301.53 189.658 304.658L157.658 336.658C156.098 338.218 154.05 339.002 152.002 339.002Z" fill="#0037FF"/>
<path d="M804.027 339.002C801.979 339.002 799.931 338.218 798.371 336.658C795.243 333.53 795.243 328.474 798.371 325.346L830.371 293.346C833.499 290.218 838.555 290.218 841.683 293.346C844.811 296.474 844.811 301.53 841.683 304.658L809.683 336.658C808.123 338.218 806.075 339.002 804.027 339.002Z" fill="#0037FF"/>
<path d="M152.002 195.002C149.954 195.002 147.906 194.218 146.346 192.658C143.218 189.53 143.218 184.474 146.346 181.346L178.346 149.346C181.474 146.218 186.53 146.218 189.658 149.346C192.786 152.474 192.786 157.53 189.658 160.658L157.658 192.658C156.098 194.218 154.05 195.002 152.002 195.002Z" fill="#0037FF"/>
<path d="M804.027 195.002C801.979 195.002 799.931 194.218 798.371 192.658C795.243 189.53 795.243 184.474 798.371 181.346L830.371 149.346C833.499 146.218 838.555 146.218 841.683 149.346C844.811 152.474 844.811 157.53 841.683 160.658L809.683 192.658C808.123 194.218 806.075 195.002 804.027 195.002Z" fill="#0037FF"/>
<path d="M223.954 250.906H167.954C163.53 250.906 159.954 247.33 159.954 242.906C159.954 238.482 163.53 234.906 167.954 234.906H223.954C228.378 234.906 231.954 238.482 231.954 242.906C231.954 247.33 228.378 250.906 223.954 250.906Z" fill="#0037FF"/>
<path d="M875.979 250.906H819.979C815.555 250.906 811.979 247.33 811.979 242.906C811.979 238.482 815.555 234.906 819.979 234.906H875.979C880.403 234.906 883.979 238.482 883.979 242.906C883.979 247.33 880.403 250.906 875.979 250.906Z" fill="#0037FF"/>
<path d="M558.025 251H502.025C497.601 251 494.025 247.424 494.025 243C494.025 238.576 497.601 235 502.025 235H558.025C562.449 235 566.025 238.576 566.025 243C566.025 247.424 562.449 251 558.025 251Z" fill="#0037FF"/>
<path d="M263.954 274.906H231.954C214.306 274.906 199.954 260.554 199.954 242.906C199.954 225.258 214.306 210.906 231.954 210.906H263.954C281.602 210.906 295.954 225.258 295.954 242.906C295.954 260.554 281.602 274.906 263.954 274.906ZM231.954 226.906C223.13 226.906 215.954 234.082 215.954 242.906C215.954 251.73 223.13 258.906 231.954 258.906H263.954C272.778 258.906 279.954 251.73 279.954 242.906C279.954 234.082 272.778 226.906 263.954 226.906H231.954Z" fill="#0037FF"/>
<path d="M915.979 274.906H883.979C866.331 274.906 851.979 260.554 851.979 242.906C851.979 225.258 866.331 210.906 883.979 210.906H915.979C933.627 210.906 947.979 225.258 947.979 242.906C947.979 260.554 933.627 274.906 915.979 274.906ZM883.979 226.906C875.155 226.906 867.979 234.082 867.979 242.906C867.979 251.73 875.155 258.906 883.979 258.906H915.979C924.803 258.906 931.979 251.73 931.979 242.906C931.979 234.082 924.803 226.906 915.979 226.906H883.979Z" fill="#0037FF"/>
<path d="M598.025 275H566.025C548.377 275 534.025 260.648 534.025 243C534.025 225.352 548.377 211 566.025 211H598.025C615.673 211 630.025 225.352 630.025 243C630.025 260.648 615.673 275 598.025 275ZM566.025 227C557.201 227 550.025 234.176 550.025 243C550.025 251.824 557.201 259 566.025 259H598.025C606.849 259 614.025 251.824 614.025 243C614.025 234.176 606.849 227 598.025 227H566.025Z" fill="#0037FF"/>
<path d="M319.954 250.906H271.954C267.53 250.906 263.954 247.33 263.954 242.906C263.954 238.482 267.53 234.906 271.954 234.906H319.954C324.378 234.906 327.954 238.482 327.954 242.906C327.954 247.33 324.378 250.906 319.954 250.906Z" fill="#0037FF"/>
<path d="M971.979 250.906H923.979C919.555 250.906 915.979 247.33 915.979 242.906C915.979 238.482 919.555 234.906 923.979 234.906H971.979C976.403 234.906 979.979 238.482 979.979 242.906C979.979 247.33 976.403 250.906 971.979 250.906Z" fill="#0037FF"/>
<path d="M654.025 251H606.025C601.601 251 598.025 247.424 598.025 243C598.025 238.576 601.601 235 606.025 235H654.025C658.449 235 662.025 238.576 662.025 243C662.025 247.424 658.449 251 654.025 251Z" fill="#0037FF"/>
<path d="M463.954 339.002H319.954C315.53 339.002 311.954 335.426 311.954 331.002V187.002C311.954 182.578 315.53 179.002 319.954 179.002H463.954C468.378 179.002 471.954 182.578 471.954 187.002V331.002C471.954 335.426 468.378 339.002 463.954 339.002ZM327.954 323.002H455.954V195.002H327.954V323.002Z" fill="#0037FF"/>
<path d="M1115.98 339.002H971.979C967.555 339.002 963.979 335.426 963.979 331.002V187.002C963.979 182.578 967.555 179.002 971.979 179.002H1115.98C1120.4 179.002 1123.98 182.578 1123.98 187.002V331.002C1123.98 335.426 1120.4 339.002 1115.98 339.002ZM979.979 323.002H1107.98V195.002H979.979V323.002Z" fill="#0037FF"/>
<path d="M495.954 307.002C491.53 307.002 487.954 303.426 487.954 299.002V163.002H351.954C347.53 163.002 343.954 159.426 343.954 155.002C343.954 150.578 347.53 147.002 351.954 147.002H495.954C500.378 147.002 503.954 150.578 503.954 155.002V299.002C503.954 303.426 500.378 307.002 495.954 307.002Z" fill="#0037FF"/>
<path d="M1147.98 307.002C1143.56 307.002 1139.98 303.426 1139.98 299.002V163.002H1003.98C999.555 163.002 995.979 159.426 995.979 155.002C995.979 150.578 999.555 147.002 1003.98 147.002H1147.98C1152.4 147.002 1155.98 150.578 1155.98 155.002V299.002C1155.98 303.426 1152.4 307.002 1147.98 307.002Z" fill="#0037FF"/>
<path d="M319.954 195.002C317.906 195.002 315.858 194.218 314.298 192.658C311.17 189.53 311.17 184.474 314.298 181.346L346.298 149.346C349.426 146.218 354.482 146.218 357.61 149.346C360.738 152.474 360.738 157.53 357.61 160.658L325.61 192.658C324.05 194.218 322.002 195.002 319.954 195.002Z" fill="#0037FF"/>
<path d="M971.979 195.002C969.931 195.002 967.883 194.218 966.323 192.658C963.195 189.53 963.195 184.474 966.323 181.346L998.323 149.346C1001.45 146.218 1006.51 146.218 1009.63 149.346C1012.76 152.474 1012.76 157.53 1009.63 160.658L977.635 192.658C976.075 194.218 974.027 195.002 971.979 195.002Z" fill="#0037FF"/>
<path d="M463.954 339.002C461.906 339.002 459.858 338.218 458.298 336.658C455.17 333.53 455.17 328.474 458.298 325.346L490.298 293.346C493.426 290.218 498.482 290.218 501.61 293.346C504.738 296.474 504.738 301.53 501.61 304.658L469.61 336.658C468.05 338.218 466.002 339.002 463.954 339.002Z" fill="#0037FF"/>
<path d="M1115.98 339.002C1113.93 339.002 1111.88 338.218 1110.32 336.658C1107.19 333.53 1107.19 328.474 1110.32 325.346L1142.32 293.346C1145.45 290.218 1150.51 290.218 1153.63 293.346C1156.76 296.474 1156.76 301.53 1153.63 304.658L1121.63 336.658C1120.07 338.218 1118.03 339.002 1115.98 339.002Z" fill="#0037FF"/>
<path d="M463.954 195.002C461.906 195.002 459.858 194.218 458.298 192.658C455.17 189.53 455.17 184.474 458.298 181.346L490.298 149.346C493.426 146.218 498.482 146.218 501.61 149.346C504.738 152.474 504.738 157.53 501.61 160.658L469.61 192.658C468.05 194.218 466.002 195.002 463.954 195.002Z" fill="#0037FF"/>
<path d="M1115.98 195.002C1113.93 195.002 1111.88 194.218 1110.32 192.658C1107.19 189.53 1107.19 184.474 1110.32 181.346L1142.32 149.346C1145.45 146.218 1150.51 146.218 1153.63 149.346C1156.76 152.474 1156.76 157.53 1153.63 160.658L1121.63 192.658C1120.07 194.218 1118.03 195.002 1115.98 195.002Z" fill="#0037FF"/>
<path d="M289 6L867 480" stroke="#FF0000" stroke-width="15"/>
<path d="M867 6L289 480" stroke="#FF0000" stroke-width="15"/>
</svg>
