<svg viewBox="0 0 393 243" fill="none" xmlns="http://www.w3.org/2000/svg">
<g clip-path="url(#clip0)">
<path d="M92.6695 243C90.3948 243 88.5508 241.156 88.5508 238.881V210.051C88.5508 207.776 90.3948 205.932 92.6695 205.932C94.9442 205.932 96.7881 207.776 96.7881 210.051V238.881C96.7881 241.156 94.9442 243 92.6695 243Z" fill="#F29C1F"/>
<path d="M150.33 243C148.056 243 146.212 241.156 146.212 238.881V210.051C146.212 207.776 148.056 205.932 150.33 205.932C152.605 205.932 154.449 207.776 154.449 210.051V238.881C154.449 241.156 152.605 243 150.33 243Z" fill="#F29C1F"/>
<path d="M179.161 154.449V12.3559C179.161 5.53194 173.629 0 166.805 0H76.1949C69.3709 0 63.839 5.53194 63.839 12.3559V154.449C63.839 157.861 66.605 160.627 70.0169 160.627C73.4289 160.627 76.1949 163.393 76.1949 166.805V170.924C76.1949 174.336 73.4289 177.102 70.0169 177.102C66.605 177.102 63.839 179.868 63.839 183.28V187.398C63.839 190.81 66.605 193.576 70.0169 193.576H172.983C176.395 193.576 179.161 190.81 179.161 187.398V183.28C179.161 179.868 176.395 177.102 172.983 177.102C169.571 177.102 166.805 174.336 166.805 170.924V166.805C166.805 163.393 169.571 160.627 172.983 160.627C176.395 160.627 179.161 157.861 179.161 154.449Z" fill="#3F3D56"/>
<path d="M84.4322 193.576H100.907V205.932C100.907 208.207 99.0628 210.051 96.7881 210.051H88.5508C86.2762 210.051 84.4322 208.207 84.4322 205.932V193.576Z" fill="#F0C419"/>
<path d="M142.093 193.576H158.568V205.932C158.568 208.207 156.724 210.051 154.449 210.051H146.212C143.937 210.051 142.093 208.207 142.093 205.932V193.576Z" fill="#F0C419"/>
<path d="M80.3136 74.1357C78.0389 74.1357 76.1949 72.2917 76.1949 70.0171V57.6611C76.1949 55.3865 78.0389 53.5425 80.3136 53.5425C82.5882 53.5425 84.4322 55.3865 84.4322 57.6611V70.0171C84.4322 72.2917 82.5882 74.1357 80.3136 74.1357Z" fill="#E6EBFF"/>
<path d="M80.3136 45.3051C78.0389 45.3051 76.1949 43.4611 76.1949 41.1865V16.4746C76.1949 14.1999 78.0389 12.356 80.3136 12.356C82.5882 12.356 84.4322 14.1999 84.4322 16.4746V41.1865C84.4322 43.4611 82.5882 45.3051 80.3136 45.3051Z" fill="#E6EBFF"/>
<path d="M172.983 177.102H70.0169C73.4289 177.102 76.1949 174.336 76.1949 170.924V166.805C76.1949 163.393 73.4289 160.627 70.0169 160.627H172.983C169.571 160.627 166.805 163.393 166.805 166.805V170.924C166.805 174.336 169.571 177.102 172.983 177.102Z" fill="#3F3D56" fill-opacity="0.5"/>
</g>
<defs>
<clipPath id="clip0">
<rect width="243" height="243" fill="white"/>
</clipPath>
</defs>
</svg>
