<svg viewBox="0 0 1779 695" fill="none" xmlns="http://www.w3.org/2000/svg">
<circle cx="203.5" cy="275.5" r="203.5" fill="#3EC085"/>
<path d="M44.0777 401.978C65.479 428.954 93.3754 450.058 125.155 463.315C156.935 476.571 191.56 481.547 225.787 477.776C260.014 474.005 292.724 461.61 320.855 441.753C348.987 421.895 371.619 395.224 386.634 364.236C401.649 333.248 408.555 298.956 406.706 264.572C404.857 230.188 394.313 196.835 376.062 167.636C357.81 138.437 332.448 114.346 302.349 97.6204C272.25 80.8942 238.399 72.0792 203.965 72.0005L203.5 275.5L44.0777 401.978Z" fill="#6494F9"/>
<path d="M274.99 282.568H285.186V295.893C283.533 296.432 281.975 296.807 280.51 297.018C279.057 297.24 277.568 297.352 276.045 297.352C272.166 297.352 269.201 296.215 267.15 293.941C265.111 291.656 264.092 288.381 264.092 284.115C264.092 279.967 265.275 276.732 267.643 274.412C270.021 272.092 273.314 270.932 277.521 270.932C280.158 270.932 282.701 271.459 285.15 272.514L283.34 276.873C281.465 275.936 279.514 275.467 277.486 275.467C275.131 275.467 273.244 276.258 271.826 277.84C270.408 279.422 269.699 281.549 269.699 284.221C269.699 287.01 270.268 289.143 271.404 290.619C272.553 292.084 274.217 292.816 276.396 292.816C277.533 292.816 278.688 292.699 279.859 292.465V287.104H274.99V282.568ZM291.32 271.301H299.318C302.963 271.301 305.605 271.822 307.246 272.865C308.898 273.896 309.725 275.543 309.725 277.805C309.725 279.34 309.361 280.6 308.635 281.584C307.92 282.568 306.965 283.16 305.77 283.359V283.535C307.398 283.898 308.57 284.578 309.285 285.574C310.012 286.57 310.375 287.895 310.375 289.547C310.375 291.891 309.525 293.719 307.826 295.031C306.139 296.344 303.842 297 300.936 297H291.32V271.301ZM296.77 281.479H299.934C301.41 281.479 302.477 281.25 303.133 280.793C303.801 280.336 304.135 279.58 304.135 278.525C304.135 277.541 303.771 276.838 303.045 276.416C302.33 275.982 301.193 275.766 299.635 275.766H296.77V281.479ZM296.77 285.803V292.5H300.32C301.82 292.5 302.928 292.213 303.643 291.639C304.357 291.064 304.715 290.186 304.715 289.002C304.715 286.869 303.191 285.803 300.145 285.803H296.77ZM323.506 281.883L328.867 271.301H334.738L326.213 286.998V297H320.799V287.174L312.273 271.301H318.18L323.506 281.883ZM347.887 297H342.438V275.836H335.459V271.301H354.865V275.836H347.887V297ZM373.621 297H358.82V271.301H373.621V275.766H364.27V281.408H372.971V285.873H364.27V292.5H373.621V297Z" fill="white"/>
<path d="M51.9902 244.568H62.1855V257.893C60.5332 258.432 58.9746 258.807 57.5098 259.018C56.0566 259.24 54.5684 259.352 53.0449 259.352C49.166 259.352 46.2012 258.215 44.1504 255.941C42.1113 253.656 41.0918 250.381 41.0918 246.115C41.0918 241.967 42.2754 238.732 44.6426 236.412C47.0215 234.092 50.3145 232.932 54.5215 232.932C57.1582 232.932 59.7012 233.459 62.1504 234.514L60.3398 238.873C58.4648 237.936 56.5137 237.467 54.4863 237.467C52.1309 237.467 50.2441 238.258 48.8262 239.84C47.4082 241.422 46.6992 243.549 46.6992 246.221C46.6992 249.01 47.2676 251.143 48.4043 252.619C49.5527 254.084 51.2168 254.816 53.3965 254.816C54.5332 254.816 55.6875 254.699 56.8594 254.465V249.104H51.9902V244.568ZM73.7695 244.709H75.5273C77.25 244.709 78.5215 244.422 79.3418 243.848C80.1621 243.273 80.5723 242.371 80.5723 241.141C80.5723 239.922 80.1504 239.055 79.3066 238.539C78.4746 238.023 77.1797 237.766 75.4219 237.766H73.7695V244.709ZM73.7695 249.139V259H68.3203V233.301H75.8086C79.3008 233.301 81.8848 233.939 83.5605 235.217C85.2363 236.482 86.0742 238.41 86.0742 241C86.0742 242.512 85.6582 243.859 84.8262 245.043C83.9941 246.215 82.8164 247.135 81.293 247.803C85.1602 253.58 87.6797 257.312 88.8516 259H82.8047L76.6699 249.139H73.7695ZM113.408 245.904C113.408 250.135 112.201 253.375 109.787 255.625C107.385 257.875 103.91 259 99.3633 259H92.0859V233.301H100.154C104.35 233.301 107.607 234.408 109.928 236.623C112.248 238.838 113.408 241.932 113.408 245.904ZM107.748 246.045C107.748 240.525 105.311 237.766 100.436 237.766H97.5352V254.5H99.873C105.123 254.5 107.748 251.682 107.748 246.045ZM133.395 233.301H138.896L130.16 259H124.219L115.5 233.301H121.002L125.836 248.594C126.105 249.496 126.381 250.551 126.662 251.758C126.955 252.953 127.137 253.785 127.207 254.254C127.336 253.176 127.775 251.289 128.525 248.594L133.395 233.301ZM158.32 259H140.355V255.221L146.807 248.699C148.717 246.742 149.965 245.389 150.551 244.639C151.137 243.877 151.559 243.174 151.816 242.529C152.074 241.885 152.203 241.217 152.203 240.525C152.203 239.494 151.916 238.727 151.342 238.223C150.779 237.719 150.023 237.467 149.074 237.467C148.078 237.467 147.111 237.695 146.174 238.152C145.236 238.609 144.258 239.26 143.238 240.104L140.285 236.605C141.551 235.527 142.6 234.766 143.432 234.32C144.264 233.875 145.172 233.535 146.156 233.301C147.141 233.055 148.242 232.932 149.461 232.932C151.066 232.932 152.484 233.225 153.715 233.811C154.945 234.396 155.9 235.217 156.58 236.271C157.26 237.326 157.6 238.533 157.6 239.893C157.6 241.076 157.389 242.189 156.967 243.232C156.557 244.264 155.912 245.324 155.033 246.414C154.166 247.504 152.631 249.057 150.428 251.072L147.123 254.184V254.43H158.32V259Z" fill="white"/>
<path d="M761.484 175.315C762.09 175.315 762.593 175.359 762.993 175.447L762.656 179.637C762.295 179.539 761.855 179.49 761.338 179.49C759.912 179.49 758.799 179.856 757.998 180.589C757.207 181.321 756.812 182.347 756.812 183.665V192H752.344V175.623H755.728L756.387 178.377H756.606C757.114 177.459 757.798 176.722 758.657 176.165C759.526 175.599 760.469 175.315 761.484 175.315ZM772.749 178.494C771.802 178.494 771.06 178.797 770.522 179.402C769.985 179.998 769.678 180.848 769.6 181.951H775.869C775.85 180.848 775.562 179.998 775.005 179.402C774.448 178.797 773.696 178.494 772.749 178.494ZM773.379 192.293C770.742 192.293 768.682 191.565 767.197 190.11C765.713 188.655 764.971 186.595 764.971 183.929C764.971 181.185 765.654 179.065 767.021 177.571C768.398 176.067 770.298 175.315 772.72 175.315C775.034 175.315 776.836 175.975 778.125 177.293C779.414 178.611 780.059 180.433 780.059 182.757V184.925H769.497C769.546 186.194 769.922 187.186 770.625 187.898C771.328 188.611 772.314 188.968 773.584 188.968C774.57 188.968 775.503 188.865 776.382 188.66C777.261 188.455 778.179 188.128 779.136 187.679V191.136C778.354 191.526 777.52 191.814 776.631 192C775.742 192.195 774.658 192.293 773.379 192.293ZM795.117 187.137C795.117 188.816 794.531 190.096 793.359 190.975C792.197 191.854 790.454 192.293 788.13 192.293C786.938 192.293 785.923 192.21 785.083 192.044C784.243 191.888 783.457 191.653 782.725 191.341V187.649C783.555 188.04 784.487 188.367 785.522 188.631C786.567 188.895 787.485 189.026 788.276 189.026C789.897 189.026 790.708 188.558 790.708 187.62C790.708 187.269 790.601 186.985 790.386 186.771C790.171 186.546 789.8 186.297 789.272 186.023C788.745 185.74 788.042 185.413 787.163 185.042C785.903 184.515 784.976 184.026 784.38 183.577C783.794 183.128 783.364 182.615 783.091 182.039C782.827 181.453 782.695 180.735 782.695 179.886C782.695 178.431 783.257 177.308 784.38 176.517C785.513 175.716 787.114 175.315 789.185 175.315C791.157 175.315 793.076 175.745 794.941 176.604L793.594 179.827C792.773 179.476 792.007 179.188 791.294 178.963C790.581 178.738 789.854 178.626 789.111 178.626C787.793 178.626 787.134 178.982 787.134 179.695C787.134 180.096 787.344 180.442 787.764 180.735C788.193 181.028 789.126 181.463 790.562 182.039C791.841 182.557 792.778 183.04 793.374 183.489C793.97 183.938 794.409 184.456 794.692 185.042C794.976 185.628 795.117 186.326 795.117 187.137ZM805.386 178.494C804.438 178.494 803.696 178.797 803.159 179.402C802.622 179.998 802.314 180.848 802.236 181.951H808.506C808.486 180.848 808.198 179.998 807.642 179.402C807.085 178.797 806.333 178.494 805.386 178.494ZM806.016 192.293C803.379 192.293 801.318 191.565 799.834 190.11C798.35 188.655 797.607 186.595 797.607 183.929C797.607 181.185 798.291 179.065 799.658 177.571C801.035 176.067 802.935 175.315 805.356 175.315C807.671 175.315 809.473 175.975 810.762 177.293C812.051 178.611 812.695 180.433 812.695 182.757V184.925H802.134C802.183 186.194 802.559 187.186 803.262 187.898C803.965 188.611 804.951 188.968 806.221 188.968C807.207 188.968 808.14 188.865 809.019 188.66C809.897 188.455 810.815 188.128 811.772 187.679V191.136C810.991 191.526 810.156 191.814 809.268 192C808.379 192.195 807.295 192.293 806.016 192.293ZM825.469 175.315C826.074 175.315 826.577 175.359 826.978 175.447L826.641 179.637C826.279 179.539 825.84 179.49 825.322 179.49C823.896 179.49 822.783 179.856 821.982 180.589C821.191 181.321 820.796 182.347 820.796 183.665V192H816.328V175.623H819.712L820.371 178.377H820.591C821.099 177.459 821.782 176.722 822.642 176.165C823.511 175.599 824.453 175.315 825.469 175.315ZM833.848 192L827.607 175.623H832.28L835.444 184.954C835.796 186.136 836.016 187.254 836.104 188.309H836.191C836.24 187.371 836.46 186.253 836.851 184.954L840 175.623H844.673L838.433 192H833.848ZM853.813 178.494C852.866 178.494 852.124 178.797 851.587 179.402C851.05 179.998 850.742 180.848 850.664 181.951H856.934C856.914 180.848 856.626 179.998 856.069 179.402C855.513 178.797 854.761 178.494 853.813 178.494ZM854.443 192.293C851.807 192.293 849.746 191.565 848.262 190.11C846.777 188.655 846.035 186.595 846.035 183.929C846.035 181.185 846.719 179.065 848.086 177.571C849.463 176.067 851.362 175.315 853.784 175.315C856.099 175.315 857.9 175.975 859.189 177.293C860.479 178.611 861.123 180.433 861.123 182.757V184.925H850.562C850.61 186.194 850.986 187.186 851.689 187.898C852.393 188.611 853.379 188.968 854.648 188.968C855.635 188.968 856.567 188.865 857.446 188.66C858.325 188.455 859.243 188.128 860.2 187.679V191.136C859.419 191.526 858.584 191.814 857.695 192C856.807 192.195 855.723 192.293 854.443 192.293ZM751.201 224.782C751.201 222.194 751.577 219.772 752.329 217.517C753.091 215.261 754.185 213.283 755.61 211.584H759.272C757.896 213.469 756.855 215.539 756.152 217.795C755.449 220.051 755.098 222.37 755.098 224.753C755.098 227.146 755.454 229.46 756.167 231.696C756.89 233.923 757.915 235.939 759.243 237.746H755.61C754.175 236.086 753.081 234.147 752.329 231.931C751.577 229.714 751.201 227.331 751.201 224.782ZM770.991 220.974H779.487V232.077C778.11 232.526 776.812 232.839 775.591 233.015C774.38 233.2 773.14 233.293 771.87 233.293C768.638 233.293 766.167 232.346 764.458 230.451C762.759 228.547 761.909 225.817 761.909 222.263C761.909 218.806 762.896 216.11 764.868 214.177C766.851 212.243 769.595 211.276 773.101 211.276C775.298 211.276 777.417 211.716 779.458 212.595L777.949 216.228C776.387 215.446 774.761 215.056 773.071 215.056C771.108 215.056 769.536 215.715 768.354 217.033C767.173 218.352 766.582 220.124 766.582 222.351C766.582 224.675 767.056 226.452 768.003 227.683C768.96 228.903 770.347 229.514 772.163 229.514C773.11 229.514 774.072 229.416 775.049 229.221V224.753H770.991V220.974ZM784.6 211.584H791.265C794.302 211.584 796.504 212.019 797.871 212.888C799.248 213.747 799.937 215.119 799.937 217.004C799.937 218.283 799.634 219.333 799.028 220.153C798.433 220.974 797.637 221.467 796.641 221.633V221.779C797.998 222.082 798.975 222.648 799.57 223.479C800.176 224.309 800.479 225.412 800.479 226.789C800.479 228.742 799.771 230.266 798.354 231.359C796.948 232.453 795.034 233 792.612 233H784.6V211.584ZM789.141 220.065H791.777C793.008 220.065 793.896 219.875 794.443 219.494C795 219.113 795.278 218.483 795.278 217.604C795.278 216.784 794.976 216.198 794.37 215.847C793.774 215.485 792.827 215.305 791.528 215.305H789.141V220.065ZM789.141 223.669V229.25H792.1C793.35 229.25 794.272 229.011 794.868 228.532C795.464 228.054 795.762 227.321 795.762 226.335C795.762 224.558 794.492 223.669 791.953 223.669H789.141ZM811.421 220.402L815.889 211.584H820.781L813.677 224.665V233H809.165V224.812L802.061 211.584H806.982L811.421 220.402ZM831.738 233H827.197V215.363H821.382V211.584H837.554V215.363H831.738V233ZM853.184 233H840.85V211.584H853.184V215.305H845.391V220.007H852.642V223.728H845.391V229.25H853.184V233ZM863.936 224.782C863.936 227.351 863.555 229.743 862.793 231.96C862.041 234.177 860.952 236.105 859.526 237.746H855.894C857.212 235.949 858.232 233.938 858.955 231.711C859.678 229.475 860.039 227.155 860.039 224.753C860.039 222.37 859.688 220.051 858.984 217.795C858.281 215.539 857.241 213.469 855.864 211.584H859.526C860.962 213.293 862.056 215.28 862.808 217.546C863.56 219.802 863.936 222.214 863.936 224.782Z" fill="black"/>
<path d="M657.426 44.5H653.983V30.6719C653.983 29.0215 654.022 27.7129 654.101 26.7461C653.876 26.9805 653.598 27.2393 653.266 27.5225C652.943 27.8057 651.85 28.7041 649.984 30.2178L648.256 28.0352L654.555 23.084H657.426V44.5ZM678.974 33.792C678.974 37.5127 678.373 40.2764 677.172 42.083C675.98 43.8896 674.154 44.793 671.693 44.793C669.311 44.793 667.504 43.8604 666.273 41.9951C665.043 40.1299 664.428 37.3955 664.428 33.792C664.428 30.0127 665.023 27.2295 666.215 25.4424C667.416 23.6455 669.242 22.7471 671.693 22.7471C674.086 22.7471 675.897 23.6846 677.128 25.5596C678.358 27.4346 678.974 30.1787 678.974 33.792ZM667.914 33.792C667.914 36.7119 668.212 38.7969 668.808 40.0469C669.413 41.2969 670.375 41.9219 671.693 41.9219C673.012 41.9219 673.974 41.2871 674.579 40.0176C675.194 38.748 675.502 36.6729 675.502 33.792C675.502 30.9209 675.194 28.8457 674.579 27.5664C673.974 26.2773 673.012 25.6328 671.693 25.6328C670.375 25.6328 669.413 26.2627 668.808 27.5225C668.212 28.7822 667.914 30.8721 667.914 33.792ZM686.063 35.9453L688.012 33.5137L692.904 28.2988H696.874L690.355 35.2568L697.284 44.5H693.241L688.041 37.3955L686.151 38.9482V44.5H682.738V21.707H686.151V32.8252L685.976 35.9453H686.063Z" fill="black"/>
<path d="M670.555 105.806C672.586 105.806 674.192 106.274 675.374 107.212C676.556 108.14 677.146 109.385 677.146 110.947C677.146 113.145 675.828 114.893 673.191 116.191C674.871 117.031 676.062 117.915 676.766 118.843C677.479 119.771 677.835 120.806 677.835 121.948C677.835 123.716 677.186 125.132 675.887 126.196C674.588 127.261 672.83 127.793 670.613 127.793C668.289 127.793 666.487 127.295 665.208 126.299C663.929 125.303 663.289 123.892 663.289 122.065C663.289 120.874 663.621 119.805 664.285 118.857C664.959 117.9 666.058 117.051 667.581 116.309C666.272 115.527 665.34 114.702 664.783 113.833C664.227 112.964 663.948 111.987 663.948 110.903C663.948 109.351 664.559 108.115 665.779 107.197C667 106.27 668.592 105.806 670.555 105.806ZM666.585 121.948C666.585 122.964 666.941 123.755 667.654 124.321C668.367 124.878 669.334 125.156 670.555 125.156C671.814 125.156 672.791 124.868 673.484 124.292C674.188 123.706 674.539 122.915 674.539 121.919C674.539 121.128 674.217 120.405 673.572 119.751C672.928 119.097 671.951 118.491 670.643 117.935L670.218 117.744C668.929 118.311 668.001 118.936 667.435 119.619C666.868 120.293 666.585 121.069 666.585 121.948ZM670.525 108.457C669.549 108.457 668.763 108.701 668.167 109.189C667.571 109.668 667.273 110.322 667.273 111.152C667.273 111.66 667.381 112.114 667.596 112.515C667.811 112.915 668.123 113.281 668.533 113.613C668.943 113.936 669.637 114.326 670.613 114.785C671.785 114.268 672.61 113.726 673.089 113.159C673.577 112.583 673.821 111.914 673.821 111.152C673.821 110.322 673.519 109.668 672.913 109.189C672.317 108.701 671.521 108.457 670.525 108.457ZM684.925 118.945L686.873 116.514L691.766 111.299H695.735L689.217 118.257L696.146 127.5H692.103L686.902 120.396L685.013 121.948V127.5H681.6V104.707H685.013V115.825L684.837 118.945H684.925Z" fill="black"/>
<path d="M663.377 206.374C663.377 197.995 666.79 193.806 673.616 193.806C674.69 193.806 675.599 193.889 676.341 194.055V196.926C675.599 196.711 674.739 196.604 673.763 196.604C671.468 196.604 669.744 197.219 668.592 198.449C667.439 199.68 666.814 201.652 666.717 204.367H666.893C667.352 203.576 667.996 202.966 668.826 202.536C669.656 202.097 670.633 201.877 671.756 201.877C673.699 201.877 675.213 202.473 676.297 203.664C677.381 204.855 677.923 206.472 677.923 208.513C677.923 210.759 677.293 212.536 676.033 213.845C674.783 215.144 673.074 215.793 670.906 215.793C669.373 215.793 668.04 215.427 666.907 214.694C665.774 213.952 664.9 212.878 664.285 211.472C663.68 210.056 663.377 208.356 663.377 206.374ZM670.848 212.951C672.029 212.951 672.938 212.57 673.572 211.809C674.217 211.047 674.539 209.958 674.539 208.542C674.539 207.312 674.236 206.345 673.631 205.642C673.035 204.938 672.137 204.587 670.936 204.587C670.193 204.587 669.51 204.748 668.885 205.07C668.26 205.383 667.767 205.817 667.405 206.374C667.044 206.921 666.863 207.482 666.863 208.059C666.863 209.436 667.234 210.598 667.977 211.545C668.729 212.482 669.686 212.951 670.848 212.951ZM684.925 206.945L686.873 204.514L691.766 199.299H695.735L689.217 206.257L696.146 215.5H692.103L686.902 208.396L685.013 209.948V215.5H681.6V192.707H685.013V203.825L684.837 206.945H684.925Z" fill="black"/>
<path d="M688.597 295.327H685.711V300H682.356V295.327H672.571V292.676L682.356 278.525H685.711V292.471H688.597V295.327ZM682.356 292.471V287.095C682.356 285.181 682.405 283.613 682.503 282.393H682.386C682.112 283.037 681.683 283.818 681.097 284.736L675.779 292.471H682.356ZM694.925 291.445L696.873 289.014L701.766 283.799H705.735L699.217 290.757L706.146 300H702.103L696.902 292.896L695.013 294.448V300H691.6V277.207H695.013V288.325L694.837 291.445H694.925Z" fill="black"/>
<path d="M687.835 385H673.318V382.393L678.841 376.841C680.472 375.171 681.551 373.989 682.078 373.296C682.615 372.593 683.006 371.934 683.25 371.318C683.494 370.703 683.616 370.044 683.616 369.341C683.616 368.374 683.323 367.612 682.737 367.056C682.161 366.499 681.36 366.221 680.335 366.221C679.515 366.221 678.719 366.372 677.947 366.675C677.186 366.978 676.302 367.524 675.296 368.315L673.436 366.045C674.627 365.039 675.784 364.326 676.907 363.906C678.03 363.486 679.227 363.276 680.496 363.276C682.488 363.276 684.085 363.799 685.286 364.844C686.487 365.879 687.088 367.275 687.088 369.033C687.088 370 686.912 370.918 686.561 371.787C686.219 372.656 685.687 373.555 684.964 374.482C684.251 375.4 683.06 376.646 681.39 378.218L677.669 381.821V381.968H687.835V385ZM694.925 376.445L696.873 374.014L701.766 368.799H705.735L699.217 375.757L706.146 385H702.103L696.902 377.896L695.013 379.448V385H691.6V362.207H695.013V373.325L694.837 376.445H694.925Z" fill="black"/>
<path d="M1713.95 305.324C1712.33 305.759 1710.94 305.524 1709.79 304.619C1708.64 303.724 1707.77 302.154 1707.17 299.909C1706.86 298.758 1706.67 297.756 1706.62 296.902C1706.55 296.05 1706.57 295.23 1706.69 294.442L1710.25 293.486C1710.09 294.389 1710.01 295.375 1710.03 296.443C1710.04 297.52 1710.15 298.441 1710.36 299.205C1710.78 300.771 1711.44 301.433 1712.35 301.19C1712.69 301.099 1712.93 300.922 1713.08 300.659C1713.25 300.393 1713.39 299.97 1713.52 299.39C1713.65 298.807 1713.79 298.044 1713.92 297.099C1714.1 295.745 1714.33 294.723 1714.61 294.031C1714.9 293.349 1715.28 292.801 1715.77 292.388C1716.26 291.982 1716.92 291.668 1717.74 291.449C1719.15 291.072 1720.38 291.324 1721.43 292.204C1722.5 293.091 1723.3 294.534 1723.84 296.534C1724.35 298.439 1724.43 300.404 1724.08 302.428L1720.62 301.96C1720.75 301.077 1720.83 300.262 1720.86 299.515C1720.89 298.769 1720.81 298.037 1720.62 297.32C1720.28 296.046 1719.76 295.502 1719.08 295.686C1718.69 295.79 1718.41 296.083 1718.23 296.564C1718.06 297.055 1717.88 298.068 1717.7 299.604C1717.53 300.974 1717.31 302.004 1717.03 302.696C1716.75 303.388 1716.36 303.946 1715.87 304.371C1715.38 304.797 1714.74 305.114 1713.95 305.324ZM1712.76 319.657L1711.59 315.284L1723.56 312.077L1725.54 311.592L1727.71 311.087C1726.79 310.555 1726.17 310.178 1725.87 309.956L1723.32 308.091L1725.39 305.277L1732.48 310.52L1733.45 314.114L1712.76 319.657ZM1724.25 330.802C1726.75 330.132 1729.19 329.868 1731.56 330.011C1733.94 330.163 1736.13 330.707 1738.14 331.645L1739.09 335.182C1736.91 334.34 1734.65 333.871 1732.28 333.776C1729.92 333.68 1727.59 333.941 1725.29 334.558C1722.98 335.177 1720.84 336.12 1718.86 337.388C1716.9 338.662 1715.21 340.174 1713.81 341.925L1712.87 338.416C1714.11 336.6 1715.69 335.041 1717.64 333.741C1719.59 332.441 1721.79 331.461 1724.25 330.802ZM1733.06 348.932L1735.25 357.138L1724.53 360.012C1723.74 358.798 1723.1 357.625 1722.61 356.491C1722.12 355.369 1721.71 354.195 1721.38 352.969C1720.55 349.847 1720.82 347.215 1722.21 345.074C1723.61 342.94 1726.03 341.413 1729.46 340.493C1732.8 339.598 1735.66 339.853 1738.04 341.258C1740.42 342.672 1742.06 345.073 1742.97 348.459C1743.54 350.582 1743.66 352.742 1743.34 354.941L1739.44 354.424C1739.79 352.713 1739.75 351.041 1739.31 349.409C1738.8 347.513 1737.76 346.165 1736.18 345.365C1734.6 344.565 1732.73 344.453 1730.58 345.029C1728.34 345.631 1726.74 346.548 1725.8 347.782C1724.87 349.022 1724.64 350.519 1725.11 352.274C1725.35 353.189 1725.7 354.093 1726.14 354.985L1730.45 353.829L1729.4 349.91L1733.06 348.932ZM1737.64 366.493L1738.02 367.908C1738.39 369.294 1738.9 370.256 1739.53 370.792C1740.17 371.329 1740.99 371.464 1741.98 371.199C1742.96 370.936 1743.57 370.41 1743.8 369.619C1744.04 368.838 1743.96 367.74 1743.58 366.325L1743.23 364.995L1737.64 366.493ZM1734.07 367.448L1726.14 369.575L1724.96 365.189L1745.65 359.646L1747.26 365.674C1748.02 368.485 1748.06 370.702 1747.39 372.327C1746.73 373.949 1745.36 375.039 1743.28 375.597C1742.06 375.924 1740.89 375.879 1739.76 375.465C1738.63 375.048 1737.64 374.298 1736.77 373.216C1732.96 377.575 1730.49 380.408 1729.39 381.715L1728.08 376.848L1734.7 369.783L1734.07 367.448ZM1745.23 398.657C1741.82 399.57 1738.95 399.297 1736.62 397.839C1734.29 396.391 1732.64 393.837 1731.66 390.177L1730.09 384.319L1750.77 378.776L1752.51 385.27C1753.42 388.647 1753.23 391.509 1751.95 393.854C1750.66 396.199 1748.42 397.801 1745.23 398.657ZM1743.89 394.132C1748.34 392.941 1750.03 390.384 1748.98 386.46L1748.35 384.125L1734.88 387.735L1735.39 389.616C1736.52 393.842 1739.36 395.347 1743.89 394.132ZM1759.68 412.027L1760.87 416.456L1738.3 414.966L1737.02 410.184L1755.82 397.623L1757.01 402.052L1745.74 409.241C1745.07 409.653 1744.28 410.102 1743.37 410.588C1742.47 411.082 1741.84 411.408 1741.48 411.565C1742.38 411.437 1743.99 411.384 1746.32 411.406L1759.68 412.027ZM1744.37 437.633L1740.5 423.173L1743.54 422.358L1750.18 426.144C1752.17 427.259 1753.53 427.972 1754.26 428.282C1755 428.589 1755.65 428.777 1756.23 428.846C1756.8 428.914 1757.37 428.874 1757.92 428.725C1758.75 428.502 1759.31 428.106 1759.59 427.535C1759.88 426.973 1759.92 426.311 1759.71 425.547C1759.5 424.745 1759.1 424.016 1758.53 423.36C1757.96 422.704 1757.23 422.056 1756.33 421.418L1758.51 418.286C1759.65 419.072 1760.49 419.752 1761.03 420.326C1761.56 420.9 1762.03 421.557 1762.43 422.299C1762.85 423.038 1763.18 423.899 1763.44 424.88C1763.79 426.172 1763.86 427.377 1763.65 428.493C1763.45 429.61 1762.99 430.556 1762.29 431.33C1761.59 432.105 1760.69 432.639 1759.6 432.932C1758.64 433.187 1757.7 433.258 1756.77 433.143C1755.85 433.035 1754.86 432.745 1753.79 432.273C1752.73 431.81 1751.15 430.909 1749.05 429.57L1745.83 427.581L1745.64 427.635L1748.05 436.648L1744.37 437.633ZM1754.88 445.1C1752.4 445.764 1749.99 446.016 1747.65 445.854C1745.32 445.701 1743.17 445.149 1741.22 444.196L1740.28 440.687C1742.35 441.495 1744.56 441.96 1746.9 442.082C1749.25 442.201 1751.58 441.95 1753.9 441.328C1756.2 440.712 1758.35 439.772 1760.35 438.509C1762.35 437.246 1764.08 435.705 1765.54 433.887L1766.49 437.425C1765.21 439.254 1763.57 440.825 1761.58 442.137C1759.59 443.448 1757.36 444.435 1754.88 445.1Z" fill="black"/>
<path d="M708.835 494H694.318V491.393L699.841 485.841C701.472 484.171 702.551 482.989 703.078 482.296C703.615 481.593 704.006 480.934 704.25 480.318C704.494 479.703 704.616 479.044 704.616 478.341C704.616 477.374 704.323 476.612 703.737 476.056C703.161 475.499 702.36 475.221 701.335 475.221C700.515 475.221 699.719 475.372 698.947 475.675C698.186 475.978 697.302 476.524 696.296 477.315L694.436 475.045C695.627 474.039 696.784 473.326 697.907 472.906C699.03 472.486 700.227 472.276 701.496 472.276C703.488 472.276 705.085 472.799 706.286 473.844C707.487 474.879 708.088 476.275 708.088 478.033C708.088 479 707.912 479.918 707.561 480.787C707.219 481.656 706.687 482.555 705.964 483.482C705.251 484.4 704.06 485.646 702.39 487.218L698.669 490.821V490.968H708.835V494ZM718.723 480.626C720.881 480.626 722.59 481.197 723.85 482.34C725.109 483.482 725.739 485.04 725.739 487.013C725.739 489.298 725.021 491.085 723.586 492.374C722.16 493.653 720.129 494.293 717.492 494.293C715.1 494.293 713.22 493.907 711.853 493.136V490.016C712.644 490.465 713.552 490.812 714.577 491.056C715.603 491.3 716.555 491.422 717.434 491.422C718.986 491.422 720.168 491.075 720.979 490.382C721.789 489.688 722.194 488.673 722.194 487.335C722.194 484.776 720.563 483.497 717.302 483.497C716.843 483.497 716.276 483.546 715.603 483.644C714.929 483.731 714.338 483.834 713.83 483.951L712.292 483.043L713.112 472.584H724.245V475.646H716.145L715.661 480.948C716.003 480.89 716.418 480.821 716.906 480.743C717.404 480.665 718.01 480.626 718.723 480.626ZM743.112 483.292C743.112 487.013 742.512 489.776 741.311 491.583C740.119 493.39 738.293 494.293 735.832 494.293C733.449 494.293 731.643 493.36 730.412 491.495C729.182 489.63 728.566 486.896 728.566 483.292C728.566 479.513 729.162 476.729 730.354 474.942C731.555 473.146 733.381 472.247 735.832 472.247C738.225 472.247 740.036 473.185 741.267 475.06C742.497 476.935 743.112 479.679 743.112 483.292ZM732.053 483.292C732.053 486.212 732.351 488.297 732.946 489.547C733.552 490.797 734.514 491.422 735.832 491.422C737.15 491.422 738.112 490.787 738.718 489.518C739.333 488.248 739.641 486.173 739.641 483.292C739.641 480.421 739.333 478.346 738.718 477.066C738.112 475.777 737.15 475.133 735.832 475.133C734.514 475.133 733.552 475.763 732.946 477.022C732.351 478.282 732.053 480.372 732.053 483.292ZM750.202 485.445L752.15 483.014L757.043 477.799H761.013L754.494 484.757L761.423 494H757.38L752.18 486.896L750.29 488.448V494H746.877V471.207H750.29V482.325L750.114 485.445H750.202Z" fill="black"/>
<path d="M1130.43 521H1126.98V507.172C1126.98 505.521 1127.02 504.213 1127.1 503.246C1126.88 503.48 1126.6 503.739 1126.27 504.022C1125.94 504.306 1124.85 505.204 1122.98 506.718L1121.26 504.535L1127.55 499.584H1130.43V521ZM1151.97 510.292C1151.97 514.013 1151.37 516.776 1150.17 518.583C1148.98 520.39 1147.15 521.293 1144.69 521.293C1142.31 521.293 1140.5 520.36 1139.27 518.495C1138.04 516.63 1137.43 513.896 1137.43 510.292C1137.43 506.513 1138.02 503.729 1139.21 501.942C1140.42 500.146 1142.24 499.247 1144.69 499.247C1147.09 499.247 1148.9 500.185 1150.13 502.06C1151.36 503.935 1151.97 506.679 1151.97 510.292ZM1140.91 510.292C1140.91 513.212 1141.21 515.297 1141.81 516.547C1142.41 517.797 1143.38 518.422 1144.69 518.422C1146.01 518.422 1146.97 517.787 1147.58 516.518C1148.19 515.248 1148.5 513.173 1148.5 510.292C1148.5 507.421 1148.19 505.346 1147.58 504.066C1146.97 502.777 1146.01 502.133 1144.69 502.133C1143.38 502.133 1142.41 502.763 1141.81 504.022C1141.21 505.282 1140.91 507.372 1140.91 510.292ZM1169.11 510.292C1169.11 514.013 1168.51 516.776 1167.31 518.583C1166.12 520.39 1164.29 521.293 1161.83 521.293C1159.45 521.293 1157.64 520.36 1156.41 518.495C1155.18 516.63 1154.57 513.896 1154.57 510.292C1154.57 506.513 1155.16 503.729 1156.35 501.942C1157.55 500.146 1159.38 499.247 1161.83 499.247C1164.22 499.247 1166.04 500.185 1167.27 502.06C1168.5 503.935 1169.11 506.679 1169.11 510.292ZM1158.05 510.292C1158.05 513.212 1158.35 515.297 1158.95 516.547C1159.55 517.797 1160.51 518.422 1161.83 518.422C1163.15 518.422 1164.11 517.787 1164.72 516.518C1165.33 515.248 1165.64 513.173 1165.64 510.292C1165.64 507.421 1165.33 505.346 1164.72 504.066C1164.11 502.777 1163.15 502.133 1161.83 502.133C1160.51 502.133 1159.55 502.763 1158.95 504.022C1158.35 505.282 1158.05 507.372 1158.05 510.292ZM1176.2 512.445L1178.15 510.014L1183.04 504.799H1187.01L1180.49 511.757L1187.42 521H1183.38L1178.18 513.896L1176.29 515.448V521H1172.88V498.207H1176.29V509.325L1176.11 512.445H1176.2Z" fill="black"/>
<path d="M881.835 508H867.318V505.393L872.841 499.841C874.472 498.171 875.551 496.989 876.078 496.296C876.615 495.593 877.006 494.934 877.25 494.318C877.494 493.703 877.616 493.044 877.616 492.341C877.616 491.374 877.323 490.612 876.737 490.056C876.161 489.499 875.36 489.221 874.335 489.221C873.515 489.221 872.719 489.372 871.947 489.675C871.186 489.978 870.302 490.524 869.296 491.315L867.436 489.045C868.627 488.039 869.784 487.326 870.907 486.906C872.03 486.486 873.227 486.276 874.496 486.276C876.488 486.276 878.085 486.799 879.286 487.844C880.487 488.879 881.088 490.275 881.088 492.033C881.088 493 880.912 493.918 880.561 494.787C880.219 495.656 879.687 496.555 878.964 497.482C878.251 498.4 877.06 499.646 875.39 501.218L871.669 504.821V504.968H881.835V508ZM898.974 497.292C898.974 501.013 898.373 503.776 897.172 505.583C895.98 507.39 894.154 508.293 891.693 508.293C889.311 508.293 887.504 507.36 886.273 505.495C885.043 503.63 884.428 500.896 884.428 497.292C884.428 493.513 885.023 490.729 886.215 488.942C887.416 487.146 889.242 486.247 891.693 486.247C894.086 486.247 895.897 487.185 897.128 489.06C898.358 490.935 898.974 493.679 898.974 497.292ZM887.914 497.292C887.914 500.212 888.212 502.297 888.808 503.547C889.413 504.797 890.375 505.422 891.693 505.422C893.012 505.422 893.974 504.787 894.579 503.518C895.194 502.248 895.502 500.173 895.502 497.292C895.502 494.421 895.194 492.346 894.579 491.066C893.974 489.777 893.012 489.133 891.693 489.133C890.375 489.133 889.413 489.763 888.808 491.022C888.212 492.282 887.914 494.372 887.914 497.292ZM916.112 497.292C916.112 501.013 915.512 503.776 914.311 505.583C913.119 507.39 911.293 508.293 908.832 508.293C906.449 508.293 904.643 507.36 903.412 505.495C902.182 503.63 901.566 500.896 901.566 497.292C901.566 493.513 902.162 490.729 903.354 488.942C904.555 487.146 906.381 486.247 908.832 486.247C911.225 486.247 913.036 487.185 914.267 489.06C915.497 490.935 916.112 493.679 916.112 497.292ZM905.053 497.292C905.053 500.212 905.351 502.297 905.946 503.547C906.552 504.797 907.514 505.422 908.832 505.422C910.15 505.422 911.112 504.787 911.718 503.518C912.333 502.248 912.641 500.173 912.641 497.292C912.641 494.421 912.333 492.346 911.718 491.066C911.112 489.777 910.15 489.133 908.832 489.133C907.514 489.133 906.552 489.763 905.946 491.022C905.351 492.282 905.053 494.372 905.053 497.292ZM923.202 499.445L925.15 497.014L930.043 491.799H934.013L927.494 498.757L934.423 508H930.38L925.18 500.896L923.29 502.448V508H919.877V485.207H923.29V496.325L923.114 499.445H923.202Z" fill="black"/>
<path d="M1361.58 523.626C1363.74 523.626 1365.45 524.197 1366.71 525.34C1367.97 526.482 1368.6 528.04 1368.6 530.013C1368.6 532.298 1367.88 534.085 1366.45 535.374C1365.02 536.653 1362.99 537.293 1360.35 537.293C1357.96 537.293 1356.08 536.907 1354.71 536.136V533.016C1355.5 533.465 1356.41 533.812 1357.44 534.056C1358.46 534.3 1359.42 534.422 1360.29 534.422C1361.85 534.422 1363.03 534.075 1363.84 533.382C1364.65 532.688 1365.06 531.673 1365.06 530.335C1365.06 527.776 1363.42 526.497 1360.16 526.497C1359.7 526.497 1359.14 526.546 1358.46 526.644C1357.79 526.731 1357.2 526.834 1356.69 526.951L1355.15 526.043L1355.97 515.584H1367.11V518.646H1359.01L1358.52 523.948C1358.86 523.89 1359.28 523.821 1359.77 523.743C1360.27 523.665 1360.87 523.626 1361.58 523.626ZM1385.97 526.292C1385.97 530.013 1385.37 532.776 1384.17 534.583C1382.98 536.39 1381.15 537.293 1378.69 537.293C1376.31 537.293 1374.5 536.36 1373.27 534.495C1372.04 532.63 1371.43 529.896 1371.43 526.292C1371.43 522.513 1372.02 519.729 1373.21 517.942C1374.42 516.146 1376.24 515.247 1378.69 515.247C1381.09 515.247 1382.9 516.185 1384.13 518.06C1385.36 519.935 1385.97 522.679 1385.97 526.292ZM1374.91 526.292C1374.91 529.212 1375.21 531.297 1375.81 532.547C1376.41 533.797 1377.38 534.422 1378.69 534.422C1380.01 534.422 1380.97 533.787 1381.58 532.518C1382.19 531.248 1382.5 529.173 1382.5 526.292C1382.5 523.421 1382.19 521.346 1381.58 520.066C1380.97 518.777 1380.01 518.133 1378.69 518.133C1377.38 518.133 1376.41 518.763 1375.81 520.022C1375.21 521.282 1374.91 523.372 1374.91 526.292ZM1393.06 528.445L1395.01 526.014L1399.9 520.799H1403.87L1397.36 527.757L1404.28 537H1400.24L1395.04 529.896L1393.15 531.448V537H1389.74V514.207H1393.15V525.325L1392.98 528.445H1393.06Z" fill="black"/>
<path d="M1586.83 284.292C1586.83 288.013 1586.23 290.776 1585.03 292.583C1583.84 294.39 1582.02 295.293 1579.55 295.293C1577.17 295.293 1575.37 294.36 1574.13 292.495C1572.9 290.63 1572.29 287.896 1572.29 284.292C1572.29 280.513 1572.88 277.729 1574.08 275.942C1575.28 274.146 1577.1 273.247 1579.55 273.247C1581.95 273.247 1583.76 274.185 1584.99 276.06C1586.22 277.935 1586.83 280.679 1586.83 284.292ZM1575.78 284.292C1575.78 287.212 1576.07 289.297 1576.67 290.547C1577.27 291.797 1578.24 292.422 1579.55 292.422C1580.87 292.422 1581.83 291.787 1582.44 290.518C1583.06 289.248 1583.36 287.173 1583.36 284.292C1583.36 281.421 1583.06 279.346 1582.44 278.066C1581.83 276.777 1580.87 276.133 1579.55 276.133C1578.24 276.133 1577.27 276.763 1576.67 278.022C1576.07 279.282 1575.78 281.372 1575.78 284.292ZM1590.09 293.169C1590.09 292.456 1590.27 291.909 1590.64 291.528C1591.01 291.147 1591.55 290.957 1592.25 290.957C1592.97 290.957 1593.51 291.157 1593.88 291.558C1594.25 291.948 1594.44 292.485 1594.44 293.169C1594.44 293.862 1594.25 294.414 1593.87 294.824C1593.5 295.225 1592.96 295.425 1592.25 295.425C1591.55 295.425 1591.01 295.225 1590.64 294.824C1590.27 294.424 1590.09 293.872 1590.09 293.169ZM1612.24 284.292C1612.24 288.013 1611.63 290.776 1610.43 292.583C1609.24 294.39 1607.42 295.293 1604.96 295.293C1602.57 295.293 1600.77 294.36 1599.54 292.495C1598.3 290.63 1597.69 287.896 1597.69 284.292C1597.69 280.513 1598.29 277.729 1599.48 275.942C1600.68 274.146 1602.5 273.247 1604.96 273.247C1607.35 273.247 1609.16 274.185 1610.39 276.06C1611.62 277.935 1612.24 280.679 1612.24 284.292ZM1601.18 284.292C1601.18 287.212 1601.47 289.297 1602.07 290.547C1602.67 291.797 1603.64 292.422 1604.96 292.422C1606.27 292.422 1607.24 291.787 1607.84 290.518C1608.46 289.248 1608.76 287.173 1608.76 284.292C1608.76 281.421 1608.46 279.346 1607.84 278.066C1607.24 276.777 1606.27 276.133 1604.96 276.133C1603.64 276.133 1602.67 276.763 1602.07 278.022C1601.47 279.282 1601.18 281.372 1601.18 284.292ZM1629.37 284.292C1629.37 288.013 1628.77 290.776 1627.57 292.583C1626.38 294.39 1624.55 295.293 1622.09 295.293C1619.71 295.293 1617.9 294.36 1616.67 292.495C1615.44 290.63 1614.83 287.896 1614.83 284.292C1614.83 280.513 1615.42 277.729 1616.62 275.942C1617.82 274.146 1619.64 273.247 1622.09 273.247C1624.49 273.247 1626.3 274.185 1627.53 276.06C1628.76 277.935 1629.37 280.679 1629.37 284.292ZM1618.31 284.292C1618.31 287.212 1618.61 289.297 1619.21 290.547C1619.81 291.797 1620.78 292.422 1622.09 292.422C1623.41 292.422 1624.37 291.787 1624.98 290.518C1625.59 289.248 1625.9 287.173 1625.9 284.292C1625.9 281.421 1625.59 279.346 1624.98 278.066C1624.37 276.777 1623.41 276.133 1622.09 276.133C1620.78 276.133 1619.81 276.763 1619.21 278.022C1618.61 279.282 1618.31 281.372 1618.31 284.292ZM1646.51 284.292C1646.51 288.013 1645.91 290.776 1644.71 292.583C1643.52 294.39 1641.69 295.293 1639.23 295.293C1636.85 295.293 1635.04 294.36 1633.81 292.495C1632.58 290.63 1631.97 287.896 1631.97 284.292C1631.97 280.513 1632.56 277.729 1633.75 275.942C1634.96 274.146 1636.78 273.247 1639.23 273.247C1641.62 273.247 1643.44 274.185 1644.67 276.06C1645.9 277.935 1646.51 280.679 1646.51 284.292ZM1635.45 284.292C1635.45 287.212 1635.75 289.297 1636.35 290.547C1636.95 291.797 1637.91 292.422 1639.23 292.422C1640.55 292.422 1641.51 291.787 1642.12 290.518C1642.73 289.248 1643.04 287.173 1643.04 284.292C1643.04 281.421 1642.73 279.346 1642.12 278.066C1641.51 276.777 1640.55 276.133 1639.23 276.133C1637.91 276.133 1636.95 276.763 1636.35 278.022C1635.75 279.282 1635.45 281.372 1635.45 284.292ZM1656.4 281.626C1658.56 281.626 1660.27 282.197 1661.53 283.34C1662.79 284.482 1663.42 286.04 1663.42 288.013C1663.42 290.298 1662.7 292.085 1661.26 293.374C1659.84 294.653 1657.81 295.293 1655.17 295.293C1652.78 295.293 1650.9 294.907 1649.53 294.136V291.016C1650.32 291.465 1651.23 291.812 1652.25 292.056C1653.28 292.3 1654.23 292.422 1655.11 292.422C1656.66 292.422 1657.85 292.075 1658.66 291.382C1659.47 290.688 1659.87 289.673 1659.87 288.335C1659.87 285.776 1658.24 284.497 1654.98 284.497C1654.52 284.497 1653.95 284.546 1653.28 284.644C1652.61 284.731 1652.02 284.834 1651.51 284.951L1649.97 284.043L1650.79 273.584H1661.92V276.646H1653.82L1653.34 281.948C1653.68 281.89 1654.1 281.821 1654.58 281.743C1655.08 281.665 1655.69 281.626 1656.4 281.626Z" fill="black"/>
<path d="M1603.83 351.292C1603.83 355.013 1603.23 357.776 1602.03 359.583C1600.84 361.39 1599.02 362.293 1596.55 362.293C1594.17 362.293 1592.37 361.36 1591.13 359.495C1589.9 357.63 1589.29 354.896 1589.29 351.292C1589.29 347.513 1589.88 344.729 1591.08 342.942C1592.28 341.146 1594.1 340.247 1596.55 340.247C1598.95 340.247 1600.76 341.185 1601.99 343.06C1603.22 344.935 1603.83 347.679 1603.83 351.292ZM1592.78 351.292C1592.78 354.212 1593.07 356.297 1593.67 357.547C1594.27 358.797 1595.24 359.422 1596.55 359.422C1597.87 359.422 1598.83 358.787 1599.44 357.518C1600.06 356.248 1600.36 354.173 1600.36 351.292C1600.36 348.421 1600.06 346.346 1599.44 345.066C1598.83 343.777 1597.87 343.133 1596.55 343.133C1595.24 343.133 1594.27 343.763 1593.67 345.022C1593.07 346.282 1592.78 348.372 1592.78 351.292ZM1607.09 360.169C1607.09 359.456 1607.27 358.909 1607.64 358.528C1608.01 358.147 1608.55 357.957 1609.25 357.957C1609.97 357.957 1610.51 358.157 1610.88 358.558C1611.25 358.948 1611.44 359.485 1611.44 360.169C1611.44 360.862 1611.25 361.414 1610.87 361.824C1610.5 362.225 1609.96 362.425 1609.25 362.425C1608.55 362.425 1608.01 362.225 1607.64 361.824C1607.27 361.424 1607.09 360.872 1607.09 360.169ZM1629.24 351.292C1629.24 355.013 1628.63 357.776 1627.43 359.583C1626.24 361.39 1624.42 362.293 1621.96 362.293C1619.57 362.293 1617.77 361.36 1616.54 359.495C1615.3 357.63 1614.69 354.896 1614.69 351.292C1614.69 347.513 1615.29 344.729 1616.48 342.942C1617.68 341.146 1619.5 340.247 1621.96 340.247C1624.35 340.247 1626.16 341.185 1627.39 343.06C1628.62 344.935 1629.24 347.679 1629.24 351.292ZM1618.18 351.292C1618.18 354.212 1618.47 356.297 1619.07 357.547C1619.67 358.797 1620.64 359.422 1621.96 359.422C1623.27 359.422 1624.24 358.787 1624.84 357.518C1625.46 356.248 1625.76 354.173 1625.76 351.292C1625.76 348.421 1625.46 346.346 1624.84 345.066C1624.24 343.777 1623.27 343.133 1621.96 343.133C1620.64 343.133 1619.67 343.763 1619.07 345.022C1618.47 346.282 1618.18 348.372 1618.18 351.292ZM1646.37 351.292C1646.37 355.013 1645.77 357.776 1644.57 359.583C1643.38 361.39 1641.55 362.293 1639.09 362.293C1636.71 362.293 1634.9 361.36 1633.67 359.495C1632.44 357.63 1631.83 354.896 1631.83 351.292C1631.83 347.513 1632.42 344.729 1633.62 342.942C1634.82 341.146 1636.64 340.247 1639.09 340.247C1641.49 340.247 1643.3 341.185 1644.53 343.06C1645.76 344.935 1646.37 347.679 1646.37 351.292ZM1635.31 351.292C1635.31 354.212 1635.61 356.297 1636.21 357.547C1636.81 358.797 1637.78 359.422 1639.09 359.422C1640.41 359.422 1641.37 358.787 1641.98 357.518C1642.59 356.248 1642.9 354.173 1642.9 351.292C1642.9 348.421 1642.59 346.346 1641.98 345.066C1641.37 343.777 1640.41 343.133 1639.09 343.133C1637.78 343.133 1636.81 343.763 1636.21 345.022C1635.61 346.282 1635.31 348.372 1635.31 351.292ZM1663.51 351.292C1663.51 355.013 1662.91 357.776 1661.71 359.583C1660.52 361.39 1658.69 362.293 1656.23 362.293C1653.85 362.293 1652.04 361.36 1650.81 359.495C1649.58 357.63 1648.97 354.896 1648.97 351.292C1648.97 347.513 1649.56 344.729 1650.75 342.942C1651.96 341.146 1653.78 340.247 1656.23 340.247C1658.62 340.247 1660.44 341.185 1661.67 343.06C1662.9 344.935 1663.51 347.679 1663.51 351.292ZM1652.45 351.292C1652.45 354.212 1652.75 356.297 1653.35 357.547C1653.95 358.797 1654.91 359.422 1656.23 359.422C1657.55 359.422 1658.51 358.787 1659.12 357.518C1659.73 356.248 1660.04 354.173 1660.04 351.292C1660.04 348.421 1659.73 346.346 1659.12 345.066C1658.51 343.777 1657.55 343.133 1656.23 343.133C1654.91 343.133 1653.95 343.763 1653.35 345.022C1652.75 346.282 1652.45 348.372 1652.45 351.292ZM1679.85 345.506C1679.85 346.863 1679.45 347.996 1678.66 348.904C1677.87 349.803 1676.75 350.408 1675.32 350.721V350.838C1677.04 351.053 1678.33 351.59 1679.19 352.449C1680.05 353.299 1680.48 354.432 1680.48 355.848C1680.48 357.908 1679.75 359.5 1678.29 360.623C1676.84 361.736 1674.77 362.293 1672.08 362.293C1669.71 362.293 1667.71 361.907 1666.08 361.136V358.074C1666.98 358.523 1667.95 358.87 1668.96 359.114C1669.98 359.358 1670.95 359.48 1671.89 359.48C1673.55 359.48 1674.79 359.173 1675.61 358.558C1676.43 357.942 1676.84 356.99 1676.84 355.701C1676.84 354.559 1676.39 353.719 1675.48 353.182C1674.57 352.645 1673.15 352.376 1671.2 352.376H1669.34V349.578H1671.23C1674.65 349.578 1676.36 348.396 1676.36 346.033C1676.36 345.115 1676.06 344.407 1675.47 343.909C1674.87 343.411 1673.99 343.162 1672.83 343.162C1672.02 343.162 1671.24 343.279 1670.49 343.514C1669.73 343.738 1668.84 344.183 1667.82 344.847L1666.13 342.444C1668.1 340.999 1670.38 340.276 1672.98 340.276C1675.13 340.276 1676.82 340.74 1678.03 341.668C1679.24 342.596 1679.85 343.875 1679.85 345.506Z" fill="black"/>
<path d="M1632.83 448.792C1632.83 452.513 1632.23 455.276 1631.03 457.083C1629.84 458.89 1628.02 459.793 1625.55 459.793C1623.17 459.793 1621.37 458.86 1620.13 456.995C1618.9 455.13 1618.29 452.396 1618.29 448.792C1618.29 445.013 1618.88 442.229 1620.08 440.442C1621.28 438.646 1623.1 437.747 1625.55 437.747C1627.95 437.747 1629.76 438.685 1630.99 440.56C1632.22 442.435 1632.83 445.179 1632.83 448.792ZM1621.78 448.792C1621.78 451.712 1622.07 453.797 1622.67 455.047C1623.27 456.297 1624.24 456.922 1625.55 456.922C1626.87 456.922 1627.83 456.287 1628.44 455.018C1629.06 453.748 1629.36 451.673 1629.36 448.792C1629.36 445.921 1629.06 443.846 1628.44 442.566C1627.83 441.277 1626.87 440.633 1625.55 440.633C1624.24 440.633 1623.27 441.263 1622.67 442.522C1622.07 443.782 1621.78 445.872 1621.78 448.792ZM1636.09 457.669C1636.09 456.956 1636.27 456.409 1636.64 456.028C1637.01 455.647 1637.55 455.457 1638.25 455.457C1638.97 455.457 1639.51 455.657 1639.88 456.058C1640.25 456.448 1640.44 456.985 1640.44 457.669C1640.44 458.362 1640.25 458.914 1639.87 459.324C1639.5 459.725 1638.96 459.925 1638.25 459.925C1637.55 459.925 1637.01 459.725 1636.64 459.324C1636.27 458.924 1636.09 458.372 1636.09 457.669ZM1658.24 448.792C1658.24 452.513 1657.63 455.276 1656.43 457.083C1655.24 458.89 1653.42 459.793 1650.96 459.793C1648.57 459.793 1646.77 458.86 1645.54 456.995C1644.3 455.13 1643.69 452.396 1643.69 448.792C1643.69 445.013 1644.29 442.229 1645.48 440.442C1646.68 438.646 1648.5 437.747 1650.96 437.747C1653.35 437.747 1655.16 438.685 1656.39 440.56C1657.62 442.435 1658.24 445.179 1658.24 448.792ZM1647.18 448.792C1647.18 451.712 1647.47 453.797 1648.07 455.047C1648.67 456.297 1649.64 456.922 1650.96 456.922C1652.27 456.922 1653.24 456.287 1653.84 455.018C1654.46 453.748 1654.76 451.673 1654.76 448.792C1654.76 445.921 1654.46 443.846 1653.84 442.566C1653.24 441.277 1652.27 440.633 1650.96 440.633C1649.64 440.633 1648.67 441.263 1648.07 442.522C1647.47 443.782 1647.18 445.872 1647.18 448.792ZM1675.37 448.792C1675.37 452.513 1674.77 455.276 1673.57 457.083C1672.38 458.89 1670.55 459.793 1668.09 459.793C1665.71 459.793 1663.9 458.86 1662.67 456.995C1661.44 455.13 1660.83 452.396 1660.83 448.792C1660.83 445.013 1661.42 442.229 1662.62 440.442C1663.82 438.646 1665.64 437.747 1668.09 437.747C1670.49 437.747 1672.3 438.685 1673.53 440.56C1674.76 442.435 1675.37 445.179 1675.37 448.792ZM1664.31 448.792C1664.31 451.712 1664.61 453.797 1665.21 455.047C1665.81 456.297 1666.78 456.922 1668.09 456.922C1669.41 456.922 1670.37 456.287 1670.98 455.018C1671.59 453.748 1671.9 451.673 1671.9 448.792C1671.9 445.921 1671.59 443.846 1670.98 442.566C1670.37 441.277 1669.41 440.633 1668.09 440.633C1666.78 440.633 1665.81 441.263 1665.21 442.522C1664.61 443.782 1664.31 445.872 1664.31 448.792ZM1692.51 448.792C1692.51 452.513 1691.91 455.276 1690.71 457.083C1689.52 458.89 1687.69 459.793 1685.23 459.793C1682.85 459.793 1681.04 458.86 1679.81 456.995C1678.58 455.13 1677.97 452.396 1677.97 448.792C1677.97 445.013 1678.56 442.229 1679.75 440.442C1680.96 438.646 1682.78 437.747 1685.23 437.747C1687.62 437.747 1689.44 438.685 1690.67 440.56C1691.9 442.435 1692.51 445.179 1692.51 448.792ZM1681.45 448.792C1681.45 451.712 1681.75 453.797 1682.35 455.047C1682.95 456.297 1683.91 456.922 1685.23 456.922C1686.55 456.922 1687.51 456.287 1688.12 455.018C1688.73 453.748 1689.04 451.673 1689.04 448.792C1689.04 445.921 1688.73 443.846 1688.12 442.566C1687.51 441.277 1686.55 440.633 1685.23 440.633C1683.91 440.633 1682.95 441.263 1682.35 442.522C1681.75 443.782 1681.45 445.872 1681.45 448.792ZM1705.24 459.5H1701.8V445.672C1701.8 444.021 1701.84 442.713 1701.92 441.746C1701.69 441.98 1701.41 442.239 1701.08 442.522C1700.76 442.806 1699.67 443.704 1697.8 445.218L1696.07 443.035L1702.37 438.084H1705.24V459.5Z" fill="black"/>
<path d="M1551.61 288.964L1614.82 509.458L738.251 455.576C800.771 401.23 846.329 349.017 885.999 279.779C925.778 210.353 959.628 123.825 998.738 0.901073C1099.11 93.6846 1178.81 159.876 1262.63 205.777C1346.55 251.729 1434.59 277.335 1551.61 288.964Z" fill="#0037FF" stroke="#809BFF"/>
<path d="M1026.5 26.5003C962.568 223.753 916.5 332 779.002 457.996" stroke="#809BFF"/>
<path d="M816.5 460.5C934.5 358.5 985 257 1053.5 51" stroke="#809BFF"/>
<path d="M858 463C959 367 1012.94 274.525 1081 74.5" stroke="#809BFF"/>
<path d="M898.501 465.501C1005.27 362.105 1047.42 266.945 1108 97.5" stroke="#809BFF"/>
<path d="M941.501 468.001C1025.96 375.29 1070.46 296.662 1135.5 119.5" stroke="#809BFF"/>
<path d="M982.5 470.5C1073.02 357.869 1112.03 279.263 1162 140" stroke="#809BFF"/>
<path d="M1023.56 473.267C1105.49 367.196 1141.94 296.061 1189 160" stroke="#809BFF"/>
<path d="M1065.5 475.501C1122.66 397.245 1156.63 334.612 1216 178" stroke="#809BFF"/>
<path d="M1243.45 194.709C1194.85 333.601 1162.39 396.106 1109.5 478" stroke="#809BFF"/>
<path d="M1153 481C1211.77 373.856 1236.52 312.482 1270 210" stroke="#809BFF"/>
<path d="M1197 483.5C1243.37 384.038 1266.91 325.752 1297.5 223.5" stroke="#809BFF"/>
<path d="M1240.53 486.338C1280.6 388.331 1300.01 333.446 1326 236.5" stroke="#809BFF"/>
<path d="M1286.5 489C1314.66 395.159 1330.53 340.221 1353 246.5" stroke="#809BFF"/>
<path d="M1331 492C1351.41 399.655 1363.3 346.533 1379.51 255.39" stroke="#809BFF"/>
<line x1="1408.5" y1="263.565" x2="1378.37" y2="494.548" stroke="#809BFF"/>
<path d="M1436 271L1424.5 497.501" stroke="#809BFF"/>
<path d="M1464.5 276.5L1471.5 498.486" stroke="#809BFF"/>
<path d="M1492.5 281.5L1518.5 503.442" stroke="#809BFF"/>
<line x1="1522.49" y1="286.402" x2="1566.49" y2="506.402" stroke="#809BFF"/>
<path d="M1551.5 288.999L1615 509.5" stroke="#809BFF"/>
<path d="M962 109C1165.83 232.973 1281.5 297.001 1559 317" stroke="#809BFF"/>
<path d="M919.104 210.011C1170 300.5 1308.5 338.5 1569 351" stroke="#809BFF"/>
<path d="M871.5 304.5C1145.5 359.5 1296.75 373.809 1581 391.498" stroke="#809BFF"/>
<path d="M809 386.5C1118.63 413.11 1290.08 423.923 1595.5 442.5" stroke="#809BFF"/>
<path d="M1645.38 516.577C1645.38 519.694 1644.87 522.001 1643.84 523.498C1642.82 524.995 1641.25 525.744 1639.13 525.744C1637.07 525.744 1635.52 524.971 1634.47 523.425C1633.42 521.879 1632.9 519.596 1632.9 516.577C1632.9 513.427 1633.41 511.108 1634.43 509.619C1635.45 508.121 1637.01 507.373 1639.13 507.373C1641.19 507.373 1642.74 508.154 1643.79 509.716C1644.85 511.279 1645.38 513.566 1645.38 516.577ZM1636.65 516.577C1636.65 518.766 1636.84 520.336 1637.21 521.289C1637.59 522.233 1638.23 522.705 1639.13 522.705C1640.01 522.705 1640.64 522.224 1641.03 521.264C1641.42 520.304 1641.62 518.741 1641.62 516.577C1641.62 514.388 1641.42 512.817 1641.02 511.865C1640.63 510.904 1640 510.424 1639.13 510.424C1638.24 510.424 1637.61 510.904 1637.22 511.865C1636.84 512.817 1636.65 514.388 1636.65 516.577Z" fill="black"/>
<path d="M713.5 26.5L737.5 455.5" stroke="black"/>
<path d="M1089.77 593.637C1089.77 595.316 1089.18 596.596 1088.01 597.475C1086.85 598.354 1085.11 598.793 1082.78 598.793C1081.59 598.793 1080.58 598.71 1079.74 598.544C1078.9 598.388 1078.11 598.153 1077.38 597.841V594.149C1078.21 594.54 1079.14 594.867 1080.17 595.131C1081.22 595.395 1082.14 595.526 1082.93 595.526C1084.55 595.526 1085.36 595.058 1085.36 594.12C1085.36 593.769 1085.25 593.485 1085.04 593.271C1084.82 593.046 1084.45 592.797 1083.92 592.523C1083.4 592.24 1082.69 591.913 1081.82 591.542C1080.56 591.015 1079.63 590.526 1079.03 590.077C1078.45 589.628 1078.02 589.115 1077.74 588.539C1077.48 587.953 1077.35 587.235 1077.35 586.386C1077.35 584.931 1077.91 583.808 1079.03 583.017C1080.17 582.216 1081.77 581.815 1083.84 581.815C1085.81 581.815 1087.73 582.245 1089.59 583.104L1088.25 586.327C1087.43 585.976 1086.66 585.688 1085.95 585.463C1085.23 585.238 1084.51 585.126 1083.76 585.126C1082.45 585.126 1081.79 585.482 1081.79 586.195C1081.79 586.596 1082 586.942 1082.42 587.235C1082.85 587.528 1083.78 587.963 1085.21 588.539C1086.49 589.057 1087.43 589.54 1088.03 589.989C1088.62 590.438 1089.06 590.956 1089.34 591.542C1089.63 592.128 1089.77 592.826 1089.77 593.637ZM1107.08 598.5H1092.11V595.351L1097.49 589.916C1099.08 588.285 1100.12 587.157 1100.61 586.532C1101.1 585.897 1101.45 585.312 1101.66 584.774C1101.88 584.237 1101.99 583.681 1101.99 583.104C1101.99 582.245 1101.75 581.605 1101.27 581.186C1100.8 580.766 1100.17 580.556 1099.38 580.556C1098.55 580.556 1097.74 580.746 1096.96 581.127C1096.18 581.508 1095.37 582.05 1094.52 582.753L1092.05 579.838C1093.11 578.939 1093.98 578.305 1094.68 577.934C1095.37 577.562 1096.13 577.279 1096.95 577.084C1097.77 576.879 1098.69 576.776 1099.7 576.776C1101.04 576.776 1102.22 577.021 1103.25 577.509C1104.27 577.997 1105.07 578.681 1105.63 579.56C1106.2 580.438 1106.48 581.444 1106.48 582.577C1106.48 583.563 1106.31 584.491 1105.96 585.36C1105.61 586.22 1105.08 587.104 1104.34 588.012C1103.62 588.92 1102.34 590.214 1100.51 591.894L1097.75 594.486V594.691H1107.08V598.5ZM1117.04 590.282C1117.04 587.694 1117.42 585.272 1118.17 583.017C1118.93 580.761 1120.03 578.783 1121.45 577.084H1125.12C1123.74 578.969 1122.7 581.039 1122 583.295C1121.29 585.551 1120.94 587.87 1120.94 590.253C1120.94 592.646 1121.3 594.96 1122.01 597.196C1122.73 599.423 1123.76 601.439 1125.09 603.246H1121.45C1120.02 601.586 1118.92 599.647 1118.17 597.431C1117.42 595.214 1117.04 592.831 1117.04 590.282ZM1128.71 598.5V577.084H1133.25V598.5H1128.71ZM1156.07 577.084V590.941C1156.07 592.523 1155.71 593.91 1155 595.102C1154.3 596.293 1153.28 597.206 1151.94 597.841C1150.6 598.476 1149.02 598.793 1147.19 598.793C1144.44 598.793 1142.3 598.09 1140.78 596.684C1139.25 595.268 1138.49 593.334 1138.49 590.883V577.084H1143.02V590.194C1143.02 591.845 1143.35 593.056 1144.01 593.827C1144.68 594.599 1145.78 594.984 1147.31 594.984C1148.79 594.984 1149.87 594.599 1150.53 593.827C1151.21 593.046 1151.54 591.825 1151.54 590.165V577.084H1156.07ZM1173.95 592.553C1173.95 594.486 1173.26 596.01 1171.86 597.123C1170.47 598.236 1168.54 598.793 1166.06 598.793C1163.77 598.793 1161.75 598.363 1159.99 597.504V593.285C1161.44 593.93 1162.66 594.384 1163.66 594.647C1164.66 594.911 1165.58 595.043 1166.41 595.043C1167.41 595.043 1168.17 594.853 1168.7 594.472C1169.23 594.091 1169.5 593.524 1169.5 592.772C1169.5 592.353 1169.38 591.981 1169.15 591.659C1168.92 591.327 1168.57 591.01 1168.11 590.707C1167.66 590.404 1166.74 589.921 1165.34 589.257C1164.03 588.642 1163.05 588.051 1162.4 587.484C1161.74 586.918 1161.22 586.259 1160.83 585.507C1160.44 584.755 1160.24 583.876 1160.24 582.87C1160.24 580.976 1160.88 579.486 1162.16 578.402C1163.45 577.318 1165.23 576.776 1167.49 576.776C1168.61 576.776 1169.67 576.908 1170.67 577.172C1171.69 577.436 1172.75 577.807 1173.85 578.285L1172.39 581.815C1171.24 581.347 1170.3 581.02 1169.54 580.834C1168.8 580.648 1168.07 580.556 1167.35 580.556C1166.49 580.556 1165.83 580.756 1165.37 581.156C1164.91 581.557 1164.68 582.079 1164.68 582.724C1164.68 583.124 1164.77 583.476 1164.96 583.778C1165.15 584.071 1165.44 584.359 1165.84 584.643C1166.25 584.916 1167.21 585.414 1168.72 586.137C1170.73 587.094 1172.1 588.056 1172.84 589.022C1173.58 589.979 1173.95 591.156 1173.95 592.553ZM1195.6 587.587C1195.6 591.112 1194.6 593.812 1192.59 595.688C1190.58 597.562 1187.69 598.5 1183.9 598.5H1177.84V577.084H1184.56C1188.06 577.084 1190.77 578.007 1192.7 579.853C1194.64 581.698 1195.6 584.276 1195.6 587.587ZM1190.89 587.704C1190.89 583.104 1188.86 580.805 1184.79 580.805H1182.38V594.75H1184.33C1188.7 594.75 1190.89 592.401 1190.89 587.704ZM1212.26 577.084H1216.84L1209.56 598.5H1204.61L1197.35 577.084H1201.93L1205.96 589.828C1206.19 590.58 1206.42 591.459 1206.65 592.465C1206.89 593.461 1207.04 594.154 1207.1 594.545C1207.21 593.646 1207.58 592.074 1208.2 589.828L1212.26 577.084ZM1233.03 598.5H1218.06V595.351L1223.44 589.916C1225.03 588.285 1226.07 587.157 1226.56 586.532C1227.04 585.897 1227.4 585.312 1227.61 584.774C1227.83 584.237 1227.93 583.681 1227.93 583.104C1227.93 582.245 1227.69 581.605 1227.22 581.186C1226.75 580.766 1226.12 580.556 1225.33 580.556C1224.5 580.556 1223.69 580.746 1222.91 581.127C1222.13 581.508 1221.31 582.05 1220.46 582.753L1218 579.838C1219.06 578.939 1219.93 578.305 1220.62 577.934C1221.32 577.562 1222.07 577.279 1222.89 577.084C1223.71 576.879 1224.63 576.776 1225.65 576.776C1226.99 576.776 1228.17 577.021 1229.19 577.509C1230.22 577.997 1231.01 578.681 1231.58 579.56C1232.15 580.438 1232.43 581.444 1232.43 582.577C1232.43 583.563 1232.25 584.491 1231.9 585.36C1231.56 586.22 1231.02 587.104 1230.29 588.012C1229.57 588.92 1228.29 590.214 1226.45 591.894L1223.7 594.486V594.691H1233.03V598.5ZM1242.96 590.282C1242.96 592.851 1242.58 595.243 1241.82 597.46C1241.07 599.677 1239.98 601.605 1238.55 603.246H1234.92C1236.24 601.449 1237.26 599.438 1237.98 597.211C1238.71 594.975 1239.07 592.655 1239.07 590.253C1239.07 587.87 1238.71 585.551 1238.01 583.295C1237.31 581.039 1236.27 578.969 1234.89 577.084H1238.55C1239.99 578.793 1241.08 580.78 1241.83 583.046C1242.59 585.302 1242.96 587.714 1242.96 590.282Z" fill="black"/>
<path d="M448.232 219.232C447.256 220.209 447.256 221.791 448.232 222.768L464.142 238.678C465.118 239.654 466.701 239.654 467.678 238.678C468.654 237.701 468.654 236.118 467.678 235.142L453.536 221L467.678 206.858C468.654 205.882 468.654 204.299 467.678 203.322C466.701 202.346 465.118 202.346 464.142 203.322L448.232 219.232ZM602 218.5H450V223.5H602V218.5Z" fill="black"/>
<path d="M454.737 176.506C456.759 176.506 458.331 177.238 459.454 178.703C460.587 180.168 461.153 182.224 461.153 184.87C461.153 187.526 460.582 189.597 459.439 191.081C458.297 192.556 456.71 193.293 454.679 193.293C452.628 193.293 451.036 192.556 449.903 191.081H449.669L449.039 193H446.461V170.207H449.903V175.627C449.903 176.027 449.884 176.623 449.845 177.414C449.806 178.205 449.776 178.708 449.757 178.923H449.903C450.997 177.312 452.608 176.506 454.737 176.506ZM453.844 179.318C452.457 179.318 451.456 179.729 450.841 180.549C450.235 181.359 449.923 182.722 449.903 184.636V184.87C449.903 186.843 450.216 188.273 450.841 189.162C451.466 190.041 452.486 190.48 453.902 190.48C455.123 190.48 456.046 189.997 456.671 189.03C457.306 188.063 457.623 186.667 457.623 184.841C457.623 181.159 456.363 179.318 453.844 179.318ZM476.578 193L476.095 190.876H475.919C475.44 191.628 474.757 192.219 473.868 192.648C472.989 193.078 471.983 193.293 470.851 193.293C468.888 193.293 467.423 192.805 466.456 191.828C465.489 190.852 465.006 189.372 465.006 187.39V176.799H468.478V186.789C468.478 188.029 468.731 188.962 469.239 189.587C469.747 190.202 470.543 190.51 471.627 190.51C473.072 190.51 474.132 190.08 474.806 189.221C475.489 188.352 475.831 186.901 475.831 184.87V176.799H479.288V193H476.578ZM481.734 176.799H485.484L488.78 185.983C489.278 187.292 489.61 188.522 489.776 189.675H489.894C489.981 189.138 490.143 188.488 490.377 187.727C490.611 186.955 491.852 183.312 494.098 176.799H497.818L490.89 195.153C489.63 198.522 487.53 200.207 484.591 200.207C483.829 200.207 483.087 200.124 482.364 199.958V197.233C482.882 197.351 483.473 197.409 484.137 197.409C485.797 197.409 486.964 196.447 487.638 194.523L488.238 193L481.734 176.799ZM517.198 181.384H525.079V192.136C523.79 192.556 522.55 192.854 521.358 193.029C520.177 193.205 518.897 193.293 517.521 193.293C514.278 193.293 511.778 192.336 510.021 190.422C508.263 188.498 507.384 185.788 507.384 182.292C507.384 178.845 508.375 176.149 510.357 174.206C512.34 172.253 515.069 171.276 518.546 171.276C520.782 171.276 522.901 171.706 524.903 172.565L523.673 175.48C521.935 174.68 520.196 174.279 518.458 174.279C516.173 174.279 514.366 174.997 513.038 176.433C511.71 177.868 511.046 179.831 511.046 182.321C511.046 184.938 511.642 186.931 512.833 188.298C514.034 189.655 515.758 190.334 518.004 190.334C519.137 190.334 520.348 190.192 521.637 189.909V184.387H517.198V181.384ZM533.736 181.545H536.168C537.799 181.545 538.98 181.242 539.713 180.637C540.445 180.031 540.812 179.133 540.812 177.941C540.812 176.73 540.416 175.861 539.625 175.334C538.834 174.807 537.643 174.543 536.051 174.543H533.736V181.545ZM533.736 184.445V193H530.235V171.584H536.285C539.049 171.584 541.095 172.102 542.423 173.137C543.751 174.172 544.415 175.734 544.415 177.824C544.415 180.49 543.028 182.39 540.255 183.522L546.305 193H542.32L537.193 184.445H533.736ZM566.842 182.087C566.842 185.622 565.86 188.327 563.897 190.202C561.935 192.067 559.107 193 555.416 193H549.425V171.584H556.046C559.454 171.584 562.105 172.502 564 174.338C565.895 176.174 566.842 178.757 566.842 182.087ZM563.15 182.204C563.15 177.077 560.753 174.514 555.958 174.514H552.926V190.056H555.416C560.572 190.056 563.15 187.438 563.15 182.204ZM583.658 171.584H587.291L579.791 193H576.1L568.629 171.584H572.232L576.7 184.899C576.935 185.534 577.184 186.354 577.447 187.36C577.711 188.356 577.882 189.099 577.96 189.587C578.087 188.845 578.282 187.985 578.546 187.009C578.81 186.032 579.024 185.31 579.19 184.841L583.658 171.584ZM603.126 193H588.609V190.393L594.132 184.841C595.763 183.171 596.842 181.989 597.369 181.296C597.906 180.593 598.297 179.934 598.541 179.318C598.785 178.703 598.907 178.044 598.907 177.341C598.907 176.374 598.614 175.612 598.028 175.056C597.452 174.499 596.651 174.221 595.626 174.221C594.806 174.221 594.01 174.372 593.238 174.675C592.477 174.978 591.593 175.524 590.587 176.315L588.727 174.045C589.918 173.039 591.075 172.326 592.198 171.906C593.321 171.486 594.518 171.276 595.787 171.276C597.779 171.276 599.376 171.799 600.577 172.844C601.778 173.879 602.379 175.275 602.379 177.033C602.379 178 602.203 178.918 601.852 179.787C601.51 180.656 600.978 181.555 600.255 182.482C599.542 183.4 598.351 184.646 596.681 186.218L592.96 189.821V189.968H603.126V193Z" fill="black"/>
<path d="M603.768 342.768C604.744 341.791 604.744 340.209 603.768 339.232L587.858 323.322C586.882 322.346 585.299 322.346 584.322 323.322C583.346 324.299 583.346 325.882 584.322 326.858L598.464 341L584.322 355.142C583.346 356.118 583.346 357.701 584.322 358.678C585.299 359.654 586.882 359.654 587.858 358.678L603.768 342.768ZM450 343.5H602V338.5H450V343.5Z" fill="black"/>
<path d="M459.345 306.386C459.345 307.968 458.769 309.184 457.616 310.033C456.464 310.873 454.813 311.293 452.665 311.293C450.507 311.293 448.773 310.966 447.465 310.312V307.338C449.369 308.217 451.142 308.656 452.782 308.656C454.901 308.656 455.961 308.017 455.961 306.737C455.961 306.327 455.844 305.985 455.609 305.712C455.375 305.438 454.989 305.155 454.452 304.862C453.915 304.569 453.168 304.237 452.211 303.866C450.346 303.144 449.081 302.421 448.417 301.698C447.763 300.976 447.436 300.038 447.436 298.886C447.436 297.499 447.992 296.425 449.105 295.663C450.229 294.892 451.752 294.506 453.676 294.506C455.58 294.506 457.382 294.892 459.081 295.663L457.968 298.256C456.22 297.533 454.75 297.172 453.559 297.172C451.742 297.172 450.834 297.689 450.834 298.725C450.834 299.232 451.068 299.662 451.537 300.014C452.016 300.365 453.051 300.849 454.643 301.464C455.98 301.981 456.952 302.455 457.558 302.885C458.163 303.314 458.612 303.812 458.905 304.379C459.198 304.936 459.345 305.604 459.345 306.386ZM470.155 311.293C467.636 311.293 465.663 310.561 464.237 309.096C462.821 307.621 462.113 305.595 462.113 303.017C462.113 300.37 462.772 298.29 464.091 296.776C465.409 295.263 467.221 294.506 469.525 294.506C471.664 294.506 473.354 295.155 474.594 296.454C475.834 297.753 476.454 299.54 476.454 301.815V303.676H465.658C465.707 305.248 466.132 306.459 466.933 307.309C467.733 308.148 468.861 308.568 470.316 308.568C471.273 308.568 472.162 308.48 472.982 308.305C473.812 308.119 474.701 307.816 475.648 307.396V310.194C474.809 310.595 473.959 310.878 473.1 311.044C472.24 311.21 471.259 311.293 470.155 311.293ZM469.525 297.113C468.432 297.113 467.553 297.46 466.889 298.153C466.234 298.847 465.844 299.857 465.717 301.186H473.07C473.051 299.848 472.729 298.837 472.104 298.153C471.479 297.46 470.619 297.113 469.525 297.113ZM483.808 311H480.365V288.207H483.808V311ZM492.187 311H488.744V288.207H492.187V311ZM514.042 299.384H521.923V310.136C520.634 310.556 519.394 310.854 518.202 311.029C517.021 311.205 515.741 311.293 514.364 311.293C511.122 311.293 508.622 310.336 506.864 308.422C505.106 306.498 504.228 303.788 504.228 300.292C504.228 296.845 505.219 294.149 507.201 292.206C509.184 290.253 511.913 289.276 515.39 289.276C517.626 289.276 519.745 289.706 521.747 290.565L520.517 293.48C518.778 292.68 517.04 292.279 515.302 292.279C513.017 292.279 511.21 292.997 509.882 294.433C508.554 295.868 507.89 297.831 507.89 300.321C507.89 302.938 508.485 304.931 509.677 306.298C510.878 307.655 512.602 308.334 514.848 308.334C515.98 308.334 517.191 308.192 518.48 307.909V302.387H514.042V299.384ZM530.58 299.545H533.012C534.643 299.545 535.824 299.242 536.557 298.637C537.289 298.031 537.655 297.133 537.655 295.941C537.655 294.73 537.26 293.861 536.469 293.334C535.678 292.807 534.486 292.543 532.895 292.543H530.58V299.545ZM530.58 302.445V311H527.079V289.584H533.129C535.893 289.584 537.938 290.102 539.267 291.137C540.595 292.172 541.259 293.734 541.259 295.824C541.259 298.49 539.872 300.39 537.099 301.522L543.148 311H539.164L534.037 302.445H530.58ZM563.686 300.087C563.686 303.622 562.704 306.327 560.741 308.202C558.778 310.067 555.951 311 552.26 311H546.269V289.584H552.89C556.298 289.584 558.949 290.502 560.844 292.338C562.738 294.174 563.686 296.757 563.686 300.087ZM559.994 300.204C559.994 295.077 557.597 292.514 552.802 292.514H549.77V308.056H552.26C557.416 308.056 559.994 305.438 559.994 300.204ZM580.502 289.584H584.135L576.635 311H572.943L565.473 289.584H569.076L573.544 302.899C573.778 303.534 574.027 304.354 574.291 305.36C574.555 306.356 574.726 307.099 574.804 307.587C574.931 306.845 575.126 305.985 575.39 305.009C575.653 304.032 575.868 303.31 576.034 302.841L580.502 289.584ZM599.97 311H585.453V308.393L590.976 302.841C592.606 301.171 593.686 299.989 594.213 299.296C594.75 298.593 595.141 297.934 595.385 297.318C595.629 296.703 595.751 296.044 595.751 295.341C595.751 294.374 595.458 293.612 594.872 293.056C594.296 292.499 593.495 292.221 592.47 292.221C591.649 292.221 590.854 292.372 590.082 292.675C589.32 292.978 588.437 293.524 587.431 294.315L585.57 292.045C586.762 291.039 587.919 290.326 589.042 289.906C590.165 289.486 591.361 289.276 592.631 289.276C594.623 289.276 596.22 289.799 597.421 290.844C598.622 291.879 599.223 293.275 599.223 295.033C599.223 296 599.047 296.918 598.695 297.787C598.354 298.656 597.821 299.555 597.099 300.482C596.386 301.4 595.194 302.646 593.524 304.218L589.804 307.821V307.968H599.97V311Z" fill="black"/>
<path d="M63.9604 674.872C63.9604 677.515 63.0062 679.597 61.0977 681.118C59.2025 682.64 56.5599 683.4 53.1699 683.4C50.0469 683.4 47.2842 682.813 44.8818 681.639V675.873C46.8571 676.754 48.5254 677.375 49.8867 677.735C51.2614 678.095 52.516 678.275 53.6504 678.275C55.0117 678.275 56.0527 678.015 56.7734 677.495C57.5075 676.974 57.8745 676.2 57.8745 675.172C57.8745 674.598 57.7144 674.091 57.394 673.651C57.0737 673.197 56.5999 672.763 55.9727 672.35C55.3587 671.936 54.0975 671.275 52.189 670.368C50.4006 669.527 49.0592 668.719 48.165 667.945C47.2708 667.171 46.5568 666.27 46.0229 665.243C45.4891 664.215 45.2222 663.014 45.2222 661.639C45.2222 659.05 46.0964 657.015 47.8447 655.533C49.6064 654.052 52.0355 653.311 55.1318 653.311C56.6533 653.311 58.1014 653.491 59.4761 653.852C60.8641 654.212 62.3122 654.719 63.8203 655.373L61.8184 660.198C60.2568 659.557 58.9622 659.11 57.9346 658.856C56.9202 658.603 55.9193 658.476 54.9316 658.476C53.7572 658.476 52.8563 658.75 52.229 659.297C51.6017 659.844 51.2881 660.558 51.2881 661.439C51.2881 661.986 51.4149 662.467 51.6685 662.88C51.922 663.281 52.3224 663.674 52.8696 664.062C53.4302 664.435 54.7448 665.116 56.8135 666.104C59.5495 667.411 61.4246 668.726 62.439 670.047C63.4533 671.355 63.9604 672.964 63.9604 674.872ZM80.5566 683H74.3506V658.896H66.4028V653.731H88.5044V658.896H80.5566V683ZM110.926 683L108.804 676.033H98.1338L96.0117 683H89.3252L99.6553 653.611H107.243L117.613 683H110.926ZM107.323 670.828C105.361 664.515 104.253 660.945 104 660.118C103.759 659.29 103.586 658.636 103.479 658.156C103.039 659.864 101.777 664.088 99.6953 670.828H107.323ZM121.316 653.731H130.425C134.576 653.731 137.586 654.325 139.454 655.513C141.336 656.688 142.277 658.563 142.277 661.139C142.277 662.887 141.863 664.322 141.036 665.443C140.222 666.564 139.134 667.238 137.772 667.465V667.665C139.628 668.079 140.962 668.853 141.776 669.987C142.604 671.122 143.018 672.63 143.018 674.512C143.018 677.181 142.05 679.263 140.115 680.758C138.193 682.253 135.577 683 132.267 683H121.316V653.731ZM127.522 665.323H131.126C132.808 665.323 134.022 665.062 134.77 664.542C135.53 664.021 135.911 663.161 135.911 661.959C135.911 660.838 135.497 660.038 134.669 659.557C133.855 659.063 132.561 658.816 130.786 658.816H127.522V665.323ZM127.522 670.248V677.875H131.566C133.275 677.875 134.536 677.548 135.35 676.894C136.164 676.24 136.571 675.239 136.571 673.891C136.571 671.462 134.836 670.248 131.366 670.248H127.522ZM148.863 683V653.731H155.069V683H148.863ZM162.437 683V653.731H168.643V677.875H180.514V683H162.437ZM185.619 683V653.731H191.825V683H185.619ZM210.483 683H204.277V658.896H196.33V653.731H218.431V658.896H210.483V683ZM232.044 665.783L238.15 653.731H244.837L235.127 671.609V683H228.961V671.809L219.252 653.731H225.979L232.044 665.783ZM265.277 683H259.171V653.731H275.947V658.816H265.277V666.364H275.207V671.429H265.277V683ZM305.496 653.731V672.67C305.496 674.832 305.009 676.727 304.035 678.355C303.074 679.984 301.679 681.232 299.851 682.099C298.022 682.967 295.86 683.4 293.364 683.4C289.601 683.4 286.678 682.439 284.596 680.518C282.514 678.582 281.473 675.94 281.473 672.59V653.731H287.659V671.649C287.659 673.904 288.112 675.559 289.02 676.614C289.928 677.668 291.429 678.195 293.524 678.195C295.553 678.195 297.021 677.668 297.929 676.614C298.85 675.546 299.31 673.878 299.31 671.609V653.731H305.496ZM338.628 683H330.741L318.008 660.858H317.828C318.082 664.769 318.208 667.558 318.208 669.227V683H312.663V653.731H320.491L333.203 675.653H333.343C333.143 671.849 333.043 669.16 333.043 667.585V653.731H338.628V683ZM370.299 668.085C370.299 672.903 368.925 676.594 366.175 679.156C363.439 681.719 359.482 683 354.304 683H346.016V653.731H355.205C359.983 653.731 363.693 654.993 366.335 657.515C368.978 660.038 370.299 663.561 370.299 668.085ZM363.853 668.246C363.853 661.959 361.077 658.816 355.525 658.816H352.222V677.875H354.884C360.863 677.875 363.853 674.665 363.853 668.246Z" fill="black"/>
<path d="M1041.68 653.731H1050.79C1054.94 653.731 1057.95 654.325 1059.82 655.513C1061.7 656.688 1062.64 658.563 1062.64 661.139C1062.64 662.887 1062.23 664.322 1061.4 665.443C1060.59 666.564 1059.5 667.238 1058.14 667.465V667.665C1059.99 668.079 1061.33 668.853 1062.14 669.987C1062.97 671.122 1063.38 672.63 1063.38 674.512C1063.38 677.181 1062.42 679.263 1060.48 680.758C1058.56 682.253 1055.94 683 1052.63 683H1041.68V653.731ZM1047.89 665.323H1051.49C1053.17 665.323 1054.39 665.062 1055.14 664.542C1055.9 664.021 1056.28 663.161 1056.28 661.959C1056.28 660.838 1055.86 660.038 1055.04 659.557C1054.22 659.063 1052.93 658.816 1051.15 658.816H1047.89V665.323ZM1047.89 670.248V677.875H1051.93C1053.64 677.875 1054.9 677.548 1055.72 676.894C1056.53 676.24 1056.94 675.239 1056.94 673.891C1056.94 671.462 1055.2 670.248 1051.73 670.248H1047.89ZM1095.8 668.326C1095.8 673.17 1094.6 676.894 1092.19 679.497C1089.79 682.099 1086.35 683.4 1081.86 683.4C1077.38 683.4 1073.94 682.099 1071.53 679.497C1069.13 676.894 1067.93 673.157 1067.93 668.286C1067.93 663.414 1069.13 659.697 1071.53 657.135C1073.95 654.559 1077.41 653.271 1081.9 653.271C1086.4 653.271 1089.84 654.566 1092.21 657.155C1094.6 659.744 1095.8 663.468 1095.8 668.326ZM1074.44 668.326C1074.44 671.596 1075.06 674.058 1076.3 675.713C1077.54 677.368 1079.39 678.195 1081.86 678.195C1086.81 678.195 1089.29 674.905 1089.29 668.326C1089.29 661.733 1086.83 658.436 1081.9 658.436C1079.43 658.436 1077.57 659.27 1076.32 660.938C1075.06 662.593 1074.44 665.056 1074.44 668.326ZM1127.83 683H1119.94L1107.21 660.858H1107.03C1107.28 664.769 1107.41 667.558 1107.41 669.227V683H1101.86V653.731H1109.69L1122.4 675.653H1122.54C1122.34 671.849 1122.24 669.16 1122.24 667.585V653.731H1127.83V683ZM1159.5 668.085C1159.5 672.903 1158.12 676.594 1155.37 679.156C1152.64 681.719 1148.68 683 1143.5 683H1135.21V653.731H1144.4C1149.18 653.731 1152.89 654.993 1155.53 657.515C1158.18 660.038 1159.5 663.561 1159.5 668.085ZM1153.05 668.246C1153.05 661.959 1150.28 658.816 1144.72 658.816H1141.42V677.875H1144.08C1150.06 677.875 1153.05 674.665 1153.05 668.246ZM1165.56 683V653.731H1171.77V683H1165.56ZM1205.1 683H1197.22L1184.48 660.858H1184.3C1184.56 664.769 1184.68 667.558 1184.68 669.227V683H1179.14V653.731H1186.97L1199.68 675.653H1199.82C1199.62 671.849 1199.52 669.16 1199.52 667.585V653.731H1205.1V683ZM1223.6 666.564H1235.21V681.739C1233.33 682.353 1231.56 682.78 1229.89 683.02C1228.23 683.274 1226.54 683.4 1224.8 683.4C1220.38 683.4 1217.01 682.106 1214.67 679.517C1212.35 676.914 1211.19 673.184 1211.19 668.326C1211.19 663.601 1212.54 659.917 1215.23 657.275C1217.94 654.632 1221.69 653.311 1226.48 653.311C1229.49 653.311 1232.38 653.912 1235.17 655.113L1233.11 660.078C1230.97 659.01 1228.75 658.476 1226.44 658.476C1223.76 658.476 1221.61 659.377 1220 661.179C1218.38 662.98 1217.58 665.403 1217.58 668.446C1217.58 671.622 1218.22 674.051 1219.52 675.733C1220.83 677.401 1222.72 678.235 1225.2 678.235C1226.5 678.235 1227.81 678.102 1229.15 677.835V671.729H1223.6V666.564ZM1265.28 658.476C1262.95 658.476 1261.14 659.357 1259.86 661.119C1258.58 662.867 1257.93 665.309 1257.93 668.446C1257.93 674.972 1260.38 678.235 1265.28 678.235C1267.34 678.235 1269.83 677.722 1272.75 676.694V681.899C1270.35 682.9 1267.66 683.4 1264.7 683.4C1260.44 683.4 1257.19 682.112 1254.93 679.537C1252.68 676.947 1251.55 673.237 1251.55 668.406C1251.55 665.363 1252.1 662.7 1253.21 660.418C1254.32 658.122 1255.91 656.367 1257.97 655.153C1260.06 653.925 1262.49 653.311 1265.28 653.311C1268.12 653.311 1270.98 653.998 1273.85 655.373L1271.85 660.418C1270.75 659.897 1269.65 659.444 1268.54 659.057C1267.44 658.67 1266.35 658.476 1265.28 658.476ZM1302.82 653.731V672.67C1302.82 674.832 1302.33 676.727 1301.36 678.355C1300.4 679.984 1299 681.232 1297.17 682.099C1295.34 682.967 1293.18 683.4 1290.69 683.4C1286.92 683.4 1284 682.439 1281.92 680.518C1279.84 678.582 1278.79 675.94 1278.79 672.59V653.731H1284.98V671.649C1284.98 673.904 1285.43 675.559 1286.34 676.614C1287.25 677.668 1288.75 678.195 1290.85 678.195C1292.88 678.195 1294.34 677.668 1295.25 676.614C1296.17 675.546 1296.63 673.878 1296.63 671.609V653.731H1302.82ZM1316.19 666.724H1318.19C1320.16 666.724 1321.6 666.397 1322.54 665.743C1323.47 665.089 1323.94 664.062 1323.94 662.66C1323.94 661.272 1323.46 660.285 1322.5 659.697C1321.55 659.11 1320.08 658.816 1318.07 658.816H1316.19V666.724ZM1316.19 671.769V683H1309.99V653.731H1318.51C1322.49 653.731 1325.43 654.459 1327.34 655.914C1329.25 657.355 1330.21 659.55 1330.21 662.5C1330.21 664.222 1329.73 665.757 1328.78 667.104C1327.84 668.439 1326.49 669.487 1324.76 670.248C1329.16 676.827 1332.03 681.078 1333.37 683H1326.48L1319.49 671.769H1316.19ZM1353.75 653.731H1360.01L1350.06 683H1343.3L1333.37 653.731H1339.63L1345.14 671.148C1345.45 672.176 1345.76 673.377 1346.08 674.752C1346.41 676.113 1346.62 677.061 1346.7 677.595C1346.85 676.367 1347.35 674.218 1348.2 671.148L1353.75 653.731ZM1380.57 683H1363.72V653.731H1380.57V658.816H1369.92V665.243H1379.83V670.328H1369.92V677.875H1380.57V683Z" fill="black"/>
<line x1="726" y1="372.5" x2="743" y2="372.5" stroke="black"/>
<line x1="720" y1="288.5" x2="737" y2="288.5" stroke="black"/>
<line x1="713" y1="203.5" x2="730" y2="203.5" stroke="black"/>
<line x1="709" y1="115.5" x2="726" y2="115.5" stroke="black"/>
</svg>
