<svg viewBox="0 0 543 426" fill="none" xmlns="http://www.w3.org/2000/svg">
<path d="M66.957 73H65.1465V68.043L65.1641 67.2285L65.1934 66.3379C64.8926 66.6387 64.6836 66.8359 64.5664 66.9297L63.582 67.7207L62.709 66.6309L65.4688 64.4336H66.957V73ZM75.2773 68.7168C75.2773 70.2129 75.0312 71.3203 74.5391 72.0391C74.0508 72.7578 73.2969 73.1172 72.2773 73.1172C71.2891 73.1172 70.543 72.7461 70.0391 72.0039C69.5391 71.2617 69.2891 70.166 69.2891 68.7168C69.2891 67.2051 69.5332 66.0918 70.0215 65.377C70.5098 64.6582 71.2617 64.2988 72.2773 64.2988C73.2656 64.2988 74.0117 64.6738 74.5156 65.4238C75.0234 66.1738 75.2773 67.2715 75.2773 68.7168ZM71.0879 68.7168C71.0879 69.7676 71.1777 70.5215 71.3574 70.9785C71.541 71.4316 71.8477 71.6582 72.2773 71.6582C72.6992 71.6582 73.0039 71.4277 73.1914 70.9668C73.3789 70.5059 73.4727 69.7559 73.4727 68.7168C73.4727 67.666 73.377 66.9121 73.1855 66.4551C72.998 65.9941 72.6953 65.7637 72.2773 65.7637C71.8516 65.7637 71.5469 65.9941 71.3633 66.4551C71.1797 66.9121 71.0879 67.666 71.0879 68.7168ZM82.1328 68.7168C82.1328 70.2129 81.8867 71.3203 81.3945 72.0391C80.9062 72.7578 80.1523 73.1172 79.1328 73.1172C78.1445 73.1172 77.3984 72.7461 76.8945 72.0039C76.3945 71.2617 76.1445 70.166 76.1445 68.7168C76.1445 67.2051 76.3887 66.0918 76.877 65.377C77.3652 64.6582 78.1172 64.2988 79.1328 64.2988C80.1211 64.2988 80.8672 64.6738 81.3711 65.4238C81.8789 66.1738 82.1328 67.2715 82.1328 68.7168ZM77.9434 68.7168C77.9434 69.7676 78.0332 70.5215 78.2129 70.9785C78.3965 71.4316 78.7031 71.6582 79.1328 71.6582C79.5547 71.6582 79.8594 71.4277 80.0469 70.9668C80.2344 70.5059 80.3281 69.7559 80.3281 68.7168C80.3281 67.666 80.2324 66.9121 80.041 66.4551C79.8535 65.9941 79.5508 65.7637 79.1328 65.7637C78.707 65.7637 78.4023 65.9941 78.2188 66.4551C78.0352 66.9121 77.9434 67.666 77.9434 68.7168ZM88.9883 68.7168C88.9883 70.2129 88.7422 71.3203 88.25 72.0391C87.7617 72.7578 87.0078 73.1172 85.9883 73.1172C85 73.1172 84.2539 72.7461 83.75 72.0039C83.25 71.2617 83 70.166 83 68.7168C83 67.2051 83.2441 66.0918 83.7324 65.377C84.2207 64.6582 84.9727 64.2988 85.9883 64.2988C86.9766 64.2988 87.7227 64.6738 88.2266 65.4238C88.7344 66.1738 88.9883 67.2715 88.9883 68.7168ZM84.7988 68.7168C84.7988 69.7676 84.8887 70.5215 85.0684 70.9785C85.252 71.4316 85.5586 71.6582 85.9883 71.6582C86.4102 71.6582 86.7148 71.4277 86.9023 70.9668C87.0898 70.5059 87.1836 69.7559 87.1836 68.7168C87.1836 67.666 87.0879 66.9121 86.8965 66.4551C86.709 65.9941 86.4062 65.7637 85.9883 65.7637C85.5625 65.7637 85.2578 65.9941 85.0742 66.4551C84.8906 66.9121 84.7988 67.666 84.7988 68.7168Z" fill="black"/>
<path d="M5.35938 162.214C5.64193 162.214 5.87663 162.234 6.06348 162.275L5.90625 164.23C5.73763 164.185 5.53255 164.162 5.29102 164.162C4.62565 164.162 4.10612 164.333 3.73242 164.675C3.36328 165.017 3.17871 165.495 3.17871 166.11V170H1.09375V162.357H2.67285L2.98047 163.643H3.08301C3.31999 163.214 3.639 162.87 4.04004 162.61C4.44564 162.346 4.88542 162.214 5.35938 162.214ZM10.6162 163.697C10.1742 163.697 9.8278 163.839 9.57715 164.121C9.3265 164.399 9.18294 164.796 9.14648 165.311H12.0723C12.0632 164.796 11.9287 164.399 11.6689 164.121C11.4092 163.839 11.0583 163.697 10.6162 163.697ZM10.9102 170.137C9.67969 170.137 8.7181 169.797 8.02539 169.118C7.33268 168.439 6.98633 167.478 6.98633 166.233C6.98633 164.953 7.30534 163.964 7.94336 163.267C8.58594 162.565 9.47233 162.214 10.6025 162.214C11.6826 162.214 12.5234 162.521 13.125 163.137C13.7266 163.752 14.0273 164.602 14.0273 165.687V166.698H9.09863C9.12142 167.291 9.29688 167.753 9.625 168.086C9.95312 168.419 10.4134 168.585 11.0059 168.585C11.4661 168.585 11.9014 168.537 12.3115 168.441C12.7217 168.346 13.1501 168.193 13.5967 167.983V169.597C13.2321 169.779 12.8424 169.913 12.4277 170C12.013 170.091 11.5072 170.137 10.9102 170.137ZM21.0547 167.73C21.0547 168.514 20.7812 169.111 20.2344 169.521C19.6921 169.932 18.8786 170.137 17.7939 170.137C17.238 170.137 16.764 170.098 16.3721 170.021C15.9801 169.948 15.6133 169.838 15.2715 169.692V167.97C15.6589 168.152 16.0941 168.305 16.5771 168.428C17.0648 168.551 17.4932 168.612 17.8623 168.612C18.6188 168.612 18.9971 168.394 18.9971 167.956C18.9971 167.792 18.9469 167.66 18.8467 167.56C18.7464 167.455 18.5732 167.339 18.3271 167.211C18.0811 167.079 17.7529 166.926 17.3428 166.753C16.7549 166.507 16.3219 166.279 16.0439 166.069C15.7705 165.86 15.57 165.62 15.4424 165.352C15.3193 165.078 15.2578 164.743 15.2578 164.347C15.2578 163.668 15.5199 163.144 16.0439 162.774C16.5726 162.401 17.32 162.214 18.2861 162.214C19.2067 162.214 20.1022 162.414 20.9727 162.815L20.3438 164.319C19.9609 164.155 19.6032 164.021 19.2705 163.916C18.9378 163.811 18.5983 163.759 18.252 163.759C17.6367 163.759 17.3291 163.925 17.3291 164.258C17.3291 164.445 17.4271 164.606 17.623 164.743C17.8236 164.88 18.2588 165.083 18.9287 165.352C19.5257 165.593 19.9632 165.819 20.2412 166.028C20.5192 166.238 20.7243 166.479 20.8564 166.753C20.9886 167.026 21.0547 167.352 21.0547 167.73ZM25.8467 163.697C25.4046 163.697 25.0583 163.839 24.8076 164.121C24.557 164.399 24.4134 164.796 24.377 165.311H27.3027C27.2936 164.796 27.1592 164.399 26.8994 164.121C26.6396 163.839 26.2887 163.697 25.8467 163.697ZM26.1406 170.137C24.9102 170.137 23.9486 169.797 23.2559 169.118C22.5632 168.439 22.2168 167.478 22.2168 166.233C22.2168 164.953 22.5358 163.964 23.1738 163.267C23.8164 162.565 24.7028 162.214 25.833 162.214C26.9131 162.214 27.7539 162.521 28.3555 163.137C28.957 163.752 29.2578 164.602 29.2578 165.687V166.698H24.3291C24.3519 167.291 24.5273 167.753 24.8555 168.086C25.1836 168.419 25.6439 168.585 26.2363 168.585C26.6966 168.585 27.1318 168.537 27.542 168.441C27.9521 168.346 28.3805 168.193 28.8271 167.983V169.597C28.4626 169.779 28.0729 169.913 27.6582 170C27.2435 170.091 26.7376 170.137 26.1406 170.137ZM35.2188 162.214C35.5013 162.214 35.736 162.234 35.9229 162.275L35.7656 164.23C35.597 164.185 35.3919 164.162 35.1504 164.162C34.485 164.162 33.9655 164.333 33.5918 164.675C33.2227 165.017 33.0381 165.495 33.0381 166.11V170H30.9531V162.357H32.5322L32.8398 163.643H32.9424C33.1794 163.214 33.4984 162.87 33.8994 162.61C34.305 162.346 34.7448 162.214 35.2188 162.214ZM39.1289 170L36.2168 162.357H38.3975L39.874 166.712C40.0381 167.263 40.1406 167.785 40.1816 168.277H40.2227C40.2454 167.84 40.348 167.318 40.5303 166.712L42 162.357H44.1807L41.2686 170H39.1289ZM48.4463 163.697C48.0042 163.697 47.6579 163.839 47.4072 164.121C47.1566 164.399 47.013 164.796 46.9766 165.311H49.9023C49.8932 164.796 49.7588 164.399 49.499 164.121C49.2393 163.839 48.8883 163.697 48.4463 163.697ZM48.7402 170.137C47.5098 170.137 46.5482 169.797 45.8555 169.118C45.1628 168.439 44.8164 167.478 44.8164 166.233C44.8164 164.953 45.1354 163.964 45.7734 163.267C46.416 162.565 47.3024 162.214 48.4326 162.214C49.5127 162.214 50.3535 162.521 50.9551 163.137C51.5566 163.752 51.8574 164.602 51.8574 165.687V166.698H46.9287C46.9515 167.291 47.127 167.753 47.4551 168.086C47.7832 168.419 48.2435 168.585 48.8359 168.585C49.2962 168.585 49.7314 168.537 50.1416 168.441C50.5518 168.346 50.9801 168.193 51.4268 167.983V169.597C51.0622 169.779 50.6725 169.913 50.2578 170C49.8431 170.091 49.3372 170.137 48.7402 170.137Z" fill="black"/>
<path d="M71.5977 188.527C72.4258 188.527 73.084 188.76 73.5723 189.225C74.0645 189.689 74.3105 190.326 74.3105 191.135C74.3105 192.092 74.0156 192.828 73.4258 193.344C72.8359 193.859 71.9922 194.117 70.8945 194.117C69.9414 194.117 69.1719 193.963 68.5859 193.654V192.09C68.8945 192.254 69.2539 192.389 69.6641 192.494C70.0742 192.596 70.4629 192.646 70.8301 192.646C71.9355 192.646 72.4883 192.193 72.4883 191.287C72.4883 190.424 71.916 189.992 70.7715 189.992C70.5645 189.992 70.3359 190.014 70.0859 190.057C69.8359 190.096 69.6328 190.139 69.4766 190.186L68.7559 189.799L69.0781 185.434H73.7246V186.969H70.666L70.5078 188.65L70.7129 188.609C70.9512 188.555 71.2461 188.527 71.5977 188.527ZM81.2773 189.717C81.2773 191.213 81.0312 192.32 80.5391 193.039C80.0508 193.758 79.2969 194.117 78.2773 194.117C77.2891 194.117 76.543 193.746 76.0391 193.004C75.5391 192.262 75.2891 191.166 75.2891 189.717C75.2891 188.205 75.5332 187.092 76.0215 186.377C76.5098 185.658 77.2617 185.299 78.2773 185.299C79.2656 185.299 80.0117 185.674 80.5156 186.424C81.0234 187.174 81.2773 188.271 81.2773 189.717ZM77.0879 189.717C77.0879 190.768 77.1777 191.521 77.3574 191.979C77.541 192.432 77.8477 192.658 78.2773 192.658C78.6992 192.658 79.0039 192.428 79.1914 191.967C79.3789 191.506 79.4727 190.756 79.4727 189.717C79.4727 188.666 79.377 187.912 79.1855 187.455C78.998 186.994 78.6953 186.764 78.2773 186.764C77.8516 186.764 77.5469 186.994 77.3633 187.455C77.1797 187.912 77.0879 188.666 77.0879 189.717ZM88.1328 189.717C88.1328 191.213 87.8867 192.32 87.3945 193.039C86.9062 193.758 86.1523 194.117 85.1328 194.117C84.1445 194.117 83.3984 193.746 82.8945 193.004C82.3945 192.262 82.1445 191.166 82.1445 189.717C82.1445 188.205 82.3887 187.092 82.877 186.377C83.3652 185.658 84.1172 185.299 85.1328 185.299C86.1211 185.299 86.8672 185.674 87.3711 186.424C87.8789 187.174 88.1328 188.271 88.1328 189.717ZM83.9434 189.717C83.9434 190.768 84.0332 191.521 84.2129 191.979C84.3965 192.432 84.7031 192.658 85.1328 192.658C85.5547 192.658 85.8594 192.428 86.0469 191.967C86.2344 191.506 86.3281 190.756 86.3281 189.717C86.3281 188.666 86.2324 187.912 86.041 187.455C85.8535 186.994 85.5508 186.764 85.1328 186.764C84.707 186.764 84.4023 186.994 84.2188 187.455C84.0352 187.912 83.9434 188.666 83.9434 189.717Z" fill="black"/>
<path d="M104.422 333.717C104.422 335.213 104.176 336.32 103.684 337.039C103.195 337.758 102.441 338.117 101.422 338.117C100.434 338.117 99.6875 337.746 99.1836 337.004C98.6836 336.262 98.4336 335.166 98.4336 333.717C98.4336 332.205 98.6777 331.092 99.166 330.377C99.6543 329.658 100.406 329.299 101.422 329.299C102.41 329.299 103.156 329.674 103.66 330.424C104.168 331.174 104.422 332.271 104.422 333.717ZM100.232 333.717C100.232 334.768 100.322 335.521 100.502 335.979C100.686 336.432 100.992 336.658 101.422 336.658C101.844 336.658 102.148 336.428 102.336 335.967C102.523 335.506 102.617 334.756 102.617 333.717C102.617 332.666 102.521 331.912 102.33 331.455C102.143 330.994 101.84 330.764 101.422 330.764C100.996 330.764 100.691 330.994 100.508 331.455C100.324 331.912 100.232 332.666 100.232 333.717Z" fill="black"/>
<path d="M89.4219 309.717C89.4219 311.213 89.1758 312.32 88.6836 313.039C88.1953 313.758 87.4414 314.117 86.4219 314.117C85.4336 314.117 84.6875 313.746 84.1836 313.004C83.6836 312.262 83.4336 311.166 83.4336 309.717C83.4336 308.205 83.6777 307.092 84.166 306.377C84.6543 305.658 85.4062 305.299 86.4219 305.299C87.4102 305.299 88.1562 305.674 88.6602 306.424C89.168 307.174 89.4219 308.271 89.4219 309.717ZM85.2324 309.717C85.2324 310.768 85.3223 311.521 85.502 311.979C85.6855 312.432 85.9922 312.658 86.4219 312.658C86.8438 312.658 87.1484 312.428 87.3359 311.967C87.5234 311.506 87.6172 310.756 87.6172 309.717C87.6172 308.666 87.5215 307.912 87.3301 307.455C87.1426 306.994 86.8398 306.764 86.4219 306.764C85.9961 306.764 85.6914 306.994 85.5078 307.455C85.3242 307.912 85.2324 308.666 85.2324 309.717Z" fill="black"/>
<path d="M234.426 405.73C234.426 406.514 234.152 407.111 233.605 407.521C233.063 407.932 232.25 408.137 231.165 408.137C230.609 408.137 230.135 408.098 229.743 408.021C229.351 407.948 228.984 407.838 228.643 407.692V405.97C229.03 406.152 229.465 406.305 229.948 406.428C230.436 406.551 230.864 406.612 231.233 406.612C231.99 406.612 232.368 406.394 232.368 405.956C232.368 405.792 232.318 405.66 232.218 405.56C232.118 405.455 231.944 405.339 231.698 405.211C231.452 405.079 231.124 404.926 230.714 404.753C230.126 404.507 229.693 404.279 229.415 404.069C229.142 403.86 228.941 403.62 228.813 403.352C228.69 403.078 228.629 402.743 228.629 402.347C228.629 401.668 228.891 401.144 229.415 400.774C229.944 400.401 230.691 400.214 231.657 400.214C232.578 400.214 233.473 400.414 234.344 400.815L233.715 402.319C233.332 402.155 232.974 402.021 232.642 401.916C232.309 401.811 231.969 401.759 231.623 401.759C231.008 401.759 230.7 401.925 230.7 402.258C230.7 402.445 230.798 402.606 230.994 402.743C231.195 402.88 231.63 403.083 232.3 403.352C232.897 403.593 233.334 403.819 233.612 404.028C233.89 404.238 234.095 404.479 234.228 404.753C234.36 405.026 234.426 405.352 234.426 405.73ZM237.851 408H236.794V405.108L236.805 404.633L236.822 404.114C236.646 404.289 236.524 404.404 236.456 404.459L235.882 404.92L235.373 404.285L236.982 403.003H237.851V408Z" fill="black"/>
<path d="M232.598 375.527C233.426 375.527 234.084 375.76 234.572 376.225C235.064 376.689 235.311 377.326 235.311 378.135C235.311 379.092 235.016 379.828 234.426 380.344C233.836 380.859 232.992 381.117 231.895 381.117C230.941 381.117 230.172 380.963 229.586 380.654V379.09C229.895 379.254 230.254 379.389 230.664 379.494C231.074 379.596 231.463 379.646 231.83 379.646C232.936 379.646 233.488 379.193 233.488 378.287C233.488 377.424 232.916 376.992 231.771 376.992C231.564 376.992 231.336 377.014 231.086 377.057C230.836 377.096 230.633 377.139 230.477 377.186L229.756 376.799L230.078 372.434H234.725V373.969H231.666L231.508 375.65L231.713 375.609C231.951 375.555 232.246 375.527 232.598 375.527Z" fill="black"/>
<path d="M453.598 328.527C454.426 328.527 455.084 328.76 455.572 329.225C456.064 329.689 456.311 330.326 456.311 331.135C456.311 332.092 456.016 332.828 455.426 333.344C454.836 333.859 453.992 334.117 452.895 334.117C451.941 334.117 451.172 333.963 450.586 333.654V332.09C450.895 332.254 451.254 332.389 451.664 332.494C452.074 332.596 452.463 332.646 452.83 332.646C453.936 332.646 454.488 332.193 454.488 331.287C454.488 330.424 453.916 329.992 452.771 329.992C452.564 329.992 452.336 330.014 452.086 330.057C451.836 330.096 451.633 330.139 451.477 330.186L450.756 329.799L451.078 325.434H455.725V326.969H452.666L452.508 328.65L452.713 328.609C452.951 328.555 453.246 328.527 453.598 328.527ZM463.277 329.717C463.277 331.213 463.031 332.32 462.539 333.039C462.051 333.758 461.297 334.117 460.277 334.117C459.289 334.117 458.543 333.746 458.039 333.004C457.539 332.262 457.289 331.166 457.289 329.717C457.289 328.205 457.533 327.092 458.021 326.377C458.51 325.658 459.262 325.299 460.277 325.299C461.266 325.299 462.012 325.674 462.516 326.424C463.023 327.174 463.277 328.271 463.277 329.717ZM459.088 329.717C459.088 330.768 459.178 331.521 459.357 331.979C459.541 332.432 459.848 332.658 460.277 332.658C460.699 332.658 461.004 332.428 461.191 331.967C461.379 331.506 461.473 330.756 461.473 329.717C461.473 328.666 461.377 327.912 461.186 327.455C460.998 326.994 460.695 326.764 460.277 326.764C459.852 326.764 459.547 326.994 459.363 327.455C459.18 327.912 459.088 328.666 459.088 329.717Z" fill="black"/>
<path d="M481.426 341.73C481.426 342.514 481.152 343.111 480.605 343.521C480.063 343.932 479.25 344.137 478.165 344.137C477.609 344.137 477.135 344.098 476.743 344.021C476.351 343.948 475.984 343.838 475.643 343.692V341.97C476.03 342.152 476.465 342.305 476.948 342.428C477.436 342.551 477.864 342.612 478.233 342.612C478.99 342.612 479.368 342.394 479.368 341.956C479.368 341.792 479.318 341.66 479.218 341.56C479.118 341.455 478.944 341.339 478.698 341.211C478.452 341.079 478.124 340.926 477.714 340.753C477.126 340.507 476.693 340.279 476.415 340.069C476.142 339.86 475.941 339.62 475.813 339.352C475.69 339.078 475.629 338.743 475.629 338.347C475.629 337.668 475.891 337.144 476.415 336.774C476.944 336.401 477.691 336.214 478.657 336.214C479.578 336.214 480.473 336.414 481.344 336.815L480.715 338.319C480.332 338.155 479.974 338.021 479.642 337.916C479.309 337.811 478.969 337.759 478.623 337.759C478.008 337.759 477.7 337.925 477.7 338.258C477.7 338.445 477.798 338.606 477.994 338.743C478.195 338.88 478.63 339.083 479.3 339.352C479.897 339.593 480.334 339.819 480.612 340.028C480.89 340.238 481.095 340.479 481.228 340.753C481.36 341.026 481.426 341.352 481.426 341.73ZM485.193 344H482.199V343.37L483.274 342.283C483.593 341.957 483.801 341.731 483.898 341.606C483.996 341.479 484.066 341.362 484.109 341.255C484.152 341.147 484.174 341.036 484.174 340.921C484.174 340.749 484.126 340.621 484.03 340.537C483.937 340.453 483.811 340.411 483.652 340.411C483.486 340.411 483.325 340.449 483.169 340.525C483.013 340.602 482.85 340.71 482.68 340.851L482.188 340.268C482.398 340.088 482.573 339.961 482.712 339.887C482.851 339.812 483.002 339.756 483.166 339.717C483.33 339.676 483.514 339.655 483.717 339.655C483.984 339.655 484.221 339.704 484.426 339.802C484.631 339.899 484.79 340.036 484.903 340.212C485.017 340.388 485.073 340.589 485.073 340.815C485.073 341.013 485.038 341.198 484.968 341.372C484.899 341.544 484.792 341.721 484.646 341.902C484.501 342.084 484.245 342.343 483.878 342.679L483.327 343.197V343.238H485.193V344Z" fill="black"/>
<path d="M385.422 407.717C385.422 409.213 385.176 410.32 384.684 411.039C384.195 411.758 383.441 412.117 382.422 412.117C381.434 412.117 380.688 411.746 380.184 411.004C379.684 410.262 379.434 409.166 379.434 407.717C379.434 406.205 379.678 405.092 380.166 404.377C380.654 403.658 381.406 403.299 382.422 403.299C383.41 403.299 384.156 403.674 384.66 404.424C385.168 405.174 385.422 406.271 385.422 407.717ZM381.232 407.717C381.232 408.768 381.322 409.521 381.502 409.979C381.686 410.432 381.992 410.658 382.422 410.658C382.844 410.658 383.148 410.428 383.336 409.967C383.523 409.506 383.617 408.756 383.617 407.717C383.617 406.666 383.521 405.912 383.33 405.455C383.143 404.994 382.84 404.764 382.422 404.764C381.996 404.764 381.691 404.994 381.508 405.455C381.324 405.912 381.232 406.666 381.232 407.717Z" fill="black"/>
<path d="M361.957 423H360.146V418.043L360.164 417.229L360.193 416.338C359.893 416.639 359.684 416.836 359.566 416.93L358.582 417.721L357.709 416.631L360.469 414.434H361.957V423ZM370.277 418.717C370.277 420.213 370.031 421.32 369.539 422.039C369.051 422.758 368.297 423.117 367.277 423.117C366.289 423.117 365.543 422.746 365.039 422.004C364.539 421.262 364.289 420.166 364.289 418.717C364.289 417.205 364.533 416.092 365.021 415.377C365.51 414.658 366.262 414.299 367.277 414.299C368.266 414.299 369.012 414.674 369.516 415.424C370.023 416.174 370.277 417.271 370.277 418.717ZM366.088 418.717C366.088 419.768 366.178 420.521 366.357 420.979C366.541 421.432 366.848 421.658 367.277 421.658C367.699 421.658 368.004 421.428 368.191 420.967C368.379 420.506 368.473 419.756 368.473 418.717C368.473 417.666 368.377 416.912 368.186 416.455C367.998 415.994 367.695 415.764 367.277 415.764C366.852 415.764 366.547 415.994 366.363 416.455C366.18 416.912 366.088 417.666 366.088 418.717Z" fill="black"/>
<path d="M247 156.5L259.5 161L278 164H292.5L317.5 162.5L335.5 158L355 151L392 130.5L424.5 104L456.5 71L483.5 37L509 2L461.5 100.5L418.5 198L396 257L379 316.5C371.414 348.27 369.259 366.109 368.5 398L104 312.5L247 156.5Z" fill="#4A71FF"/>
<path d="M246.5 156C344.482 180.458 403.038 139.298 509 0C411.581 205.216 368.963 320.414 368 399L103 313.5L246.5 156Z" fill="#0037FF"/>
<path d="M103.893 313.263L246.669 156.557C295.633 168.725 334.834 164.512 375.019 139.834C414.502 115.588 454.91 71.5991 506.501 4.10189C458.854 104.649 424.496 183.424 401.858 246.818C379.03 310.745 368.108 359.063 367.509 398.316L103.893 313.263Z" stroke="white" stroke-opacity="0.5"/>
<path d="M113.045 303.002C216.5 335 271.705 334.893 377.045 327.002" stroke="#7B99FF"/>
<path d="M122 293.5C224.021 324.779 279.807 319.038 386.002 293" stroke="#7B99FF"/>
<path d="M131.5 282.5C209.449 311.284 297.032 304.499 396 263.5" stroke="#7B99FF"/>
<path d="M140.5 273.5C237.798 301.605 303.696 289.84 405 237" stroke="#7B99FF"/>
<path d="M147.5 265C246.701 288.075 308.906 276.835 414.5 212.5" stroke="#7B99FF"/>
<path d="M157.027 255.111C257.092 278.302 319.543 262.923 424.5 189" stroke="#7B99FF"/>
<path d="M167.5 243.5C247.748 270.189 329.134 252.982 433.5 167" stroke="#7B99FF"/>
<path d="M175.5 234.5C265.654 263.976 346.654 231.476 442.5 145" stroke="#7B99FF"/>
<path d="M184.5 225C282.23 249.916 350.67 220.97 451.5 124.5" stroke="#7B99FF"/>
<path d="M193.5 215C291.981 240.946 366.399 204.593 458 107.5" stroke="#7B99FF"/>
<path d="M202.5 205.5C296.97 234.204 383.699 184.958 467 87.5" stroke="#7B99FF"/>
<path d="M211.5 195C306.71 222.954 376.21 182.954 474.5 71" stroke="#7B99FF"/>
<path d="M220 186.5C311.222 211.448 384.222 173.448 482.5 54" stroke="#7B99FF"/>
<path d="M228.765 176.059C320 201.5 391.735 162.941 491 36" stroke="#7B99FF"/>
<path d="M238 166C329.329 192.885 399.242 150.437 498 21.5" stroke="#7B99FF"/>
<path d="M118.5 318L263.633 161.161" stroke="#7B99FF"/>
<line x1="135.628" y1="323.166" x2="279.628" y2="163.166" stroke="#7B99FF"/>
<path d="M151.5 328.5L295.623 163.171" stroke="#7B99FF"/>
<path d="M168.5 334C216.948 270.615 252.192 230.589 311 162.5" stroke="#7B99FF"/>
<path d="M184.5 339C226.463 276.029 263.5 237.5 327.5 160" stroke="#7B99FF"/>
<path d="M202.5 345C204.317 341.697 205.5 333.5 212.5 325.5C253.5 260 289.004 229.117 343.598 155.201" stroke="#7B99FF"/>
<path d="M218.5 350C232.869 310.896 281.436 249.615 361.5 147.5" stroke="#7B99FF"/>
<path d="M235 355.5C240.63 323.489 299.934 245.541 377.5 138.5" stroke="#7B99FF"/>
<path d="M251.5 360.5C257.96 320.17 306.404 250.612 394.5 126.5" stroke="#7B99FF"/>
<path d="M270.5 367C260.836 342.431 313.39 259.539 410 113.5" stroke="#7B99FF"/>
<path d="M285.5 371.5C289.5 310.5 351.841 219.924 427 98" stroke="#7B99FF"/>
<path d="M302.5 377C304.698 318.395 353.216 231.62 445.5 78.5" stroke="#7B99FF"/>
<path d="M317.5 382C323.158 313.015 372.167 218.728 464 57.4999" stroke="#7B99FF"/>
<path d="M333.5 387C343.438 297.097 387.473 205.287 474 45.5002" stroke="#7B99FF"/>
<path d="M350.5 392.5C365.194 259.303 410.138 194.053 487 29.5002" stroke="#7B99FF"/>
<path opacity="0.2" d="M368 399C370 322.5 400.162 226.272 509 0L509 241L368 399Z" fill="#6C63FF"/>
<line x1="96.1524" y1="319.524" x2="371.152" y2="407.524" stroke="black"/>
<path d="M370.633 407.66L518 246.5" stroke="black"/>
<line x1="96.5" y1="67" x2="96.5" y2="320" stroke="black"/>
<line x1="365.5" y1="400" x2="365.5" y2="406" stroke="black"/>
<path d="M233.5 358V363.5" stroke="black"/>
<path d="M96.1857 314.536L102.5 316" stroke="black"/>
<line x1="102.5" y1="321" x2="102.5" y2="316" stroke="black"/>
<path d="M438 324.226L444.814 326.69" stroke="black"/>
<path d="M526.957 257H525.146V252.043L525.164 251.229L525.193 250.338C524.893 250.639 524.684 250.836 524.566 250.93L523.582 251.721L522.709 250.631L525.469 248.434H526.957V257ZM535.277 252.717C535.277 254.213 535.031 255.32 534.539 256.039C534.051 256.758 533.297 257.117 532.277 257.117C531.289 257.117 530.543 256.746 530.039 256.004C529.539 255.262 529.289 254.166 529.289 252.717C529.289 251.205 529.533 250.092 530.021 249.377C530.51 248.658 531.262 248.299 532.277 248.299C533.266 248.299 534.012 248.674 534.516 249.424C535.023 250.174 535.277 251.271 535.277 252.717ZM531.088 252.717C531.088 253.768 531.178 254.521 531.357 254.979C531.541 255.432 531.848 255.658 532.277 255.658C532.699 255.658 533.004 255.428 533.191 254.967C533.379 254.506 533.473 253.756 533.473 252.717C533.473 251.666 533.377 250.912 533.186 250.455C532.998 249.994 532.695 249.764 532.277 249.764C531.852 249.764 531.547 249.994 531.363 250.455C531.18 250.912 531.088 251.666 531.088 252.717ZM542.133 252.717C542.133 254.213 541.887 255.32 541.395 256.039C540.906 256.758 540.152 257.117 539.133 257.117C538.145 257.117 537.398 256.746 536.895 256.004C536.395 255.262 536.145 254.166 536.145 252.717C536.145 251.205 536.389 250.092 536.877 249.377C537.365 248.658 538.117 248.299 539.133 248.299C540.121 248.299 540.867 248.674 541.371 249.424C541.879 250.174 542.133 251.271 542.133 252.717ZM537.943 252.717C537.943 253.768 538.033 254.521 538.213 254.979C538.396 255.432 538.703 255.658 539.133 255.658C539.555 255.658 539.859 255.428 540.047 254.967C540.234 254.506 540.328 253.756 540.328 252.717C540.328 251.666 540.232 250.912 540.041 250.455C539.854 249.994 539.551 249.764 539.133 249.764C538.707 249.764 538.402 249.994 538.219 250.455C538.035 250.912 537.943 251.666 537.943 252.717Z" fill="black"/>
<line x1="96.1581" y1="72.5257" x2="102.158" y2="74.5257" stroke="black"/>
<line x1="96.1581" y1="193.526" x2="102.158" y2="195.526" stroke="black"/>
</svg>
