<svg viewBox="0 0 480 400" fill="none" xmlns="http://www.w3.org/2000/svg">
<path d="M472 344C469.878 344 467.843 344.843 466.343 346.343C464.843 347.843 464 349.878 464 352V384H448V344C448 341.878 447.157 339.843 445.657 338.343C444.157 336.843 442.122 336 440 336C437.878 336 435.843 336.843 434.343 338.343C432.843 339.843 432 341.878 432 344V384H416V320C416 317.878 415.157 315.843 413.657 314.343C412.157 312.843 410.122 312 408 312C405.878 312 403.843 312.843 402.343 314.343C400.843 315.843 400 317.878 400 320V384H384V368C384 365.878 383.157 363.843 381.657 362.343C380.157 360.843 378.122 360 376 360C373.878 360 371.843 360.843 370.343 362.343C368.843 363.843 368 365.878 368 368V384H344V352C344 349.878 343.157 347.843 341.657 346.343C340.157 344.843 338.122 344 336 344C333.878 344 331.843 344.843 330.343 346.343C328.843 347.843 328 349.878 328 352V384H312V352C312 349.878 311.157 347.843 309.657 346.343C308.157 344.843 306.122 344 304 344C301.878 344 299.843 344.843 298.343 346.343C296.843 347.843 296 349.878 296 352V384H280V344C280 341.878 279.157 339.843 277.657 338.343C276.157 336.843 274.122 336 272 336C269.878 336 267.843 336.843 266.343 338.343C264.843 339.843 264 341.878 264 344V384H248V320C248 317.878 247.157 315.843 245.657 314.343C244.157 312.843 242.122 312 240 312C237.878 312 235.843 312.843 234.343 314.343C232.843 315.843 232 317.878 232 320V384H216V368C216 365.878 215.157 363.843 213.657 362.343C212.157 360.843 210.122 360 208 360C205.878 360 203.843 360.843 202.343 362.343C200.843 363.843 200 365.878 200 368V384H176V368C176 365.878 175.157 363.843 173.657 362.343C172.157 360.843 170.122 360 168 360C165.878 360 163.843 360.843 162.343 362.343C160.843 363.843 160 365.878 160 368V384H144V344C144 341.878 143.157 339.843 141.657 338.343C140.157 336.843 138.122 336 136 336C133.878 336 131.843 336.843 130.343 338.343C128.843 339.843 128 341.878 128 344V384H112V332C112 329.878 111.157 327.843 109.657 326.343C108.157 324.843 106.122 324 104 324C101.878 324 99.8434 324.843 98.3431 326.343C96.8429 327.843 96 329.878 96 332V384H80V328C80 325.878 79.1571 323.843 77.6569 322.343C76.1566 320.843 74.1217 320 72 320C69.8783 320 67.8434 320.843 66.3431 322.343C64.8429 323.843 64 325.878 64 328V384H48V352C48 349.878 47.1571 347.843 45.6569 346.343C44.1566 344.843 42.1217 344 40 344C37.8783 344 35.8434 344.843 34.3431 346.343C32.8429 347.843 32 349.878 32 352V384H16V8C16 5.87827 15.1571 3.84344 13.6569 2.34315C12.1566 0.842854 10.1217 0 8 0C5.87827 0 3.84344 0.842854 2.34315 2.34315C0.842854 3.84344 0 5.87827 0 8V392C0 394.122 0.842854 396.157 2.34315 397.657C3.84344 399.157 5.87827 400 8 400H472C474.122 400 476.157 399.157 477.657 397.657C479.157 396.157 480 394.122 480 392V352C480 349.878 479.157 347.843 477.657 346.343C476.157 344.843 474.122 344 472 344Z" fill="#D0D2D4"/>
<path d="M275.522 58.5653C275.522 77.727 259.618 93.2609 240 93.2609C220.382 93.2609 204.478 77.727 204.478 58.5653C204.478 39.4035 220.382 23.8696 240 23.8696C259.618 23.8696 275.522 39.4035 275.522 58.5653Z" fill="white" stroke="black" stroke-width="10"/>
<path d="M183 113.5C183 111.015 185.899 109 189.476 109H290.524C294.101 109 297 111.015 297 113.5C297 115.985 294.101 118 290.524 118H189.476C185.899 118 183 115.985 183 113.5Z" fill="black"/>
<path d="M273.87 20.152C273.87 18.5551 275.088 17.2607 276.591 17.2607H294.279C295.782 17.2607 297 18.5551 297 20.152C297 21.749 295.782 23.0434 294.279 23.0434H276.591C275.088 23.0434 273.87 21.749 273.87 20.152Z" fill="black"/>
<path d="M285.022 32.1304C283.425 32.1304 282.13 30.9122 282.13 29.4093V11.7212C282.13 10.2182 283.425 9 285.022 9C286.619 9 287.913 10.2182 287.913 11.7212V29.4093C287.913 30.9122 286.619 32.1304 285.022 32.1304Z" fill="black"/>
<path d="M240 80.0434C251.862 80.0434 261.478 70.4275 261.478 58.5652C261.478 46.7029 251.862 37.0869 240 37.0869C228.138 37.0869 218.522 46.7029 218.522 58.5652C218.522 70.4275 228.138 80.0434 240 80.0434Z" fill="#F0F0F0"/>
<path d="M239.174 58.5654H261.478C261.478 56.8504 261.221 55.1895 260.742 53.6089H239.174V58.5654Z" fill="#D80027"/>
<path d="M239.174 47.8261H258.174C256.877 45.6116 255.218 43.6545 253.285 42.0435H239.174V47.8261Z" fill="#D80027"/>
<path d="M240 80.0434C244.997 80.0434 249.59 78.1888 253.217 75.0869H226.783C230.41 78.1888 235.003 80.0434 240 80.0434Z" fill="#D80027"/>
<path d="M221.75 69.3042H258.249C259.3 67.7804 260.116 66.1152 260.652 64.3477H219.348C219.884 66.1152 220.699 67.7804 221.75 69.3042Z" fill="#D80027"/>
<path d="M228.471 40.4412H230.428L228.608 41.7639L229.303 43.9039L227.482 42.5812L225.662 43.9039L226.263 42.0552C224.66 43.3905 223.255 44.9548 222.097 46.6977H222.724L221.565 47.5395C221.385 47.8407 221.211 48.1466 221.045 48.4573L221.599 50.1609L220.566 49.4107C220.31 49.9545 220.075 50.5103 219.864 51.0776L220.474 52.9546H222.724L220.903 54.2774L221.599 56.4173L219.778 55.0946L218.688 55.8872C218.579 56.7647 218.522 57.6584 218.522 58.5652H240C240 46.7029 240 45.3047 240 37.0869C235.757 37.0869 231.802 38.3175 228.471 40.4412ZM229.303 56.4173L227.482 55.0946L225.662 56.4173L226.357 54.2774L224.537 52.9546H226.787L227.482 50.8141L228.178 52.9546H230.428L228.608 54.2774L229.303 56.4173ZM228.608 48.0204L229.303 50.1609L227.482 48.8381L225.662 50.1609L226.357 48.0204L224.537 46.6977H226.787L227.482 44.5577L228.178 46.6977H230.428L228.608 48.0204ZM237.007 56.4173L235.187 55.0946L233.366 56.4173L234.062 54.2774L232.241 52.9546H234.491L235.187 50.8141L235.882 52.9546H238.132L236.311 54.2774L237.007 56.4173ZM236.311 48.0204L237.007 50.1609L235.187 48.8381L233.366 50.1609L234.062 48.0204L232.241 46.6977H234.491L235.187 44.5577L235.882 46.6977H238.132L236.311 48.0204ZM236.311 41.7639L237.007 43.9039L235.187 42.5812L233.366 43.9039L234.062 41.7639L232.241 40.4412H234.491L235.187 38.3007L235.882 40.4412H238.132L236.311 41.7639Z" fill="#0052B4"/>
<path d="M48.1582 284.004C49.5059 284.004 50.554 284.492 51.3027 285.469C52.0579 286.445 52.4355 287.816 52.4355 289.58C52.4355 291.351 52.0547 292.731 51.293 293.721C50.5312 294.704 49.4733 295.195 48.1191 295.195C46.752 295.195 45.6908 294.704 44.9355 293.721H44.7793L44.3594 295H42.6406V279.805H44.9355V283.418C44.9355 283.685 44.9225 284.082 44.8965 284.609C44.8704 285.137 44.8509 285.472 44.8379 285.615H44.9355C45.6647 284.541 46.7389 284.004 48.1582 284.004ZM47.5625 285.879C46.638 285.879 45.9707 286.152 45.5605 286.699C45.1569 287.24 44.9486 288.148 44.9355 289.424V289.58C44.9355 290.895 45.1439 291.849 45.5605 292.441C45.9772 293.027 46.6576 293.32 47.6016 293.32C48.4154 293.32 49.0306 292.998 49.4473 292.354C49.8704 291.709 50.082 290.778 50.082 289.561C50.082 287.106 49.2422 285.879 47.5625 285.879ZM62.7188 295L62.3965 293.584H62.2793C61.9603 294.085 61.5046 294.479 60.9121 294.766C60.3262 295.052 59.6556 295.195 58.9004 295.195C57.5918 295.195 56.6152 294.87 55.9707 294.219C55.3262 293.568 55.0039 292.581 55.0039 291.26V284.199H57.3184V290.859C57.3184 291.686 57.4876 292.308 57.8262 292.725C58.1647 293.135 58.6953 293.34 59.418 293.34C60.3815 293.34 61.0879 293.053 61.5371 292.48C61.9928 291.901 62.2207 290.934 62.2207 289.58V284.199H64.5254V295H62.7188ZM66.1562 284.199H68.6562L70.8535 290.322C71.1855 291.195 71.4069 292.015 71.5176 292.783H71.5957C71.6543 292.425 71.7617 291.992 71.918 291.484C72.0742 290.97 72.901 288.542 74.3984 284.199H76.8789L72.2598 296.436C71.4199 298.682 70.0202 299.805 68.0605 299.805C67.5527 299.805 67.0579 299.749 66.5762 299.639V297.822C66.9212 297.9 67.3151 297.939 67.7578 297.939C68.8646 297.939 69.6426 297.298 70.0918 296.016L70.4922 295L66.1562 284.199ZM86.0098 295H83.7148V279.805H86.0098V295ZM98.8809 289.58C98.8809 291.344 98.4284 292.721 97.5234 293.711C96.6185 294.701 95.3587 295.195 93.7441 295.195C92.735 295.195 91.8431 294.967 91.0684 294.512C90.2936 294.056 89.6979 293.402 89.2812 292.549C88.8646 291.696 88.6562 290.706 88.6562 289.58C88.6562 287.829 89.1055 286.462 90.0039 285.479C90.9023 284.495 92.1686 284.004 93.8027 284.004C95.3652 284.004 96.6022 284.508 97.5137 285.518C98.4251 286.52 98.8809 287.874 98.8809 289.58ZM91.0195 289.58C91.0195 292.074 91.9408 293.32 93.7832 293.32C95.6061 293.32 96.5176 292.074 96.5176 289.58C96.5176 287.113 95.5996 285.879 93.7637 285.879C92.8001 285.879 92.1003 286.198 91.6641 286.836C91.2344 287.474 91.0195 288.389 91.0195 289.58ZM110.385 295L108.988 289.961C108.819 289.427 108.513 288.187 108.07 286.24H107.982C107.605 287.998 107.305 289.245 107.084 289.98L105.648 295H103.109L100.082 284.199H102.426L103.803 289.521C104.115 290.837 104.337 291.963 104.467 292.9H104.525C104.59 292.425 104.688 291.882 104.818 291.27C104.955 290.651 105.072 290.189 105.17 289.883L106.811 284.199H109.33L110.922 289.883C111.02 290.202 111.14 290.69 111.283 291.348C111.433 292.005 111.521 292.516 111.547 292.881H111.625C111.723 292.08 111.951 290.96 112.309 289.521L113.705 284.199H116.01L112.963 295H110.385Z" fill="black"/>
<path d="M349.896 224.924C349.896 225.979 349.512 226.789 348.744 227.355C347.976 227.915 346.876 228.195 345.443 228.195C344.005 228.195 342.849 227.977 341.977 227.541V225.559C343.246 226.145 344.428 226.438 345.521 226.438C346.934 226.438 347.641 226.011 347.641 225.158C347.641 224.885 347.562 224.657 347.406 224.475C347.25 224.292 346.993 224.104 346.635 223.908C346.277 223.713 345.779 223.492 345.141 223.244C343.897 222.762 343.054 222.281 342.611 221.799C342.175 221.317 341.957 220.692 341.957 219.924C341.957 218.999 342.328 218.283 343.07 217.775C343.819 217.261 344.835 217.004 346.117 217.004C347.387 217.004 348.588 217.261 349.721 217.775L348.979 219.504C347.813 219.022 346.833 218.781 346.039 218.781C344.828 218.781 344.223 219.126 344.223 219.816C344.223 220.155 344.379 220.441 344.691 220.676C345.01 220.91 345.701 221.232 346.762 221.643C347.654 221.988 348.301 222.303 348.705 222.59C349.109 222.876 349.408 223.208 349.604 223.586C349.799 223.957 349.896 224.403 349.896 224.924ZM357.104 228.195C355.424 228.195 354.109 227.707 353.158 226.73C352.214 225.747 351.742 224.396 351.742 222.678C351.742 220.913 352.182 219.527 353.061 218.518C353.939 217.508 355.147 217.004 356.684 217.004C358.109 217.004 359.236 217.437 360.062 218.303C360.889 219.169 361.303 220.36 361.303 221.877V223.117H354.105C354.138 224.165 354.421 224.973 354.955 225.539C355.489 226.099 356.241 226.379 357.211 226.379C357.849 226.379 358.441 226.32 358.988 226.203C359.542 226.079 360.134 225.878 360.766 225.598V227.463C360.206 227.73 359.639 227.919 359.066 228.029C358.493 228.14 357.839 228.195 357.104 228.195ZM356.684 218.742C355.954 218.742 355.368 218.973 354.926 219.436C354.49 219.898 354.229 220.572 354.145 221.457H359.047C359.034 220.565 358.819 219.891 358.402 219.436C357.986 218.973 357.413 218.742 356.684 218.742ZM366.205 228H363.91V212.805H366.205V228ZM371.791 228H369.496V212.805H371.791V228ZM389.779 228H387.475V221.359C387.475 220.526 387.305 219.904 386.967 219.494C386.635 219.084 386.104 218.879 385.375 218.879C384.411 218.879 383.702 219.169 383.246 219.748C382.797 220.321 382.572 221.285 382.572 222.639V228H380.277V212.805H382.572V216.662C382.572 217.281 382.533 217.941 382.455 218.645H382.602C382.914 218.124 383.347 217.72 383.9 217.434C384.46 217.147 385.111 217.004 385.854 217.004C388.471 217.004 389.779 218.322 389.779 220.959V228ZM395.268 228H392.973V217.199H395.268V228ZM392.836 214.338C392.836 213.928 392.947 213.612 393.168 213.391C393.396 213.169 393.718 213.059 394.135 213.059C394.538 213.059 394.851 213.169 395.072 213.391C395.3 213.612 395.414 213.928 395.414 214.338C395.414 214.729 395.3 215.038 395.072 215.266C394.851 215.487 394.538 215.598 394.135 215.598C393.718 215.598 393.396 215.487 393.168 215.266C392.947 215.038 392.836 214.729 392.836 214.338ZM407.68 217.199V218.459L405.834 218.801C406.003 219.029 406.143 219.309 406.254 219.641C406.365 219.973 406.42 220.324 406.42 220.695C406.42 221.809 406.036 222.684 405.268 223.322C404.499 223.96 403.441 224.279 402.094 224.279C401.749 224.279 401.436 224.253 401.156 224.201C400.661 224.507 400.414 224.865 400.414 225.275C400.414 225.523 400.528 225.708 400.756 225.832C400.99 225.956 401.417 226.018 402.035 226.018H403.92C405.111 226.018 406.016 226.271 406.635 226.779C407.253 227.287 407.562 228.02 407.562 228.977C407.562 230.201 407.058 231.145 406.049 231.809C405.04 232.473 403.581 232.805 401.674 232.805C400.202 232.805 399.079 232.544 398.305 232.023C397.53 231.503 397.143 230.76 397.143 229.797C397.143 229.133 397.351 228.573 397.768 228.117C398.191 227.668 398.78 227.355 399.535 227.18C399.229 227.049 398.975 226.841 398.773 226.555C398.578 226.262 398.48 225.956 398.48 225.637C398.48 225.233 398.594 224.891 398.822 224.611C399.05 224.331 399.389 224.055 399.838 223.781C399.278 223.54 398.822 223.15 398.471 222.609C398.126 222.062 397.953 221.424 397.953 220.695C397.953 219.523 398.321 218.615 399.057 217.971C399.799 217.326 400.854 217.004 402.221 217.004C402.527 217.004 402.846 217.027 403.178 217.072C403.516 217.111 403.77 217.154 403.939 217.199H407.68ZM399.193 229.68C399.193 230.174 399.415 230.555 399.857 230.822C400.307 231.089 400.935 231.223 401.742 231.223C402.992 231.223 403.923 231.044 404.535 230.686C405.147 230.327 405.453 229.852 405.453 229.26C405.453 228.791 405.284 228.456 404.945 228.254C404.613 228.059 403.992 227.961 403.08 227.961H401.342C400.684 227.961 400.16 228.114 399.77 228.42C399.385 228.732 399.193 229.152 399.193 229.68ZM400.18 220.695C400.18 221.372 400.352 221.893 400.697 222.258C401.049 222.622 401.55 222.805 402.201 222.805C403.529 222.805 404.193 222.095 404.193 220.676C404.193 219.973 404.027 219.432 403.695 219.055C403.37 218.671 402.872 218.479 402.201 218.479C401.537 218.479 401.033 218.667 400.688 219.045C400.349 219.423 400.18 219.973 400.18 220.695ZM419.193 228H416.889V221.359C416.889 220.526 416.719 219.904 416.381 219.494C416.049 219.084 415.518 218.879 414.789 218.879C413.826 218.879 413.116 219.169 412.66 219.748C412.211 220.321 411.986 221.285 411.986 222.639V228H409.691V212.805H411.986V216.662C411.986 217.281 411.947 217.941 411.869 218.645H412.016C412.328 218.124 412.761 217.72 413.314 217.434C413.874 217.147 414.525 217.004 415.268 217.004C417.885 217.004 419.193 218.322 419.193 220.959V228Z" fill="black"/>
<path d="M17.7028 213.375C16.8466 210.873 18.6101 208.244 21.2496 208.087L75.6221 204.849L135.244 198.3L254.489 190.2L353.733 174.1L449.787 163.357C451.651 163.148 453.409 164.263 454.016 166.037L455.896 171.529C456.725 173.95 455.099 176.515 452.556 176.8L358.266 187.346L259.022 203.445L139.778 211.545L80.1554 218.095L23.5703 221.464C21.7757 221.571 20.1302 220.468 19.5481 218.767L17.7028 213.375Z" fill="#3DC185"/>
<path d="M17.6037 257.085C16.7786 254.674 18.388 252.117 20.9185 251.817L75.1205 245.408C75.4536 245.369 75.7804 245.288 76.0932 245.167L134.125 222.732C134.855 222.449 135.652 222.388 136.417 222.554L164.009 228.547C164.694 228.696 165.407 228.662 166.075 228.448L194.208 219.459C194.644 219.32 195.1 219.257 195.557 219.272L253.433 221.165C254.125 221.187 254.811 221.03 255.423 220.708L303.674 195.378C303.964 195.226 304.272 195.11 304.59 195.033L353.238 183.219C353.567 183.14 353.884 183.019 354.181 182.859L377.755 170.246C378.275 169.968 378.849 169.809 379.437 169.778L403.355 168.549L450.024 167.092C451.779 167.037 453.365 168.133 453.934 169.795L455.757 175.121C456.628 177.667 454.787 180.33 452.097 180.414L407.888 181.795L383.97 183.024C383.382 183.054 382.808 183.214 382.289 183.492L358.715 196.105C358.417 196.264 358.1 196.385 357.772 196.465L309.123 208.279C308.805 208.356 308.498 208.472 308.208 208.624L259.957 233.954C259.344 234.276 258.658 234.433 257.967 234.41L200.09 232.517C199.633 232.503 199.177 232.566 198.742 232.705L170.609 241.694C169.94 241.907 169.228 241.941 168.542 241.793L140.95 235.799C140.185 235.633 139.388 235.695 138.659 235.977L80.6265 258.413C80.3137 258.534 79.9869 258.615 79.6538 258.654L23.7414 265.265C21.8697 265.487 20.0975 264.371 19.4872 262.588L17.6037 257.085Z" fill="#EB423F"/>
<circle cx="79" cy="250" r="10" fill="black"/>
<circle cx="381" cy="177" r="10" fill="black"/>
</svg>
