<svg width="220" height="220" viewBox="0 0 220 220" fill="none" xmlns="http://www.w3.org/2000/svg">
<path d="M155.266 68.5032C151.319 64.5558 151.319 58.1558 155.266 54.2083L161.435 48.039C165.383 44.0916 171.783 44.0916 175.73 48.039V48.039C179.678 51.9864 179.678 58.3865 175.73 62.3339L169.561 68.5032C165.614 72.4507 159.214 72.4507 155.266 68.5032V68.5032Z" fill="black"/>
<path d="M155.165 158.739C159.112 154.791 165.513 154.791 169.46 158.739L177.627 166.905C181.574 170.853 181.574 177.253 177.627 181.2V181.2C173.679 185.148 167.279 185.148 163.332 181.2L155.165 173.034C151.218 169.086 151.218 162.686 155.165 158.739V158.739Z" fill="black"/>
<path d="M45.0513 48.6247C48.9987 44.6773 55.3988 44.6773 59.3462 48.6247L67.3434 56.6219C71.2909 60.5694 71.2909 66.9694 67.3434 70.9168V70.9168C63.396 74.8643 56.996 74.8643 53.0485 70.9168L45.0513 62.9196C41.1038 58.9722 41.1039 52.5721 45.0513 48.6247V48.6247Z" fill="black"/>
<path d="M45.7229 179.55C41.7755 175.603 41.7755 169.203 45.7229 165.255L52.2396 158.739C56.187 154.791 62.5871 154.791 66.5345 158.739V158.739C70.4819 162.686 70.4819 169.086 66.5345 173.034L60.0178 179.55C56.0704 183.498 49.6703 183.498 45.7229 179.55V179.55Z" fill="black"/>
<path d="M0 110.742C0 105.16 4.52552 100.634 10.108 100.634H38.418C44.0005 100.634 48.526 105.16 48.526 110.742V110.742C48.526 116.325 44.0005 120.85 38.418 120.85H10.108C4.52551 120.85 0 116.325 0 110.742V110.742Z" fill="black"/>
<path d="M171.474 110.742C171.474 105.16 175.999 100.634 181.582 100.634H209.892C215.474 100.634 220 105.16 220 110.742V110.742C220 116.325 215.474 120.85 209.892 120.85H181.582C175.999 120.85 171.474 116.325 171.474 110.742V110.742Z" fill="black"/>
<path d="M169.856 112.16C169.856 144.555 143.588 170.821 111.178 170.821C78.7681 170.821 52.5 144.555 52.5 112.16C52.5 79.7661 78.7681 53.5 111.178 53.5C143.588 53.5 169.856 79.7661 169.856 112.16Z" fill="white" stroke="black" stroke-width="25"/>
<path d="M150.765 121.919C145.289 143.883 123.041 157.249 101.074 151.773C79.1175 146.297 65.7502 124.05 71.2275 102.086C76.701 80.1194 98.9474 66.7509 120.908 72.2269C142.874 77.703 156.24 99.9532 150.764 121.919H150.765Z" fill="#F7931A"/>
<path d="M129.073 106.16C129.888 100.704 125.734 97.7714 120.055 95.8149L121.897 88.4246L117.397 87.3036L115.604 94.4991C114.422 94.2044 113.208 93.9263 112.001 93.6509L113.807 86.408L109.311 85.2869L107.468 92.6746C106.489 92.4516 105.528 92.2312 104.595 91.9993L104.6 91.9763L98.3964 90.4272L97.1998 95.2319C97.1998 95.2319 100.537 95.9968 100.467 96.0442C102.289 96.4991 102.619 97.7047 102.563 98.6606L100.464 107.08C100.59 107.112 100.753 107.158 100.932 107.23L100.458 107.112L97.5149 118.906C97.292 119.459 96.727 120.289 95.4534 119.974C95.4983 120.039 92.1837 119.158 92.1837 119.158L89.9504 124.309L95.8058 125.768C96.8948 126.041 97.9621 126.327 99.0114 126.596L97.1498 134.072L101.643 135.193L103.488 127.797C104.714 128.131 105.906 128.438 107.072 128.728L105.234 136.088L109.733 137.21L111.595 129.749C119.265 131.2 125.035 130.615 127.46 123.678C129.417 118.092 127.364 114.87 123.328 112.767C126.267 112.087 128.481 110.153 129.072 106.16H129.073ZM118.794 120.572C117.403 126.159 107.998 123.14 104.947 122.382L107.418 112.479C110.467 113.24 120.244 114.747 118.795 120.572H118.794ZM120.184 106.079C118.916 111.16 111.087 108.579 108.547 107.946L110.786 98.9642C113.327 99.5971 121.506 100.778 120.184 106.079V106.079Z" fill="white"/>
<path d="M110 55C104.477 55 100 50.5228 100 45L100 10C100 4.47715 104.477 2.08071e-07 110 -3.33403e-08V-3.33403e-08C115.523 -2.74752e-07 120 4.47715 120 10L120 45C120 50.5228 115.523 55 110 55V55Z" fill="black"/>
<path d="M110 220C104.477 220 100 215.523 100 210L100 175C100 169.477 104.477 165 110 165V165C115.523 165 120 169.477 120 175L120 210C120 215.523 115.523 220 110 220V220Z" fill="black"/>
</svg>
