<svg width="220" height="220" viewBox="0 0 220 220" fill="none" xmlns="http://www.w3.org/2000/svg">
<path d="M155.266 68.5032C151.319 64.5558 151.319 58.1558 155.266 54.2083L161.436 48.039C165.383 44.0916 171.783 44.0916 175.73 48.039V48.039C179.678 51.9864 179.678 58.3865 175.73 62.3339L169.561 68.5032C165.614 72.4507 159.214 72.4507 155.266 68.5032V68.5032Z" fill="black"/>
<path d="M155.165 158.739C159.113 154.791 165.513 154.791 169.46 158.739L177.627 166.905C181.574 170.853 181.574 177.253 177.627 181.2V181.2C173.679 185.148 167.279 185.148 163.332 181.2L155.165 173.034C151.218 169.086 151.218 162.686 155.165 158.739V158.739Z" fill="black"/>
<path d="M45.0513 48.6247C48.9987 44.6773 55.3988 44.6773 59.3462 48.6247L67.3434 56.6219C71.2909 60.5694 71.2909 66.9694 67.3434 70.9168V70.9168C63.396 74.8643 56.996 74.8643 53.0485 70.9168L45.0513 62.9196C41.1038 58.9722 41.1039 52.5721 45.0513 48.6247V48.6247Z" fill="black"/>
<path d="M45.723 179.55C41.7755 175.603 41.7755 169.203 45.723 165.255L52.2397 158.739C56.1871 154.791 62.5871 154.791 66.5346 158.739V158.739C70.482 162.686 70.482 169.086 66.5346 173.034L60.0179 179.55C56.0704 183.498 49.6704 183.498 45.723 179.55V179.55Z" fill="black"/>
<path d="M0 110.742C0 105.16 4.52552 100.634 10.108 100.634H38.418C44.0005 100.634 48.526 105.16 48.526 110.742V110.742C48.526 116.325 44.0005 120.85 38.418 120.85H10.108C4.52551 120.85 0 116.325 0 110.742V110.742Z" fill="black"/>
<path d="M171.474 110.742C171.474 105.16 176 100.634 181.582 100.634H209.892C215.474 100.634 220 105.16 220 110.742V110.742C220 116.325 215.474 120.85 209.892 120.85H181.582C176 120.85 171.474 116.325 171.474 110.742V110.742Z" fill="black"/>
<path d="M169.856 112.16C169.856 144.555 143.588 170.821 111.178 170.821C78.7681 170.821 52.5 144.555 52.5 112.16C52.5 79.7661 78.7681 53.5 111.178 53.5C143.588 53.5 169.856 79.7661 169.856 112.16Z" fill="white" stroke="black" stroke-width="25"/>
<path d="M111.162 71L110.613 72.8681V127.076L111.162 127.625L136.325 112.751L111.162 71Z" fill="#343434"/>
<path d="M111.163 71L86 112.751L111.163 127.625V101.314V71Z" fill="#8C8C8C"/>
<path d="M111.162 132.389L110.853 132.767V152.077L111.162 152.981L136.34 117.523L111.162 132.389Z" fill="#3C3C3B"/>
<path d="M111.163 152.981V132.389L86 117.523L111.163 152.981Z" fill="#8C8C8C"/>
<path d="M111.163 127.625L136.325 112.751L111.163 101.314V127.625Z" fill="#141414"/>
<path d="M86 112.751L111.162 127.625V101.314L86 112.751Z" fill="#393939"/>
<path d="M110 55C104.477 55 100 50.5228 100 45L100 10C100 4.47715 104.477 2.08071e-07 110 -3.33403e-08V-3.33403e-08C115.523 -2.74752e-07 120 4.47715 120 10L120 45C120 50.5228 115.523 55 110 55V55Z" fill="black"/>
<path d="M110 220C104.477 220 100 215.523 100 210L100 175C100 169.477 104.477 165 110 165V165C115.523 165 120 169.477 120 175L120 210C120 215.523 115.523 220 110 220V220Z" fill="black"/>
</svg>
