<svg width="220" height="220" viewBox="0 0 220 220" fill="none" xmlns="http://www.w3.org/2000/svg">
<path d="M111 55C105.477 55 101 50.5228 101 45L101 10C101 4.47715 105.477 2.08071e-07 111 -3.33403e-08V-3.33403e-08C116.523 -2.74752e-07 121 4.47715 121 10L121 45C121 50.5228 116.523 55 111 55V55Z" fill="black"/>
<path d="M111 220C105.477 220 101 215.523 101 210L101 175C101 169.477 105.477 165 111 165V165C116.523 165 121 169.477 121 175L121 210C121 215.523 116.523 220 111 220V220Z" fill="black"/>
<path d="M155.266 68.5032C151.319 64.5558 151.319 58.1558 155.266 54.2083L161.435 48.039C165.383 44.0916 171.783 44.0916 175.73 48.039V48.039C179.678 51.9864 179.678 58.3865 175.73 62.3339L169.561 68.5032C165.614 72.4507 159.214 72.4507 155.266 68.5032V68.5032Z" fill="black"/>
<path d="M155.165 158.739C159.112 154.791 165.513 154.791 169.46 158.739L177.627 166.905C181.574 170.853 181.574 177.253 177.627 181.2V181.2C173.679 185.148 167.279 185.148 163.332 181.2L155.165 173.034C151.218 169.086 151.218 162.686 155.165 158.739V158.739Z" fill="black"/>
<path d="M45.0513 48.6247C48.9987 44.6773 55.3988 44.6773 59.3462 48.6247L67.3434 56.6219C71.2909 60.5694 71.2909 66.9694 67.3434 70.9168V70.9168C63.396 74.8643 56.996 74.8643 53.0485 70.9168L45.0513 62.9196C41.1038 58.9722 41.1039 52.5721 45.0513 48.6247V48.6247Z" fill="black"/>
<path d="M45.7229 179.55C41.7755 175.603 41.7755 169.203 45.7229 165.255L52.2396 158.739C56.187 154.791 62.5871 154.791 66.5345 158.739V158.739C70.4819 162.686 70.4819 169.086 66.5345 173.034L60.0178 179.55C56.0704 183.498 49.6703 183.498 45.7229 179.55V179.55Z" fill="black"/>
<path d="M0 110.742C0 105.16 4.52552 100.634 10.108 100.634H38.418C44.0005 100.634 48.526 105.16 48.526 110.742V110.742C48.526 116.325 44.0005 120.85 38.418 120.85H10.108C4.52551 120.85 0 116.325 0 110.742V110.742Z" fill="black"/>
<path d="M171.474 110.742C171.474 105.16 176 100.634 181.582 100.634H209.892C215.475 100.634 220 105.16 220 110.742V110.742C220 116.325 215.475 120.85 209.892 120.85H181.582C176 120.85 171.474 116.325 171.474 110.742V110.742Z" fill="black"/>
<path d="M169.856 112.16C169.856 144.555 143.588 170.821 111.178 170.821C78.7681 170.821 52.5 144.555 52.5 112.16C52.5 79.7661 78.7681 53.5 111.178 53.5C143.588 53.5 169.856 79.7661 169.856 112.16Z" fill="white" stroke="black" stroke-width="25"/>
<path d="M91.7246 118.517H75.8321C75.5697 118.517 75.3317 118.67 75.2238 118.909L70.06 130.333C69.8603 130.775 70.1833 131.275 70.6683 131.275H96.8885C97.3735 131.275 97.6965 130.775 97.4968 130.333L92.3328 118.909C92.2249 118.67 91.9869 118.517 91.7246 118.517Z" fill="#FFCD43"/>
<path d="M96.8889 131.275H92.3559L86.5881 118.517H91.7247C91.987 118.517 92.2248 118.67 92.333 118.909L97.497 130.333C97.6971 130.775 97.3739 131.275 96.8889 131.275Z" fill="#FFAF45"/>
<path d="M118.964 118.517H103.071C102.809 118.517 102.571 118.67 102.463 118.909L97.299 130.333C97.0993 130.775 97.4224 131.275 97.9073 131.275H124.127C124.612 131.275 124.935 130.775 124.736 130.333L119.572 118.909C119.464 118.67 119.226 118.517 118.964 118.517Z" fill="#FFCD43"/>
<path d="M124.128 131.275H119.595L113.827 118.517H118.964C119.226 118.517 119.464 118.67 119.572 118.909L124.736 130.333C124.936 130.775 124.613 131.275 124.128 131.275Z" fill="#FFAF45"/>
<path d="M146.167 118.517H130.275C130.013 118.517 129.775 118.67 129.667 118.909L124.503 130.333C124.303 130.775 124.626 131.275 125.111 131.275H151.331C151.816 131.275 152.139 130.775 151.94 130.333L146.776 118.909C146.668 118.67 146.43 118.517 146.167 118.517Z" fill="#FFCD43"/>
<path d="M151.332 131.275H146.799L141.031 118.517H146.168C146.43 118.517 146.668 118.67 146.776 118.909L151.94 130.333C152.14 130.775 151.817 131.275 151.332 131.275Z" fill="#FFAF45"/>
<path d="M105.697 105.758H89.805C89.5426 105.758 89.3046 105.912 89.1967 106.151L84.0329 117.574C83.8332 118.016 84.1562 118.517 84.6412 118.517H110.861C111.346 118.517 111.669 118.016 111.47 117.574L106.306 106.151C106.198 105.912 105.96 105.758 105.697 105.758Z" fill="#FFCD43"/>
<path d="M110.862 118.517H106.329L100.561 105.758H105.697C105.96 105.758 106.198 105.912 106.306 106.151L111.47 117.574C111.67 118.016 111.347 118.517 110.862 118.517Z" fill="#FFAF45"/>
<path d="M132.936 105.758H117.044C116.782 105.758 116.544 105.912 116.436 106.151L111.272 117.574C111.072 118.016 111.395 118.517 111.88 118.517H138.1C138.585 118.517 138.908 118.016 138.709 117.574L133.545 106.151C133.437 105.912 133.199 105.758 132.936 105.758Z" fill="#FFCD43"/>
<path d="M138.101 118.517H133.568L127.8 105.758H132.937C133.199 105.758 133.437 105.912 133.545 106.151L138.709 117.574C138.909 118.016 138.586 118.517 138.101 118.517Z" fill="#FFAF45"/>
<path d="M119.317 93H103.425C103.162 93 102.924 93.1536 102.816 93.3925L97.6523 104.816C97.4526 105.258 97.7756 105.758 98.2606 105.758H124.481C124.966 105.758 125.289 105.258 125.089 104.816L119.925 93.3925C119.817 93.1536 119.579 93 119.317 93Z" fill="#FFCD43"/>
<path d="M124.481 105.758H119.948L114.181 93H119.317C119.58 93 119.818 93.1536 119.925 93.3925L125.09 104.816C125.289 105.258 124.966 105.758 124.481 105.758Z" fill="#FFAF45"/>
</svg>
