<svg width="220" height="208" viewBox="0 0 220 208" fill="none" xmlns="http://www.w3.org/2000/svg">
<path d="M155.266 62.5032C151.319 58.5558 151.319 52.1558 155.266 48.2083L161.436 42.039C165.383 38.0916 171.783 38.0916 175.73 42.039V42.039C179.678 45.9864 179.678 52.3865 175.73 56.3339L169.561 62.5032C165.614 66.4507 159.214 66.4507 155.266 62.5032V62.5032Z" fill="black"/>
<path d="M155.165 152.739C159.113 148.791 165.513 148.791 169.46 152.739L177.627 160.905C181.574 164.853 181.574 171.253 177.627 175.2V175.2C173.679 179.148 167.279 179.148 163.332 175.2L155.165 167.034C151.218 163.086 151.218 156.686 155.165 152.739V152.739Z" fill="black"/>
<path d="M45.0513 42.6247C48.9987 38.6773 55.3988 38.6773 59.3462 42.6247L67.3434 50.6219C71.2909 54.5694 71.2909 60.9694 67.3434 64.9168V64.9168C63.396 68.8643 56.996 68.8643 53.0485 64.9168L45.0513 56.9196C41.1038 52.9722 41.1039 46.5721 45.0513 42.6247V42.6247Z" fill="black"/>
<path d="M111.213 48.526C105.63 48.526 101.105 44.0005 101.105 38.418L101.105 10.108C101.105 4.52552 105.63 1.22027e-05 111.213 1.19587e-05V1.19587e-05C116.795 1.17147e-05 121.321 4.52553 121.321 10.108L121.321 38.418C121.321 44.0005 116.795 48.526 111.213 48.526V48.526Z" fill="black"/>
<path d="M111.213 207.059C105.63 207.059 101.105 202.533 101.105 196.951L101.105 168.641C101.105 163.058 105.63 158.533 111.213 158.533V158.533C116.795 158.533 121.321 163.058 121.321 168.641L121.321 196.951C121.321 202.533 116.795 207.059 111.213 207.059V207.059Z" fill="black"/>
<path d="M45.723 173.55C41.7755 169.603 41.7755 163.203 45.723 159.255L52.2397 152.739C56.1871 148.791 62.5871 148.791 66.5346 152.739V152.739C70.482 156.686 70.482 163.086 66.5346 167.034L60.0179 173.55C56.0704 177.498 49.6704 177.498 45.723 173.55V173.55Z" fill="black"/>
<path d="M0 104.742C0 99.1597 4.52552 94.6342 10.108 94.6342H38.418C44.0005 94.6342 48.526 99.1597 48.526 104.742V104.742C48.526 110.325 44.0005 114.85 38.418 114.85H10.108C4.52551 114.85 0 110.325 0 104.742V104.742Z" fill="black"/>
<path d="M171.474 104.742C171.474 99.1597 176 94.6342 181.582 94.6342H209.892C215.474 94.6342 220 99.1597 220 104.742V104.742C220 110.325 215.474 114.85 209.892 114.85H181.582C176 114.85 171.474 110.325 171.474 104.742V104.742Z" fill="black"/>
<path d="M169.856 106.16C169.856 138.555 143.588 164.821 111.178 164.821C78.7681 164.821 52.5 138.555 52.5 106.16C52.5 73.7661 78.7681 47.5 111.178 47.5C143.588 47.5 169.856 73.7661 169.856 106.16Z" fill="white" stroke="black" stroke-width="25"/>
<path d="M111 147C133.644 147 152 128.644 152 106C152 83.3563 133.644 65 111 65C88.3563 65 70 83.3563 70 106C70 128.644 88.3563 147 111 147Z" fill="#F0F0F0"/>
<path d="M109.217 106H152C152 102.299 151.507 98.7145 150.587 95.3043H109.217V106Z" fill="#D80027"/>
<path d="M109.217 84.6088H145.982C143.472 80.5133 140.263 76.8933 136.522 73.9131H109.217V84.6088Z" fill="#D80027"/>
<path d="M111 147C120.649 147 129.518 143.665 136.522 138.087H85.4781C92.4817 143.665 101.351 147 111 147Z" fill="#D80027"/>
<path d="M76.0176 127.391H145.982C147.997 124.103 149.56 120.51 150.588 116.696H71.4124C72.4401 120.51 74.0027 124.103 76.0176 127.391Z" fill="#D80027"/>
<path d="M88.992 71.4027H92.7283L89.2529 73.9276L90.5804 78.013L87.1052 75.4882L83.6299 78.013L84.7767 74.4837C81.7167 77.0325 79.0347 80.0188 76.8246 83.3462H78.0217L75.8095 84.9534C75.4649 85.5283 75.1343 86.1124 74.8175 86.7052L75.8739 89.9565L73.903 88.5245C73.4131 89.5625 72.965 90.6239 72.5622 91.7073L73.726 95.2897H78.0217L74.5464 97.8146L75.8739 101.9L72.3987 99.3751L70.3169 100.888C70.1086 102.563 70 104.269 70 106H111C111 83.3565 111 80.687 111 65C102.901 65 95.3503 67.3495 88.992 71.4027ZM90.5804 101.9L87.1052 99.3751L83.6299 101.9L84.9575 97.8146L81.4821 95.2897H85.7778L87.1052 91.2043L88.4325 95.2897H92.7283L89.2529 97.8146L90.5804 101.9ZM89.2529 85.8711L90.5804 89.9565L87.1052 87.4316L83.6299 89.9565L84.9575 85.8711L81.4821 83.3462H85.7778L87.1052 79.2608L88.4325 83.3462H92.7283L89.2529 85.8711ZM105.287 101.9L101.812 99.3751L98.3364 101.9L99.664 97.8146L96.1886 95.2897H100.484L101.812 91.2043L103.139 95.2897H107.435L103.959 97.8146L105.287 101.9ZM103.959 85.8711L105.287 89.9565L101.812 87.4316L98.3364 89.9565L99.664 85.8711L96.1886 83.3462H100.484L101.812 79.2608L103.139 83.3462H107.435L103.959 85.8711ZM103.959 73.9276L105.287 78.013L101.812 75.4882L98.3364 78.013L99.664 73.9276L96.1886 71.4027H100.484L101.812 67.3173L103.139 71.4027H107.435L103.959 73.9276Z" fill="#0052B4"/>
</svg>
