<svg width="220" height="220" viewBox="0 0 220 220" fill="none" xmlns="http://www.w3.org/2000/svg">
<path d="M0 207.503C0 200.601 5.59507 195.006 12.4969 195.006H207.503C214.405 195.006 220 200.601 220 207.503V207.503C220 214.405 214.405 220 207.503 220H12.4969C5.59507 220 0 214.405 0 207.503V207.503Z" fill="black"/>
<path d="M182.5 85C182.5 125.041 150.041 157.5 110 157.5C69.9594 157.5 37.5 125.041 37.5 85C37.5 44.9594 69.9594 12.5 110 12.5C150.041 12.5 182.5 44.9594 182.5 85Z" fill="white" stroke="black" stroke-width="25"/>
<path d="M152.25 95.5389C146.432 118.876 122.794 133.077 99.4539 127.259C76.1248 121.441 61.9221 97.8027 67.7418 74.4669C73.5573 51.1269 97.1941 36.9228 120.527 42.7411C143.866 48.5594 158.067 72.2002 152.249 95.5389H152.25Z" fill="#F7931A"/>
<path d="M129.203 78.7947C130.069 72.9982 125.655 69.8821 119.621 67.8033L121.578 59.9512L116.797 58.76L114.891 66.4053C113.636 66.0922 112.346 65.7967 111.063 65.5041L112.983 57.8085L108.206 56.6173L106.247 64.4667C105.207 64.2299 104.186 63.9957 103.195 63.7493L103.2 63.7248L96.6087 62.079L95.3372 67.1839C95.3372 67.1839 98.8835 67.9967 98.8086 68.047C100.744 68.5303 101.096 69.8113 101.036 70.8269L98.8059 79.7721C98.9393 79.8062 99.1122 79.8552 99.3028 79.9314L98.7991 79.8062L95.6721 92.3372C95.4353 92.9253 94.8349 93.8074 93.4817 93.4725C93.5294 93.542 90.0076 92.6054 90.0076 92.6054L87.6348 98.0779L93.8561 99.6285C95.0132 99.9184 96.1472 100.222 97.2622 100.508L95.2841 108.451L100.058 109.642L102.019 101.785C103.321 102.139 104.587 102.465 105.826 102.773L103.874 110.594L108.654 111.785L110.632 103.858C118.782 105.401 124.912 104.778 127.489 97.4081C129.568 91.4728 127.387 88.049 123.099 85.8151C126.222 85.0922 128.574 83.038 129.202 78.7947H129.203ZM118.281 94.1083C116.803 100.044 106.811 96.8364 103.569 96.0305L106.194 85.5088C109.434 86.3174 119.822 87.9183 118.282 94.1083H118.281ZM119.758 78.7089C118.41 84.108 110.093 81.3649 107.393 80.6924L109.773 71.1495C112.472 71.822 121.163 73.0771 119.758 78.7089V78.7089Z" fill="white"/>
</svg>
