<svg width="220" height="220" viewBox="0 0 220 220" fill="none" xmlns="http://www.w3.org/2000/svg">
<path d="M0 207.503C0 200.601 5.59507 195.006 12.4969 195.006H110H207.503C214.405 195.006 220 200.601 220 207.503V207.503C220 214.405 214.405 220 207.503 220H12.4969C5.59507 220 0 214.405 0 207.503V207.503Z" fill="black"/>
<path d="M182.5 85C182.5 125.041 150.041 157.5 110 157.5C69.9594 157.5 37.5 125.041 37.5 85C37.5 44.9594 69.9594 12.5 110 12.5C150.041 12.5 182.5 44.9594 182.5 85Z" fill="white" stroke="black" stroke-width="25"/>
<path d="M110.173 41.4375L109.589 43.4224V101.019L110.173 101.602L136.908 85.7982L110.173 41.4375Z" fill="#343434"/>
<path d="M110.173 41.4375L83.4375 85.7981L110.173 101.602V73.6462V41.4375Z" fill="#8C8C8C"/>
<path d="M110.173 106.664L109.844 107.065V127.582L110.173 128.543L136.924 90.8683L110.173 106.664Z" fill="#3C3C3B"/>
<path d="M110.173 128.543V106.663L83.4375 90.8679L110.173 128.543Z" fill="#8C8C8C"/>
<path d="M110.173 101.602L136.908 85.7984L110.173 73.6464V101.602Z" fill="#141414"/>
<path d="M83.4375 85.7981L110.173 101.601V73.6462L83.4375 85.7981Z" fill="#393939"/>
</svg>
