<svg width="220" height="220" viewBox="0 0 220 220" fill="none" xmlns="http://www.w3.org/2000/svg">
<path d="M0 207.503C0 200.601 5.59507 195.006 12.4969 195.006H207.503C214.405 195.006 220 200.601 220 207.503V207.503C220 214.405 214.405 220 207.503 220H12.4969C5.59507 220 0 214.405 0 207.503V207.503Z" fill="black"/>
<path d="M182.5 85C182.5 125.041 150.041 157.5 110 157.5C69.9594 157.5 37.5 125.041 37.5 85C37.5 44.9594 69.9594 12.5 110 12.5C150.041 12.5 182.5 44.9594 182.5 85Z" fill="white" stroke="black" stroke-width="25"/>
<path fill-rule="evenodd" clip-rule="evenodd" d="M110 41.4375C134.055 41.4375 153.563 60.9452 153.563 85C153.563 109.055 134.055 128.563 110 128.563C85.9452 128.563 66.4375 109.055 66.4375 85C66.4375 60.9452 85.9452 41.4375 110 41.4375ZM110 46.198C131.426 46.198 148.802 63.5739 148.802 85C148.802 106.426 131.426 123.802 110 123.802C88.574 123.802 71.198 106.426 71.198 85C71.198 63.5739 88.574 46.198 110 46.198Z" fill="#456C91"/>
</svg>
