<svg width="220" height="220" viewBox="0 0 220 220" fill="none" xmlns="http://www.w3.org/2000/svg">
<path d="M0 207.503C0 200.601 5.59507 195.006 12.4969 195.006H207.503C214.405 195.006 220 200.601 220 207.503V207.503C220 214.405 214.405 220 207.503 220H12.4969C5.59507 220 0 214.405 0 207.503V207.503Z" fill="black"/>
<path d="M182.5 85C182.5 125.041 150.041 157.5 110 157.5C69.9594 157.5 37.5 125.041 37.5 85C37.5 44.9594 69.9594 12.5 110 12.5C150.041 12.5 182.5 44.9594 182.5 85Z" fill="white" stroke="black" stroke-width="25"/>
<path d="M89.5199 91.9241H72.6341C72.3553 91.9241 72.1025 92.0873 71.9878 92.3412L66.5013 104.478C66.2891 104.948 66.6323 105.48 67.1476 105.48H95.0065C95.5218 105.48 95.865 104.948 95.6528 104.478L90.1661 92.3412C90.0515 92.0873 89.7986 91.9241 89.5199 91.9241Z" fill="#FFCD43"/>
<path d="M95.007 105.48H90.1906L84.0624 91.9241H89.52C89.7987 91.9241 90.0514 92.0873 90.1662 92.3412L95.6531 104.478C95.8656 104.948 95.5222 105.48 95.007 105.48Z" fill="#FFAF45"/>
<path d="M118.461 91.9241H101.576C101.297 91.9241 101.044 92.0873 100.929 92.3412L95.4427 104.478C95.2305 104.948 95.5738 105.48 96.089 105.48H123.948C124.463 105.48 124.806 104.948 124.594 104.478L119.108 92.3412C118.993 92.0873 118.74 91.9241 118.461 91.9241Z" fill="#FFCD43"/>
<path d="M123.948 105.48H119.132L113.004 91.9241H118.461C118.74 91.9241 118.993 92.0873 119.108 92.3412L124.595 104.478C124.807 104.948 124.464 105.48 123.948 105.48Z" fill="#FFAF45"/>
<path d="M147.365 91.9241H130.48C130.201 91.9241 129.948 92.0873 129.833 92.3412L124.347 104.478C124.135 104.948 124.478 105.48 124.993 105.48H152.852C153.367 105.48 153.711 104.948 153.498 104.478L148.012 92.3412C147.897 92.0873 147.644 91.9241 147.365 91.9241Z" fill="#FFCD43"/>
<path d="M152.853 105.48H148.036L141.908 91.9241H147.366C147.644 91.9241 147.897 92.0873 148.012 92.3412L153.499 104.478C153.711 104.948 153.368 105.48 152.853 105.48Z" fill="#FFAF45"/>
<path d="M104.366 78.3683H87.4803C87.2015 78.3683 86.9487 78.5315 86.834 78.7854L81.3475 90.9227C81.1353 91.3922 81.4785 91.9241 81.9938 91.9241H109.853C110.368 91.9241 110.711 91.3922 110.499 90.9227L105.012 78.7854C104.898 78.5315 104.645 78.3683 104.366 78.3683Z" fill="#FFCD43"/>
<path d="M109.853 91.9241H105.037L98.9083 78.3683H104.366C104.645 78.3683 104.897 78.5315 105.012 78.7854L110.499 90.9227C110.712 91.3922 110.368 91.9241 109.853 91.9241Z" fill="#FFAF45"/>
<path d="M133.308 78.3683H116.422C116.143 78.3683 115.89 78.5315 115.775 78.7854L110.289 90.9227C110.077 91.3922 110.42 91.9241 110.935 91.9241H138.794C139.309 91.9241 139.653 91.3922 139.44 90.9227L133.954 78.7854C133.839 78.5315 133.586 78.3683 133.308 78.3683Z" fill="#FFCD43"/>
<path d="M138.795 91.9241H133.978L127.85 78.3683H133.308C133.586 78.3683 133.839 78.5315 133.954 78.7854L139.441 90.9227C139.653 91.3922 139.31 91.9241 138.795 91.9241Z" fill="#FFAF45"/>
<path d="M118.837 64.8125H101.951C101.672 64.8125 101.419 64.9757 101.305 65.2296L95.8181 77.3669C95.6059 77.8364 95.9491 78.3683 96.4644 78.3683H124.323C124.839 78.3683 125.182 77.8364 124.97 77.3669L119.483 65.2296C119.368 64.9757 119.116 64.8125 118.837 64.8125Z" fill="#FFCD43"/>
<path d="M124.324 78.3683H119.508L113.379 64.8125H118.837C119.116 64.8125 119.369 64.9757 119.483 65.2296L124.97 77.3669C125.183 77.8364 124.839 78.3683 124.324 78.3683Z" fill="#FFAF45"/>
</svg>
