<svg width="220" height="220" viewBox="0 0 220 220" fill="none" xmlns="http://www.w3.org/2000/svg">
<path d="M0 207.503C0 200.601 5.59507 195.006 12.4969 195.006H207.503C214.405 195.006 220 200.601 220 207.503V207.503C220 214.405 214.405 220 207.503 220H12.4969C5.59507 220 0 214.405 0 207.503V207.503Z" fill="black"/>
<path d="M182.5 85C182.5 125.041 150.041 157.5 110 157.5C69.9594 157.5 37.5 125.041 37.5 85C37.5 44.9594 69.9594 12.5 110 12.5C150.041 12.5 182.5 44.9594 182.5 85Z" fill="white" stroke="black" stroke-width="25"/>
<path d="M110 128.562C134.059 128.562 153.562 109.059 153.562 85C153.562 60.9411 134.059 41.4375 110 41.4375C85.9411 41.4375 66.4375 60.9411 66.4375 85C66.4375 109.059 85.9411 128.562 110 128.562Z" fill="#F0F0F0"/>
<path d="M108.106 85H153.562C153.562 81.0682 153.038 77.2592 152.062 73.6358H108.106V85Z" fill="#D80027"/>
<path d="M108.106 62.2719H147.169C144.502 57.9204 141.092 54.0741 137.117 50.9077H108.106V62.2719Z" fill="#D80027"/>
<path d="M110 128.563C120.252 128.563 129.676 125.019 137.117 119.092H82.883C90.3244 125.019 99.7476 128.563 110 128.563Z" fill="#D80027"/>
<path d="M72.8312 107.728H147.169C149.309 104.235 150.97 100.416 152.062 96.3641H67.9381C69.0301 100.416 70.6904 104.235 72.8312 107.728Z" fill="#D80027"/>
<path d="M86.6165 48.2404H90.5863L86.8937 50.9231L88.3042 55.2638L84.6117 52.5812L80.9193 55.2638L82.1377 51.5139C78.8865 54.2221 76.0369 57.395 73.6886 60.9304H74.9606L72.6101 62.638C72.2439 63.2489 71.8927 63.8695 71.5561 64.4992L72.6785 67.9538L70.5844 66.4323C70.0639 67.5352 69.5878 68.6629 69.1598 69.814L70.3964 73.6203H74.9606L71.268 76.303L72.6785 80.6437L68.9861 77.9611L66.7743 79.5681C66.5529 81.3477 66.4375 83.1603 66.4375 85H110C110 60.9412 110 58.1049 110 41.4375C101.394 41.4375 93.3722 43.9338 86.6165 48.2404ZM88.3042 80.6437L84.6117 77.9611L80.9193 80.6437L82.3298 76.303L78.6372 73.6203H83.2014L84.6117 69.2796L86.0221 73.6203H90.5863L86.8937 76.303L88.3042 80.6437ZM86.8937 63.613L88.3042 67.9538L84.6117 65.2711L80.9193 67.9538L82.3298 63.613L78.6372 60.9304H83.2014L84.6117 56.5896L86.0221 60.9304H90.5863L86.8937 63.613ZM103.93 80.6437L100.237 77.9611L96.545 80.6437L97.9555 76.303L94.2629 73.6203H98.8271L100.237 69.2796L101.648 73.6203H106.212L102.519 76.303L103.93 80.6437ZM102.519 63.613L103.93 67.9538L100.237 65.2711L96.545 67.9538L97.9555 63.613L94.2629 60.9304H98.8271L100.237 56.5896L101.648 60.9304H106.212L102.519 63.613ZM102.519 50.9231L103.93 55.2638L100.237 52.5812L96.545 55.2638L97.9555 50.9231L94.2629 48.2404H98.8271L100.237 43.8996L101.648 48.2404H106.212L102.519 50.9231Z" fill="#0052B4"/>
</svg>
