<svg width="220" height="220" viewBox="0 0 220 220" fill="none" xmlns="http://www.w3.org/2000/svg">
<path d="M177.5 96C177.5 133.279 147.279 163.5 110 163.5C72.7208 163.5 42.5 133.279 42.5 96C42.5 58.7208 72.7208 28.5 110 28.5C147.279 28.5 177.5 58.7208 177.5 96Z" fill="white" stroke="black" stroke-width="25"/>
<path d="M0 207.503C0 200.601 5.59507 195.006 12.4969 195.006H207.503C214.405 195.006 220 200.601 220 207.503V207.503C220 214.405 214.405 220 207.503 220H12.4969C5.59507 220 0 214.405 0 207.503V207.503Z" fill="black"/>
<path d="M175 22.1691C175 19.2453 177.37 16.875 180.294 16.875H214.706C217.63 16.875 220 19.2453 220 22.1691V22.1691C220 25.093 217.63 27.4632 214.706 27.4632H180.294C177.37 27.4632 175 25.093 175 22.1691V22.1691Z" fill="black"/>
<path d="M197.169 45C194.245 45 191.875 42.6297 191.875 39.7059L191.875 5.29412C191.875 2.37026 194.245 1.5602e-08 197.169 -1.12204e-07V-1.12204e-07C200.093 -2.4001e-07 202.463 2.37026 202.463 5.29412L202.463 39.7059C202.463 42.6297 200.093 45 197.169 45V45Z" fill="black"/>
<path d="M149.765 105.919C144.289 127.883 122.041 141.249 100.074 135.773C78.1175 130.297 64.7502 108.05 70.2275 86.0864C75.701 64.1194 97.9474 50.7509 119.908 56.2269C141.874 61.703 155.24 83.9532 149.764 105.919H149.765Z" fill="#F7931A"/>
<path d="M128.073 90.1597C128.888 84.7041 124.734 81.7714 119.055 79.8149L120.897 72.4246L116.397 71.3036L114.604 78.4991C113.422 78.2044 112.208 77.9263 111.001 77.6509L112.807 70.408L108.311 69.2869L106.468 76.6746C105.489 76.4516 104.528 76.2312 103.595 75.9993L103.6 75.9763L97.3964 74.4272L96.1998 79.2319C96.1998 79.2319 99.5374 79.9968 99.4669 80.0442C101.289 80.4991 101.619 81.7047 101.563 82.6606L99.4644 91.0796C99.5899 91.1117 99.7527 91.1578 99.932 91.2296L99.458 91.1117L96.5149 102.906C96.292 103.459 95.727 104.289 94.4534 103.974C94.4983 104.039 91.1837 103.158 91.1837 103.158L88.9504 108.309L94.8058 109.768C95.8948 110.041 96.9621 110.327 98.0114 110.596L96.1498 118.072L100.643 119.193L102.488 111.797C103.714 112.131 104.906 112.438 106.072 112.728L104.234 120.088L108.733 121.21L110.595 113.749C118.265 115.2 124.035 114.615 126.46 107.678C128.417 102.092 126.364 98.8696 122.328 96.7671C125.267 96.0868 127.481 94.1534 128.072 90.1597H128.073ZM117.794 104.572C116.403 110.159 106.998 107.14 103.947 106.382L106.418 96.4788C109.467 97.2399 119.244 98.7466 117.795 104.572H117.794ZM119.184 90.079C117.916 95.1604 110.087 92.5787 107.547 91.9458L109.786 82.9642C112.327 83.5971 120.506 84.7785 119.184 90.079V90.079Z" fill="white"/>
</svg>
