<svg width="220" height="220" viewBox="0 0 220 220" fill="none" xmlns="http://www.w3.org/2000/svg">
<path d="M177.5 96C177.5 133.279 147.279 163.5 110 163.5C72.7208 163.5 42.5 133.279 42.5 96C42.5 58.7208 72.7208 28.5 110 28.5C147.279 28.5 177.5 58.7208 177.5 96Z" fill="white" stroke="black" stroke-width="25"/>
<path d="M0 207.503C0 200.601 5.59507 195.006 12.4969 195.006H207.503C214.405 195.006 220 200.601 220 207.503V207.503C220 214.405 214.405 220 207.503 220H12.4969C5.59507 220 0 214.405 0 207.503V207.503Z" fill="black"/>
<path d="M175 22.1691C175 19.2453 177.37 16.875 180.294 16.875H214.706C217.63 16.875 220 19.2453 220 22.1691V22.1691C220 25.093 217.63 27.4632 214.706 27.4632H180.294C177.37 27.4632 175 25.093 175 22.1691V22.1691Z" fill="black"/>
<path d="M197.169 45C194.245 45 191.875 42.6297 191.875 39.7059L191.875 5.29412C191.875 2.37026 194.245 1.5602e-08 197.169 -1.12204e-07V-1.12204e-07C200.093 -2.4001e-07 202.463 2.37026 202.463 5.29412L202.463 39.7059C202.463 42.6297 200.093 45 197.169 45V45Z" fill="black"/>
<path d="M90.7246 102.517H74.8321C74.5697 102.517 74.3317 102.67 74.2238 102.909L69.06 114.333C68.8603 114.775 69.1833 115.275 69.6683 115.275H95.8885C96.3735 115.275 96.6965 114.775 96.4968 114.333L91.3328 102.909C91.2249 102.67 90.9869 102.517 90.7246 102.517Z" fill="#FFCD43"/>
<path d="M95.8889 115.275H91.3559L85.5881 102.517H90.7247C90.987 102.517 91.2248 102.67 91.333 102.909L96.497 114.333C96.6971 114.775 96.3739 115.275 95.8889 115.275Z" fill="#FFAF45"/>
<path d="M117.964 102.517H102.071C101.809 102.517 101.571 102.67 101.463 102.909L96.299 114.333C96.0993 114.775 96.4224 115.275 96.9073 115.275H123.127C123.612 115.275 123.935 114.775 123.736 114.333L118.572 102.909C118.464 102.67 118.226 102.517 117.964 102.517Z" fill="#FFCD43"/>
<path d="M123.128 115.275H118.595L112.827 102.517H117.964C118.226 102.517 118.464 102.67 118.572 102.909L123.736 114.333C123.936 114.775 123.613 115.275 123.128 115.275Z" fill="#FFAF45"/>
<path d="M145.167 102.517H129.275C129.013 102.517 128.775 102.67 128.667 102.909L123.503 114.333C123.303 114.775 123.626 115.275 124.111 115.275H150.331C150.816 115.275 151.139 114.775 150.94 114.333L145.776 102.909C145.668 102.67 145.43 102.517 145.167 102.517Z" fill="#FFCD43"/>
<path d="M150.332 115.275H145.799L140.031 102.517H145.168C145.43 102.517 145.668 102.67 145.776 102.909L150.94 114.333C151.14 114.775 150.817 115.275 150.332 115.275Z" fill="#FFAF45"/>
<path d="M104.697 89.7584H88.805C88.5426 89.7584 88.3046 89.912 88.1967 90.151L83.0329 101.574C82.8332 102.016 83.1562 102.517 83.6412 102.517H109.861C110.346 102.517 110.669 102.016 110.47 101.574L105.306 90.151C105.198 89.912 104.96 89.7584 104.697 89.7584Z" fill="#FFCD43"/>
<path d="M109.862 102.517H105.329L99.5608 89.7584H104.697C104.96 89.7584 105.198 89.912 105.306 90.151L110.47 101.574C110.67 102.016 110.347 102.517 109.862 102.517Z" fill="#FFAF45"/>
<path d="M131.936 89.7584H116.044C115.782 89.7584 115.544 89.912 115.436 90.151L110.272 101.574C110.072 102.016 110.395 102.517 110.88 102.517H137.1C137.585 102.517 137.908 102.016 137.709 101.574L132.545 90.151C132.437 89.912 132.199 89.7584 131.936 89.7584Z" fill="#FFCD43"/>
<path d="M137.101 102.517H132.568L126.8 89.7584H131.937C132.199 89.7584 132.437 89.912 132.545 90.151L137.709 101.574C137.909 102.016 137.586 102.517 137.101 102.517Z" fill="#FFAF45"/>
<path d="M118.317 77H102.425C102.162 77 101.924 77.1536 101.816 77.3925L96.6523 88.8159C96.4526 89.2577 96.7756 89.7584 97.2606 89.7584H123.481C123.966 89.7584 124.289 89.2577 124.089 88.8159L118.925 77.3925C118.817 77.1536 118.579 77 118.317 77Z" fill="#FFCD43"/>
<path d="M123.481 89.7584H118.948L113.181 77H118.317C118.58 77 118.818 77.1536 118.925 77.3925L124.09 88.8159C124.289 89.2577 123.966 89.7584 123.481 89.7584Z" fill="#FFAF45"/>
</svg>
