<svg width="220" height="220" viewBox="0 0 220 220" fill="none" xmlns="http://www.w3.org/2000/svg">
<path d="M177.5 96C177.5 133.279 147.279 163.5 110 163.5C72.7208 163.5 42.5 133.279 42.5 96C42.5 58.7208 72.7208 28.5 110 28.5C147.279 28.5 177.5 58.7208 177.5 96Z" fill="white" stroke="black" stroke-width="25"/>
<path d="M0 207.503C0 200.601 5.59507 195.006 12.4969 195.006H207.503C214.405 195.006 220 200.601 220 207.503V207.503C220 214.405 214.405 220 207.503 220H12.4969C5.59507 220 0 214.405 0 207.503V207.503Z" fill="black"/>
<path d="M175 22.1691C175 19.2453 177.37 16.875 180.294 16.875H214.706C217.63 16.875 220 19.2453 220 22.1691V22.1691C220 25.093 217.63 27.4632 214.706 27.4632H180.294C177.37 27.4632 175 25.093 175 22.1691V22.1691Z" fill="black"/>
<path d="M197.169 45C194.245 45 191.875 42.6297 191.875 39.7059L191.875 5.29412C191.875 2.37026 194.245 1.5602e-08 197.169 -1.12204e-07V-1.12204e-07C200.093 -2.4001e-07 202.463 2.37026 202.463 5.29412L202.463 39.7059C202.463 42.6297 200.093 45 197.169 45V45Z" fill="black"/>
<path d="M110 137C132.644 137 151 118.644 151 96C151 73.3563 132.644 55 110 55C87.3563 55 69 73.3563 69 96C69 118.644 87.3563 137 110 137Z" fill="#F0F0F0"/>
<path d="M108.217 96H151C151 92.2995 150.507 88.7145 149.587 85.3043H108.217V96Z" fill="#D80027"/>
<path d="M108.217 74.6088H144.982C142.472 70.5133 139.263 66.8933 135.522 63.9131H108.217V74.6088Z" fill="#D80027"/>
<path d="M110 137C119.649 137 128.518 133.665 135.522 128.087H84.478C91.4817 133.665 100.351 137 110 137Z" fill="#D80027"/>
<path d="M75.0176 117.391H144.982C146.997 114.104 148.56 110.51 149.588 106.696H70.4124C71.4401 110.51 73.0027 114.104 75.0176 117.391Z" fill="#D80027"/>
<path d="M87.992 61.4027H91.7283L88.2529 63.9276L89.5804 68.013L86.1052 65.4882L82.6299 68.013L83.7767 64.4837C80.7167 67.0325 78.0347 70.0188 75.8246 73.3462H77.0217L74.8095 74.9534C74.4649 75.5283 74.1343 76.1124 73.8175 76.7052L74.8739 79.9565L72.903 78.5245C72.4131 79.5625 71.965 80.6239 71.5622 81.7073L72.726 85.2897H77.0217L73.5464 87.8146L74.8739 91.9L71.3987 89.3751L69.3169 90.8877C69.1086 92.5626 69 94.2686 69 96H110C110 73.3565 110 70.687 110 55C101.901 55 94.3503 57.3495 87.992 61.4027ZM89.5804 91.9L86.1052 89.3751L82.6299 91.9L83.9575 87.8146L80.4821 85.2897H84.7778L86.1052 81.2043L87.4325 85.2897H91.7283L88.2529 87.8146L89.5804 91.9ZM88.2529 75.8711L89.5804 79.9565L86.1052 77.4316L82.6299 79.9565L83.9575 75.8711L80.4821 73.3462H84.7778L86.1052 69.2608L87.4325 73.3462H91.7283L88.2529 75.8711ZM104.287 91.9L100.812 89.3751L97.3364 91.9L98.664 87.8146L95.1886 85.2897H99.4843L100.812 81.2043L102.139 85.2897H106.435L102.959 87.8146L104.287 91.9ZM102.959 75.8711L104.287 79.9565L100.812 77.4316L97.3364 79.9565L98.664 75.8711L95.1886 73.3462H99.4843L100.812 69.2608L102.139 73.3462H106.435L102.959 75.8711ZM102.959 63.9276L104.287 68.013L100.812 65.4882L97.3364 68.013L98.664 63.9276L95.1886 61.4027H99.4843L100.812 57.3173L102.139 61.4027H106.435L102.959 63.9276Z" fill="#0052B4"/>
</svg>
