<svg viewBox="0 0 294 250" fill="none" xmlns="http://www.w3.org/2000/svg">
<rect x="42" y="35" width="159" height="32" rx="5" fill="#EFF3FB"/>
<path d="M57.5078 57H55.1641V45.625H57.5078V57ZM68.2969 45.625V53.1172C68.2969 54.362 67.9062 55.3464 67.125 56.0703C66.349 56.7943 65.2865 57.1562 63.9375 57.1562C62.6094 57.1562 61.5547 56.8047 60.7734 56.1016C59.9922 55.3984 59.5938 54.4323 59.5781 53.2031V45.625H61.9219V53.1328C61.9219 53.8776 62.099 54.4219 62.4531 54.7656C62.8125 55.1042 63.3073 55.2734 63.9375 55.2734C65.2552 55.2734 65.9245 54.5807 65.9453 53.1953V45.625H68.2969ZM76.1172 54.0156C76.1172 53.5729 75.9609 53.2344 75.6484 53C75.3359 52.7604 74.7734 52.5104 73.9609 52.25C73.1484 51.9844 72.5052 51.724 72.0312 51.4688C70.7396 50.7708 70.0938 49.8307 70.0938 48.6484C70.0938 48.0339 70.2656 47.487 70.6094 47.0078C70.9583 46.5234 71.4557 46.1458 72.1016 45.875C72.7526 45.6042 73.4818 45.4688 74.2891 45.4688C75.1016 45.4688 75.8255 45.6172 76.4609 45.9141C77.0964 46.2057 77.5885 46.6198 77.9375 47.1562C78.2917 47.6927 78.4688 48.3021 78.4688 48.9844H76.125C76.125 48.4635 75.9609 48.0599 75.6328 47.7734C75.3047 47.4818 74.8438 47.3359 74.25 47.3359C73.6771 47.3359 73.2318 47.4583 72.9141 47.7031C72.5964 47.9427 72.4375 48.2604 72.4375 48.6562C72.4375 49.026 72.6224 49.3359 72.9922 49.5859C73.3672 49.8359 73.9167 50.0703 74.6406 50.2891C75.974 50.6901 76.9453 51.1875 77.5547 51.7812C78.1641 52.375 78.4688 53.1146 78.4688 54C78.4688 54.9844 78.0964 55.7578 77.3516 56.3203C76.6068 56.8776 75.6042 57.1562 74.3438 57.1562C73.4688 57.1562 72.6719 56.9974 71.9531 56.6797C71.2344 56.3568 70.6849 55.9167 70.3047 55.3594C69.9297 54.8021 69.7422 54.1562 69.7422 53.4219H72.0938C72.0938 54.6771 72.8438 55.3047 74.3438 55.3047C74.901 55.3047 75.3359 55.1927 75.6484 54.9688C75.9609 54.7396 76.1172 54.4219 76.1172 54.0156ZM80.0625 57V45.625H83.5625C84.5625 45.625 85.4557 45.8516 86.2422 46.3047C87.0339 46.7526 87.651 47.3932 88.0938 48.2266C88.5365 49.0547 88.7578 49.9974 88.7578 51.0547V51.5781C88.7578 52.6354 88.5391 53.5755 88.1016 54.3984C87.6693 55.2214 87.0573 55.8594 86.2656 56.3125C85.474 56.7656 84.5807 56.9948 83.5859 57H80.0625ZM82.4062 47.5234V55.1172H83.5391C84.4557 55.1172 85.1562 54.8177 85.6406 54.2188C86.125 53.6198 86.3724 52.763 86.3828 51.6484V51.0469C86.3828 49.8906 86.1432 49.0156 85.6641 48.4219C85.1849 47.8229 84.4844 47.5234 83.5625 47.5234H82.4062ZM94.7109 53.0391H90.3125V51.2188H94.7109V53.0391ZM106.016 51.5703C106.016 52.6901 105.818 53.6719 105.422 54.5156C105.026 55.3594 104.458 56.0104 103.719 56.4688C102.984 56.9271 102.141 57.1562 101.188 57.1562C100.245 57.1562 99.4036 56.9297 98.6641 56.4766C97.9245 56.0234 97.3516 55.3776 96.9453 54.5391C96.5391 53.6953 96.3333 52.7266 96.3281 51.6328V51.0703C96.3281 49.9505 96.5286 48.9661 96.9297 48.1172C97.3359 47.263 97.9062 46.6094 98.6406 46.1562C99.3802 45.6979 100.224 45.4688 101.172 45.4688C102.12 45.4688 102.961 45.6979 103.695 46.1562C104.435 46.6094 105.005 47.263 105.406 48.1172C105.812 48.9661 106.016 49.9479 106.016 51.0625V51.5703ZM103.641 51.0547C103.641 49.862 103.427 48.9557 103 48.3359C102.573 47.7161 101.964 47.4062 101.172 47.4062C100.385 47.4062 99.7786 47.7135 99.3516 48.3281C98.9245 48.9375 98.7083 49.8333 98.7031 51.0156V51.5703C98.7031 52.7318 98.9167 53.6328 99.3438 54.2734C99.7708 54.9141 100.385 55.2344 101.188 55.2344C101.974 55.2344 102.578 54.9271 103 54.3125C103.422 53.6927 103.635 52.7917 103.641 51.6094V51.0547ZM116.328 45.625V53.1172C116.328 54.362 115.938 55.3464 115.156 56.0703C114.38 56.7943 113.318 57.1562 111.969 57.1562C110.641 57.1562 109.586 56.8047 108.805 56.1016C108.023 55.3984 107.625 54.4323 107.609 53.2031V45.625H109.953V53.1328C109.953 53.8776 110.13 54.4219 110.484 54.7656C110.844 55.1042 111.339 55.2734 111.969 55.2734C113.286 55.2734 113.956 54.5807 113.977 53.1953V45.625H116.328ZM124.148 54.0156C124.148 53.5729 123.992 53.2344 123.68 53C123.367 52.7604 122.805 52.5104 121.992 52.25C121.18 51.9844 120.536 51.724 120.062 51.4688C118.771 50.7708 118.125 49.8307 118.125 48.6484C118.125 48.0339 118.297 47.487 118.641 47.0078C118.99 46.5234 119.487 46.1458 120.133 45.875C120.784 45.6042 121.513 45.4688 122.32 45.4688C123.133 45.4688 123.857 45.6172 124.492 45.9141C125.128 46.2057 125.62 46.6198 125.969 47.1562C126.323 47.6927 126.5 48.3021 126.5 48.9844H124.156C124.156 48.4635 123.992 48.0599 123.664 47.7734C123.336 47.4818 122.875 47.3359 122.281 47.3359C121.708 47.3359 121.263 47.4583 120.945 47.7031C120.628 47.9427 120.469 48.2604 120.469 48.6562C120.469 49.026 120.654 49.3359 121.023 49.5859C121.398 49.8359 121.948 50.0703 122.672 50.2891C124.005 50.6901 124.977 51.1875 125.586 51.7812C126.195 52.375 126.5 53.1146 126.5 54C126.5 54.9844 126.128 55.7578 125.383 56.3203C124.638 56.8776 123.635 57.1562 122.375 57.1562C121.5 57.1562 120.703 56.9974 119.984 56.6797C119.266 56.3568 118.716 55.9167 118.336 55.3594C117.961 54.8021 117.773 54.1562 117.773 53.4219H120.125C120.125 54.6771 120.875 55.3047 122.375 55.3047C122.932 55.3047 123.367 55.1927 123.68 54.9688C123.992 54.7396 124.148 54.4219 124.148 54.0156ZM128.094 57V45.625H131.594C132.594 45.625 133.487 45.8516 134.273 46.3047C135.065 46.7526 135.682 47.3932 136.125 48.2266C136.568 49.0547 136.789 49.9974 136.789 51.0547V51.5781C136.789 52.6354 136.57 53.5755 136.133 54.3984C135.701 55.2214 135.089 55.8594 134.297 56.3125C133.505 56.7656 132.612 56.9948 131.617 57H128.094ZM130.438 47.5234V55.1172H131.57C132.487 55.1172 133.188 54.8177 133.672 54.2188C134.156 53.6198 134.404 52.763 134.414 51.6484V51.0469C134.414 49.8906 134.174 49.0156 133.695 48.4219C133.216 47.8229 132.516 47.5234 131.594 47.5234H130.438Z" fill="#333333"/>
<rect x="77" y="84" width="175" height="32" rx="5" fill="#EFF3FB"/>
<path d="M99.0156 104.562C98.5938 105.068 97.9974 105.461 97.2266 105.742C96.4557 106.018 95.6016 106.156 94.6641 106.156C93.6797 106.156 92.8151 105.943 92.0703 105.516C91.3307 105.083 90.7578 104.458 90.3516 103.641C89.9505 102.823 89.7448 101.862 89.7344 100.758V99.9844C89.7344 98.849 89.9245 97.8672 90.3047 97.0391C90.6901 96.2057 91.2422 95.5703 91.9609 95.1328C92.6849 94.6901 93.5312 94.4688 94.5 94.4688C95.849 94.4688 96.9036 94.7917 97.6641 95.4375C98.4245 96.0781 98.875 97.013 99.0156 98.2422H96.7344C96.6302 97.5911 96.3984 97.1146 96.0391 96.8125C95.6849 96.5104 95.1953 96.3594 94.5703 96.3594C93.7734 96.3594 93.1667 96.6589 92.75 97.2578C92.3333 97.8568 92.1224 98.7474 92.1172 99.9297V100.656C92.1172 101.849 92.3438 102.75 92.7969 103.359C93.25 103.969 93.9141 104.273 94.7891 104.273C95.6693 104.273 96.2969 104.086 96.6719 103.711V101.75H94.5391V100.023H99.0156V104.562ZM100.922 106V94.625H104.906C106.286 94.625 107.333 94.8906 108.047 95.4219C108.76 95.9479 109.117 96.7214 109.117 97.7422C109.117 98.2995 108.974 98.7917 108.688 99.2188C108.401 99.6406 108.003 99.9505 107.492 100.148C108.076 100.294 108.534 100.589 108.867 101.031C109.206 101.474 109.375 102.016 109.375 102.656C109.375 103.75 109.026 104.578 108.328 105.141C107.63 105.703 106.635 105.99 105.344 106H100.922ZM103.266 101.047V104.117H105.273C105.826 104.117 106.255 103.987 106.562 103.727C106.875 103.461 107.031 103.096 107.031 102.633C107.031 101.591 106.492 101.062 105.414 101.047H103.266ZM103.266 99.3906H105C106.182 99.3698 106.773 98.8984 106.773 97.9766C106.773 97.4609 106.622 97.0911 106.32 96.8672C106.023 96.638 105.552 96.5234 104.906 96.5234H103.266V99.3906ZM114.625 99.75L116.992 94.625H119.555L115.82 101.875V106H113.438V101.875L109.703 94.625H112.273L114.625 99.75ZM129.297 96.5234H125.812V106H123.469V96.5234H120.031V94.625H129.297V96.5234ZM137.484 101.07H132.984V104.117H138.266V106H130.641V94.625H138.25V96.5234H132.984V99.2344H137.484V101.07ZM143.883 102.039H139.484V100.219H143.883V102.039ZM155.188 100.57C155.188 101.69 154.99 102.672 154.594 103.516C154.198 104.359 153.63 105.01 152.891 105.469C152.156 105.927 151.312 106.156 150.359 106.156C149.417 106.156 148.576 105.93 147.836 105.477C147.096 105.023 146.523 104.378 146.117 103.539C145.711 102.695 145.505 101.727 145.5 100.633V100.07C145.5 98.9505 145.701 97.9661 146.102 97.1172C146.508 96.263 147.078 95.6094 147.812 95.1562C148.552 94.6979 149.396 94.4688 150.344 94.4688C151.292 94.4688 152.133 94.6979 152.867 95.1562C153.607 95.6094 154.177 96.263 154.578 97.1172C154.984 97.9661 155.188 98.9479 155.188 100.062V100.57ZM152.812 100.055C152.812 98.862 152.599 97.9557 152.172 97.3359C151.745 96.7161 151.135 96.4062 150.344 96.4062C149.557 96.4062 148.951 96.7135 148.523 97.3281C148.096 97.9375 147.88 98.8333 147.875 100.016V100.57C147.875 101.732 148.089 102.633 148.516 103.273C148.943 103.914 149.557 104.234 150.359 104.234C151.146 104.234 151.75 103.927 152.172 103.312C152.594 102.693 152.807 101.792 152.812 100.609V100.055ZM165.5 94.625V102.117C165.5 103.362 165.109 104.346 164.328 105.07C163.552 105.794 162.49 106.156 161.141 106.156C159.812 106.156 158.758 105.805 157.977 105.102C157.195 104.398 156.797 103.432 156.781 102.203V94.625H159.125V102.133C159.125 102.878 159.302 103.422 159.656 103.766C160.016 104.104 160.51 104.273 161.141 104.273C162.458 104.273 163.128 103.581 163.148 102.195V94.625H165.5ZM173.32 103.016C173.32 102.573 173.164 102.234 172.852 102C172.539 101.76 171.977 101.51 171.164 101.25C170.352 100.984 169.708 100.724 169.234 100.469C167.943 99.7708 167.297 98.8307 167.297 97.6484C167.297 97.0339 167.469 96.487 167.812 96.0078C168.161 95.5234 168.659 95.1458 169.305 94.875C169.956 94.6042 170.685 94.4688 171.492 94.4688C172.305 94.4688 173.029 94.6172 173.664 94.9141C174.299 95.2057 174.792 95.6198 175.141 96.1562C175.495 96.6927 175.672 97.3021 175.672 97.9844H173.328C173.328 97.4635 173.164 97.0599 172.836 96.7734C172.508 96.4818 172.047 96.3359 171.453 96.3359C170.88 96.3359 170.435 96.4583 170.117 96.7031C169.799 96.9427 169.641 97.2604 169.641 97.6562C169.641 98.026 169.826 98.3359 170.195 98.5859C170.57 98.8359 171.12 99.0703 171.844 99.2891C173.177 99.6901 174.148 100.188 174.758 100.781C175.367 101.375 175.672 102.115 175.672 103C175.672 103.984 175.299 104.758 174.555 105.32C173.81 105.878 172.807 106.156 171.547 106.156C170.672 106.156 169.875 105.997 169.156 105.68C168.438 105.357 167.888 104.917 167.508 104.359C167.133 103.802 166.945 103.156 166.945 102.422H169.297C169.297 103.677 170.047 104.305 171.547 104.305C172.104 104.305 172.539 104.193 172.852 103.969C173.164 103.74 173.32 103.422 173.32 103.016ZM177.266 106V94.625H180.766C181.766 94.625 182.659 94.8516 183.445 95.3047C184.237 95.7526 184.854 96.3932 185.297 97.2266C185.74 98.0547 185.961 98.9974 185.961 100.055V100.578C185.961 101.635 185.742 102.576 185.305 103.398C184.872 104.221 184.26 104.859 183.469 105.312C182.677 105.766 181.784 105.995 180.789 106H177.266ZM179.609 96.5234V104.117H180.742C181.659 104.117 182.359 103.818 182.844 103.219C183.328 102.62 183.576 101.763 183.586 100.648V100.047C183.586 98.8906 183.346 98.0156 182.867 97.4219C182.388 96.8229 181.688 96.5234 180.766 96.5234H179.609Z" fill="#333333"/>
<rect x="77" y="133" width="175" height="32" rx="5" fill="#EFF3FB"/>
<path d="M99.0156 152.562C98.5938 153.068 97.9974 153.461 97.2266 153.742C96.4557 154.018 95.6016 154.156 94.6641 154.156C93.6797 154.156 92.8151 153.943 92.0703 153.516C91.3307 153.083 90.7578 152.458 90.3516 151.641C89.9505 150.823 89.7448 149.862 89.7344 148.758V147.984C89.7344 146.849 89.9245 145.867 90.3047 145.039C90.6901 144.206 91.2422 143.57 91.9609 143.133C92.6849 142.69 93.5312 142.469 94.5 142.469C95.849 142.469 96.9036 142.792 97.6641 143.438C98.4245 144.078 98.875 145.013 99.0156 146.242H96.7344C96.6302 145.591 96.3984 145.115 96.0391 144.812C95.6849 144.51 95.1953 144.359 94.5703 144.359C93.7734 144.359 93.1667 144.659 92.75 145.258C92.3333 145.857 92.1224 146.747 92.1172 147.93V148.656C92.1172 149.849 92.3438 150.75 92.7969 151.359C93.25 151.969 93.9141 152.273 94.7891 152.273C95.6693 152.273 96.2969 152.086 96.6719 151.711V149.75H94.5391V148.023H99.0156V152.562ZM100.922 154V142.625H104.906C106.286 142.625 107.333 142.891 108.047 143.422C108.76 143.948 109.117 144.721 109.117 145.742C109.117 146.299 108.974 146.792 108.688 147.219C108.401 147.641 108.003 147.951 107.492 148.148C108.076 148.294 108.534 148.589 108.867 149.031C109.206 149.474 109.375 150.016 109.375 150.656C109.375 151.75 109.026 152.578 108.328 153.141C107.63 153.703 106.635 153.99 105.344 154H100.922ZM103.266 149.047V152.117H105.273C105.826 152.117 106.255 151.987 106.562 151.727C106.875 151.461 107.031 151.096 107.031 150.633C107.031 149.591 106.492 149.062 105.414 149.047H103.266ZM103.266 147.391H105C106.182 147.37 106.773 146.898 106.773 145.977C106.773 145.461 106.622 145.091 106.32 144.867C106.023 144.638 105.552 144.523 104.906 144.523H103.266V147.391ZM114.625 147.75L116.992 142.625H119.555L115.82 149.875V154H113.438V149.875L109.703 142.625H112.273L114.625 147.75ZM129.297 144.523H125.812V154H123.469V144.523H120.031V142.625H129.297V144.523ZM137.484 149.07H132.984V152.117H138.266V154H130.641V142.625H138.25V144.523H132.984V147.234H137.484V149.07ZM143.883 150.039H139.484V148.219H143.883V150.039ZM155.188 148.57C155.188 149.69 154.99 150.672 154.594 151.516C154.198 152.359 153.63 153.01 152.891 153.469C152.156 153.927 151.312 154.156 150.359 154.156C149.417 154.156 148.576 153.93 147.836 153.477C147.096 153.023 146.523 152.378 146.117 151.539C145.711 150.695 145.505 149.727 145.5 148.633V148.07C145.5 146.951 145.701 145.966 146.102 145.117C146.508 144.263 147.078 143.609 147.812 143.156C148.552 142.698 149.396 142.469 150.344 142.469C151.292 142.469 152.133 142.698 152.867 143.156C153.607 143.609 154.177 144.263 154.578 145.117C154.984 145.966 155.188 146.948 155.188 148.062V148.57ZM152.812 148.055C152.812 146.862 152.599 145.956 152.172 145.336C151.745 144.716 151.135 144.406 150.344 144.406C149.557 144.406 148.951 144.714 148.523 145.328C148.096 145.938 147.88 146.833 147.875 148.016V148.57C147.875 149.732 148.089 150.633 148.516 151.273C148.943 151.914 149.557 152.234 150.359 152.234C151.146 152.234 151.75 151.927 152.172 151.312C152.594 150.693 152.807 149.792 152.812 148.609V148.055ZM163.734 149.07H159.234V152.117H164.516V154H156.891V142.625H164.5V144.523H159.234V147.234H163.734V149.07ZM174.609 144.523H171.125V154H168.781V144.523H165.344V142.625H174.609V144.523ZM185.211 154H182.867V149.125H178.297V154H175.953V142.625H178.297V147.234H182.867V142.625H185.211V154Z" fill="#333333"/>
<rect x="42" y="182" width="143" height="32" rx="5" fill="#EFF3FB"/>
<path d="M57.5078 203H55.1641V191.625H57.5078V203ZM59.6875 203V191.625H63.6719C65.0521 191.625 66.099 191.891 66.8125 192.422C67.526 192.948 67.8828 193.721 67.8828 194.742C67.8828 195.299 67.7396 195.792 67.4531 196.219C67.1667 196.641 66.7682 196.951 66.2578 197.148C66.8411 197.294 67.2995 197.589 67.6328 198.031C67.9714 198.474 68.1406 199.016 68.1406 199.656C68.1406 200.75 67.7917 201.578 67.0938 202.141C66.3958 202.703 65.401 202.99 64.1094 203H59.6875ZM62.0312 198.047V201.117H64.0391C64.5911 201.117 65.0208 200.987 65.3281 200.727C65.6406 200.461 65.7969 200.096 65.7969 199.633C65.7969 198.591 65.2578 198.062 64.1797 198.047H62.0312ZM62.0312 196.391H63.7656C64.9479 196.37 65.5391 195.898 65.5391 194.977C65.5391 194.461 65.388 194.091 65.0859 193.867C64.7891 193.638 64.3177 193.523 63.6719 193.523H62.0312V196.391ZM72.3984 203H70.0547V191.625H72.3984V203ZM82.9062 193.523H79.4219V203H77.0781V193.523H73.6406V191.625H82.9062V193.523ZM86.3672 199.039H81.9688V197.219H86.3672V199.039ZM97.6719 197.57C97.6719 198.69 97.474 199.672 97.0781 200.516C96.6823 201.359 96.1146 202.01 95.375 202.469C94.6406 202.927 93.7969 203.156 92.8438 203.156C91.901 203.156 91.0599 202.93 90.3203 202.477C89.5807 202.023 89.0078 201.378 88.6016 200.539C88.1953 199.695 87.9896 198.727 87.9844 197.633V197.07C87.9844 195.951 88.1849 194.966 88.5859 194.117C88.9922 193.263 89.5625 192.609 90.2969 192.156C91.0365 191.698 91.8802 191.469 92.8281 191.469C93.776 191.469 94.6172 191.698 95.3516 192.156C96.0911 192.609 96.6615 193.263 97.0625 194.117C97.4688 194.966 97.6719 195.948 97.6719 197.062V197.57ZM95.2969 197.055C95.2969 195.862 95.0833 194.956 94.6562 194.336C94.2292 193.716 93.6198 193.406 92.8281 193.406C92.0417 193.406 91.4349 193.714 91.0078 194.328C90.5807 194.938 90.3646 195.833 90.3594 197.016V197.57C90.3594 198.732 90.5729 199.633 91 200.273C91.4271 200.914 92.0417 201.234 92.8438 201.234C93.6302 201.234 94.2344 200.927 94.6562 200.312C95.0781 199.693 95.2917 198.792 95.2969 197.609V197.055ZM99.375 203V191.625H103.359C104.74 191.625 105.786 191.891 106.5 192.422C107.214 192.948 107.57 193.721 107.57 194.742C107.57 195.299 107.427 195.792 107.141 196.219C106.854 196.641 106.456 196.951 105.945 197.148C106.529 197.294 106.987 197.589 107.32 198.031C107.659 198.474 107.828 199.016 107.828 199.656C107.828 200.75 107.479 201.578 106.781 202.141C106.083 202.703 105.089 202.99 103.797 203H99.375ZM101.719 198.047V201.117H103.727C104.279 201.117 104.708 200.987 105.016 200.727C105.328 200.461 105.484 200.096 105.484 199.633C105.484 198.591 104.945 198.062 103.867 198.047H101.719ZM101.719 196.391H103.453C104.635 196.37 105.227 195.898 105.227 194.977C105.227 194.461 105.076 194.091 104.773 193.867C104.477 193.638 104.005 193.523 103.359 193.523H101.719V196.391ZM112.086 203H109.742V191.625H112.086V203ZM122.594 193.523H119.109V203H116.766V193.523H113.328V191.625H122.594V193.523Z" fill="#333333"/>
<rect x="2.5" y="2.5" width="289" height="245" rx="5.5" stroke="#F7F7F7" stroke-width="5"/>
</svg>
