<svg viewBox="0 0 294 250" fill="none" xmlns="http://www.w3.org/2000/svg">
<path d="M196 35H47C44.2386 35 42 37.2386 42 40V62C42 64.7614 44.2386 67 47 67H196C198.761 67 201 64.7614 201 62V40C201 37.2386 198.761 35 196 35Z" fill="#EFF3FB"/>
<path d="M247 84H82C79.2386 84 77 86.2386 77 89V111C77 113.761 79.2386 116 82 116H247C249.761 116 252 113.761 252 111V89C252 86.2386 249.761 84 247 84Z" fill="#EFF3FB"/>
<path d="M247 133H82C79.2386 133 77 135.239 77 138V160C77 162.761 79.2386 165 82 165H247C249.761 165 252 162.761 252 160V138C252 135.239 249.761 133 247 133Z" fill="#EFF3FB"/>
<path d="M180 182H47C44.2386 182 42 184.239 42 187V209C42 211.761 44.2386 214 47 214H180C182.761 214 185 211.761 185 209V187C185 184.239 182.761 182 180 182Z" fill="#EFF3FB"/>
<path d="M286 2.5H8C4.96243 2.5 2.5 4.96243 2.5 8V242C2.5 245.038 4.96243 247.5 8 247.5H286C289.038 247.5 291.5 245.038 291.5 242V8C291.5 4.96243 289.038 2.5 286 2.5Z" stroke="#F7F7F7" stroke-width="5"/>
<path d="M64.3594 51.5703C64.3594 52.6901 64.1615 53.6719 63.7656 54.5156C63.3698 55.3594 62.8021 56.0104 62.0625 56.4688C61.3281 56.9271 60.4844 57.1562 59.5312 57.1562C58.5885 57.1562 57.7474 56.9297 57.0078 56.4766C56.2682 56.0234 55.6953 55.3776 55.2891 54.5391C54.8828 53.6953 54.6771 52.7266 54.6719 51.6328V51.0703C54.6719 49.9505 54.8724 48.9661 55.2734 48.1172C55.6797 47.263 56.25 46.6094 56.9844 46.1562C57.724 45.6979 58.5677 45.4688 59.5156 45.4688C60.4635 45.4688 61.3047 45.6979 62.0391 46.1562C62.7786 46.6094 63.349 47.263 63.75 48.1172C64.1562 48.9661 64.3594 49.9479 64.3594 51.0625V51.5703ZM61.9844 51.0547C61.9844 49.862 61.7708 48.9557 61.3438 48.3359C60.9167 47.7161 60.3073 47.4062 59.5156 47.4062C58.7292 47.4062 58.1224 47.7135 57.6953 48.3281C57.2682 48.9375 57.0521 49.8333 57.0469 51.0156V51.5703C57.0469 52.7318 57.2604 53.6328 57.6875 54.2734C58.1146 54.9141 58.7292 55.2344 59.5312 55.2344C60.3177 55.2344 60.9219 54.9271 61.3438 54.3125C61.7656 53.6927 61.9792 52.7917 61.9844 51.6094V51.0547ZM74.6719 45.625V53.1172C74.6719 54.362 74.2812 55.3464 73.5 56.0703C72.724 56.7943 71.6615 57.1562 70.3125 57.1562C68.9844 57.1562 67.9297 56.8047 67.1484 56.1016C66.3672 55.3984 65.9688 54.4323 65.9531 53.2031V45.625H68.2969V53.1328C68.2969 53.8776 68.474 54.4219 68.8281 54.7656C69.1875 55.1042 69.6823 55.2734 70.3125 55.2734C71.6302 55.2734 72.2995 54.5807 72.3203 53.1953V45.625H74.6719ZM82.4922 54.0156C82.4922 53.5729 82.3359 53.2344 82.0234 53C81.7109 52.7604 81.1484 52.5104 80.3359 52.25C79.5234 51.9844 78.8802 51.724 78.4062 51.4688C77.1146 50.7708 76.4688 49.8307 76.4688 48.6484C76.4688 48.0339 76.6406 47.487 76.9844 47.0078C77.3333 46.5234 77.8307 46.1458 78.4766 45.875C79.1276 45.6042 79.8568 45.4688 80.6641 45.4688C81.4766 45.4688 82.2005 45.6172 82.8359 45.9141C83.4714 46.2057 83.9635 46.6198 84.3125 47.1562C84.6667 47.6927 84.8438 48.3021 84.8438 48.9844H82.5C82.5 48.4635 82.3359 48.0599 82.0078 47.7734C81.6797 47.4818 81.2188 47.3359 80.625 47.3359C80.0521 47.3359 79.6068 47.4583 79.2891 47.7031C78.9714 47.9427 78.8125 48.2604 78.8125 48.6562C78.8125 49.026 78.9974 49.3359 79.3672 49.5859C79.7422 49.8359 80.2917 50.0703 81.0156 50.2891C82.349 50.6901 83.3203 51.1875 83.9297 51.7812C84.5391 52.375 84.8438 53.1146 84.8438 54C84.8438 54.9844 84.4714 55.7578 83.7266 56.3203C82.9818 56.8776 81.9792 57.1562 80.7188 57.1562C79.8438 57.1562 79.0469 56.9974 78.3281 56.6797C77.6094 56.3568 77.0599 55.9167 76.6797 55.3594C76.3047 54.8021 76.1172 54.1562 76.1172 53.4219H78.4688C78.4688 54.6771 79.2188 55.3047 80.7188 55.3047C81.276 55.3047 81.7109 55.1927 82.0234 54.9688C82.3359 54.7396 82.4922 54.4219 82.4922 54.0156ZM86.4375 57V45.625H89.9375C90.9375 45.625 91.8307 45.8516 92.6172 46.3047C93.4089 46.7526 94.026 47.3932 94.4688 48.2266C94.9115 49.0547 95.1328 49.9974 95.1328 51.0547V51.5781C95.1328 52.6354 94.9141 53.5755 94.4766 54.3984C94.0443 55.2214 93.4323 55.8594 92.6406 56.3125C91.849 56.7656 90.9557 56.9948 89.9609 57H86.4375ZM88.7812 47.5234V55.1172H89.9141C90.8307 55.1172 91.5312 54.8177 92.0156 54.2188C92.5 53.6198 92.7474 52.763 92.7578 51.6484V51.0469C92.7578 49.8906 92.5182 49.0156 92.0391 48.4219C91.5599 47.8229 90.8594 47.5234 89.9375 47.5234H88.7812ZM100.875 54.1797L103.453 45.625H106.062L102.102 57H99.6562L95.7109 45.625H98.3125L100.875 54.1797ZM114.695 57H106.898V55.4531L110.578 51.5312C111.083 50.9792 111.456 50.4974 111.695 50.0859C111.94 49.6745 112.062 49.2839 112.062 48.9141C112.062 48.4089 111.935 48.013 111.68 47.7266C111.424 47.4349 111.06 47.2891 110.586 47.2891C110.076 47.2891 109.672 47.4661 109.375 47.8203C109.083 48.1693 108.938 48.6302 108.938 49.2031H106.672C106.672 48.5104 106.836 47.8776 107.164 47.3047C107.497 46.7318 107.966 46.2839 108.57 45.9609C109.174 45.6328 109.859 45.4688 110.625 45.4688C111.797 45.4688 112.706 45.75 113.352 46.3125C114.003 46.875 114.328 47.6693 114.328 48.6953C114.328 49.2578 114.182 49.8307 113.891 50.4141C113.599 50.9974 113.099 51.6771 112.391 52.4531L109.805 55.1797H114.695V57ZM120.57 53.0391H116.172V51.2188H120.57V53.0391ZM131.875 51.5703C131.875 52.6901 131.677 53.6719 131.281 54.5156C130.885 55.3594 130.318 56.0104 129.578 56.4688C128.844 56.9271 128 57.1562 127.047 57.1562C126.104 57.1562 125.263 56.9297 124.523 56.4766C123.784 56.0234 123.211 55.3776 122.805 54.5391C122.398 53.6953 122.193 52.7266 122.188 51.6328V51.0703C122.188 49.9505 122.388 48.9661 122.789 48.1172C123.195 47.263 123.766 46.6094 124.5 46.1562C125.24 45.6979 126.083 45.4688 127.031 45.4688C127.979 45.4688 128.82 45.6979 129.555 46.1562C130.294 46.6094 130.865 47.263 131.266 48.1172C131.672 48.9661 131.875 49.9479 131.875 51.0625V51.5703ZM129.5 51.0547C129.5 49.862 129.286 48.9557 128.859 48.3359C128.432 47.7161 127.823 47.4062 127.031 47.4062C126.245 47.4062 125.638 47.7135 125.211 48.3281C124.784 48.9375 124.568 49.8333 124.562 51.0156V51.5703C124.562 52.7318 124.776 53.6328 125.203 54.2734C125.63 54.9141 126.245 55.2344 127.047 55.2344C127.833 55.2344 128.438 54.9271 128.859 54.3125C129.281 53.6927 129.495 52.7917 129.5 51.6094V51.0547ZM133.578 57V45.625H137.562C138.943 45.625 139.99 45.8906 140.703 46.4219C141.417 46.9479 141.773 47.7214 141.773 48.7422C141.773 49.2995 141.63 49.7917 141.344 50.2188C141.057 50.6406 140.659 50.9505 140.148 51.1484C140.732 51.2943 141.19 51.5885 141.523 52.0312C141.862 52.474 142.031 53.0156 142.031 53.6562C142.031 54.75 141.682 55.5781 140.984 56.1406C140.286 56.7031 139.292 56.9896 138 57H133.578ZM135.922 52.0469V55.1172H137.93C138.482 55.1172 138.911 54.987 139.219 54.7266C139.531 54.4609 139.688 54.0964 139.688 53.6328C139.688 52.5911 139.148 52.0625 138.07 52.0469H135.922ZM135.922 50.3906H137.656C138.839 50.3698 139.43 49.8984 139.43 48.9766C139.43 48.4609 139.279 48.0911 138.977 47.8672C138.68 47.638 138.208 47.5234 137.562 47.5234H135.922V50.3906ZM146.289 57H143.945V45.625H146.289V57ZM156.797 47.5234H153.312V57H150.969V47.5234H147.531V45.625H156.797V47.5234ZM162.469 54.1797L165.047 45.625H167.656L163.695 57H161.25L157.305 45.625H159.906L162.469 54.1797ZM176.289 57H168.492V55.4531L172.172 51.5312C172.677 50.9792 173.049 50.4974 173.289 50.0859C173.534 49.6745 173.656 49.2839 173.656 48.9141C173.656 48.4089 173.529 48.013 173.273 47.7266C173.018 47.4349 172.654 47.2891 172.18 47.2891C171.669 47.2891 171.266 47.4661 170.969 47.8203C170.677 48.1693 170.531 48.6302 170.531 49.2031H168.266C168.266 48.5104 168.43 47.8776 168.758 47.3047C169.091 46.7318 169.56 46.2839 170.164 45.9609C170.768 45.6328 171.453 45.4688 172.219 45.4688C173.391 45.4688 174.299 45.75 174.945 46.3125C175.596 46.875 175.922 47.6693 175.922 48.6953C175.922 49.2578 175.776 49.8307 175.484 50.4141C175.193 50.9974 174.693 51.6771 173.984 52.4531L171.398 55.1797H176.289V57Z" fill="#333333"/>
<path d="M99.3594 100.57C99.3594 101.69 99.1615 102.672 98.7656 103.516C98.3698 104.359 97.8021 105.01 97.0625 105.469C96.3281 105.927 95.4844 106.156 94.5312 106.156C93.5885 106.156 92.7474 105.93 92.0078 105.477C91.2682 105.023 90.6953 104.378 90.2891 103.539C89.8828 102.695 89.6771 101.727 89.6719 100.633V100.07C89.6719 98.9505 89.8724 97.9661 90.2734 97.1172C90.6797 96.263 91.25 95.6094 91.9844 95.1562C92.724 94.6979 93.5677 94.4688 94.5156 94.4688C95.4635 94.4688 96.3047 94.6979 97.0391 95.1562C97.7786 95.6094 98.349 96.263 98.75 97.1172C99.1562 97.9661 99.3594 98.9479 99.3594 100.062V100.57ZM96.9844 100.055C96.9844 98.862 96.7708 97.9557 96.3438 97.3359C95.9167 96.7161 95.3073 96.4062 94.5156 96.4062C93.7292 96.4062 93.1224 96.7135 92.6953 97.3281C92.2682 97.9375 92.0521 98.8333 92.0469 100.016V100.57C92.0469 101.732 92.2604 102.633 92.6875 103.273C93.1146 103.914 93.7292 104.234 94.5312 104.234C95.3177 104.234 95.9219 103.927 96.3438 103.312C96.7656 102.693 96.9792 101.792 96.9844 100.609V100.055ZM109.672 94.625V102.117C109.672 103.362 109.281 104.346 108.5 105.07C107.724 105.794 106.661 106.156 105.312 106.156C103.984 106.156 102.93 105.805 102.148 105.102C101.367 104.398 100.969 103.432 100.953 102.203V94.625H103.297V102.133C103.297 102.878 103.474 103.422 103.828 103.766C104.188 104.104 104.682 104.273 105.312 104.273C106.63 104.273 107.299 103.581 107.32 102.195V94.625H109.672ZM117.492 103.016C117.492 102.573 117.336 102.234 117.023 102C116.711 101.76 116.148 101.51 115.336 101.25C114.523 100.984 113.88 100.724 113.406 100.469C112.115 99.7708 111.469 98.8307 111.469 97.6484C111.469 97.0339 111.641 96.487 111.984 96.0078C112.333 95.5234 112.831 95.1458 113.477 94.875C114.128 94.6042 114.857 94.4688 115.664 94.4688C116.477 94.4688 117.201 94.6172 117.836 94.9141C118.471 95.2057 118.964 95.6198 119.312 96.1562C119.667 96.6927 119.844 97.3021 119.844 97.9844H117.5C117.5 97.4635 117.336 97.0599 117.008 96.7734C116.68 96.4818 116.219 96.3359 115.625 96.3359C115.052 96.3359 114.607 96.4583 114.289 96.7031C113.971 96.9427 113.812 97.2604 113.812 97.6562C113.812 98.026 113.997 98.3359 114.367 98.5859C114.742 98.8359 115.292 99.0703 116.016 99.2891C117.349 99.6901 118.32 100.188 118.93 100.781C119.539 101.375 119.844 102.115 119.844 103C119.844 103.984 119.471 104.758 118.727 105.32C117.982 105.878 116.979 106.156 115.719 106.156C114.844 106.156 114.047 105.997 113.328 105.68C112.609 105.357 112.06 104.917 111.68 104.359C111.305 103.802 111.117 103.156 111.117 102.422H113.469C113.469 103.677 114.219 104.305 115.719 104.305C116.276 104.305 116.711 104.193 117.023 103.969C117.336 103.74 117.492 103.422 117.492 103.016ZM121.438 106V94.625H124.938C125.938 94.625 126.831 94.8516 127.617 95.3047C128.409 95.7526 129.026 96.3932 129.469 97.2266C129.911 98.0547 130.133 98.9974 130.133 100.055V100.578C130.133 101.635 129.914 102.576 129.477 103.398C129.044 104.221 128.432 104.859 127.641 105.312C126.849 105.766 125.956 105.995 124.961 106H121.438ZM123.781 96.5234V104.117H124.914C125.831 104.117 126.531 103.818 127.016 103.219C127.5 102.62 127.747 101.763 127.758 100.648V100.047C127.758 98.8906 127.518 98.0156 127.039 97.4219C126.56 96.8229 125.859 96.5234 124.938 96.5234H123.781ZM135.875 103.18L138.453 94.625H141.062L137.102 106H134.656L130.711 94.625H133.312L135.875 103.18ZM149.695 106H141.898V104.453L145.578 100.531C146.083 99.9792 146.456 99.4974 146.695 99.0859C146.94 98.6745 147.062 98.2839 147.062 97.9141C147.062 97.4089 146.935 97.013 146.68 96.7266C146.424 96.4349 146.06 96.2891 145.586 96.2891C145.076 96.2891 144.672 96.4661 144.375 96.8203C144.083 97.1693 143.938 97.6302 143.938 98.2031H141.672C141.672 97.5104 141.836 96.8776 142.164 96.3047C142.497 95.7318 142.966 95.2839 143.57 94.9609C144.174 94.6328 144.859 94.4688 145.625 94.4688C146.797 94.4688 147.706 94.75 148.352 95.3125C149.003 95.875 149.328 96.6693 149.328 97.6953C149.328 98.2578 149.182 98.8307 148.891 99.4141C148.599 99.9974 148.099 100.677 147.391 101.453L144.805 104.18H149.695V106ZM155.57 102.039H151.172V100.219H155.57V102.039ZM166.875 100.57C166.875 101.69 166.677 102.672 166.281 103.516C165.885 104.359 165.318 105.01 164.578 105.469C163.844 105.927 163 106.156 162.047 106.156C161.104 106.156 160.263 105.93 159.523 105.477C158.784 105.023 158.211 104.378 157.805 103.539C157.398 102.695 157.193 101.727 157.188 100.633V100.07C157.188 98.9505 157.388 97.9661 157.789 97.1172C158.195 96.263 158.766 95.6094 159.5 95.1562C160.24 94.6979 161.083 94.4688 162.031 94.4688C162.979 94.4688 163.82 94.6979 164.555 95.1562C165.294 95.6094 165.865 96.263 166.266 97.1172C166.672 97.9661 166.875 98.9479 166.875 100.062V100.57ZM164.5 100.055C164.5 98.862 164.286 97.9557 163.859 97.3359C163.432 96.7161 162.823 96.4062 162.031 96.4062C161.245 96.4062 160.638 96.7135 160.211 97.3281C159.784 97.9375 159.568 98.8333 159.562 100.016V100.57C159.562 101.732 159.776 102.633 160.203 103.273C160.63 103.914 161.245 104.234 162.047 104.234C162.833 104.234 163.438 103.927 163.859 103.312C164.281 102.693 164.495 101.792 164.5 100.609V100.055ZM175.422 101.07H170.922V104.117H176.203V106H168.578V94.625H176.188V96.5234H170.922V99.2344H175.422V101.07ZM186.297 96.5234H182.812V106H180.469V96.5234H177.031V94.625H186.297V96.5234ZM196.898 106H194.555V101.125H189.984V106H187.641V94.625H189.984V99.2344H194.555V94.625H196.898V106ZM203.156 103.18L205.734 94.625H208.344L204.383 106H201.938L197.992 94.625H200.594L203.156 103.18ZM216.977 106H209.18V104.453L212.859 100.531C213.365 99.9792 213.737 99.4974 213.977 99.0859C214.221 98.6745 214.344 98.2839 214.344 97.9141C214.344 97.4089 214.216 97.013 213.961 96.7266C213.706 96.4349 213.341 96.2891 212.867 96.2891C212.357 96.2891 211.953 96.4661 211.656 96.8203C211.365 97.1693 211.219 97.6302 211.219 98.2031H208.953C208.953 97.5104 209.117 96.8776 209.445 96.3047C209.779 95.7318 210.247 95.2839 210.852 94.9609C211.456 94.6328 212.141 94.4688 212.906 94.4688C214.078 94.4688 214.987 94.75 215.633 95.3125C216.284 95.875 216.609 96.6693 216.609 97.6953C216.609 98.2578 216.464 98.8307 216.172 99.4141C215.88 99.9974 215.38 100.677 214.672 101.453L212.086 104.18H216.977V106Z" fill="#333333"/>
<path d="M99.3594 149.57C99.3594 150.69 99.1615 151.672 98.7656 152.516C98.3698 153.359 97.8021 154.01 97.0625 154.469C96.3281 154.927 95.4844 155.156 94.5312 155.156C93.5885 155.156 92.7474 154.93 92.0078 154.477C91.2682 154.023 90.6953 153.378 90.2891 152.539C89.8828 151.695 89.6771 150.727 89.6719 149.633V149.07C89.6719 147.951 89.8724 146.966 90.2734 146.117C90.6797 145.263 91.25 144.609 91.9844 144.156C92.724 143.698 93.5677 143.469 94.5156 143.469C95.4635 143.469 96.3047 143.698 97.0391 144.156C97.7786 144.609 98.349 145.263 98.75 146.117C99.1562 146.966 99.3594 147.948 99.3594 149.062V149.57ZM96.9844 149.055C96.9844 147.862 96.7708 146.956 96.3438 146.336C95.9167 145.716 95.3073 145.406 94.5156 145.406C93.7292 145.406 93.1224 145.714 92.6953 146.328C92.2682 146.938 92.0521 147.833 92.0469 149.016V149.57C92.0469 150.732 92.2604 151.633 92.6875 152.273C93.1146 152.914 93.7292 153.234 94.5312 153.234C95.3177 153.234 95.9219 152.927 96.3438 152.312C96.7656 151.693 96.9792 150.792 96.9844 149.609V149.055ZM107.906 150.07H103.406V153.117H108.688V155H101.062V143.625H108.672V145.523H103.406V148.234H107.906V150.07ZM118.781 145.523H115.297V155H112.953V145.523H109.516V143.625H118.781V145.523ZM129.383 155H127.039V150.125H122.469V155H120.125V143.625H122.469V148.234H127.039V143.625H129.383V155ZM135.641 152.18L138.219 143.625H140.828L136.867 155H134.422L130.477 143.625H133.078L135.641 152.18ZM149.461 155H141.664V153.453L145.344 149.531C145.849 148.979 146.221 148.497 146.461 148.086C146.706 147.674 146.828 147.284 146.828 146.914C146.828 146.409 146.701 146.013 146.445 145.727C146.19 145.435 145.826 145.289 145.352 145.289C144.841 145.289 144.438 145.466 144.141 145.82C143.849 146.169 143.703 146.63 143.703 147.203H141.438C141.438 146.51 141.602 145.878 141.93 145.305C142.263 144.732 142.732 144.284 143.336 143.961C143.94 143.633 144.625 143.469 145.391 143.469C146.562 143.469 147.471 143.75 148.117 144.312C148.768 144.875 149.094 145.669 149.094 146.695C149.094 147.258 148.948 147.831 148.656 148.414C148.365 148.997 147.865 149.677 147.156 150.453L144.57 153.18H149.461V155ZM155.336 151.039H150.938V149.219H155.336V151.039ZM166.641 149.57C166.641 150.69 166.443 151.672 166.047 152.516C165.651 153.359 165.083 154.01 164.344 154.469C163.609 154.927 162.766 155.156 161.812 155.156C160.87 155.156 160.029 154.93 159.289 154.477C158.549 154.023 157.977 153.378 157.57 152.539C157.164 151.695 156.958 150.727 156.953 149.633V149.07C156.953 147.951 157.154 146.966 157.555 146.117C157.961 145.263 158.531 144.609 159.266 144.156C160.005 143.698 160.849 143.469 161.797 143.469C162.745 143.469 163.586 143.698 164.32 144.156C165.06 144.609 165.63 145.263 166.031 146.117C166.438 146.966 166.641 147.948 166.641 149.062V149.57ZM164.266 149.055C164.266 147.862 164.052 146.956 163.625 146.336C163.198 145.716 162.589 145.406 161.797 145.406C161.01 145.406 160.404 145.714 159.977 146.328C159.549 146.938 159.333 147.833 159.328 149.016V149.57C159.328 150.732 159.542 151.633 159.969 152.273C160.396 152.914 161.01 153.234 161.812 153.234C162.599 153.234 163.203 152.927 163.625 152.312C164.047 151.693 164.26 150.792 164.266 149.609V149.055ZM168.344 155V143.625H172.328C173.708 143.625 174.755 143.891 175.469 144.422C176.182 144.948 176.539 145.721 176.539 146.742C176.539 147.299 176.396 147.792 176.109 148.219C175.823 148.641 175.424 148.951 174.914 149.148C175.497 149.294 175.956 149.589 176.289 150.031C176.628 150.474 176.797 151.016 176.797 151.656C176.797 152.75 176.448 153.578 175.75 154.141C175.052 154.703 174.057 154.99 172.766 155H168.344ZM170.688 150.047V153.117H172.695C173.247 153.117 173.677 152.987 173.984 152.727C174.297 152.461 174.453 152.096 174.453 151.633C174.453 150.591 173.914 150.062 172.836 150.047H170.688ZM170.688 148.391H172.422C173.604 148.37 174.195 147.898 174.195 146.977C174.195 146.461 174.044 146.091 173.742 145.867C173.445 145.638 172.974 145.523 172.328 145.523H170.688V148.391ZM181.055 155H178.711V143.625H181.055V155ZM191.562 145.523H188.078V155H185.734V145.523H182.297V143.625H191.562V145.523ZM197.234 152.18L199.812 143.625H202.422L198.461 155H196.016L192.07 143.625H194.672L197.234 152.18ZM211.055 155H203.258V153.453L206.938 149.531C207.443 148.979 207.815 148.497 208.055 148.086C208.299 147.674 208.422 147.284 208.422 146.914C208.422 146.409 208.294 146.013 208.039 145.727C207.784 145.435 207.419 145.289 206.945 145.289C206.435 145.289 206.031 145.466 205.734 145.82C205.443 146.169 205.297 146.63 205.297 147.203H203.031C203.031 146.51 203.195 145.878 203.523 145.305C203.857 144.732 204.326 144.284 204.93 143.961C205.534 143.633 206.219 143.469 206.984 143.469C208.156 143.469 209.065 143.75 209.711 144.312C210.362 144.875 210.688 145.669 210.688 146.695C210.688 147.258 210.542 147.831 210.25 148.414C209.958 148.997 209.458 149.677 208.75 150.453L206.164 153.18H211.055V155Z" fill="#333333"/>
<path d="M64.3594 198.57C64.3594 199.69 64.1615 200.672 63.7656 201.516C63.3698 202.359 62.8021 203.01 62.0625 203.469C61.3281 203.927 60.4844 204.156 59.5312 204.156C58.5885 204.156 57.7474 203.93 57.0078 203.477C56.2682 203.023 55.6953 202.378 55.2891 201.539C54.8828 200.695 54.6771 199.727 54.6719 198.633V198.07C54.6719 196.951 54.8724 195.966 55.2734 195.117C55.6797 194.263 56.25 193.609 56.9844 193.156C57.724 192.698 58.5677 192.469 59.5156 192.469C60.4635 192.469 61.3047 192.698 62.0391 193.156C62.7786 193.609 63.349 194.263 63.75 195.117C64.1562 195.966 64.3594 196.948 64.3594 198.062V198.57ZM61.9844 198.055C61.9844 196.862 61.7708 195.956 61.3438 195.336C60.9167 194.716 60.3073 194.406 59.5156 194.406C58.7292 194.406 58.1224 194.714 57.6953 195.328C57.2682 195.938 57.0521 196.833 57.0469 198.016V198.57C57.0469 199.732 57.2604 200.633 57.6875 201.273C58.1146 201.914 58.7292 202.234 59.5312 202.234C60.3177 202.234 60.9219 201.927 61.3438 201.312C61.7656 200.693 61.9792 199.792 61.9844 198.609V198.055ZM72.3125 201.656H68.2031L67.4219 204H64.9297L69.1641 192.625H71.3359L75.5938 204H73.1016L72.3125 201.656ZM68.8359 199.758H71.6797L70.25 195.5L68.8359 199.758ZM85.125 192.625V200.117C85.125 201.362 84.7344 202.346 83.9531 203.07C83.1771 203.794 82.1146 204.156 80.7656 204.156C79.4375 204.156 78.3828 203.805 77.6016 203.102C76.8203 202.398 76.4219 201.432 76.4062 200.203V192.625H78.75V200.133C78.75 200.878 78.9271 201.422 79.2812 201.766C79.6406 202.104 80.1354 202.273 80.7656 202.273C82.0833 202.273 82.7526 201.581 82.7734 200.195V192.625H85.125ZM96.0469 202.562C95.625 203.068 95.0286 203.461 94.2578 203.742C93.487 204.018 92.6328 204.156 91.6953 204.156C90.7109 204.156 89.8464 203.943 89.1016 203.516C88.362 203.083 87.7891 202.458 87.3828 201.641C86.9818 200.823 86.776 199.862 86.7656 198.758V197.984C86.7656 196.849 86.9557 195.867 87.3359 195.039C87.7214 194.206 88.2734 193.57 88.9922 193.133C89.7161 192.69 90.5625 192.469 91.5312 192.469C92.8802 192.469 93.9349 192.792 94.6953 193.438C95.4557 194.078 95.9062 195.013 96.0469 196.242H93.7656C93.6615 195.591 93.4297 195.115 93.0703 194.812C92.7161 194.51 92.2266 194.359 91.6016 194.359C90.8047 194.359 90.1979 194.659 89.7812 195.258C89.3646 195.857 89.1536 196.747 89.1484 197.93V198.656C89.1484 199.849 89.375 200.75 89.8281 201.359C90.2812 201.969 90.9453 202.273 91.8203 202.273C92.7005 202.273 93.3281 202.086 93.7031 201.711V199.75H91.5703V198.023H96.0469V202.562ZM102.195 200.039H97.7969V198.219H102.195V200.039ZM113.5 198.57C113.5 199.69 113.302 200.672 112.906 201.516C112.51 202.359 111.943 203.01 111.203 203.469C110.469 203.927 109.625 204.156 108.672 204.156C107.729 204.156 106.888 203.93 106.148 203.477C105.409 203.023 104.836 202.378 104.43 201.539C104.023 200.695 103.818 199.727 103.812 198.633V198.07C103.812 196.951 104.013 195.966 104.414 195.117C104.82 194.263 105.391 193.609 106.125 193.156C106.865 192.698 107.708 192.469 108.656 192.469C109.604 192.469 110.445 192.698 111.18 193.156C111.919 193.609 112.49 194.263 112.891 195.117C113.297 195.966 113.5 196.948 113.5 198.062V198.57ZM111.125 198.055C111.125 196.862 110.911 195.956 110.484 195.336C110.057 194.716 109.448 194.406 108.656 194.406C107.87 194.406 107.263 194.714 106.836 195.328C106.409 195.938 106.193 196.833 106.188 198.016V198.57C106.188 199.732 106.401 200.633 106.828 201.273C107.255 201.914 107.87 202.234 108.672 202.234C109.458 202.234 110.062 201.927 110.484 201.312C110.906 200.693 111.12 199.792 111.125 198.609V198.055ZM123.812 192.625V200.117C123.812 201.362 123.422 202.346 122.641 203.07C121.865 203.794 120.802 204.156 119.453 204.156C118.125 204.156 117.07 203.805 116.289 203.102C115.508 202.398 115.109 201.432 115.094 200.203V192.625H117.438V200.133C117.438 200.878 117.615 201.422 117.969 201.766C118.328 202.104 118.823 202.273 119.453 202.273C120.771 202.273 121.44 201.581 121.461 200.195V192.625H123.812ZM131.633 201.016C131.633 200.573 131.477 200.234 131.164 200C130.852 199.76 130.289 199.51 129.477 199.25C128.664 198.984 128.021 198.724 127.547 198.469C126.255 197.771 125.609 196.831 125.609 195.648C125.609 195.034 125.781 194.487 126.125 194.008C126.474 193.523 126.971 193.146 127.617 192.875C128.268 192.604 128.997 192.469 129.805 192.469C130.617 192.469 131.341 192.617 131.977 192.914C132.612 193.206 133.104 193.62 133.453 194.156C133.807 194.693 133.984 195.302 133.984 195.984H131.641C131.641 195.464 131.477 195.06 131.148 194.773C130.82 194.482 130.359 194.336 129.766 194.336C129.193 194.336 128.747 194.458 128.43 194.703C128.112 194.943 127.953 195.26 127.953 195.656C127.953 196.026 128.138 196.336 128.508 196.586C128.883 196.836 129.432 197.07 130.156 197.289C131.49 197.69 132.461 198.188 133.07 198.781C133.68 199.375 133.984 200.115 133.984 201C133.984 201.984 133.612 202.758 132.867 203.32C132.122 203.878 131.12 204.156 129.859 204.156C128.984 204.156 128.188 203.997 127.469 203.68C126.75 203.357 126.201 202.917 125.82 202.359C125.445 201.802 125.258 201.156 125.258 200.422H127.609C127.609 201.677 128.359 202.305 129.859 202.305C130.417 202.305 130.852 202.193 131.164 201.969C131.477 201.74 131.633 201.422 131.633 201.016ZM135.578 204V192.625H139.078C140.078 192.625 140.971 192.852 141.758 193.305C142.549 193.753 143.167 194.393 143.609 195.227C144.052 196.055 144.273 196.997 144.273 198.055V198.578C144.273 199.635 144.055 200.576 143.617 201.398C143.185 202.221 142.573 202.859 141.781 203.312C140.99 203.766 140.096 203.995 139.102 204H135.578ZM137.922 194.523V202.117H139.055C139.971 202.117 140.672 201.818 141.156 201.219C141.641 200.62 141.888 199.763 141.898 198.648V198.047C141.898 196.891 141.659 196.016 141.18 195.422C140.701 194.823 140 194.523 139.078 194.523H137.922ZM150.016 201.18L152.594 192.625H155.203L151.242 204H148.797L144.852 192.625H147.453L150.016 201.18ZM163.836 204H156.039V202.453L159.719 198.531C160.224 197.979 160.596 197.497 160.836 197.086C161.081 196.674 161.203 196.284 161.203 195.914C161.203 195.409 161.076 195.013 160.82 194.727C160.565 194.435 160.201 194.289 159.727 194.289C159.216 194.289 158.812 194.466 158.516 194.82C158.224 195.169 158.078 195.63 158.078 196.203H155.812C155.812 195.51 155.977 194.878 156.305 194.305C156.638 193.732 157.107 193.284 157.711 192.961C158.315 192.633 159 192.469 159.766 192.469C160.938 192.469 161.846 192.75 162.492 193.312C163.143 193.875 163.469 194.669 163.469 195.695C163.469 196.258 163.323 196.831 163.031 197.414C162.74 197.997 162.24 198.677 161.531 199.453L158.945 202.18H163.836V204Z" fill="#333333"/>
</svg>
