<svg viewBox="0 0 3305 2099" fill="none" xmlns="http://www.w3.org/2000/svg">
<path d="M1092.88 353.437H1087.96V339.962L1088.01 337.748L1088.09 335.327C1087.27 336.145 1086.71 336.681 1086.39 336.936L1083.71 339.086L1081.34 336.124L1088.84 330.151H1092.88V353.437ZM1115.48 341.794C1115.48 345.861 1114.81 348.871 1113.48 350.825C1112.15 352.778 1110.1 353.755 1107.33 353.755C1104.65 353.755 1102.62 352.747 1101.25 350.729C1099.9 348.712 1099.22 345.733 1099.22 341.794C1099.22 337.684 1099.88 334.658 1101.21 332.715C1102.53 330.761 1104.57 329.784 1107.33 329.784C1110.02 329.784 1112.04 330.804 1113.41 332.842C1114.79 334.881 1115.48 337.865 1115.48 341.794ZM1104.1 341.794C1104.1 344.65 1104.35 346.699 1104.83 347.942C1105.33 349.173 1106.17 349.789 1107.33 349.789C1108.48 349.789 1109.31 349.163 1109.82 347.91C1110.33 346.657 1110.58 344.618 1110.58 341.794C1110.58 338.937 1110.32 336.888 1109.8 335.646C1109.29 334.393 1108.47 333.766 1107.33 333.766C1106.18 333.766 1105.35 334.393 1104.85 335.646C1104.35 336.888 1104.1 338.937 1104.1 341.794ZM1134.1 341.794C1134.1 345.861 1133.44 348.871 1132.1 350.825C1130.77 352.778 1128.72 353.755 1125.96 353.755C1123.27 353.755 1121.24 352.747 1119.88 350.729C1118.52 348.712 1117.84 345.733 1117.84 341.794C1117.84 337.684 1118.5 334.658 1119.83 332.715C1121.15 330.761 1123.2 329.784 1125.96 329.784C1128.64 329.784 1130.67 330.804 1132.04 332.842C1133.41 334.881 1134.1 337.865 1134.1 341.794ZM1122.72 341.794C1122.72 344.65 1122.97 346.699 1123.46 347.942C1123.96 349.173 1124.79 349.789 1125.96 349.789C1127.1 349.789 1127.93 349.163 1128.44 347.91C1128.95 346.657 1129.2 344.618 1129.2 341.794C1129.2 338.937 1128.94 336.888 1128.42 335.646C1127.91 334.393 1127.09 333.766 1125.96 333.766C1124.8 333.766 1123.97 334.393 1123.47 335.646C1122.97 336.888 1122.72 338.937 1122.72 341.794ZM1152.73 341.794C1152.73 345.861 1152.06 348.871 1150.72 350.825C1149.39 352.778 1147.35 353.755 1144.58 353.755C1141.89 353.755 1139.87 352.747 1138.5 350.729C1137.14 348.712 1136.46 345.733 1136.46 341.794C1136.46 337.684 1137.12 334.658 1138.45 332.715C1139.78 330.761 1141.82 329.784 1144.58 329.784C1147.26 329.784 1149.29 330.804 1150.66 332.842C1152.04 334.881 1152.73 337.865 1152.73 341.794ZM1141.35 341.794C1141.35 344.65 1141.59 346.699 1142.08 347.942C1142.58 349.173 1143.41 349.789 1144.58 349.789C1145.72 349.789 1146.55 349.163 1147.06 347.91C1147.57 346.657 1147.82 344.618 1147.82 341.794C1147.82 338.937 1147.56 336.888 1147.04 335.646C1146.54 334.393 1145.71 333.766 1144.58 333.766C1143.42 333.766 1142.59 334.393 1142.09 335.646C1141.6 336.888 1141.35 338.937 1141.35 341.794Z" fill="black"/>
<path d="M1202.59 599C1203.35 599 1203.99 599.054 1204.5 599.166L1204.07 604.48C1203.61 604.358 1203.06 604.295 1202.4 604.295C1200.59 604.295 1199.18 604.76 1198.17 605.69C1197.16 606.619 1196.66 607.919 1196.66 609.591V620.165H1191V599.389H1195.29L1196.13 602.884H1196.4C1197.05 601.718 1197.91 600.783 1199 600.076C1200.11 599.359 1201.3 599 1202.59 599ZM1216.87 603.031C1215.67 603.031 1214.73 603.417 1214.04 604.184C1213.36 604.939 1212.97 606.019 1212.87 607.419H1220.82C1220.8 606.019 1220.43 604.939 1219.73 604.184C1219.02 603.417 1218.07 603.031 1216.87 603.031ZM1217.67 620.537C1214.32 620.537 1211.71 619.613 1209.83 617.767C1207.95 615.921 1207.01 613.309 1207.01 609.925C1207.01 606.445 1207.87 603.757 1209.61 601.862C1211.35 599.954 1213.76 599 1216.83 599C1219.76 599 1222.05 599.834 1223.68 601.509C1225.32 603.181 1226.13 605.491 1226.13 608.441V611.189H1212.74C1212.81 612.801 1213.28 614.057 1214.17 614.962C1215.07 615.867 1216.32 616.318 1217.93 616.318C1219.18 616.318 1220.36 616.188 1221.47 615.927C1222.59 615.669 1223.75 615.253 1224.96 614.682V619.069C1223.97 619.564 1222.91 619.928 1221.79 620.165C1220.66 620.412 1219.29 620.537 1217.67 620.537ZM1245.22 613.994C1245.22 616.125 1244.48 617.748 1242.99 618.863C1241.52 619.98 1239.31 620.537 1236.36 620.537C1234.85 620.537 1233.57 620.431 1232.5 620.222C1231.44 620.023 1230.44 619.724 1229.51 619.327V614.647C1230.56 615.141 1231.75 615.557 1233.06 615.892C1234.38 616.226 1235.55 616.392 1236.55 616.392C1238.6 616.392 1239.63 615.799 1239.63 614.608C1239.63 614.163 1239.5 613.804 1239.22 613.532C1238.95 613.247 1238.48 612.931 1237.81 612.583C1237.14 612.225 1236.25 611.809 1235.14 611.338C1233.54 610.67 1232.37 610.05 1231.61 609.479C1230.87 608.911 1230.32 608.259 1229.98 607.53C1229.64 606.785 1229.48 605.875 1229.48 604.798C1229.48 602.952 1230.19 601.528 1231.61 600.522C1233.05 599.508 1235.08 599 1237.7 599C1240.2 599 1242.63 599.544 1245 600.634L1243.29 604.722C1242.25 604.276 1241.28 603.912 1240.38 603.627C1239.47 603.341 1238.55 603.2 1237.61 603.2C1235.94 603.2 1235.1 603.651 1235.1 604.556C1235.1 605.065 1235.37 605.502 1235.9 605.875C1236.44 606.247 1237.63 606.799 1239.45 607.53C1241.07 608.185 1242.26 608.799 1243.01 609.368C1243.77 609.938 1244.32 610.594 1244.68 611.338C1245.04 612.08 1245.22 612.967 1245.22 613.994ZM1258.24 603.031C1257.04 603.031 1256.1 603.417 1255.42 604.184C1254.74 604.939 1254.35 606.019 1254.25 607.419H1262.19C1262.17 606.019 1261.8 604.939 1261.1 604.184C1260.39 603.417 1259.44 603.031 1258.24 603.031ZM1259.04 620.537C1255.69 620.537 1253.08 619.613 1251.2 617.767C1249.32 615.921 1248.38 613.309 1248.38 609.925C1248.38 606.445 1249.24 603.757 1250.98 601.862C1252.72 599.954 1255.13 599 1258.2 599C1261.14 599 1263.42 599.834 1265.05 601.509C1266.69 603.181 1267.5 605.491 1267.5 608.441V611.189H1254.12C1254.18 612.801 1254.65 614.057 1255.55 614.962C1256.44 615.867 1257.69 616.318 1259.3 616.318C1260.55 616.318 1261.73 616.188 1262.84 615.927C1263.96 615.669 1265.12 615.253 1266.33 614.682V619.069C1265.34 619.564 1264.29 619.928 1263.16 620.165C1262.03 620.412 1260.66 620.537 1259.04 620.537ZM1283.7 599C1284.46 599 1285.1 599.054 1285.61 599.166L1285.18 604.48C1284.72 604.358 1284.17 604.295 1283.51 604.295C1281.7 604.295 1280.29 604.76 1279.28 605.69C1278.27 606.619 1277.77 607.919 1277.77 609.591V620.165H1272.11V599.389H1276.4L1277.23 602.884H1277.51C1278.16 601.718 1279.02 600.783 1280.11 600.076C1281.21 599.359 1282.41 599 1283.7 599ZM1294.32 620.165L1286.41 599.389H1292.33L1296.34 611.227C1296.79 612.725 1297.07 614.144 1297.18 615.481H1297.29C1297.35 614.293 1297.63 612.874 1298.13 611.227L1302.12 599.389H1308.04L1300.13 620.165H1294.32ZM1319.63 603.031C1318.43 603.031 1317.49 603.417 1316.81 604.184C1316.12 604.939 1315.73 606.019 1315.64 607.419H1323.58C1323.56 606.019 1323.19 604.939 1322.49 604.184C1321.78 603.417 1320.83 603.031 1319.63 603.031ZM1320.43 620.537C1317.08 620.537 1314.47 619.613 1312.59 617.767C1310.71 615.921 1309.77 613.309 1309.77 609.925C1309.77 606.445 1310.63 603.757 1312.37 601.862C1314.11 599.954 1316.52 599 1319.59 599C1322.52 599 1324.81 599.834 1326.44 601.509C1328.08 603.181 1328.89 605.491 1328.89 608.441V611.189H1315.51C1315.57 612.801 1316.04 614.057 1316.94 614.962C1317.83 615.867 1319.08 616.318 1320.69 616.318C1321.94 616.318 1323.12 616.188 1324.23 615.927C1325.35 615.669 1326.51 615.253 1327.72 614.682V619.069C1326.73 619.564 1325.68 619.928 1324.55 620.165C1323.42 620.412 1322.05 620.537 1320.43 620.537Z" fill="black"/>
<path d="M1105.49 667.475C1107.74 667.475 1109.52 668.108 1110.85 669.372C1112.19 670.634 1112.86 672.365 1112.86 674.564C1112.86 677.166 1112.06 679.166 1110.45 680.569C1108.85 681.969 1106.56 682.67 1103.58 682.67C1100.99 682.67 1098.9 682.252 1097.31 681.412V677.16C1098.14 677.606 1099.12 677.973 1100.23 678.258C1101.35 678.536 1102.4 678.672 1103.4 678.672C1106.4 678.672 1107.91 677.44 1107.91 674.977C1107.91 672.632 1106.35 671.457 1103.24 671.457C1102.68 671.457 1102.06 671.517 1101.38 671.634C1100.7 671.74 1100.15 671.857 1099.73 671.985L1097.77 670.933L1098.64 659.067H1111.26V663.24H1102.96L1102.53 667.809L1103.08 667.698C1103.73 667.551 1104.53 667.475 1105.49 667.475ZM1131.78 670.71C1131.78 674.776 1131.11 677.785 1129.78 679.74C1128.45 681.694 1126.4 682.67 1123.63 682.67C1120.95 682.67 1118.92 681.662 1117.55 679.645C1116.19 677.628 1115.51 674.649 1115.51 670.71C1115.51 666.6 1116.18 663.574 1117.5 661.631C1118.83 659.676 1120.87 658.7 1123.63 658.7C1126.32 658.7 1128.34 659.72 1129.71 661.758C1131.09 663.797 1131.78 666.779 1131.78 670.71ZM1120.4 670.71C1120.4 673.567 1120.64 675.614 1121.13 676.859C1121.63 678.09 1122.46 678.704 1123.63 678.704C1124.78 678.704 1125.61 678.079 1126.11 676.826C1126.62 675.573 1126.88 673.534 1126.88 670.71C1126.88 667.853 1126.62 665.803 1126.1 664.561C1125.59 663.308 1124.77 662.683 1123.63 662.683C1122.48 662.683 1121.65 663.308 1121.15 664.561C1120.65 665.803 1120.4 667.853 1120.4 670.71ZM1150.4 670.71C1150.4 674.776 1149.73 677.785 1148.4 679.74C1147.07 681.694 1145.02 682.67 1142.25 682.67C1139.57 682.67 1137.54 681.662 1136.17 679.645C1134.82 677.628 1134.14 674.649 1134.14 670.71C1134.14 666.6 1134.8 663.574 1136.13 661.631C1137.45 659.676 1139.5 658.7 1142.25 658.7C1144.94 658.7 1146.97 659.72 1148.33 661.758C1149.71 663.797 1150.4 666.779 1150.4 670.71ZM1139.02 670.71C1139.02 673.567 1139.27 675.614 1139.76 676.859C1140.25 678.09 1141.09 678.704 1142.25 678.704C1143.4 678.704 1144.23 678.079 1144.74 676.826C1145.25 675.573 1145.5 673.534 1145.5 670.71C1145.5 667.853 1145.24 665.803 1144.72 664.561C1144.21 663.308 1143.39 662.683 1142.25 662.683C1141.1 662.683 1140.27 663.308 1139.77 664.561C1139.27 665.803 1139.02 667.853 1139.02 670.71Z" fill="black"/>
<path d="M1194.65 1062.15C1194.65 1066.21 1193.98 1069.22 1192.65 1071.18C1191.32 1073.13 1189.27 1074.11 1186.5 1074.11C1183.82 1074.11 1181.79 1073.1 1180.42 1071.08C1179.06 1069.06 1178.38 1066.09 1178.38 1062.15C1178.38 1058.04 1179.05 1055.01 1180.37 1053.07C1181.7 1051.11 1183.74 1050.14 1186.5 1050.14C1189.19 1050.14 1191.21 1051.16 1192.58 1053.19C1193.96 1055.23 1194.65 1058.22 1194.65 1062.15ZM1183.27 1062.15C1183.27 1065 1183.51 1067.05 1184 1068.3C1184.5 1069.53 1185.33 1070.14 1186.5 1070.14C1187.65 1070.14 1188.47 1069.52 1188.98 1068.26C1189.49 1067.01 1189.75 1064.97 1189.75 1062.15C1189.75 1059.29 1189.49 1057.24 1188.97 1056C1188.46 1054.74 1187.64 1054.12 1186.5 1054.12C1185.34 1054.12 1184.52 1054.74 1184.02 1056C1183.52 1057.24 1183.27 1059.29 1183.27 1062.15Z" fill="black"/>
<path d="M1153.9 996.907C1153.9 1000.97 1153.24 1003.98 1151.9 1005.94C1150.57 1007.89 1148.52 1008.87 1145.76 1008.87C1143.07 1008.87 1141.04 1007.86 1139.68 1005.84C1138.32 1003.82 1137.64 1000.85 1137.64 996.907C1137.64 992.797 1138.3 989.771 1139.63 987.828C1140.95 985.873 1143 984.897 1145.76 984.897C1148.44 984.897 1150.47 985.917 1151.84 987.956C1153.22 989.994 1153.9 992.976 1153.9 996.907ZM1142.52 996.907C1142.52 999.764 1142.77 1001.81 1143.26 1003.06C1143.76 1004.29 1144.59 1004.9 1145.76 1004.9C1146.9 1004.9 1147.73 1004.28 1148.24 1003.02C1148.75 1001.77 1149 999.731 1149 996.907C1149 994.05 1148.74 992 1148.22 990.758C1147.71 989.505 1146.89 988.88 1145.76 988.88C1144.6 988.88 1143.77 989.505 1143.27 990.758C1142.77 992 1142.52 994.05 1142.52 996.907Z" fill="black"/>
<path d="M1547.79 1257.9C1547.79 1260.03 1547.05 1261.65 1545.56 1262.77C1544.09 1263.89 1541.88 1264.44 1538.93 1264.44C1537.42 1264.44 1536.14 1264.34 1535.07 1264.13C1534.01 1263.93 1533.01 1263.63 1532.08 1263.23V1258.55C1533.14 1259.05 1534.32 1259.46 1535.63 1259.8C1536.95 1260.13 1538.12 1260.3 1539.12 1260.3C1541.18 1260.3 1542.2 1259.7 1542.2 1258.51C1542.2 1258.07 1542.07 1257.71 1541.79 1257.44C1541.52 1257.15 1541.05 1256.84 1540.38 1256.49C1539.71 1256.13 1538.82 1255.71 1537.71 1255.24C1536.11 1254.58 1534.94 1253.96 1534.18 1253.38C1533.44 1252.82 1532.89 1252.16 1532.55 1251.44C1532.21 1250.69 1532.05 1249.78 1532.05 1248.7C1532.05 1246.86 1532.76 1245.43 1534.18 1244.43C1535.62 1243.41 1537.65 1242.91 1540.27 1242.91C1542.77 1242.91 1545.2 1243.45 1547.57 1244.54L1545.86 1248.63C1544.82 1248.18 1543.85 1247.82 1542.95 1247.53C1542.04 1247.25 1541.12 1247.11 1540.18 1247.11C1538.51 1247.11 1537.67 1247.56 1537.67 1248.46C1537.67 1248.97 1537.94 1249.41 1538.47 1249.78C1539.02 1250.15 1540.2 1250.7 1542.02 1251.44C1543.64 1252.09 1544.83 1252.71 1545.58 1253.27C1546.34 1253.84 1546.89 1254.5 1547.25 1255.24C1547.61 1255.99 1547.79 1256.87 1547.79 1257.9ZM1557.1 1264.07H1554.23V1256.21L1554.25 1254.92L1554.3 1253.51C1553.82 1253.98 1553.49 1254.3 1553.31 1254.45L1551.75 1255.7L1550.37 1253.97L1554.74 1250.49H1557.1V1264.07Z" fill="black"/>
<path d="M1542.83 1175.8C1545.08 1175.8 1546.86 1176.43 1548.19 1177.7C1549.53 1178.96 1550.2 1180.69 1550.2 1182.89C1550.2 1185.49 1549.39 1187.49 1547.79 1188.89C1546.19 1190.29 1543.9 1190.99 1540.92 1190.99C1538.33 1190.99 1536.24 1190.58 1534.65 1189.74V1185.48C1535.48 1185.93 1536.46 1186.3 1537.57 1186.58C1538.69 1186.86 1539.74 1187 1540.74 1187C1543.74 1187 1545.24 1185.76 1545.24 1183.3C1545.24 1180.96 1543.69 1179.78 1540.58 1179.78C1540.02 1179.78 1539.4 1179.84 1538.72 1179.96C1538.04 1180.06 1537.49 1180.18 1537.07 1180.31L1535.11 1179.26L1535.98 1167.39H1548.6V1171.56H1540.3L1539.87 1176.13L1540.42 1176.02C1541.07 1175.87 1541.87 1175.8 1542.83 1175.8Z" fill="black"/>
<path d="M2143.15 1048.04C2145.4 1048.04 2147.19 1048.67 2148.51 1049.94C2149.85 1051.2 2150.52 1052.93 2150.52 1055.13C2150.52 1057.73 2149.72 1059.73 2148.11 1061.13C2146.51 1062.53 2144.22 1063.23 2141.24 1063.23C2138.65 1063.23 2136.56 1062.82 2134.97 1061.98V1057.72C2135.81 1058.17 2136.78 1058.54 2137.9 1058.82C2139.01 1059.1 2140.07 1059.24 2141.06 1059.24C2144.07 1059.24 2145.57 1058 2145.57 1055.54C2145.57 1053.19 2144.01 1052.02 2140.9 1052.02C2140.34 1052.02 2139.72 1052.08 2139.04 1052.2C2138.36 1052.3 2137.81 1052.42 2137.39 1052.55L2135.43 1051.5L2136.3 1039.63H2148.93V1043.8H2140.62L2140.19 1048.37L2140.75 1048.26C2141.39 1048.11 2142.19 1048.04 2143.15 1048.04ZM2169.44 1051.27C2169.44 1055.34 2168.77 1058.35 2167.44 1060.3C2166.11 1062.26 2164.06 1063.23 2161.29 1063.23C2158.61 1063.23 2156.58 1062.23 2155.21 1060.21C2153.85 1058.19 2153.18 1055.21 2153.18 1051.27C2153.18 1047.16 2153.84 1044.14 2155.16 1042.19C2156.49 1040.24 2158.53 1039.26 2161.29 1039.26C2163.98 1039.26 2166 1040.28 2167.37 1042.32C2168.75 1044.36 2169.44 1047.34 2169.44 1051.27ZM2158.06 1051.27C2158.06 1054.13 2158.31 1056.18 2158.79 1057.42C2159.29 1058.65 2160.13 1059.27 2161.29 1059.27C2162.44 1059.27 2163.27 1058.64 2163.77 1057.39C2164.29 1056.14 2164.54 1054.1 2164.54 1051.27C2164.54 1048.42 2164.28 1046.37 2163.76 1045.12C2163.25 1043.87 2162.43 1043.25 2161.29 1043.25C2160.14 1043.25 2159.31 1043.87 2158.81 1045.12C2158.31 1046.37 2158.06 1048.42 2158.06 1051.27Z" fill="black"/>
<path d="M2218.74 1083.93C2218.74 1086.06 2218 1087.68 2216.51 1088.8C2215.04 1089.91 2212.83 1090.47 2209.88 1090.47C2208.37 1090.47 2207.08 1090.37 2206.02 1090.16C2204.95 1089.96 2203.96 1089.66 2203.03 1089.26V1084.58C2204.08 1085.08 2205.26 1085.49 2206.58 1085.83C2207.9 1086.16 2209.06 1086.33 2210.07 1086.33C2212.12 1086.33 2213.15 1085.73 2213.15 1084.54C2213.15 1084.1 2213.01 1083.74 2212.74 1083.47C2212.47 1083.18 2212 1082.87 2211.33 1082.52C2210.66 1082.16 2209.77 1081.74 2208.66 1081.27C2207.06 1080.6 2205.88 1079.98 2205.13 1079.41C2204.39 1078.84 2203.84 1078.19 2203.49 1077.46C2203.16 1076.72 2202.99 1075.81 2202.99 1074.73C2202.99 1072.89 2203.71 1071.46 2205.13 1070.46C2206.57 1069.44 2208.59 1068.93 2211.22 1068.93C2213.72 1068.93 2216.15 1069.48 2218.52 1070.57L2216.81 1074.66C2215.77 1074.21 2214.8 1073.85 2213.89 1073.56C2212.99 1073.27 2212.07 1073.13 2211.13 1073.13C2209.46 1073.13 2208.62 1073.58 2208.62 1074.49C2208.62 1075 2208.89 1075.44 2209.42 1075.81C2209.96 1076.18 2211.15 1076.73 2212.97 1077.46C2214.59 1078.12 2215.77 1078.73 2216.53 1079.3C2217.28 1079.87 2217.84 1080.53 2218.2 1081.27C2218.56 1082.01 2218.74 1082.9 2218.74 1083.93ZM2228.97 1090.1H2220.84V1088.39L2223.76 1085.43C2224.63 1084.55 2225.19 1083.93 2225.46 1083.59C2225.72 1083.25 2225.91 1082.93 2226.03 1082.64C2226.15 1082.34 2226.21 1082.04 2226.21 1081.73C2226.21 1081.26 2226.07 1080.91 2225.81 1080.69C2225.56 1080.46 2225.22 1080.34 2224.79 1080.34C2224.34 1080.34 2223.9 1080.45 2223.48 1080.65C2223.05 1080.86 2222.61 1081.16 2222.15 1081.54L2220.81 1079.95C2221.38 1079.46 2221.86 1079.12 2222.23 1078.92C2222.61 1078.71 2223.02 1078.56 2223.47 1078.46C2223.91 1078.34 2224.41 1078.29 2224.96 1078.29C2225.69 1078.29 2226.33 1078.42 2226.89 1078.69C2227.45 1078.95 2227.88 1079.32 2228.19 1079.8C2228.5 1080.28 2228.65 1080.83 2228.65 1081.44C2228.65 1081.98 2228.55 1082.48 2228.36 1082.95C2228.17 1083.42 2227.88 1083.9 2227.49 1084.4C2227.09 1084.89 2226.4 1085.59 2225.4 1086.51L2223.9 1087.92V1088.03H2228.97V1090.1Z" fill="black"/>
<path d="M1957.96 1263.3C1957.96 1267.37 1957.29 1270.38 1955.95 1272.33C1954.62 1274.29 1952.58 1275.26 1949.81 1275.26C1947.12 1275.26 1945.1 1274.25 1943.73 1272.24C1942.37 1270.22 1941.69 1267.24 1941.69 1263.3C1941.69 1259.19 1942.35 1256.17 1943.68 1254.22C1945 1252.27 1947.05 1251.29 1949.81 1251.29C1952.49 1251.29 1954.52 1252.31 1955.89 1254.35C1957.27 1256.39 1957.96 1259.37 1957.96 1263.3ZM1946.58 1263.3C1946.58 1266.16 1946.82 1268.21 1947.31 1269.45C1947.81 1270.68 1948.64 1271.3 1949.81 1271.3C1950.95 1271.3 1951.78 1270.67 1952.29 1269.42C1952.8 1268.16 1953.05 1266.13 1953.05 1263.3C1953.05 1260.44 1952.79 1258.39 1952.27 1257.15C1951.77 1255.9 1950.94 1255.27 1949.81 1255.27C1948.65 1255.27 1947.82 1255.9 1947.32 1257.15C1946.82 1258.39 1946.58 1260.44 1946.58 1263.3Z" fill="black"/>
<path d="M1894.22 1304.85H1889.3V1291.37L1889.35 1289.16L1889.42 1286.74C1888.61 1287.55 1888.04 1288.09 1887.72 1288.34L1885.05 1290.5L1882.68 1287.53L1890.17 1281.56H1894.22V1304.85ZM1916.82 1293.2C1916.82 1297.27 1916.15 1300.28 1914.81 1302.23C1913.49 1304.19 1911.44 1305.16 1908.67 1305.16C1905.98 1305.16 1903.96 1304.15 1902.59 1302.14C1901.23 1300.12 1900.55 1297.14 1900.55 1293.2C1900.55 1289.09 1901.21 1286.07 1902.54 1284.12C1903.87 1282.17 1905.91 1281.19 1908.67 1281.19C1911.35 1281.19 1913.38 1282.21 1914.75 1284.25C1916.13 1286.29 1916.82 1289.27 1916.82 1293.2ZM1905.44 1293.2C1905.44 1296.06 1905.68 1298.11 1906.17 1299.35C1906.67 1300.58 1907.5 1301.2 1908.67 1301.2C1909.81 1301.2 1910.64 1300.57 1911.15 1299.32C1911.66 1298.07 1911.92 1296.03 1911.92 1293.2C1911.92 1290.35 1911.66 1288.3 1911.14 1287.05C1910.63 1285.8 1909.8 1285.18 1908.67 1285.18C1907.51 1285.18 1906.68 1285.8 1906.18 1287.05C1905.69 1288.3 1905.44 1290.35 1905.44 1293.2Z" fill="black"/>
<path d="M1581.95 580.415L1615.9 592.648L1666.16 600.803H1705.54L1773.45 596.725L1822.35 584.493L1875.32 565.465L1975.82 509.739L2064.11 437.704L2151.03 348L2224.37 255.577L2293.64 160.437L2164.61 428.19L2047.81 693.225L1986.69 853.605L1940.51 1015.34C1919.91 1101.71 1914.05 1150.2 1911.99 1236.89L1193.5 1004.47L1581.95 580.415Z" fill="#4A71FF"/>
<path d="M1580.59 579.056C1846.75 645.541 2005.81 533.655 2293.64 155C2029.01 712.841 1913.25 1025.98 1910.63 1239.61L1190.79 1007.19L1580.59 579.056Z" fill="#0037FF"/>
<path d="M1193.21 1006.55L1581.05 580.57C1714.05 613.647 1820.54 602.195 1929.7 535.112C2036.95 469.204 2146.71 349.628 2286.85 166.15C2157.43 439.468 2064.1 653.603 2002.6 825.928C1940.59 999.701 1910.93 1131.04 1909.3 1237.75L1193.21 1006.55Z" stroke="white" stroke-opacity="0.5"/>
<path d="M1218.07 978.653C1499.1 1065.63 1649.06 1065.34 1935.2 1043.89" stroke="#7B99FF"/>
<path d="M1242.4 952.824C1519.53 1037.85 1671.07 1022.24 1959.53 951.465" stroke="#7B99FF"/>
<path d="M1268.21 922.923C1479.95 1001.17 1717.85 982.723 1986.69 871.275" stroke="#7B99FF"/>
<path d="M1292.65 898.458C1556.95 974.856 1735.96 942.875 2011.14 799.24" stroke="#7B99FF"/>
<path d="M1311.67 875.352C1581.14 938.077 1750.11 907.523 2036.94 732.641" stroke="#7B99FF"/>
<path d="M1337.55 848.471C1609.36 911.511 1779 869.706 2064.11 668.76" stroke="#7B99FF"/>
<path d="M1366 816.908C1583.98 889.457 1805.06 842.683 2088.56 608.958" stroke="#7B99FF"/>
<path d="M1387.73 792.444C1632.62 872.569 1852.65 784.223 2113 549.155" stroke="#7B99FF"/>
<path d="M1412.17 766.62C1677.65 834.349 1863.56 755.665 2137.45 493.43" stroke="#7B99FF"/>
<path d="M1436.62 739.437C1704.13 809.966 1906.28 711.147 2155.11 447.218" stroke="#7B99FF"/>
<path d="M1461.07 713.613C1717.69 791.639 1953.28 657.773 2179.55 392.852" stroke="#7B99FF"/>
<path d="M1485.52 685.07C1744.14 761.058 1932.93 652.326 2199.93 348" stroke="#7B99FF"/>
<path d="M1508.61 661.965C1756.4 729.781 1954.7 626.485 2221.66 301.789" stroke="#7B99FF"/>
<path d="M1532.42 633.583C1780.24 702.739 1975.11 597.924 2244.75 252.859" stroke="#7B99FF"/>
<path d="M1557.5 606.239C1805.59 679.321 1995.5 563.934 2263.76 213.444" stroke="#7B99FF"/>
<path d="M1232.89 1019.42L1627.13 593.085" stroke="#7B99FF"/>
<path d="M1279.42 1033.47L1670.58 598.536" stroke="#7B99FF"/>
<path d="M1322.53 1047.96L1714.03 598.549" stroke="#7B99FF"/>
<path d="M1368.71 1062.92C1500.32 890.615 1596.05 781.812 1755.8 596.725" stroke="#7B99FF"/>
<path d="M1412.17 1076.51C1526.16 905.332 1626.77 800.599 1800.62 589.93" stroke="#7B99FF"/>
<path d="M1461.07 1092.82C1466 1083.84 1469.22 1061.56 1488.23 1039.81C1599.6 861.76 1696.05 777.811 1844.35 576.884" stroke="#7B99FF"/>
<path d="M1504.53 1106.41C1543.56 1000.11 1675.49 833.531 1892.98 555.951" stroke="#7B99FF"/>
<path d="M1549.35 1121.36C1564.64 1034.34 1725.74 822.456 1936.44 531.486" stroke="#7B99FF"/>
<path d="M1594.17 1134.95C1611.72 1025.32 1743.31 836.241 1982.62 498.866" stroke="#7B99FF"/>
<path d="M1645.78 1152.62C1619.53 1085.83 1762.29 860.507 2024.72 463.528" stroke="#7B99FF"/>
<path d="M1686.53 1164.85C1697.39 999.035 1866.74 752.822 2070.9 421.394" stroke="#7B99FF"/>
<path d="M1732.71 1179.8C1738.68 1020.5 1870.47 784.615 2121.15 368.387" stroke="#7B99FF"/>
<path d="M1773.45 1193.39C1788.82 1005.87 1921.95 749.571 2171.41 311.303" stroke="#7B99FF"/>
<path d="M1816.92 1206.99C1843.91 962.602 1963.53 713.034 2198.57 278.684" stroke="#7B99FF"/>
<path d="M1863.09 1221.94C1903.01 859.866 2025.09 682.496 2233.88 235.191" stroke="#7B99FF"/>
<path opacity="0.2" d="M1910.63 1239.61C1916.06 1031.65 1998 770.077 2293.64 155V810.113L1910.63 1239.61Z" fill="#6C63FF"/>
<path d="M1172.19 1023.57L1919.19 1262.78" stroke="black"/>
<path d="M1917.78 1263.15L2318.09 825.063" stroke="black"/>
<path d="M1173.13 337.127V1024.86" stroke="black"/>
<path d="M1903.84 1242.32V1258.63" stroke="black"/>
<path d="M1545.28 1128.16V1143.11" stroke="black"/>
<path d="M1172.28 1010.01L1189.43 1013.99" stroke="black"/>
<path d="M1189.43 1027.58V1013.99" stroke="black"/>
<path d="M2100.78 1036.35L2119.29 1043.04" stroke="black"/>
<path d="M2342.42 853.606H2337.5V840.131L2337.55 837.918L2337.63 835.496C2336.81 836.314 2336.25 836.85 2335.93 837.105L2333.25 839.256L2330.88 836.293L2338.38 830.321H2342.42V853.606ZM2365.02 841.963C2365.02 846.03 2364.35 849.039 2363.02 850.993C2361.69 852.948 2359.64 853.924 2356.87 853.924C2354.19 853.924 2352.16 852.915 2350.79 850.898C2349.43 848.881 2348.76 845.902 2348.76 841.963C2348.76 837.853 2349.42 834.828 2350.74 832.884C2352.07 830.929 2354.12 829.954 2356.87 829.954C2359.56 829.954 2361.59 830.973 2362.95 833.012C2364.33 835.05 2365.02 838.032 2365.02 841.963ZM2353.64 841.963C2353.64 844.82 2353.89 846.867 2354.37 848.112C2354.87 849.343 2355.71 849.958 2356.87 849.958C2358.02 849.958 2358.85 849.332 2359.35 848.079C2359.87 846.826 2360.12 844.787 2360.12 841.963C2360.12 839.106 2359.86 837.057 2359.34 835.814C2358.83 834.561 2358.01 833.936 2356.87 833.936C2355.72 833.936 2354.89 834.561 2354.39 835.814C2353.89 837.057 2353.64 839.106 2353.64 841.963ZM2383.64 841.963C2383.64 846.03 2382.98 849.039 2381.64 850.993C2380.31 852.948 2378.26 853.924 2375.5 853.924C2372.81 853.924 2370.78 852.915 2369.42 850.898C2368.06 848.881 2367.38 845.902 2367.38 841.963C2367.38 837.853 2368.04 834.828 2369.37 832.884C2370.69 830.929 2372.74 829.954 2375.5 829.954C2378.18 829.954 2380.21 830.973 2381.57 833.012C2382.95 835.05 2383.64 838.032 2383.64 841.963ZM2372.26 841.963C2372.26 844.82 2372.51 846.867 2373 848.112C2373.49 849.343 2374.33 849.958 2375.5 849.958C2376.64 849.958 2377.47 849.332 2377.98 848.079C2378.49 846.826 2378.74 844.787 2378.74 841.963C2378.74 839.106 2378.48 837.057 2377.96 835.814C2377.45 834.561 2376.63 833.936 2375.5 833.936C2374.34 833.936 2373.51 834.561 2373.01 835.814C2372.51 837.057 2372.26 839.106 2372.26 841.963Z" fill="black"/>
<path d="M1172.2 352.147L1188.5 357.584" stroke="black"/>
<path d="M1172.2 681.063L1188.5 686.5" stroke="black"/>
<path d="M2699.5 342C2699.5 379.279 2669.28 409.5 2632 409.5C2594.72 409.5 2564.5 379.279 2564.5 342C2564.5 304.721 2594.72 274.5 2632 274.5C2669.28 274.5 2699.5 304.721 2699.5 342Z" fill="white" stroke="black" stroke-width="25"/>
<path d="M2522 453.503C2522 446.601 2527.6 441.006 2534.5 441.006H2729.5C2736.4 441.006 2742 446.601 2742 453.503C2742 460.405 2736.4 466 2729.5 466H2534.5C2527.6 466 2522 460.405 2522 453.503Z" fill="black"/>
<path d="M2697 268.169C2697 265.245 2699.37 262.875 2702.29 262.875H2736.71C2739.63 262.875 2742 265.245 2742 268.169C2742 271.093 2739.63 273.463 2736.71 273.463H2702.29C2699.37 273.463 2697 271.093 2697 268.169Z" fill="black"/>
<path d="M2719.17 291C2716.25 291 2713.88 288.63 2713.88 285.706V251.294C2713.88 248.37 2716.25 246 2719.17 246C2722.09 246 2724.46 248.37 2724.46 251.294V285.706C2724.46 288.63 2722.09 291 2719.17 291Z" fill="black"/>
<path d="M2671.76 351.919C2666.29 373.883 2644.04 387.249 2622.07 381.773C2600.12 376.297 2586.75 354.05 2592.23 332.086C2597.7 310.119 2619.95 296.751 2641.91 302.227C2663.87 307.703 2677.24 329.953 2671.76 351.919H2671.76Z" fill="#F7931A"/>
<path d="M2650.07 336.16C2650.89 330.704 2646.73 327.771 2641.06 325.815L2642.9 318.425L2638.4 317.304L2636.6 324.499C2635.42 324.204 2634.21 323.926 2633 323.651L2634.81 316.408L2630.31 315.287L2628.47 322.675C2627.49 322.452 2626.53 322.231 2625.6 321.999L2625.6 321.976L2619.4 320.427L2618.2 325.232C2618.2 325.232 2621.54 325.997 2621.47 326.044C2623.29 326.499 2623.62 327.705 2623.56 328.661L2621.46 337.08C2621.59 337.112 2621.75 337.158 2621.93 337.23L2621.46 337.112L2618.52 348.906C2618.29 349.459 2617.73 350.289 2616.45 349.974C2616.5 350.039 2613.18 349.158 2613.18 349.158L2610.95 354.309L2616.81 355.768C2617.9 356.041 2618.96 356.327 2620.01 356.596L2618.15 364.072L2622.64 365.193L2624.49 357.797C2625.71 358.131 2626.91 358.438 2628.07 358.728L2626.23 366.088L2630.73 367.21L2632.6 359.749C2640.27 361.2 2646.04 360.615 2648.46 353.678C2650.42 348.092 2648.36 344.87 2644.33 342.767C2647.27 342.087 2649.48 340.153 2650.07 336.16H2650.07ZM2639.79 350.572C2638.4 356.159 2629 353.14 2625.95 352.382L2628.42 342.479C2631.47 343.24 2641.24 344.747 2639.8 350.572H2639.79ZM2641.18 336.079C2639.92 341.16 2632.09 338.579 2629.55 337.946L2631.79 328.964C2634.33 329.597 2642.51 330.778 2641.18 336.079Z" fill="white"/>
<path d="M2699.5 586C2699.5 623.279 2669.28 653.5 2632 653.5C2594.72 653.5 2564.5 623.279 2564.5 586C2564.5 548.721 2594.72 518.5 2632 518.5C2669.28 518.5 2699.5 548.721 2699.5 586Z" fill="white" stroke="black" stroke-width="25"/>
<path d="M2522 697.503C2522 690.601 2527.6 685.006 2534.5 685.006H2729.5C2736.4 685.006 2742 690.601 2742 697.503C2742 704.405 2736.4 710 2729.5 710H2534.5C2527.6 710 2522 704.405 2522 697.503Z" fill="black"/>
<path d="M2697 512.169C2697 509.245 2699.37 506.875 2702.29 506.875H2736.71C2739.63 506.875 2742 509.245 2742 512.169C2742 515.093 2739.63 517.463 2736.71 517.463H2702.29C2699.37 517.463 2697 515.093 2697 512.169Z" fill="black"/>
<path d="M2719.17 535C2716.25 535 2713.88 532.63 2713.88 529.706V495.294C2713.88 492.37 2716.25 490 2719.17 490C2722.09 490 2724.46 492.37 2724.46 495.294V529.706C2724.46 532.63 2722.09 535 2719.17 535Z" fill="black"/>
<path fill-rule="evenodd" clip-rule="evenodd" d="M2632 545C2654.64 545 2673 563.36 2673 586C2673 608.64 2654.64 627 2632 627C2609.36 627 2591 608.64 2591 586C2591 563.36 2609.36 545 2632 545ZM2632 549.48C2652.17 549.48 2668.52 565.834 2668.52 586C2668.52 606.166 2652.17 622.52 2632 622.52C2611.83 622.52 2595.48 606.166 2595.48 586C2595.48 565.834 2611.83 549.48 2632 549.48Z" fill="#456C91"/>
<path d="M2698.5 823C2698.5 860.279 2668.28 890.5 2631 890.5C2593.72 890.5 2563.5 860.279 2563.5 823C2563.5 785.721 2593.72 755.5 2631 755.5C2668.28 755.5 2698.5 785.721 2698.5 823Z" fill="white" stroke="black" stroke-width="25"/>
<path d="M2521 934.503C2521 927.601 2526.6 922.006 2533.5 922.006H2728.5C2735.41 922.006 2741 927.601 2741 934.503C2741 941.405 2735.41 947 2728.5 947H2533.5C2526.6 947 2521 941.405 2521 934.503Z" fill="black"/>
<path d="M2696 749.169C2696 746.245 2698.37 743.875 2701.29 743.875H2735.71C2738.63 743.875 2741 746.245 2741 749.169C2741 752.093 2738.63 754.463 2735.71 754.463H2701.29C2698.37 754.463 2696 752.093 2696 749.169Z" fill="black"/>
<path d="M2718.17 772C2715.25 772 2712.88 769.63 2712.88 766.706V732.294C2712.88 729.37 2715.25 727 2718.17 727C2721.09 727 2723.46 729.37 2723.46 732.294V766.706C2723.46 769.63 2721.09 772 2718.17 772Z" fill="black"/>
<path d="M2631 864C2653.64 864 2672 845.644 2672 823C2672 800.356 2653.64 782 2631 782C2608.36 782 2590 800.356 2590 823C2590 845.644 2608.36 864 2631 864Z" fill="#F0F0F0"/>
<path d="M2629.22 823H2672C2672 819.299 2671.51 815.715 2670.59 812.304H2629.22V823Z" fill="#D80027"/>
<path d="M2629.22 801.609H2665.98C2663.47 797.513 2660.26 793.893 2656.52 790.913H2629.22V801.609Z" fill="#D80027"/>
<path d="M2631 864C2640.65 864 2649.52 860.665 2656.52 855.087H2605.48C2612.48 860.665 2621.35 864 2631 864Z" fill="#D80027"/>
<path d="M2596.02 844.391H2665.98C2668 841.103 2669.56 837.51 2670.59 833.696H2591.41C2592.44 837.51 2594 841.103 2596.02 844.391Z" fill="#D80027"/>
<path d="M2608.99 788.403H2612.73L2609.25 790.928L2610.58 795.013L2607.11 792.488L2603.63 795.013L2604.78 791.484C2601.72 794.033 2599.03 797.019 2596.82 800.346H2598.02L2595.81 801.953C2595.46 802.528 2595.13 803.112 2594.82 803.705L2595.87 806.957L2593.9 805.525C2593.41 806.563 2592.97 807.624 2592.56 808.707L2593.73 812.29H2598.02L2594.55 814.815L2595.87 818.9L2592.4 816.375L2590.32 817.888C2590.11 819.563 2590 821.269 2590 823H2631C2631 800.356 2631 797.687 2631 782C2622.9 782 2615.35 784.349 2608.99 788.403ZM2610.58 818.9L2607.11 816.375L2603.63 818.9L2604.96 814.815L2601.48 812.29H2605.78L2607.11 808.204L2608.43 812.29H2612.73L2609.25 814.815L2610.58 818.9ZM2609.25 802.871L2610.58 806.957L2607.11 804.432L2603.63 806.957L2604.96 802.871L2601.48 800.346H2605.78L2607.11 796.261L2608.43 800.346H2612.73L2609.25 802.871ZM2625.29 818.9L2621.81 816.375L2618.34 818.9L2619.66 814.815L2616.19 812.29H2620.48L2621.81 808.204L2623.14 812.29H2627.43L2623.96 814.815L2625.29 818.9ZM2623.96 802.871L2625.29 806.957L2621.81 804.432L2618.34 806.957L2619.66 802.871L2616.19 800.346H2620.48L2621.81 796.261L2623.14 800.346H2627.43L2623.96 802.871ZM2623.96 790.928L2625.29 795.013L2621.81 792.488L2618.34 795.013L2619.66 790.928L2616.19 788.403H2620.48L2621.81 784.317L2623.14 788.403H2627.43L2623.96 790.928Z" fill="#0052B4"/>
<path d="M551.066 248.938L557.523 209.067L564.186 249.345L583.608 249.947C570.311 201.681 569.584 154.698 582.294 109.321C591.565 76.2265 583.133 39.5951 559.17 18.8008C547.383 8.33551 532.323 2.2959 516.57 1.71724L462.193 0.0317719C430.123 -0.962303 402.053 21.4665 390.469 53.8164C386.1 66.6553 384.491 80.2718 385.748 93.7752C389.838 143.781 387.878 194.097 379.91 243.633L551.066 248.938Z" fill="black"/>
<path d="M439.747 133.083C439.747 133.083 473.243 218.214 378.337 229.379C283.432 240.543 460.682 336.839 460.682 336.839L582.105 272.642C582.105 272.642 484.408 202.862 515.113 140.061L439.747 133.083Z" fill="#9F616A"/>
<path opacity="0.1" d="M439.747 133.083C439.747 133.083 473.243 218.214 378.337 229.379C283.432 240.543 460.682 336.839 460.682 336.839L582.105 272.642C582.105 272.642 484.408 202.862 515.113 140.061L439.747 133.083Z" fill="black"/>
<path d="M222.022 1324.92L194.11 1407.26H265.289L277.85 1343.06L222.022 1324.92Z" fill="#9F616A"/>
<path d="M489.992 1324.92V1386.33H533.256L538.838 1310.96L489.992 1324.92Z" fill="#9F616A"/>
<path d="M226.21 1377.95C226.21 1377.95 189.922 1352.83 187.131 1365.39C184.34 1377.95 157.822 1450.52 115.952 1456.11C74.0819 1461.69 30.8161 1485.41 79.6645 1493.79C128.513 1502.16 202.483 1491 213.649 1482.62C224.814 1474.25 226.21 1485.41 226.21 1485.41C226.21 1485.41 283.432 1481.23 283.432 1478.44C283.432 1475.64 280.641 1456.11 283.432 1450.52C286.223 1444.94 277.849 1415.63 277.849 1415.63L283.432 1365.39C283.432 1365.39 258.31 1369.58 258.31 1372.37C258.31 1375.16 226.21 1377.95 226.21 1377.95Z" fill="#2F2E41"/>
<path d="M505.343 1361.21C505.343 1361.21 480.221 1352.83 480.221 1361.21C480.221 1369.58 457.891 1487.45 467.66 1493.03C477.43 1498.61 536.048 1504.95 544.422 1486.81C552.796 1468.67 538.839 1429.59 538.839 1429.59C538.839 1429.59 530.465 1396.1 538.839 1391.91C547.213 1387.72 551.4 1355.62 505.343 1361.21Z" fill="#2F2E41"/>
<path d="M333.676 628.519L265.289 1070.92C265.289 1070.92 170.383 1331.9 215.044 1343.06C259.706 1354.23 259.706 1373.77 286.224 1358.41C312.741 1343.06 357.403 1089.07 357.403 1089.07L457.891 800.177L487.2 1096.04C487.2 1096.04 457.891 1343.06 481.617 1343.06C505.343 1343.06 562.566 1351.44 568.148 1338.88C573.731 1326.32 594.666 1047.2 594.666 1047.2C594.666 1047.2 650.108 666.547 585.402 637.066C520.696 607.585 333.676 628.519 333.676 628.519Z" fill="black"/>
<path d="M484.408 179.137C526.803 179.137 561.17 144.772 561.17 102.38C561.17 59.9877 526.803 25.6221 484.408 25.6221C442.014 25.6221 407.647 59.9877 407.647 102.38C407.647 144.772 442.014 179.137 484.408 179.137Z" fill="#9F616A"/>
<path d="M393.114 251.623C396.911 253.524 400.503 255.808 403.834 258.441C415.883 268.307 445.357 288.029 484.408 283.807C536.048 278.225 567.94 261.291 567.94 261.291C567.94 261.291 625.371 276.829 632.349 299.158C639.327 321.488 582.105 437.322 582.105 437.322C582.105 437.322 561.17 481.981 576.522 511.289C591.875 540.596 607.227 617.354 615.601 632.706C623.975 648.057 632.349 699.694 608.623 680.156C584.896 660.617 536.048 613.167 459.286 632.706C382.524 652.244 298.784 660.617 304.367 653.64C309.95 646.662 325.302 454.07 325.302 454.07L294.597 268.455C294.597 268.455 326.598 212.738 390.849 227.339C390.849 227.339 381.928 245.776 393.114 251.623Z" fill="#6C63FF"/>
<path d="M280.641 627.123L326.698 692.716C326.698 692.716 364.381 689.925 362.985 673.178C362.985 673.178 382.524 688.529 388.107 680.156C393.69 671.782 364.381 638.288 354.611 634.101C344.841 629.914 325.302 625.728 321.115 621.541C316.928 617.354 302.971 602.002 302.971 602.002L280.641 627.123Z" fill="#9F616A"/>
<path d="M566.752 596.42C566.752 596.42 526.491 611.797 512.428 629.229C498.365 646.661 478.825 662.013 488.595 662.013C498.365 662.013 520.695 652.244 520.695 652.244C520.695 652.244 544.422 698.299 576.522 670.387L598.853 636.892C598.853 636.892 593.27 590.838 566.752 596.42Z" fill="#9F616A"/>
<path d="M314.137 265.664H294.597C294.597 265.664 224.814 423.366 242.958 502.915C261.101 582.464 276.454 634.101 283.432 636.892C290.41 639.683 297.389 607.837 314.137 612.596C314.137 612.596 300.18 521.058 307.158 515.475C314.137 509.893 312.741 498.728 314.137 484.772C315.532 470.816 333.676 428.949 333.676 428.949L314.137 265.664Z" fill="#6C63FF"/>
<path d="M600.249 294.972L632.349 299.158C632.349 299.158 649.097 348.004 650.493 384.29C651.888 420.575 654.68 434.531 658.867 447.091C663.054 459.652 646.306 505.706 649.097 523.849C651.888 541.992 591.875 655.035 591.875 649.453C591.875 643.87 573.731 595.025 561.17 600.607C561.17 600.607 570.94 572.695 582.105 565.717C593.27 558.739 582.105 504.311 582.105 504.311L572.335 414.993L600.249 294.972Z" fill="#6C63FF"/>
<path d="M560.13 20.6968H418.467V53.5L560.13 73V20.6968Z" fill="black"/>
<path d="M411.568 127.182C414.23 126.51 415.025 120.571 413.345 113.917C411.664 107.264 408.144 102.415 405.483 103.087C402.821 103.759 402.026 109.698 403.706 116.351C405.387 123.005 408.906 127.854 411.568 127.182Z" fill="#9F616A"/>
<path d="M770.503 795.734C766.556 799.681 760.156 799.681 756.208 795.734L750.039 789.564C746.092 785.617 746.092 779.217 750.039 775.269V775.269C753.986 771.322 760.386 771.322 764.334 775.269L770.503 781.439C774.451 785.386 774.451 791.786 770.503 795.734V795.734Z" fill="black"/>
<path d="M860.739 795.835C856.791 791.887 856.791 785.487 860.739 781.54L868.906 773.373C872.853 769.426 879.253 769.426 883.2 773.373V773.373C887.148 777.32 887.148 783.721 883.2 787.668L875.034 795.835C871.086 799.782 864.686 799.782 860.739 795.835V795.835Z" fill="black"/>
<path d="M750.625 905.948C746.677 902.001 746.677 895.601 750.625 891.654L758.622 883.656C762.569 879.709 768.969 879.709 772.917 883.656V883.656C776.864 887.604 776.864 894.004 772.917 897.951L764.92 905.948C760.972 909.896 754.572 909.896 750.625 905.948V905.948Z" fill="black"/>
<path d="M757 840C757 845.523 752.523 850 747 850L712 850C706.477 850 702 845.523 702 840V840C702 834.477 706.477 830 712 830L747 830C752.523 830 757 834.477 757 840V840Z" fill="black"/>
<path d="M922 840C922 845.523 917.523 850 912 850L877 850C871.477 850 867 845.523 867 840V840C867 834.477 871.477 830 877 830L912 830C917.523 830 922 834.477 922 840V840Z" fill="black"/>
<path d="M881.55 905.277C877.603 909.224 871.203 909.224 867.255 905.277L860.739 898.76C856.791 894.813 856.791 888.413 860.739 884.465V884.465C864.686 880.518 871.086 880.518 875.034 884.465L881.55 890.982C885.498 894.929 885.498 901.329 881.55 905.277V905.277Z" fill="black"/>
<path d="M812.742 951C807.16 951 802.634 946.474 802.634 940.892L802.634 912.582C802.634 906.999 807.16 902.474 812.742 902.474V902.474C818.325 902.474 822.85 906.999 822.85 912.582L822.85 940.892C822.85 946.474 818.325 951 812.742 951V951Z" fill="black"/>
<path d="M812.742 779.526C807.16 779.526 802.634 775 802.634 769.418L802.634 741.108C802.634 735.525 807.16 731 812.742 731V731C818.325 731 822.85 735.525 822.85 741.108L822.85 769.418C822.85 775 818.325 779.526 812.742 779.526V779.526Z" fill="black"/>
<path d="M814.16 781.144C846.555 781.144 872.821 807.412 872.821 839.822C872.821 872.232 846.555 898.5 814.16 898.5C781.766 898.5 755.5 872.232 755.5 839.822C755.5 807.412 781.766 781.144 814.16 781.144Z" fill="white" stroke="black" stroke-width="25"/>
<path d="M855 840C855 817.356 836.644 799 814 799C791.356 799 773 817.356 773 840C773 862.643 791.356 881 814 881C836.644 881 855 862.643 855 840Z" fill="#F0F0F0"/>
<path d="M814 841.782L814 799C810.299 799 806.714 799.493 803.304 800.412L803.304 841.782L814 841.782Z" fill="#D80027"/>
<path d="M792.609 841.782L792.609 805.018C788.513 807.527 784.893 810.737 781.913 814.478L781.913 841.782L792.609 841.782Z" fill="#D80027"/>
<path d="M855 840C855 830.351 851.665 821.482 846.087 814.478L846.087 865.522C851.665 858.518 855 849.649 855 840Z" fill="#D80027"/>
<path d="M835.391 874.982L835.391 805.018C832.103 803.003 828.51 801.44 824.696 800.412L824.696 879.587C828.51 878.56 832.103 876.997 835.391 874.982Z" fill="#D80027"/>
<path d="M779.403 862.008L779.403 858.272L781.928 861.747L786.013 860.419L783.488 863.895L786.013 867.37L782.484 866.223C785.033 869.283 788.019 871.965 791.346 874.175L791.346 872.978L792.953 875.19C793.528 875.535 794.112 875.865 794.705 876.182L797.957 875.126L796.525 877.097C797.563 877.587 798.624 878.035 799.707 878.438L803.29 877.274L803.29 872.978L805.815 876.453L809.9 875.126L807.375 878.601L808.888 880.683C810.563 880.891 812.269 881 814 881L814 840C791.356 840 788.687 840 773 840C773 848.099 775.349 855.649 779.403 862.008ZM809.9 860.419L807.375 863.895L809.9 867.37L805.815 866.042L803.29 869.518L803.29 865.222L799.204 863.895L803.29 862.567L803.29 858.272L805.815 861.747L809.9 860.419ZM793.871 861.747L797.957 860.419L795.432 863.895L797.957 867.37L793.871 866.042L791.346 869.518L791.346 865.222L787.261 863.895L791.346 862.567L791.346 858.272L793.871 861.747ZM809.9 845.713L807.375 849.188L809.9 852.663L805.815 851.336L803.29 854.811L803.29 850.515L799.204 849.188L803.29 847.861L803.29 843.565L805.815 847.04L809.9 845.713ZM793.871 847.04L797.957 845.713L795.432 849.188L797.957 852.663L793.871 851.336L791.346 854.811L791.346 850.515L787.261 849.188L791.346 847.861L791.346 843.565L793.871 847.04ZM781.928 847.04L786.013 845.713L783.488 849.188L786.013 852.663L781.928 851.336L779.403 854.811L779.403 850.515L775.317 849.188L779.403 847.861L779.403 843.565L781.928 847.04Z" fill="#0052B4"/>
<path d="M770.503 553.734C766.556 557.681 760.156 557.681 756.209 553.734L750.039 547.564C746.092 543.617 746.092 537.217 750.039 533.269V533.269C753.987 529.322 760.387 529.322 764.334 533.269L770.503 539.439C774.451 543.386 774.451 549.786 770.503 553.734V553.734Z" fill="black"/>
<path d="M860.739 553.835C856.791 549.887 856.791 543.487 860.739 539.54L868.906 531.373C872.853 527.426 879.253 527.426 883.2 531.373V531.373C887.148 535.32 887.148 541.721 883.2 545.668L875.034 553.835C871.086 557.782 864.686 557.782 860.739 553.835V553.835Z" fill="black"/>
<path d="M750.625 663.948C746.677 660.001 746.677 653.601 750.625 649.654L758.622 641.656C762.569 637.709 768.969 637.709 772.917 641.656V641.656C776.864 645.604 776.864 652.004 772.917 655.951L764.92 663.948C760.972 667.896 754.572 667.896 750.625 663.948V663.948Z" fill="black"/>
<path d="M881.55 663.277C877.603 667.224 871.203 667.224 867.255 663.277L860.739 656.76C856.791 652.813 856.791 646.413 860.739 642.465V642.465C864.686 638.518 871.086 638.518 875.034 642.465L881.55 648.982C885.498 652.929 885.498 659.329 881.55 663.277V663.277Z" fill="black"/>
<path d="M812.742 709C807.16 709 802.634 704.474 802.634 698.892L802.634 670.582C802.634 664.999 807.16 660.474 812.742 660.474V660.474C818.325 660.474 822.85 664.999 822.85 670.582L822.85 698.892C822.85 704.474 818.325 709 812.742 709V709Z" fill="black"/>
<path d="M812.742 537.526C807.16 537.526 802.634 533 802.634 527.418L802.634 499.108C802.634 493.525 807.16 489 812.742 489V489C818.325 489 822.85 493.525 822.85 499.108L822.85 527.418C822.85 533 818.325 537.526 812.742 537.526V537.526Z" fill="black"/>
<path d="M814.16 539.144C846.555 539.144 872.821 565.412 872.821 597.822C872.821 630.232 846.555 656.5 814.16 656.5C781.766 656.5 755.5 630.232 755.5 597.822C755.5 565.412 781.766 539.144 814.16 539.144Z" fill="white" stroke="black" stroke-width="25"/>
<path fill-rule="evenodd" clip-rule="evenodd" d="M773 598C773 575.36 791.36 557 814 557C836.64 557 855 575.36 855 598C855 620.64 836.64 639 814 639C791.36 639 773 620.64 773 598ZM777.48 598C777.48 577.834 793.834 561.48 814 561.48C834.166 561.48 850.52 577.834 850.52 598C850.52 618.165 834.166 634.519 814 634.519C793.834 634.519 777.48 618.165 777.48 598Z" fill="#456C91"/>
<path d="M757 599C757 604.523 752.523 609 747 609L712 609C706.477 609 702 604.523 702 599V599C702 593.477 706.477 589 712 589L747 589C752.523 589 757 593.477 757 599V599Z" fill="black"/>
<path d="M922 599C922 604.523 917.523 609 912 609L877 609C871.477 609 867 604.523 867 599V599C867 593.477 871.477 589 877 589L912 589C917.523 589 922 593.477 922 599V599Z" fill="black"/>
<path d="M770.503 307.734C766.556 311.681 760.156 311.681 756.209 307.734L750.039 301.564C746.092 297.617 746.092 291.217 750.039 287.269V287.269C753.987 283.322 760.387 283.322 764.334 287.269L770.503 293.439C774.451 297.386 774.451 303.786 770.503 307.734V307.734Z" fill="black"/>
<path d="M860.739 307.835C856.791 303.887 856.791 297.487 860.739 293.54L868.906 285.373C872.853 281.426 879.253 281.426 883.2 285.373V285.373C887.148 289.32 887.148 295.721 883.2 299.668L875.034 307.835C871.086 311.782 864.686 311.782 860.739 307.835V307.835Z" fill="black"/>
<path d="M750.625 417.948C746.677 414.001 746.677 407.601 750.625 403.654L758.622 395.656C762.569 391.709 768.969 391.709 772.917 395.656V395.656C776.864 399.604 776.864 406.004 772.917 409.951L764.92 417.948C760.972 421.896 754.572 421.896 750.625 417.948V417.948Z" fill="black"/>
<path d="M881.55 417.277C877.603 421.224 871.203 421.224 867.255 417.277L860.739 410.76C856.791 406.813 856.791 400.413 860.739 396.465V396.465C864.686 392.518 871.086 392.518 875.034 396.465L881.55 402.982C885.498 406.929 885.498 413.329 881.55 417.277V417.277Z" fill="black"/>
<path d="M812.742 463C807.16 463 802.634 458.474 802.634 452.892L802.634 424.582C802.634 418.999 807.16 414.474 812.742 414.474V414.474C818.325 414.474 822.85 418.999 822.85 424.582L822.85 452.892C822.85 458.474 818.325 463 812.742 463V463Z" fill="black"/>
<path d="M812.742 291.526C807.16 291.526 802.634 287 802.634 281.418L802.634 253.108C802.634 247.525 807.16 243 812.742 243V243C818.325 243 822.85 247.525 822.85 253.108L822.85 281.418C822.85 287 818.325 291.526 812.742 291.526V291.526Z" fill="black"/>
<path d="M814.16 293.144C846.555 293.144 872.821 319.412 872.821 351.822C872.821 384.232 846.555 410.5 814.16 410.5C781.766 410.5 755.5 384.232 755.5 351.822C755.5 319.412 781.766 293.144 814.16 293.144Z" fill="white" stroke="black" stroke-width="25"/>
<path d="M823.919 312.235C845.883 317.711 859.249 339.958 853.773 361.926C848.297 383.882 826.05 397.25 804.086 391.772C782.119 386.299 768.751 364.052 774.227 342.092C779.703 320.126 801.953 306.76 823.919 312.236L823.919 312.235Z" fill="#F7931A"/>
<path d="M808.16 333.926C802.704 333.111 799.771 337.265 797.815 342.945L790.425 341.103L789.304 345.602L796.499 347.396C796.204 348.577 795.926 349.792 795.651 350.999L788.408 349.192L787.287 353.688L794.675 355.532C794.452 356.511 794.231 357.472 793.999 358.405L793.976 358.4L792.427 364.603L797.232 365.8C797.232 365.8 797.997 362.462 798.044 362.533C798.499 360.711 799.705 360.38 800.661 360.437L809.08 362.535C809.112 362.41 809.158 362.247 809.23 362.068L809.112 362.542L820.906 365.485C821.459 365.708 822.289 366.273 821.974 367.546C822.039 367.502 821.158 370.816 821.158 370.816L826.309 373.049L827.768 367.194C828.041 366.105 828.327 365.038 828.596 363.988L836.072 365.85L837.193 361.357L829.797 359.512C830.131 358.285 830.438 357.094 830.728 355.928L838.088 357.765L839.21 353.267L831.749 351.405C833.2 343.734 832.615 337.965 825.678 335.539C820.092 333.583 816.87 335.636 814.767 339.671C814.087 336.732 812.153 334.518 808.16 333.928L808.16 333.926ZM822.572 344.206C828.159 345.597 825.14 355.002 824.382 358.052L814.479 355.582C815.24 352.533 816.747 342.755 822.572 344.205L822.572 344.206ZM808.079 342.816C813.16 344.084 810.579 351.913 809.946 354.453L800.964 352.214C801.597 349.673 802.778 341.493 808.079 342.816V342.816Z" fill="white"/>
<path d="M757 353C757 358.523 752.523 363 747 363L712 363C706.477 363 702 358.523 702 353V353C702 347.477 706.477 343 712 343L747 343C752.523 343 757 347.477 757 353V353Z" fill="black"/>
<path d="M922 353C922 358.523 917.523 363 912 363L877 363C871.477 363 867 358.523 867 353V353C867 347.477 871.477 343 877 343L912 343C917.523 343 922 347.477 922 353V353Z" fill="black"/>
<path d="M2949.99 208.522C2949.99 208.522 2960.97 266.749 2953.28 271.144C2947.07 275.048 2941.19 279.458 2935.7 284.328L2955.48 311.794L3002.72 321.681L3047.76 279.933V238.185C3047.76 238.185 3034.58 217.311 3036.78 204.127C3038.98 190.943 2949.99 208.522 2949.99 208.522Z" fill="#FBBEBE"/>
<path opacity="0.1" d="M2949.99 208.522C2949.99 208.522 2960.97 266.749 2953.28 271.144C2947.07 275.048 2941.19 279.458 2935.7 284.328L2955.48 311.794L3002.72 321.681L3047.76 279.933V238.185C3047.76 238.185 3034.58 217.311 3036.78 204.127C3038.98 190.943 2949.99 208.522 2949.99 208.522Z" fill="black"/>
<path d="M2874.18 308.498L2867.59 311.793C2867.59 311.793 2853.31 317.287 2846.71 364.528C2840.12 411.769 2824.74 524.929 2829.14 528.225C2833.53 531.521 2831.33 553.494 2831.33 553.494L2864.29 381.008L2874.18 308.498Z" fill="#2F2E41"/>
<path d="M2952.3 40.3684C2951.3 42.4656 2950.95 44.9143 2950 47.0508C2945.72 56.7531 2933.53 54.582 2924.74 58.2519C2917.29 61.3599 2911.74 69.8944 2911.15 79.1162C2910.91 83.0314 2911.48 86.9801 2911.13 90.8843C2910.48 98.0962 2906.76 104.447 2905.44 111.532C2902.22 128.743 2909.72 155.922 2918.19 146.634C2920.87 143.705 2924.21 141.763 2927.09 139.127C2934.59 132.28 2938.4 121.392 2944.49 112.847C2945.26 111.593 2946.32 110.543 2947.58 109.784C2952.03 107.574 2955.99 113.489 2959.5 117.367C2961.29 119.321 2963.48 120.872 2965.91 121.916C2968.35 122.96 2970.98 123.474 2973.63 123.424C2976.28 123.373 2978.88 122.759 2981.28 121.623C2983.67 120.486 2985.8 118.853 2987.51 116.832C2988.58 115.271 2989.92 113.907 2991.45 112.801C2993.17 112.011 2995.1 111.822 2996.94 112.263C3005.61 113.789 3013.42 118.439 3018.89 125.334C3021.83 128.927 3024.28 133.154 3027.8 135.94C3031.32 138.725 3036.45 139.643 3039.62 136.332C3046 140.842 3048.38 150.414 3048.4 159.131C3048.41 167.849 3046.63 176.51 3047.06 185.212C3047.5 193.914 3050.92 203.307 3057.85 206.499C3058.94 198.575 3063.05 191.38 3069.33 186.417C3074.05 182.902 3079.79 181.16 3083.79 176.572C3091.78 167.385 3089.25 152.106 3089.56 139C3089.94 122.837 3095.54 107.384 3096.53 91.2552C3097.02 83.1951 3096.19 74.5535 3091.95 68.1754C3088.74 63.9254 3084.67 60.3994 3080 57.8272L3042.29 33.6346C3040.62 32.3972 3038.72 31.4965 3036.7 30.9824C3031.15 29.9863 3026.35 35.1926 3021.09 37.4868C3016.7 39.0433 3012.02 39.6109 3007.39 39.1488C2992.75 38.7522 2988.63 41.5952 2978.79 32.0574C2978.02 31.2837 2977.09 30.701 2976.05 30.3565C2975.02 30.012 2973.92 29.9154 2972.84 30.0744C2966.96 31.0073 2955.52 33.6495 2952.3 40.3684Z" fill="black"/>
<path d="M2973.06 1367.58L2996.13 1418.12L2951.08 1433.5L2928.01 1421.42L2933.51 1367.58H2973.06Z" fill="#FBBEBE"/>
<path d="M2952.18 1410.43C2952.18 1410.43 2915.93 1388.46 2909.34 1396.15C2902.75 1403.84 2850.01 1459.87 2850.01 1459.87C2850.01 1459.87 2768.71 1503.81 2831.33 1510.41C2893.96 1517 2996.13 1471.95 2996.13 1471.95C2996.13 1471.95 3001.62 1412.63 2997.23 1411.53C2992.83 1410.43 2974.16 1421.42 2965.37 1418.12C2960.51 1416.44 2956.03 1413.83 2952.18 1410.43V1410.43Z" fill="#2F2E41"/>
<path d="M3032.38 1421.42V1466.46L2973.06 1453.28L2986.24 1407.13L3032.38 1421.42Z" fill="#FBBEBE"/>
<path d="M2971.96 1436.8C2971.96 1436.8 3032.38 1426.91 3037.88 1456.57C3043.37 1486.24 3057.65 1530.18 3043.37 1541.17C3029.09 1552.15 2955.48 1566.44 2954.38 1547.76C2953.28 1529.08 2962.07 1492.83 2962.07 1492.83C2962.07 1492.83 2967.56 1464.26 2964.27 1456.57C2960.97 1448.88 2971.96 1436.8 2971.96 1436.8Z" fill="#2F2E41"/>
<path d="M2851.27 694.936C2851.27 694.936 2801.67 1009.43 2842.32 1163.24C2882.97 1317.05 2911.53 1408.23 2911.53 1408.23C2911.53 1408.23 2981.85 1388.46 2981.85 1375.27C2981.85 1362.09 2954.38 1166.53 2947.79 1147.86C2941.2 1129.18 2930.21 1122.59 2940.1 1107.21C2949.99 1091.83 2966.47 992.948 2966.47 992.948C2966.47 992.948 3002.72 1156.65 3004.92 1161.04C3007.11 1165.43 2981.85 1417.02 2981.85 1417.02C2981.85 1417.02 3054.37 1469.65 3058.75 1430.21C3059.85 1420.32 3108.19 1069.85 3108.19 1065.46C3108.19 1061.06 3127.96 724.881 3096.1 708.401C3064.24 691.922 2851.27 694.936 2851.27 694.936Z" fill="black"/>
<path d="M2992.83 230.494C3034.09 230.494 3067.54 197.047 3067.54 155.787C3067.54 114.527 3034.09 81.0796 2992.83 81.0796C2951.57 81.0796 2918.12 114.527 2918.12 155.787C2918.12 197.047 2951.57 230.494 2992.83 230.494Z" fill="#FBBEBE"/>
<path d="M2976.35 304.103V296.412L2954.38 260.157C2954.38 260.157 2932.41 262.355 2929.11 272.242C2925.82 282.13 2888.46 361.232 2888.46 361.232L2848.91 716.092C2848.91 716.092 2957.68 742.459 2974.16 723.782C2990.64 705.105 3053.26 298.61 3053.26 298.61L3062.05 249.171C3062.05 249.171 3046.96 227.198 3043.52 230.494C3040.07 233.79 2982.95 297.511 2982.95 297.511L2981.85 307.399L2976.35 304.103Z" fill="#6C63FF"/>
<path d="M2953.83 253.016C2953.83 253.016 2933.51 248.072 2926.91 260.157C2920.32 272.242 2920.32 276.637 2913.73 281.032C2907.14 285.426 2868.69 305.202 2866.49 312.892C2864.29 320.582 2817.05 563.381 2817.05 563.381C2817.05 563.381 2793.98 635.891 2804.97 685.33C2815.95 734.769 2808.26 744.656 2831.33 749.051C2854.4 753.446 2857.7 753.446 2857.7 746.854C2857.7 740.262 2887.36 517.239 2908.24 501.858C2929.11 486.477 2923.62 318.385 2923.62 318.385C2923.62 318.385 2953.28 282.13 2953.28 276.637C2953.28 271.144 2958.23 252.604 2953.83 253.016Z" fill="#2F2E41"/>
<path d="M3015.9 293.117C3018.97 293.627 3060.95 239.283 3064.24 241.481C3067.54 243.678 3084.02 272.242 3086.22 272.242C3088.41 272.242 3181.8 295.314 3189.49 338.161C3197.18 381.008 3135.65 517.239 3135.65 517.239C3135.65 517.239 3109.29 595.242 3114.78 629.3C3118.51 655.235 3117.76 681.618 3112.58 707.303C3110.39 716.092 3102.7 725.98 3104.89 730.374C3107.09 734.769 3056.55 724.881 3035.68 736.966C3014.8 749.051 2921.42 757.84 2926.91 744.656C2932.41 731.473 2935.7 679.837 2951.08 624.905C2966.46 569.973 3006.02 440.334 2999.42 431.545C2992.83 422.756 3009.31 292.018 3015.9 293.117Z" fill="#2F2E41"/>
<path d="M3176.3 324.977L3190.59 338.161C3190.59 338.161 3207.07 366.725 3204.87 379.909C3202.67 393.093 3251.01 591.946 3231.24 598.538C3211.46 605.129 3164.22 638.089 3158.73 646.878C3153.23 655.667 3140.05 671.048 3131.26 675.442C3122.47 679.837 3113.68 687.527 3108.19 683.133C3102.7 678.738 3090.61 588.65 3099.4 585.354C3108.19 582.058 3116.98 572.17 3125.77 572.17C3134.56 572.17 3140.05 563.381 3140.05 555.691C3140.05 548 3133.46 501.858 3133.46 501.858L3119.18 393.093L3176.3 324.977Z" fill="#2F2E41"/>
<path d="M2965.48 51.3003C2964.59 52.8857 2964.28 54.7368 2963.45 56.3519C2959.66 63.6864 2948.88 62.0452 2941.11 64.8194C2937.83 66.0488 2934.95 68.1818 2932.83 70.9725C2930.7 73.7632 2929.41 77.0979 2929.1 80.592C2928.88 83.5517 2929.39 86.5367 2929.08 89.4882C2928.5 94.94 2925.21 99.7411 2924.04 105.097C2921.2 118.107 2927.83 138.654 2935.32 131.632C2937.69 129.418 2940.64 127.951 2943.19 125.958C2949.82 120.781 2953.19 112.551 2958.57 106.091C2959.29 105.114 2960.23 104.321 2961.31 103.776C2965.24 102.105 2968.74 106.577 2971.85 109.508C2975.29 112.529 2979.73 114.162 2984.31 114.087C2988.89 114.012 2993.27 112.236 2996.61 109.104C2997.59 107.896 2998.77 106.865 3000.1 106.056C3001.64 105.457 3003.33 105.316 3004.95 105.65C3012.34 106.668 3019.18 110.149 3024.36 115.531C3026.69 118.474 3029.33 121.162 3032.24 123.548C3035.35 125.654 3039.89 126.348 3042.69 123.845C3048.33 127.254 3050.43 134.49 3050.45 141.08C3050.46 147.67 3048.88 154.217 3049.27 160.796C3049.65 167.375 3052.68 174.475 3058.81 176.888C3059.37 173.798 3060.56 170.857 3062.31 168.245C3064.05 165.634 3066.32 163.409 3068.96 161.707C3073.13 159.049 3078.21 157.733 3081.74 154.264C3088.81 147.32 3086.57 135.769 3086.84 125.862C3087.18 113.643 3092.13 101.961 3093.01 89.7688C3093.44 83.6758 3092.71 77.143 3088.96 72.3215C3086 69.0241 3082.41 66.3624 3078.39 64.4987L3045.05 46.2101C3043.53 45.2594 3041.86 44.5809 3040.11 44.2052C3035.2 43.4523 3030.96 47.3879 3026.3 49.1223C3022.38 50.3033 3018.27 50.7296 3014.19 50.3786C3001.24 50.0788 2997.6 52.228 2988.9 45.0178C2988.18 44.4182 2987.33 43.9755 2986.43 43.7175C2985.52 43.4595 2984.58 43.3918 2983.64 43.5189C2978.44 44.2237 2968.33 46.221 2965.48 51.3003Z" fill="black"/>
<rect y="1496" width="3305" height="82" rx="41" fill="black"/>
<path d="M1635.68 1567C1643.38 1553.67 1662.62 1553.67 1670.32 1567L1879.03 1928.5C1886.73 1941.83 1877.11 1958.5 1861.71 1958.5H1444.29C1428.89 1958.5 1419.27 1941.83 1426.97 1928.5L1635.68 1567Z" fill="black"/>
<circle cx="1655.5" cy="1537.5" r="88.5" fill="black"/>
</svg>
