<svg width="413" height="563" viewBox="0 0 413 563" fill="none" xmlns="http://www.w3.org/2000/svg">
<path d="M61.7848 487.08C55.8882 485.786 51.6471 481.313 52.5246 477.313C53.4021 473.313 59.1264 471.026 65.0229 472.32C68.3592 473.052 71.2158 474.792 72.8563 477.086C74.0541 478.764 76.3663 479.14 78.0448 477.899C79.7129 476.672 80.0867 474.309 78.8833 472.622C76.8483 469.77 73.7795 467.472 70.2004 466.045L71.0779 462.045C71.5248 460.008 70.2628 457.999 68.261 457.559C66.2592 457.12 64.2719 458.417 63.8251 460.454L62.9508 464.439C54.3814 463.998 46.8357 468.593 45.2717 475.722C43.4859 483.862 50.1713 492.267 60.1658 494.46C66.0623 495.753 70.3035 500.227 69.426 504.227C68.5484 508.227 62.8242 510.514 56.9276 509.22C53.5913 508.488 50.7348 506.748 49.0942 504.454C47.898 502.768 45.577 502.398 43.9057 503.64C42.2377 504.868 41.8639 507.23 43.0673 508.918C45.1006 511.777 48.1711 514.067 51.7486 515.502L50.8726 519.495C50.4258 521.532 51.6878 523.541 53.6895 523.98C55.6913 524.419 57.6786 523.123 58.1255 521.086L58.9998 517.101C67.5692 517.542 75.1148 512.947 76.6788 505.818C78.4646 497.678 71.7792 489.272 61.7848 487.08Z" fill="#E6E6E6" fill-opacity="0.3"/>
<path d="M334.785 474.08C328.888 472.786 324.647 468.313 325.525 464.313C326.402 460.313 332.126 458.026 338.023 459.32C341.359 460.052 344.216 461.792 345.856 464.086C347.054 465.764 349.366 466.14 351.045 464.899C352.713 463.672 353.087 461.309 351.883 459.622C349.848 456.77 346.779 454.472 343.2 453.045L344.078 449.045C344.525 447.008 343.263 444.999 341.261 444.559C339.259 444.12 337.272 445.417 336.825 447.454L335.951 451.439C327.381 450.998 319.836 455.593 318.272 462.722C316.486 470.862 323.171 479.267 333.166 481.46C339.062 482.753 343.304 487.227 342.426 491.227C341.548 495.227 335.824 497.514 329.928 496.22C326.591 495.488 323.735 493.748 322.094 491.454C320.898 489.768 318.577 489.398 316.906 490.64C315.238 491.868 314.864 494.23 316.067 495.918C318.101 498.777 321.171 501.067 324.749 502.502L323.873 506.495C323.426 508.532 324.688 510.541 326.69 510.98C328.691 511.419 330.679 510.123 331.125 508.086L332 504.101C340.569 504.542 348.115 499.947 349.679 492.818C351.465 484.678 344.779 476.272 334.785 474.08Z" fill="#E6E6E6" fill-opacity="0.3"/>
<g clip-path="url(#clip0)">
<path d="M81.5226 324.587C78.6872 327.694 75.0571 329.405 71.3006 329.405C65.1438 329.405 59.8129 324.901 57.304 318.391H74.4056C75.8885 318.391 77.0908 317.138 77.0908 315.594C77.0908 314.049 75.8885 312.797 74.4056 312.797H55.9394C55.8338 311.882 55.7761 310.949 55.7761 309.999C55.7761 308.928 55.8486 307.877 55.9837 306.852H74.4056C75.8885 306.852 77.0908 305.6 77.0908 304.055C77.0908 302.511 75.8885 301.258 74.4056 301.258H57.4468C60.0095 294.938 65.2553 290.594 71.3006 290.594C75.0571 290.594 78.6872 292.305 81.5226 295.411C82.5433 296.53 84.242 296.576 85.3185 295.512C86.3936 294.447 86.4362 292.677 85.4156 291.557C81.5567 287.329 76.5441 285 71.3013 285C62.3491 285 54.6967 291.773 51.7272 301.259H44.5313C43.0484 301.259 41.8461 302.511 41.8461 304.056C41.8461 305.601 43.0484 306.853 44.5313 306.853H50.5765C50.4677 307.885 50.4055 308.934 50.4055 310C50.4055 310.946 50.453 311.878 50.5398 312.797H44.5313C43.0484 312.797 41.8461 314.05 41.8461 315.594C41.8461 317.139 43.0484 318.392 44.5313 318.392H51.6206C54.5091 328.061 62.2388 335 71.3006 335C76.544 335 81.5554 332.671 85.4142 328.443C86.4355 327.323 86.3936 325.553 85.3178 324.488C84.2434 323.423 82.5433 323.468 81.5226 324.587Z" fill="#E6E6E6" fill-opacity="0.3"/>
</g>
<g clip-path="url(#clip1)">
<path d="M404.209 340.333L391.996 325.506C391.214 324.557 389.984 324.182 388.889 324.559L382.755 326.67L371.835 313.413C371.054 312.465 369.823 312.09 368.728 312.467L362.594 314.578L351.675 301.321C350.893 300.372 349.663 299.997 348.568 300.374L332.673 305.844C331.578 306.221 330.839 307.274 330.807 308.502L330.358 325.672L324.224 327.783C323.129 328.159 322.39 329.212 322.358 330.441L321.909 347.61L315.775 349.721C314.679 350.098 313.94 351.151 313.908 352.38L313.406 371.583C313.38 372.58 313.826 373.547 314.595 374.163C315.364 374.779 316.357 374.965 317.246 374.659L403.076 345.121C403.965 344.816 404.633 344.058 404.86 343.098C405.088 342.139 404.844 341.103 404.209 340.333ZM368.888 318.826L376.986 328.656L372.995 330.029L360.279 334.405L356.288 335.779L356.621 323.047L368.888 318.826V318.826ZM336.46 310.955L348.728 306.733L356.825 316.563L352.834 317.937L340.118 322.313L336.127 323.686L336.46 310.955ZM350.851 325.033L350.662 332.287L346.048 326.686L350.851 325.033ZM328.011 332.893L340.278 328.672L348.376 338.502L344.385 339.875L331.669 344.251L327.678 345.625L328.011 332.893ZM319.229 367.563L319.562 354.832L331.829 350.61L339.927 360.44L319.229 367.563ZM342.212 354.225L337.599 348.625L342.402 346.972L342.212 354.225ZM347.839 357.717L348.172 344.986L360.439 340.764L368.536 350.594L347.839 357.717ZM370.822 344.379L366.209 338.778L371.012 337.126L370.822 344.379ZM376.449 347.871L376.781 335.14L389.049 330.918L397.146 340.748L376.449 347.871Z" fill="#E6E6E6" fill-opacity="0.3"/>
</g>
<g clip-path="url(#clip2)">
<path d="M163.491 74.3814L150.74 59.6051C149.924 58.6597 148.615 58.3061 147.434 58.7125L140.822 60.9883L129.421 47.7771C128.605 46.8317 127.296 46.4781 126.116 46.8845L119.503 49.1602L108.103 35.949C107.287 35.0036 105.978 34.6501 104.797 35.0564L87.6618 40.9535C86.4812 41.3598 85.6668 42.4441 85.6056 43.6913L84.7499 61.1203L78.1374 63.396C76.9565 63.8024 76.1423 64.8866 76.0811 66.1339L75.2251 83.563L68.6121 85.8389C67.4313 86.2452 66.6171 87.3294 66.5559 88.5767L65.5987 108.071C65.5489 109.083 66.0048 110.054 66.8148 110.662C67.6251 111.271 68.6842 111.438 69.6425 111.108L162.173 79.2639C163.131 78.9341 163.863 78.1507 164.127 77.1723C164.392 76.1942 164.153 75.1484 163.491 74.3814ZM126.148 53.3324L134.602 63.1288L130.299 64.6095L116.591 69.3271L112.288 70.8079L112.923 57.8838L126.148 53.3324V53.3324ZM91.6041 46.056L104.829 41.5046L113.283 51.3008L108.98 52.7816L95.2721 57.4992L90.9695 58.9799L91.6041 46.056ZM106.703 60.0243L106.341 67.3882L101.525 61.8064L106.703 60.0243ZM82.0794 68.4984L95.3046 63.9471L103.758 73.7435L99.4557 75.2242L85.7477 79.9418L81.4451 81.4225L82.0794 68.4984ZM71.92 103.865L72.5546 90.9413L85.78 86.3899L94.2337 96.1861L71.92 103.865ZM96.8164 89.8308L91.9999 84.2491L97.1778 82.4672L96.8164 89.8308ZM102.764 93.2505L103.398 80.3267L116.623 75.7753L125.077 85.5715L102.764 93.2505ZM127.66 79.216L122.844 73.6344L128.022 71.8524L127.66 79.216ZM133.607 82.6359L134.242 69.712L147.467 65.1606L155.921 74.9568L133.607 82.6359Z" fill="#E6E6E6" fill-opacity="0.3"/>
</g>
<path d="M201.872 264.666C205.343 261.914 207.583 257.621 207.583 252.804C207.583 245.504 202.446 239.406 195.663 238.058V234.164C195.663 232.417 194.273 231 192.558 231C190.843 231 189.453 232.417 189.453 234.164V237.778H187.014H179.032V234.164C179.032 232.417 177.642 231 175.927 231C174.212 231 172.821 232.417 172.821 234.164V237.778H170.105C168.39 237.778 167 239.195 167 240.942C167 242.69 168.39 244.106 170.105 244.106H172.821V264.666V285.225H170.105C168.39 285.225 167 286.642 167 288.389C167 290.137 168.39 291.553 170.105 291.553H172.821V295.167C172.821 296.915 174.212 298.331 175.927 298.331C177.642 298.331 179.032 296.915 179.032 295.167V291.553H187.014H189.453V295.167C189.453 296.915 190.843 298.331 192.558 298.331C194.273 298.331 195.663 296.915 195.663 295.167V291.273C202.447 289.925 207.583 283.827 207.583 276.527C207.583 271.709 205.343 267.417 201.872 264.666ZM179.032 261.501V244.106H187.014H192.835C197.542 244.106 201.372 248.008 201.372 252.804C201.372 257.599 197.542 261.501 192.835 261.501H179.032V261.501ZM192.835 285.225H187.014H179.032V267.83H192.835C197.542 267.83 201.372 271.731 201.372 276.527C201.372 281.323 197.542 285.225 192.835 285.225Z" fill="#E6E6E6" fill-opacity="0.3"/>
<path d="M209.244 387.5C213.469 384.111 216.194 378.825 216.194 372.892C216.194 363.903 209.943 356.394 201.689 354.734V349.938C201.689 347.786 199.997 346.041 197.909 346.041C195.822 346.041 194.13 347.786 194.13 349.938V354.388H191.163H181.449V349.938C181.449 347.786 179.756 346.041 177.669 346.041C175.582 346.041 173.89 347.786 173.89 349.938V354.388H170.585C168.498 354.388 166.806 356.133 166.806 358.285C166.806 360.437 168.498 362.181 170.585 362.181H173.89V387.5V412.819H170.585C168.498 412.819 166.806 414.563 166.806 416.715C166.806 418.867 168.498 420.612 170.585 420.612H173.89V425.062C173.89 427.214 175.582 428.959 177.669 428.959C179.756 428.959 181.449 427.214 181.449 425.062V420.612H191.163H194.13V425.062C194.13 427.214 195.822 428.959 197.909 428.959C199.997 428.959 201.689 427.214 201.689 425.062V420.267C209.944 418.606 216.194 411.097 216.194 402.107C216.194 396.174 213.469 390.889 209.244 387.5ZM181.448 383.603V362.181H191.163H198.247C203.975 362.181 208.636 366.986 208.636 372.892C208.636 378.798 203.975 383.603 198.247 383.603H181.448V383.603ZM198.247 412.818H191.163H181.449V391.396H198.247C203.975 391.396 208.636 396.201 208.636 402.107C208.636 408.013 203.975 412.818 198.247 412.818Z" fill="#E6E6E6" fill-opacity="0.3"/>
<g clip-path="url(#clip3)">
<path d="M208.756 172.474C216.883 169.912 221.355 161.038 218.724 152.69C216.093 144.343 207.341 139.636 199.213 142.198C199.182 142.208 199.15 142.218 199.119 142.23L187.079 146.024C187.078 146.025 187.077 146.025 187.076 146.025C185.639 146.478 184.851 148.041 185.316 149.516L185.316 149.517L193.174 174.448L195.7 182.462L193.099 183.282C191.662 183.735 190.875 185.298 191.34 186.773C191.804 188.249 193.346 189.078 194.783 188.625L197.384 187.805L202.155 202.943C202.62 204.419 204.161 205.248 205.598 204.795C207.034 204.342 207.822 202.779 207.357 201.304L202.586 186.166L212.123 183.16C213.56 182.707 214.347 181.144 213.882 179.668C213.418 178.193 211.876 177.364 210.439 177.817L200.902 180.823L199.218 175.48L208.756 172.474ZM200.898 147.543C200.926 147.534 200.954 147.524 200.981 147.515C206.217 145.916 211.829 148.958 213.522 154.33C215.224 159.731 212.331 165.474 207.072 167.131L197.534 170.137L191.36 150.549L200.898 147.543Z" fill="#E6E6E6" fill-opacity="0.3"/>
</g>
<g clip-path="url(#clip4)">
<path d="M342.319 176.187L328.724 178.496L327.762 172.832L341.357 170.523C342.859 170.268 343.861 168.793 343.596 167.228C343.33 165.664 341.897 164.603 340.396 164.858L328.633 166.855L335.704 144.694C336.182 143.196 335.396 141.562 333.947 141.045C332.499 140.528 330.937 141.323 330.46 142.821L323.547 164.487L309.869 146.318C308.923 145.062 307.186 144.827 305.99 145.793C304.794 146.759 304.591 148.561 305.537 149.817L319.528 168.402L307.765 170.399C306.263 170.654 305.261 172.129 305.527 173.694C305.793 175.258 307.226 176.319 308.727 176.064L322.323 173.755L323.285 179.42L309.689 181.729C308.188 181.984 307.185 183.459 307.451 185.023C307.717 186.588 309.15 187.649 310.651 187.394L324.247 185.085L327.294 203.024C327.56 204.588 328.992 205.65 330.494 205.395C331.996 205.14 332.998 203.665 332.732 202.1L329.686 184.161L343.282 181.852C344.783 181.597 345.785 180.122 345.52 178.558C345.254 176.994 343.821 175.932 342.319 176.187Z" fill="#E6E6E6" fill-opacity="0.3"/>
</g>
<g clip-path="url(#clip5)">
<path d="M197.238 520.82L187.089 516.236L188.959 512.094L199.109 516.677C200.23 517.183 201.558 516.666 202.074 515.522C202.591 514.378 202.101 513.041 200.98 512.534L192.199 508.569L206.788 497.221C207.774 496.454 207.972 495.031 207.23 494.043C206.487 493.055 205.086 492.876 204.1 493.643L189.838 504.737L188.729 486.702C188.652 485.455 187.591 484.522 186.359 484.619C185.127 484.715 184.191 485.805 184.267 487.052L185.402 505.5L176.621 501.535C175.5 501.029 174.172 501.546 173.655 502.69C173.139 503.834 173.629 505.172 174.75 505.678L184.9 510.261L183.029 514.403L172.879 509.82C171.758 509.314 170.431 509.831 169.914 510.975C169.398 512.119 169.888 513.457 171.009 513.963L181.158 518.546L175.235 531.665C174.718 532.808 175.208 534.146 176.329 534.652C177.45 535.159 178.778 534.642 179.294 533.498L185.218 520.379L195.368 524.962C196.489 525.469 197.816 524.952 198.333 523.808C198.849 522.664 198.359 521.326 197.238 520.82Z" fill="#E6E6E6" fill-opacity="0.3"/>
</g>
<circle cx="297" cy="41" r="32.5" stroke="#E6E6E6" stroke-opacity="0.3" stroke-width="3"/>
<path d="M49.5585 197.424L47.5486 200.405C46.5921 201.836 47.0636 203.402 48.3162 204.148C49.4807 204.84 50.9762 204.469 51.7001 203.325C52.2526 202.451 52.2047 201.29 51.5806 200.436C51.5476 200.392 51.1233 199.757 49.5585 197.424V197.424Z" fill="#E6E6E6" fill-opacity="0.3"/>
<path d="M71.3789 188.754C72.382 188.754 73.1953 187.941 73.1953 186.938C73.1953 185.934 72.382 185.121 71.3789 185.121C66.2698 185.121 32.3434 185.121 26.8164 185.121C25.8133 185.121 25 185.934 25 186.938C25 187.941 25.8133 188.754 26.8164 188.754H28.3137C29.0873 192.065 30.8775 201.638 28.5513 211.523C28.4853 211.804 28.4534 212.087 28.4532 212.367H26.8164C25.8133 212.367 25 213.18 25 214.184C25 215.187 25.8133 216 26.8164 216H71.3789C72.382 216 73.1953 215.187 73.1953 214.184C73.1953 213.18 72.382 212.367 71.3789 212.367H69.742C69.7418 212.087 69.7099 211.804 69.6439 211.523C67.3175 201.638 69.1079 192.065 69.8816 188.754H71.3789ZM54.7704 205.267C53.0324 208.015 49.3865 209.014 46.4163 207.245C43.2942 205.39 42.487 201.282 44.5478 198.357C48.0123 193.219 47.715 193.659 47.7357 193.631C48.6512 192.351 50.5582 192.396 51.4187 193.676L54.5368 198.325C56.0111 200.37 56.1063 203.154 54.7704 205.267V205.267Z" fill="#E6E6E6" fill-opacity="0.3"/>
<path d="M50.9141 158.238V157.633C50.9141 155.63 49.2844 154 47.2812 154H40.2578C38.2547 154 36.625 155.63 36.625 157.633V158.238H50.9141Z" fill="#E6E6E6" fill-opacity="0.3"/>
<path d="M71.3789 161.871H26.8164C25.8133 161.871 25 162.684 25 163.688C25 164.691 25.8133 165.504 26.8164 165.504H28.5634C28.564 165.808 28.6016 166.114 28.68 166.417C29.4173 169.264 30.3039 174.629 29.1335 181.488H69.0618C67.8913 174.629 68.7779 169.264 69.5153 166.417C69.5937 166.114 69.6313 165.808 69.6319 165.504H71.3789C72.382 165.504 73.1953 164.691 73.1953 163.688C73.1953 162.684 72.382 161.871 71.3789 161.871V161.871Z" fill="#E6E6E6" fill-opacity="0.3"/>
<defs>
<clipPath id="clip0">
<rect width="48" height="50" fill="white" transform="translate(40 285)"/>
</clipPath>
<clipPath id="clip1">
<rect width="96.4351" height="103.238" fill="white" transform="translate(288 298.381) rotate(-18.9907)"/>
</clipPath>
<clipPath id="clip2">
<rect width="103.964" height="103.964" fill="white" transform="translate(40 34.3586) rotate(-18.9907)"/>
</clipPath>
<clipPath id="clip3">
<rect width="59.9994" height="61.621" fill="white" transform="translate(168 152.036) rotate(-17.4934)"/>
</clipPath>
<clipPath id="clip4">
<rect width="60.679" height="63.2073" fill="white" transform="translate(290 148.159) rotate(-9.63842)"/>
</clipPath>
<clipPath id="clip5">
<rect width="49" height="50" fill="white" transform="translate(174.577 479) rotate(24.302)"/>
</clipPath>
</defs>
</svg>
