<svg width="815" height="553" viewBox="0 0 815 553" fill="none" xmlns="http://www.w3.org/2000/svg">
<path d="M755.785 288.08C749.888 286.786 745.647 282.313 746.525 278.313C747.402 274.313 753.126 272.026 759.023 273.32C762.359 274.052 765.216 275.792 766.856 278.086C768.054 279.764 770.366 280.14 772.045 278.899C773.713 277.672 774.087 275.309 772.883 273.622C770.848 270.77 767.779 268.472 764.2 267.045L765.078 263.045C765.525 261.008 764.263 258.999 762.261 258.559C760.259 258.12 758.272 259.417 757.825 261.454L756.951 265.439C748.381 264.998 740.836 269.593 739.272 276.722C737.486 284.862 744.171 293.267 754.166 295.46C760.062 296.753 764.303 301.227 763.426 305.227C762.548 309.227 756.824 311.514 750.928 310.22C747.591 309.488 744.735 307.748 743.094 305.454C741.898 303.768 739.577 303.398 737.906 304.64C736.238 305.868 735.864 308.23 737.067 309.918C739.101 312.777 742.171 315.067 745.748 316.502L744.873 320.495C744.426 322.532 745.688 324.541 747.689 324.98C749.691 325.419 751.679 324.123 752.125 322.086L753 318.101C761.569 318.542 769.115 313.947 770.679 306.818C772.465 298.678 765.779 290.272 755.785 288.08Z" fill="#E6E6E6" fill-opacity="0.3"/>
<path d="M63.5226 318.587C60.6872 321.694 57.0571 323.405 53.3006 323.405C47.1438 323.405 41.8129 318.901 39.304 312.391H56.4056C57.8885 312.391 59.0908 311.138 59.0908 309.594C59.0908 308.049 57.8885 306.797 56.4056 306.797H37.9394C37.8338 305.882 37.7761 304.949 37.7761 303.999C37.7761 302.928 37.8486 301.877 37.9837 300.852H56.4056C57.8885 300.852 59.0908 299.6 59.0908 298.055C59.0908 296.511 57.8885 295.258 56.4056 295.258H39.4468C42.0095 288.938 47.2553 284.594 53.3006 284.594C57.0571 284.594 60.6872 286.305 63.5226 289.411C64.5433 290.53 66.242 290.576 67.3185 289.512C68.3936 288.447 68.4362 286.677 67.4156 285.557C63.5567 281.329 58.5441 279 53.3013 279C44.3491 279 36.6967 285.773 33.7272 295.259H26.5313C25.0484 295.259 23.8461 296.511 23.8461 298.056C23.8461 299.601 25.0484 300.853 26.5313 300.853H32.5765C32.4677 301.885 32.4055 302.934 32.4055 304C32.4055 304.946 32.453 305.878 32.5398 306.797H26.5313C25.0484 306.797 23.8461 308.05 23.8461 309.594C23.8461 311.139 25.0484 312.392 26.5313 312.392H33.6206C36.5091 322.061 44.2388 329 53.3006 329C58.544 329 63.5554 326.671 67.4142 322.443C68.4355 321.323 68.3936 319.553 67.3178 318.488C66.2434 317.423 64.5433 317.468 63.5226 318.587Z" fill="#E6E6E6" fill-opacity="0.3"/>
<g clip-path="url(#clip0)">
<path d="M141.214 399.541L131.279 388.028C130.644 387.292 129.624 387.016 128.704 387.333L123.552 389.106L114.669 378.813C114.034 378.077 113.014 377.801 112.094 378.118L106.942 379.891L98.0598 369.598C97.4242 368.861 96.4042 368.586 95.4844 368.902L82.134 373.497C81.2142 373.813 80.5797 374.658 80.5319 375.63L79.8653 389.209L74.7134 390.982C73.7934 391.299 73.159 392.143 73.1113 393.115L72.4444 406.694L67.2921 408.468C66.3721 408.784 65.7378 409.629 65.6901 410.601L64.9443 425.789C64.9055 426.577 65.2607 427.334 65.8918 427.808C66.5231 428.282 67.3482 428.412 68.0949 428.155L140.187 403.345C140.933 403.088 141.504 402.478 141.709 401.715C141.915 400.953 141.73 400.139 141.214 399.541ZM112.119 383.141L118.706 390.774L115.353 391.927L104.673 395.603L101.321 396.757L101.815 386.687L112.119 383.141V383.141ZM85.2055 377.472L95.5096 373.926L102.096 381.559L98.7436 382.712L88.0633 386.388L84.7111 387.541L85.2055 377.472ZM96.9693 388.355L96.6876 394.092L92.9349 389.744L96.9693 388.355ZM77.7847 394.957L88.0886 391.411L94.675 399.044L91.3228 400.198L80.6426 403.873L77.2904 405.027L77.7847 394.957ZM69.8693 422.512L70.3638 412.443L80.6679 408.897L87.2542 416.529L69.8693 422.512ZM89.2665 411.578L85.5139 407.229L89.5481 405.841L89.2665 411.578ZM93.9 414.242L94.3943 404.173L104.698 400.627L111.285 408.259L93.9 414.242ZM113.297 403.308L109.545 398.959L113.579 397.571L113.297 403.308ZM117.931 405.972L118.425 395.903L128.729 392.357L135.315 399.989L117.931 405.972Z" fill="#E6E6E6" fill-opacity="0.3"/>
</g>
<g clip-path="url(#clip1)">
<path d="M135.577 67.6481C135.027 67.8741 136.836 67.8599 104.12 66.1709C103.353 66.1309 104.677 67.0026 79.1255 46.8411C79.1236 46.8404 79.1224 46.8377 79.1204 46.837C78.3226 46.2122 78.3623 45.0359 78.8667 44.4895C78.9871 44.178 78.6029 44.5312 120.413 18.9423C121.356 18.3696 122.574 18.8262 122.891 19.8721C136.943 66.7359 136.792 65.8503 136.667 66.1728C136.674 66.7593 136.137 67.4782 135.577 67.6481V67.6481Z" fill="#E6E6E6" fill-opacity="0.3"/>
<path d="M82.1313 118.099L67.3885 75.0543C66.8495 73.4801 68.7231 72.1517 70.0288 73.1821L93.6602 91.8289L123.895 93.3897C125.566 93.4757 126.069 95.6955 124.603 96.5178L84.5329 119C83.6177 119.514 82.4676 119.081 82.1313 118.099V118.099Z" fill="#E6E6E6" fill-opacity="0.3"/>
<path d="M126.272 90.0471C93.2651 88.3433 95.3665 88.4898 95.0034 88.3536C94.6228 88.2109 96.2193 89.4145 70.5111 69.1291C69.238 68.1201 70.0358 66.0588 71.6667 66.1394L79.9783 66.5684C80.3693 66.5885 79.284 65.8247 97.5865 80.2665C97.8471 80.472 98.1818 80.6036 98.534 80.6219L120.457 81.7538C120.832 81.7731 120.364 81.484 127.427 87.0573C128.7 88.0665 127.902 90.1277 126.272 90.0471V90.0471Z" fill="#E6E6E6" fill-opacity="0.3"/>
<path d="M130.574 78.9148C97.5679 77.2109 99.6693 77.3575 99.3062 77.2212C98.9256 77.0785 100.522 78.2822 74.8139 57.9967C73.5408 56.9877 74.3387 54.9262 75.9695 55.007C84.9878 55.4725 84.458 55.3796 84.7558 55.6147C103.167 70.1426 101.972 69.2481 102.335 69.3844C102.698 69.5204 101.194 69.4052 124.759 70.6215C125.135 70.6409 124.671 70.355 131.73 75.925C133.003 76.9343 132.205 78.9956 130.574 78.9148V78.9148Z" fill="#E6E6E6" fill-opacity="0.3"/>
</g>
<g clip-path="url(#clip2)">
<path d="M676.057 374.35C675.723 374.669 677.027 374.157 652.893 381.99C652.327 382.173 653.528 382.451 629.413 374.624C629.411 374.624 629.41 374.622 629.408 374.622C628.656 374.381 628.356 373.5 628.568 372.955C628.568 372.691 628.389 373.059 651.475 342.514C651.996 341.829 653.005 341.829 653.527 342.514C676.79 373.295 676.433 372.682 676.433 372.955C676.602 373.387 676.414 374.068 676.057 374.35V374.35Z" fill="#E6E6E6" fill-opacity="0.3"/>
<path d="M651.506 426.525L628.811 398.762C627.981 397.746 628.965 396.243 630.197 396.643L652.501 403.882L674.804 396.643C676.037 396.243 677.021 397.746 676.191 398.762L653.495 426.525C652.977 427.159 652.024 427.158 651.506 426.525V426.525Z" fill="#E6E6E6" fill-opacity="0.3"/>
<path d="M675.589 393.51C651.241 401.412 652.802 400.937 652.501 400.937C652.186 400.937 653.677 401.385 629.413 393.51C628.21 393.116 628.211 391.369 629.413 390.976L635.544 388.986C635.833 388.893 634.834 388.629 652.108 394.235C652.354 394.315 652.633 394.319 652.893 394.235L669.065 388.986C669.342 388.896 668.922 388.813 675.588 390.976C676.792 391.37 676.791 393.117 675.589 393.51V393.51Z" fill="#E6E6E6" fill-opacity="0.3"/>
<path d="M675.589 384.077C651.241 391.979 652.802 391.504 652.501 391.504C652.186 391.504 653.677 391.952 629.413 384.077C628.21 383.683 628.211 381.936 629.413 381.543C636.066 379.384 635.656 379.462 635.937 379.554C653.314 385.194 652.2 384.863 652.501 384.863C652.801 384.863 651.681 385.196 669.064 379.554C669.342 379.463 668.926 379.381 675.589 381.543C676.792 381.937 676.791 383.684 675.589 384.077V384.077Z" fill="#E6E6E6" fill-opacity="0.3"/>
</g>
<path d="M150.872 233.666C154.343 230.914 156.583 226.621 156.583 221.804C156.583 214.504 151.446 208.406 144.663 207.058V203.164C144.663 201.417 143.273 200 141.558 200C139.843 200 138.453 201.417 138.453 203.164V206.778H136.014H128.032V203.164C128.032 201.417 126.642 200 124.927 200C123.212 200 121.821 201.417 121.821 203.164V206.778H119.105C117.39 206.778 116 208.195 116 209.942C116 211.69 117.39 213.106 119.105 213.106H121.821V233.666V254.225H119.105C117.39 254.225 116 255.642 116 257.389C116 259.137 117.39 260.553 119.105 260.553H121.821V264.167C121.821 265.915 123.212 267.331 124.927 267.331C126.642 267.331 128.032 265.915 128.032 264.167V260.553H136.014H138.453V264.167C138.453 265.915 139.843 267.331 141.558 267.331C143.273 267.331 144.663 265.915 144.663 264.167V260.273C151.447 258.925 156.583 252.827 156.583 245.527C156.583 240.709 154.343 236.417 150.872 233.666ZM128.032 230.501V213.106H136.014H141.835C146.542 213.106 150.372 217.008 150.372 221.804C150.372 226.599 146.542 230.501 141.835 230.501H128.032V230.501ZM141.835 254.225H136.014H128.032V236.83H141.835C146.542 236.83 150.372 240.731 150.372 245.527C150.372 250.323 146.542 254.225 141.835 254.225Z" fill="#E6E6E6" fill-opacity="0.3"/>
<path d="M584.655 505.5C587.668 503.08 589.612 499.304 589.612 495.066C589.612 488.645 585.153 483.281 579.266 482.095V478.67C579.266 477.133 578.06 475.887 576.571 475.887C575.083 475.887 573.876 477.133 573.876 478.67V481.849H571.76H564.832V478.67C564.832 477.133 563.625 475.887 562.136 475.887C560.648 475.887 559.441 477.133 559.441 478.67V481.849H557.084C555.595 481.849 554.389 483.095 554.389 484.632C554.389 486.169 555.595 487.415 557.084 487.415H559.441V505.5V523.585H557.084C555.595 523.585 554.389 524.831 554.389 526.368C554.389 527.905 555.595 529.151 557.084 529.151H559.441V532.33C559.441 533.867 560.648 535.113 562.136 535.113C563.625 535.113 564.832 533.867 564.832 532.33V529.151H571.76H573.876V532.33C573.876 533.867 575.083 535.113 576.571 535.113C578.06 535.113 579.266 533.867 579.266 532.33V528.905C585.154 527.719 589.612 522.355 589.612 515.934C589.612 511.696 587.668 507.92 584.655 505.5ZM564.831 502.717V487.415H571.759H576.812C580.897 487.415 584.221 490.847 584.221 495.066C584.221 499.284 580.897 502.717 576.812 502.717H564.831V502.717ZM576.812 523.585H571.76H564.832V508.283H576.812C580.897 508.283 584.221 511.715 584.221 515.934C584.221 520.152 580.897 523.585 576.812 523.585Z" fill="#E6E6E6" fill-opacity="0.3"/>
<g clip-path="url(#clip3)">
<path d="M658.756 222.474C666.883 219.912 671.355 211.038 668.724 202.69C666.093 194.343 657.341 189.636 649.213 192.198C649.182 192.208 649.15 192.218 649.119 192.23L637.079 196.024C637.078 196.025 637.077 196.025 637.076 196.025C635.639 196.478 634.851 198.041 635.316 199.516L635.316 199.517L643.174 224.448L645.7 232.462L643.099 233.282C641.662 233.735 640.875 235.298 641.34 236.773C641.805 238.249 643.346 239.078 644.783 238.625L647.384 237.805L652.155 252.943C652.62 254.419 654.161 255.248 655.598 254.795C657.034 254.342 657.822 252.779 657.357 251.304L652.586 236.166L662.123 233.16C663.56 232.707 664.347 231.144 663.883 229.668C663.418 228.193 661.876 227.364 660.439 227.817L650.902 230.823L649.218 225.48L658.756 222.474ZM650.898 197.543C650.926 197.534 650.954 197.524 650.981 197.515C656.217 195.916 661.829 198.958 663.522 204.33C665.224 209.731 662.331 215.474 657.072 217.131L647.534 220.137L641.36 200.549L650.898 197.543Z" fill="#E6E6E6" fill-opacity="0.3"/>
</g>
<g clip-path="url(#clip4)">
<path d="M753.261 157.378L739.665 159.687L738.703 154.023L752.299 151.714C753.801 151.459 754.803 149.984 754.537 148.419C754.272 146.855 752.839 145.793 751.337 146.048L739.574 148.046L746.646 125.885C747.124 124.386 746.337 122.753 744.889 122.236C743.441 121.719 741.879 122.514 741.401 124.012L734.488 145.678L720.811 127.509C719.865 126.253 718.127 126.018 716.932 126.984C715.736 127.95 715.532 129.752 716.478 131.008L730.469 149.593L718.707 151.59C717.205 151.845 716.203 153.32 716.469 154.884C716.734 156.449 718.167 157.51 719.669 157.255L733.265 154.946L734.227 160.611L720.631 162.92C719.129 163.175 718.127 164.65 718.393 166.214C718.659 167.779 720.091 168.84 721.593 168.585L735.189 166.276L738.236 184.215C738.501 185.779 739.934 186.841 741.436 186.586C742.937 186.331 743.94 184.856 743.674 183.291L740.627 165.352L754.223 163.043C755.725 162.788 756.727 161.313 756.462 159.749C756.196 158.185 754.763 157.123 753.261 157.378Z" fill="#E6E6E6" fill-opacity="0.3"/>
</g>
<g clip-path="url(#clip5)">
<path d="M179.238 514.82L169.089 510.236L170.959 506.094L181.109 510.677C182.23 511.183 183.558 510.666 184.074 509.522C184.591 508.378 184.101 507.041 182.98 506.534L174.199 502.569L188.788 491.221C189.774 490.454 189.972 489.031 189.23 488.043C188.487 487.055 187.086 486.876 186.1 487.643L171.837 498.737L170.729 480.702C170.652 479.455 169.591 478.522 168.359 478.619C167.127 478.715 166.191 479.805 166.267 481.052L167.401 499.5L158.621 495.535C157.5 495.029 156.172 495.546 155.655 496.69C155.139 497.834 155.629 499.172 156.75 499.678L166.899 504.261L165.029 508.403L154.879 503.82C153.758 503.314 152.431 503.831 151.914 504.975C151.398 506.119 151.888 507.457 153.009 507.963L163.158 512.546L157.234 525.665C156.718 526.808 157.208 528.146 158.329 528.652C159.45 529.159 160.778 528.642 161.294 527.498L167.218 514.379L177.368 518.962C178.489 519.469 179.816 518.952 180.333 517.808C180.849 516.664 180.359 515.326 179.238 514.82Z" fill="#E6E6E6" fill-opacity="0.3"/>
</g>
<circle cx="667" cy="62" r="32.5" stroke="#E6E6E6" stroke-opacity="0.3" stroke-width="3"/>
<path d="M31.5585 191.424L29.5486 194.405C28.5921 195.836 29.0636 197.402 30.3162 198.148C31.4807 198.84 32.9762 198.469 33.7001 197.325C34.2526 196.451 34.2047 195.29 33.5806 194.436C33.5476 194.392 33.1233 193.757 31.5585 191.424V191.424Z" fill="#E6E6E6" fill-opacity="0.3"/>
<path d="M53.3789 182.754C54.382 182.754 55.1953 181.941 55.1953 180.938C55.1953 179.934 54.382 179.121 53.3789 179.121C48.2698 179.121 14.3434 179.121 8.81641 179.121C7.81327 179.121 7 179.934 7 180.938C7 181.941 7.81327 182.754 8.81641 182.754H10.3137C11.0873 186.065 12.8775 195.638 10.5513 205.523C10.4853 205.804 10.4534 206.087 10.4532 206.367H8.81641C7.81327 206.367 7 207.18 7 208.184C7 209.187 7.81327 210 8.81641 210H53.3789C54.382 210 55.1953 209.187 55.1953 208.184C55.1953 207.18 54.382 206.367 53.3789 206.367H51.742C51.7418 206.087 51.7099 205.804 51.6439 205.523C49.3175 195.638 51.1079 186.065 51.8816 182.754H53.3789ZM36.7704 199.267C35.0324 202.015 31.3865 203.014 28.4163 201.245C25.2942 199.39 24.487 195.282 26.5478 192.357C30.0123 187.219 29.715 187.659 29.7357 187.631C30.6512 186.351 32.5582 186.396 33.4187 187.676L36.5368 192.325C38.0111 194.37 38.1063 197.154 36.7704 199.267V199.267Z" fill="#E6E6E6" fill-opacity="0.3"/>
<path d="M32.9141 152.238V151.633C32.9141 149.63 31.2844 148 29.2812 148H22.2578C20.2547 148 18.625 149.63 18.625 151.633V152.238H32.9141Z" fill="#E6E6E6" fill-opacity="0.3"/>
<path d="M53.3789 155.871H8.81641C7.81327 155.871 7 156.684 7 157.688C7 158.691 7.81327 159.504 8.81641 159.504H10.5634C10.564 159.808 10.6016 160.114 10.68 160.417C11.4173 163.264 12.3039 168.629 11.1335 175.488H51.0618C49.8913 168.629 50.7779 163.264 51.5153 160.417C51.5937 160.114 51.6313 159.808 51.6319 159.504H53.3789C54.382 159.504 55.1953 158.691 55.1953 157.688C55.1953 156.684 54.382 155.871 53.3789 155.871V155.871Z" fill="#E6E6E6" fill-opacity="0.3"/>
<defs>
<clipPath id="clip0">
<rect width="81" height="81" fill="white" transform="translate(45 368.359) rotate(-18.9907)"/>
</clipPath>
<clipPath id="clip1">
<rect width="107.049" height="107.543" fill="white" transform="matrix(0.936286 0.351239 -0.360521 0.932751 71.7714 0)"/>
</clipPath>
<clipPath id="clip2">
<rect width="83" height="85" fill="white" transform="translate(611 342)"/>
</clipPath>
<clipPath id="clip3">
<rect width="59.9994" height="61.621" fill="white" transform="translate(618 202.036) rotate(-17.4934)"/>
</clipPath>
<clipPath id="clip4">
<rect width="60.679" height="63.2073" fill="white" transform="translate(700.942 129.35) rotate(-9.63842)"/>
</clipPath>
<clipPath id="clip5">
<rect width="49" height="50" fill="white" transform="translate(156.577 473) rotate(24.302)"/>
</clipPath>
</defs>
</svg>
