<svg width="793" height="567" viewBox="0 0 793 567" fill="none" xmlns="http://www.w3.org/2000/svg">
<path d="M122.785 405.08C116.888 403.786 112.647 399.313 113.525 395.313C114.402 391.313 120.126 389.026 126.023 390.32C129.359 391.052 132.216 392.792 133.856 395.086C135.054 396.764 137.366 397.14 139.045 395.899C140.713 394.672 141.087 392.309 139.883 390.622C137.848 387.77 134.779 385.472 131.2 384.045L132.078 380.045C132.525 378.008 131.263 375.999 129.261 375.559C127.259 375.12 125.272 376.417 124.825 378.454L123.951 382.439C115.381 381.998 107.836 386.593 106.272 393.722C104.486 401.862 111.171 410.267 121.166 412.46C127.062 413.753 131.303 418.227 130.426 422.227C129.548 426.227 123.824 428.514 117.928 427.22C114.591 426.488 111.735 424.748 110.094 422.454C108.898 420.768 106.577 420.398 104.906 421.64C103.238 422.868 102.864 425.23 104.067 426.918C106.101 429.777 109.171 432.067 112.748 433.502L111.873 437.495C111.426 439.532 112.688 441.541 114.689 441.98C116.691 442.419 118.679 441.123 119.125 439.086L120 435.101C128.569 435.542 136.115 430.947 137.679 423.818C139.465 415.678 132.779 407.272 122.785 405.08Z" fill="#E6E6E6" fill-opacity="0.3"/>
<path d="M701.785 491.08C695.888 489.786 691.647 485.313 692.525 481.313C693.402 477.313 699.126 475.026 705.023 476.32C708.359 477.052 711.216 478.792 712.856 481.086C714.054 482.764 716.366 483.14 718.045 481.899C719.713 480.672 720.087 478.309 718.883 476.622C716.848 473.77 713.779 471.472 710.2 470.045L711.078 466.045C711.525 464.008 710.263 461.999 708.261 461.559C706.259 461.12 704.272 462.417 703.825 464.454L702.951 468.439C694.381 467.998 686.836 472.593 685.272 479.722C683.486 487.862 690.171 496.267 700.166 498.46C706.062 499.753 710.303 504.227 709.426 508.227C708.548 512.227 702.824 514.514 696.928 513.22C693.591 512.488 690.735 510.748 689.094 508.454C687.898 506.768 685.577 506.398 683.906 507.64C682.238 508.868 681.864 511.23 683.067 512.918C685.101 515.777 688.171 518.067 691.748 519.502L690.873 523.495C690.426 525.532 691.688 527.541 693.689 527.98C695.691 528.419 697.679 527.123 698.125 525.086L699 521.101C707.569 521.542 715.115 516.947 716.679 509.818C718.465 501.678 711.779 493.272 701.785 491.08Z" fill="#E6E6E6" fill-opacity="0.3"/>
<g clip-path="url(#clip0)">
<path d="M63.5226 324.587C60.6872 327.694 57.0571 329.405 53.3006 329.405C47.1438 329.405 41.8129 324.901 39.304 318.391H56.4056C57.8885 318.391 59.0908 317.138 59.0908 315.594C59.0908 314.049 57.8885 312.797 56.4056 312.797H37.9394C37.8338 311.882 37.7761 310.949 37.7761 309.999C37.7761 308.928 37.8486 307.877 37.9837 306.852H56.4056C57.8885 306.852 59.0908 305.6 59.0908 304.055C59.0908 302.511 57.8885 301.258 56.4056 301.258H39.4468C42.0095 294.938 47.2553 290.594 53.3006 290.594C57.0571 290.594 60.6872 292.305 63.5226 295.411C64.5433 296.53 66.242 296.576 67.3185 295.512C68.3936 294.447 68.4362 292.677 67.4156 291.557C63.5567 287.329 58.5441 285 53.3013 285C44.3491 285 36.6967 291.773 33.7272 301.259H26.5313C25.0484 301.259 23.8461 302.511 23.8461 304.056C23.8461 305.601 25.0484 306.853 26.5313 306.853H32.5765C32.4677 307.885 32.4055 308.934 32.4055 310C32.4055 310.946 32.453 311.878 32.5398 312.797H26.5313C25.0484 312.797 23.8461 314.05 23.8461 315.594C23.8461 317.139 25.0484 318.392 26.5313 318.392H33.6206C36.5091 328.061 44.2388 335 53.3006 335C58.544 335 63.5554 332.671 67.4142 328.443C68.4355 327.323 68.3936 325.553 67.3178 324.488C66.2434 323.423 64.5433 323.468 63.5226 324.587Z" fill="#E6E6E6" fill-opacity="0.3"/>
</g>
<g clip-path="url(#clip1)">
<path d="M783.614 353.333L771.401 338.506C770.619 337.557 769.389 337.182 768.294 337.559L762.16 339.67L751.24 326.413C750.459 325.465 749.228 325.09 748.133 325.467L741.999 327.578L731.08 314.321C730.298 313.372 729.068 312.997 727.973 313.374L712.078 318.844C710.983 319.221 710.244 320.274 710.212 321.502L709.763 338.672L703.629 340.783C702.534 341.16 701.795 342.212 701.763 343.441L701.314 360.61L695.18 362.721C694.084 363.098 693.345 364.151 693.313 365.38L692.811 384.583C692.785 385.58 693.231 386.547 694 387.163C694.769 387.779 695.762 387.965 696.651 387.659L782.481 358.122C783.37 357.816 784.038 357.058 784.265 356.098C784.493 355.139 784.249 354.103 783.614 353.333ZM748.293 331.826L756.391 341.656L752.4 343.029L739.684 347.405L735.693 348.779L736.026 336.047L748.293 331.826V331.826ZM715.865 323.955L728.133 319.733L736.23 329.563L732.239 330.937L719.523 335.313L715.532 336.686L715.865 323.955ZM730.256 338.033L730.067 345.287L725.453 339.686L730.256 338.033ZM707.416 345.893L719.683 341.672L727.781 351.502L723.79 352.875L711.074 357.251L707.083 358.625L707.416 345.893ZM698.634 380.563L698.967 367.832L711.234 363.61L719.332 373.44L698.634 380.563ZM721.617 367.225L717.004 361.625L721.807 359.972L721.617 367.225ZM727.244 370.717L727.576 357.986L739.844 353.764L747.941 363.594L727.244 370.717ZM750.227 357.379L745.614 351.778L750.417 350.126L750.227 357.379ZM755.854 360.871L756.186 348.14L768.454 343.918L776.551 353.748L755.854 360.871Z" fill="#E6E6E6" fill-opacity="0.3"/>
</g>
<g clip-path="url(#clip2)">
<path d="M145.491 74.3813L132.74 59.605C131.924 58.6596 130.615 58.3061 129.434 58.7125L122.822 60.9882L111.421 47.777C110.605 46.8316 109.296 46.4781 108.116 46.8845L101.503 49.1602L90.1028 35.949C89.2869 35.0035 87.9778 34.6501 86.7971 35.0564L69.6618 40.9535C68.4812 41.3598 67.6668 42.444 67.6056 43.6913L66.7499 61.1203L60.1374 63.396C58.9565 63.8024 58.1423 64.8866 58.0811 66.1338L57.2251 83.563L50.6121 85.8388C49.4313 86.2452 48.6171 87.3294 48.5559 88.5767L47.5987 108.071C47.5489 109.083 48.0048 110.054 48.8148 110.662C49.6251 111.271 50.6842 111.438 51.6425 111.108L144.173 79.2639C145.131 78.9341 145.863 78.1507 146.127 77.1722C146.392 76.1941 146.153 75.1484 145.491 74.3813ZM108.148 53.3324L116.602 63.1287L112.299 64.6095L98.591 69.3271L94.2884 70.8078L94.923 57.8837L108.148 53.3324V53.3324ZM73.6041 46.056L86.8295 41.5045L95.283 51.3008L90.9804 52.7815L77.2721 57.4992L72.9695 58.9799L73.6041 46.056ZM88.703 60.0243L88.3415 67.3882L83.5249 61.8063L88.703 60.0243ZM64.0794 68.4984L77.3046 63.947L85.7583 73.7434L81.4557 75.2242L67.7477 79.9417L63.4451 81.4224L64.0794 68.4984ZM53.92 103.865L54.5546 90.9413L67.78 86.3898L76.2337 96.1861L53.92 103.865ZM78.8164 89.8307L73.9999 84.2491L79.1778 82.4671L78.8164 89.8307ZM84.7636 93.2505L85.398 80.3267L98.6234 75.7752L107.077 85.5715L84.7636 93.2505ZM109.66 79.216L104.844 73.6343L110.022 71.8524L109.66 79.216ZM115.607 82.6359L116.242 69.712L129.467 65.1605L137.921 74.9567L115.607 82.6359Z" fill="#E6E6E6" fill-opacity="0.3"/>
</g>
<path d="M150.872 239.666C154.343 236.914 156.583 232.621 156.583 227.804C156.583 220.504 151.446 214.406 144.663 213.058V209.164C144.663 207.417 143.273 206 141.558 206C139.843 206 138.453 207.417 138.453 209.164V212.778H136.014H128.032V209.164C128.032 207.417 126.642 206 124.927 206C123.212 206 121.821 207.417 121.821 209.164V212.778H119.105C117.39 212.778 116 214.195 116 215.942C116 217.69 117.39 219.106 119.105 219.106H121.821V239.666V260.225H119.105C117.39 260.225 116 261.642 116 263.389C116 265.137 117.39 266.553 119.105 266.553H121.821V270.167C121.821 271.915 123.212 273.331 124.927 273.331C126.642 273.331 128.032 271.915 128.032 270.167V266.553H136.014H138.453V270.167C138.453 271.915 139.843 273.331 141.558 273.331C143.273 273.331 144.663 271.915 144.663 270.167V266.273C151.447 264.925 156.583 258.827 156.583 251.527C156.583 246.709 154.343 242.417 150.872 239.666ZM128.032 236.501V219.106H136.014H141.835C146.542 219.106 150.372 223.008 150.372 227.804C150.372 232.599 146.542 236.501 141.835 236.501H128.032V236.501ZM141.835 260.225H136.014H128.032V242.83H141.835C146.542 242.83 150.372 246.731 150.372 251.527C150.372 256.323 146.542 260.225 141.835 260.225Z" fill="#E6E6E6" fill-opacity="0.3"/>
<path d="M606.244 416.5C610.469 413.111 613.194 407.825 613.194 401.892C613.194 392.903 606.943 385.394 598.689 383.734V378.938C598.689 376.786 596.997 375.041 594.909 375.041C592.822 375.041 591.13 376.786 591.13 378.938V383.388H588.163H578.449V378.938C578.449 376.786 576.756 375.041 574.669 375.041C572.582 375.041 570.89 376.786 570.89 378.938V383.388H567.585C565.498 383.388 563.806 385.133 563.806 387.285C563.806 389.437 565.498 391.181 567.585 391.181H570.89V416.5V441.819H567.585C565.498 441.819 563.806 443.563 563.806 445.715C563.806 447.867 565.498 449.612 567.585 449.612H570.89V454.062C570.89 456.214 572.582 457.959 574.669 457.959C576.756 457.959 578.449 456.214 578.449 454.062V449.612H588.163H591.13V454.062C591.13 456.214 592.822 457.959 594.909 457.959C596.997 457.959 598.689 456.214 598.689 454.062V449.267C606.944 447.606 613.194 440.097 613.194 431.107C613.194 425.174 610.469 419.889 606.244 416.5ZM578.448 412.603V391.181H588.163H595.247C600.975 391.181 605.636 395.986 605.636 401.892C605.636 407.798 600.975 412.603 595.247 412.603H578.448V412.603ZM595.247 441.818H588.163H578.449V420.396H595.247C600.975 420.396 605.636 425.201 605.636 431.107C605.636 437.013 600.975 441.818 595.247 441.818Z" fill="#E6E6E6" fill-opacity="0.3"/>
<g clip-path="url(#clip3)">
<path d="M658.756 228.474C666.883 225.912 671.355 217.038 668.724 208.69C666.093 200.343 657.341 195.636 649.213 198.198C649.182 198.208 649.15 198.218 649.119 198.23L637.079 202.024C637.078 202.025 637.077 202.025 637.076 202.025C635.639 202.478 634.851 204.041 635.316 205.516L635.316 205.517L643.174 230.448L645.7 238.462L643.099 239.282C641.662 239.735 640.875 241.298 641.34 242.773C641.805 244.249 643.346 245.078 644.783 244.625L647.384 243.805L652.155 258.943C652.62 260.419 654.161 261.248 655.598 260.795C657.034 260.342 657.822 258.779 657.357 257.304L652.586 242.166L662.123 239.16C663.56 238.707 664.347 237.144 663.883 235.668C663.418 234.193 661.876 233.364 660.439 233.817L650.902 236.823L649.218 231.48L658.756 228.474ZM650.898 203.543C650.926 203.534 650.954 203.524 650.981 203.515C656.217 201.916 661.829 204.958 663.522 210.33C665.224 215.731 662.331 221.474 657.072 223.131L647.534 226.137L641.36 206.548L650.898 203.543Z" fill="#E6E6E6" fill-opacity="0.3"/>
</g>
<g clip-path="url(#clip4)">
<path d="M753.261 163.378L739.665 165.687L738.703 160.022L752.299 157.714C753.801 157.458 754.803 155.984 754.537 154.419C754.272 152.855 752.839 151.793 751.337 152.048L739.574 154.046L746.646 131.885C747.124 130.386 746.337 128.753 744.889 128.236C743.441 127.719 741.879 128.514 741.401 130.012L734.488 151.678L720.811 133.509C719.865 132.253 718.127 132.018 716.932 132.984C715.736 133.95 715.532 135.752 716.478 137.008L730.469 155.592L718.707 157.59C717.205 157.845 716.203 159.32 716.469 160.884C716.734 162.449 718.167 163.51 719.669 163.255L733.265 160.946L734.227 166.611L720.631 168.92C719.129 169.175 718.127 170.65 718.393 172.214C718.659 173.779 720.091 174.84 721.593 174.585L735.189 172.276L738.236 190.215C738.501 191.779 739.934 192.841 741.436 192.586C742.937 192.331 743.94 190.856 743.674 189.291L740.627 171.352L754.223 169.043C755.725 168.788 756.727 167.313 756.462 165.749C756.196 164.185 754.763 163.123 753.261 163.378Z" fill="#E6E6E6" fill-opacity="0.3"/>
</g>
<g clip-path="url(#clip5)">
<path d="M179.238 520.82L169.089 516.236L170.959 512.094L181.109 516.677C182.23 517.183 183.558 516.666 184.074 515.522C184.591 514.378 184.101 513.041 182.98 512.534L174.199 508.569L188.788 497.221C189.774 496.454 189.972 495.031 189.23 494.043C188.487 493.055 187.086 492.876 186.1 493.643L171.837 504.737L170.729 486.702C170.652 485.455 169.591 484.522 168.359 484.619C167.127 484.715 166.191 485.805 166.267 487.052L167.401 505.5L158.621 501.535C157.5 501.029 156.172 501.546 155.655 502.69C155.139 503.834 155.629 505.172 156.75 505.678L166.899 510.261L165.029 514.403L154.879 509.82C153.758 509.314 152.431 509.831 151.914 510.975C151.398 512.119 151.888 513.457 153.009 513.963L163.158 518.546L157.234 531.665C156.718 532.808 157.208 534.146 158.329 534.652C159.45 535.159 160.778 534.642 161.294 533.498L167.218 520.379L177.368 524.962C178.489 525.469 179.816 524.952 180.333 523.808C180.849 522.664 180.359 521.326 179.238 520.82Z" fill="#E6E6E6" fill-opacity="0.3"/>
</g>
<circle cx="667" cy="68" r="32.5" stroke="#E6E6E6" stroke-opacity="0.3" stroke-width="3"/>
<path d="M31.5585 197.424L29.5486 200.405C28.5921 201.836 29.0636 203.402 30.3162 204.148C31.4807 204.84 32.9762 204.469 33.7001 203.325C34.2526 202.451 34.2047 201.29 33.5806 200.436C33.5476 200.391 33.1233 199.757 31.5585 197.424V197.424Z" fill="#E6E6E6" fill-opacity="0.3"/>
<path d="M53.3789 188.754C54.382 188.754 55.1953 187.941 55.1953 186.937C55.1953 185.934 54.382 185.121 53.3789 185.121C48.2698 185.121 14.3434 185.121 8.81641 185.121C7.81327 185.121 7 185.934 7 186.937C7 187.941 7.81327 188.754 8.81641 188.754H10.3137C11.0873 192.065 12.8775 201.638 10.5513 211.523C10.4853 211.804 10.4534 212.087 10.4532 212.367H8.81641C7.81327 212.367 7 213.18 7 214.184C7 215.187 7.81327 216 8.81641 216H53.3789C54.382 216 55.1953 215.187 55.1953 214.184C55.1953 213.18 54.382 212.367 53.3789 212.367H51.742C51.7418 212.087 51.7099 211.804 51.6439 211.523C49.3175 201.638 51.1079 192.065 51.8816 188.754H53.3789ZM36.7704 205.267C35.0324 208.015 31.3865 209.014 28.4163 207.245C25.2942 205.39 24.487 201.282 26.5478 198.357C30.0123 193.219 29.715 193.659 29.7357 193.631C30.6512 192.351 32.5582 192.396 33.4187 193.676L36.5368 198.325C38.0111 200.37 38.1063 203.154 36.7704 205.267V205.267Z" fill="#E6E6E6" fill-opacity="0.3"/>
<path d="M32.9141 158.238V157.633C32.9141 155.63 31.2844 154 29.2812 154H22.2578C20.2547 154 18.625 155.63 18.625 157.633V158.238H32.9141Z" fill="#E6E6E6" fill-opacity="0.3"/>
<path d="M53.3789 161.871H8.81641C7.81327 161.871 7 162.684 7 163.687C7 164.691 7.81327 165.504 8.81641 165.504H10.5634C10.564 165.808 10.6016 166.114 10.68 166.417C11.4173 169.264 12.3039 174.629 11.1335 181.488H51.0618C49.8913 174.629 50.7779 169.264 51.5153 166.417C51.5937 166.114 51.6313 165.808 51.6319 165.504H53.3789C54.382 165.504 55.1953 164.691 55.1953 163.687C55.1953 162.684 54.382 161.871 53.3789 161.871V161.871Z" fill="#E6E6E6" fill-opacity="0.3"/>
<defs>
<clipPath id="clip0">
<rect width="48" height="50" fill="white" transform="translate(22 285)"/>
</clipPath>
<clipPath id="clip1">
<rect width="96.4351" height="103.238" fill="white" transform="translate(667.405 311.381) rotate(-18.9907)"/>
</clipPath>
<clipPath id="clip2">
<rect width="103.964" height="103.964" fill="white" transform="translate(22 34.3586) rotate(-18.9907)"/>
</clipPath>
<clipPath id="clip3">
<rect width="59.9994" height="61.621" fill="white" transform="translate(618 208.036) rotate(-17.4934)"/>
</clipPath>
<clipPath id="clip4">
<rect width="60.679" height="63.2073" fill="white" transform="translate(700.942 135.35) rotate(-9.63842)"/>
</clipPath>
<clipPath id="clip5">
<rect width="49" height="50" fill="white" transform="translate(156.577 479) rotate(24.302)"/>
</clipPath>
</defs>
</svg>
