<svg width="815" height="557" viewBox="0 0 815 557" fill="none" xmlns="http://www.w3.org/2000/svg">
<path d="M755.785 292.08C749.888 290.786 745.647 286.313 746.524 282.313C747.402 278.313 753.126 276.026 759.023 277.32C762.359 278.052 765.216 279.792 766.856 282.086C768.054 283.764 770.366 284.14 772.045 282.899C773.713 281.672 774.087 279.309 772.883 277.622C770.848 274.77 767.779 272.472 764.2 271.045L765.078 267.045C765.525 265.008 764.263 262.999 762.261 262.559C760.259 262.12 758.272 263.417 757.825 265.454L756.951 269.439C748.381 268.998 740.836 273.593 739.272 280.722C737.486 288.862 744.171 297.267 754.166 299.46C760.062 300.753 764.303 305.227 763.426 309.227C762.548 313.227 756.824 315.514 750.928 314.22C747.591 313.488 744.735 311.748 743.094 309.454C741.898 307.768 739.577 307.398 737.906 308.64C736.238 309.868 735.864 312.23 737.067 313.918C739.101 316.777 742.171 319.067 745.748 320.502L744.873 324.495C744.426 326.532 745.688 328.541 747.689 328.98C749.691 329.419 751.679 328.123 752.125 326.086L753 322.101C761.569 322.542 769.115 317.947 770.679 310.818C772.465 302.678 765.779 294.272 755.785 292.08Z" fill="#009E19" fill-opacity="0.3"/>
<path d="M97.8066 73.1773C92.0659 75.0447 86.1445 73.332 84.8777 69.4377C83.611 65.5434 87.3915 60.6747 93.1322 58.8073C96.3804 57.7507 99.725 57.8069 102.301 58.9554C104.183 59.7971 106.367 58.9514 107.188 57.032C108.005 55.1293 107.133 52.9024 105.241 52.0558C102.043 50.6252 98.2331 50.1959 94.4238 50.7756L93.157 46.8813C92.5119 44.8982 90.4067 43.8033 88.4578 44.4372C86.5089 45.0712 85.4508 47.1951 86.0959 49.1782L87.3579 53.0581C79.743 57.013 75.5588 64.7938 77.8166 71.7346C80.3945 79.6597 90.4136 83.5275 100.144 80.3624C105.885 78.495 111.806 80.2077 113.073 84.102C114.34 87.9963 110.559 92.865 104.818 94.7324C101.57 95.789 98.2255 95.7328 95.65 94.5843C93.7653 93.7354 91.5761 94.5906 90.763 96.5077C89.9452 98.4104 90.8179 100.637 92.7096 101.484C95.9102 102.922 99.7174 103.344 103.529 102.771L104.793 106.658C105.439 108.641 107.544 109.736 109.493 109.102C111.442 108.469 112.5 106.345 111.855 104.361L110.593 100.482C118.208 96.5267 122.392 88.7458 120.134 81.8051C117.556 73.88 107.537 70.0122 97.8066 73.1773Z" fill="#009E19" fill-opacity="0.3"/>
<path d="M63.5226 322.587C60.6872 325.694 57.0571 327.405 53.3006 327.405C47.1438 327.405 41.8129 322.901 39.304 316.391H56.4056C57.8885 316.391 59.0908 315.138 59.0908 313.594C59.0908 312.049 57.8885 310.797 56.4056 310.797H37.9394C37.8338 309.882 37.7761 308.949 37.7761 307.999C37.7761 306.928 37.8486 305.877 37.9837 304.852H56.4056C57.8885 304.852 59.0908 303.6 59.0908 302.055C59.0908 300.511 57.8885 299.258 56.4056 299.258H39.4468C42.0095 292.938 47.2553 288.594 53.3006 288.594C57.0571 288.594 60.6872 290.305 63.5226 293.411C64.5433 294.53 66.242 294.576 67.3185 293.512C68.3936 292.447 68.4362 290.677 67.4156 289.557C63.5567 285.329 58.5441 283 53.3013 283C44.3491 283 36.6967 289.773 33.7272 299.259H26.5313C25.0484 299.259 23.8461 300.511 23.8461 302.056C23.8461 303.601 25.0484 304.853 26.5313 304.853H32.5765C32.4677 305.885 32.4055 306.934 32.4055 308C32.4055 308.946 32.453 309.878 32.5398 310.797H26.5313C25.0484 310.797 23.8461 312.05 23.8461 313.594C23.8461 315.139 25.0484 316.392 26.5313 316.392H33.6206C36.5091 326.061 44.2388 333 53.3006 333C58.544 333 63.5554 330.671 67.4142 326.443C68.4355 325.323 68.3936 323.553 67.3178 322.488C66.2434 321.423 64.5433 321.468 63.5226 322.587Z" fill="#001AFF" fill-opacity="0.3"/>
<path d="M696.149 440.172C691.837 444.894 686.316 447.495 680.603 447.495C671.24 447.495 663.132 440.65 659.316 430.754H685.325C687.58 430.754 689.409 428.85 689.409 426.502C689.409 424.154 687.58 422.251 685.325 422.251H657.241C657.081 420.861 656.993 419.443 656.993 417.999C656.993 416.37 657.103 414.774 657.308 413.216H685.325C687.58 413.216 689.409 411.312 689.409 408.964C689.409 406.616 687.58 404.712 685.325 404.712H659.534C663.431 395.106 671.409 388.502 680.603 388.502C686.316 388.502 691.837 391.104 696.149 395.825C697.701 397.526 700.285 397.596 701.922 395.978C703.557 394.36 703.622 391.669 702.069 389.967C696.201 383.54 688.578 380 680.604 380C666.989 380 655.351 390.295 650.835 404.713H639.891C637.636 404.713 635.808 406.617 635.808 408.965C635.808 411.313 637.636 413.217 639.891 413.217H649.085C648.92 414.786 648.825 416.379 648.825 418C648.825 419.439 648.897 420.855 649.029 422.252H639.891C637.636 422.252 635.808 424.156 635.808 426.504C635.808 428.851 637.636 430.755 639.891 430.755H650.673C655.066 445.453 666.822 456 680.603 456C688.577 456 696.199 452.459 702.067 446.033C703.621 444.331 703.557 441.64 701.921 440.022C700.287 438.403 697.701 438.471 696.149 440.172Z" fill="#001AFF" fill-opacity="0.3"/>
<g clip-path="url(#clip0)">
<path d="M141.214 403.541L131.279 392.028C130.644 391.292 129.624 391.016 128.704 391.333L123.552 393.106L114.669 382.813C114.034 382.077 113.014 381.801 112.094 382.118L106.942 383.891L98.0598 373.598C97.4242 372.861 96.4042 372.586 95.4844 372.902L82.134 377.497C81.2142 377.813 80.5797 378.658 80.5319 379.63L79.8653 393.209L74.7134 394.982C73.7934 395.299 73.159 396.143 73.1113 397.115L72.4444 410.694L67.2921 412.468C66.3721 412.784 65.7378 413.629 65.6901 414.601L64.9443 429.789C64.9055 430.577 65.2607 431.334 65.8918 431.808C66.5231 432.282 67.3482 432.412 68.0949 432.155L140.187 407.345C140.933 407.088 141.504 406.478 141.709 405.715C141.915 404.953 141.73 404.139 141.214 403.541ZM112.119 387.141L118.706 394.774L115.353 395.927L104.673 399.603L101.321 400.757L101.815 390.687L112.119 387.141V387.141ZM85.2055 381.472L95.5096 377.926L102.096 385.559L98.7436 386.712L88.0633 390.388L84.7111 391.541L85.2055 381.472ZM96.9693 392.355L96.6876 398.092L92.9349 393.744L96.9693 392.355ZM77.7847 398.957L88.0886 395.411L94.675 403.044L91.3228 404.198L80.6426 407.873L77.2904 409.027L77.7847 398.957ZM69.8693 426.512L70.3638 416.443L80.6679 412.897L87.2542 420.529L69.8693 426.512ZM89.2665 415.578L85.5139 411.229L89.5481 409.841L89.2665 415.578ZM93.9 418.242L94.3943 408.173L104.698 404.627L111.285 412.259L93.9 418.242ZM113.297 407.308L109.545 402.959L113.579 401.571L113.297 407.308ZM117.931 409.972L118.425 399.903L128.729 396.357L135.315 403.989L117.931 409.972Z" fill="#FFE177" fill-opacity="0.3"/>
</g>
<path d="M150.872 237.666C154.343 234.914 156.583 230.621 156.583 225.804C156.583 218.504 151.446 212.406 144.663 211.058V207.164C144.663 205.417 143.273 204 141.558 204C139.843 204 138.453 205.417 138.453 207.164V210.778H136.014H128.032V207.164C128.032 205.417 126.642 204 124.927 204C123.212 204 121.821 205.417 121.821 207.164V210.778H119.105C117.39 210.778 116 212.195 116 213.942C116 215.69 117.39 217.106 119.105 217.106H121.821V237.666V258.225H119.105C117.39 258.225 116 259.642 116 261.389C116 263.137 117.39 264.553 119.105 264.553H121.821V268.167C121.821 269.915 123.212 271.331 124.927 271.331C126.642 271.331 128.032 269.915 128.032 268.167V264.553H136.014H138.453V268.167C138.453 269.915 139.843 271.331 141.558 271.331C143.273 271.331 144.663 269.915 144.663 268.167V264.273C151.447 262.925 156.583 256.827 156.583 249.527C156.583 244.709 154.343 240.417 150.872 237.666ZM128.032 234.501V217.106H136.014H141.835C146.542 217.106 150.372 221.008 150.372 225.804C150.372 230.599 146.542 234.501 141.835 234.501H128.032V234.501ZM141.835 258.225H136.014H128.032V240.83H141.835C146.542 240.83 150.372 244.731 150.372 249.527C150.372 254.323 146.542 258.225 141.835 258.225Z" fill="#FF9900" fill-opacity="0.3"/>
<path d="M584.655 509.5C587.668 507.08 589.611 503.304 589.611 499.066C589.611 492.645 585.153 487.281 579.266 486.095V482.67C579.266 481.133 578.06 479.887 576.571 479.887C575.082 479.887 573.876 481.133 573.876 482.67V485.849H571.76H564.832V482.67C564.832 481.133 563.625 479.887 562.136 479.887C560.648 479.887 559.441 481.133 559.441 482.67V485.849H557.084C555.595 485.849 554.389 487.095 554.389 488.632C554.389 490.169 555.595 491.415 557.084 491.415H559.441V509.5V527.585H557.084C555.595 527.585 554.389 528.831 554.389 530.368C554.389 531.905 555.595 533.151 557.084 533.151H559.441V536.33C559.441 537.867 560.648 539.113 562.136 539.113C563.625 539.113 564.832 537.867 564.832 536.33V533.151H571.76H573.876V536.33C573.876 537.867 575.082 539.113 576.571 539.113C578.06 539.113 579.266 537.867 579.266 536.33V532.905C585.154 531.719 589.611 526.355 589.611 519.934C589.611 515.696 587.668 511.92 584.655 509.5ZM564.831 506.717V491.415H571.759H576.812C580.897 491.415 584.221 494.847 584.221 499.066C584.221 503.284 580.897 506.717 576.812 506.717H564.831V506.717ZM576.812 527.585H571.76H564.832V512.283H576.812C580.897 512.283 584.221 515.715 584.221 519.934C584.221 524.152 580.897 527.585 576.812 527.585Z" fill="#FF9900" fill-opacity="0.3"/>
<g clip-path="url(#clip1)">
<path d="M658.756 226.474C666.883 223.912 671.355 215.038 668.724 206.69C666.093 198.343 657.341 193.636 649.213 196.198C649.182 196.208 649.15 196.218 649.119 196.23L637.079 200.024C637.078 200.025 637.077 200.025 637.076 200.025C635.639 200.478 634.851 202.041 635.316 203.516L635.316 203.517L643.174 228.448L645.7 236.462L643.099 237.282C641.662 237.735 640.875 239.298 641.34 240.773C641.804 242.249 643.346 243.078 644.783 242.625L647.384 241.805L652.155 256.943C652.62 258.419 654.161 259.248 655.598 258.795C657.034 258.342 657.822 256.779 657.357 255.304L652.586 240.166L662.123 237.16C663.56 236.707 664.347 235.144 663.882 233.668C663.418 232.193 661.876 231.364 660.439 231.817L650.902 234.823L649.218 229.48L658.756 226.474ZM650.898 201.543C650.926 201.534 650.954 201.524 650.981 201.515C656.217 199.916 661.829 202.958 663.522 208.33C665.224 213.731 662.331 219.474 657.072 221.131L647.534 224.137L641.36 204.549L650.898 201.543Z" fill="#827D7D" fill-opacity="0.3"/>
</g>
<g clip-path="url(#clip2)">
<path d="M753.261 161.378L739.665 163.687L738.703 158.023L752.299 155.714C753.801 155.459 754.803 153.984 754.537 152.419C754.272 150.855 752.839 149.793 751.337 150.048L739.574 152.046L746.646 129.885C747.124 128.386 746.337 126.753 744.889 126.236C743.441 125.719 741.879 126.514 741.401 128.012L734.488 149.678L720.811 131.509C719.864 130.253 718.127 130.018 716.932 130.984C715.735 131.95 715.532 133.752 716.478 135.008L730.469 153.593L718.707 155.59C717.205 155.845 716.203 157.32 716.469 158.884C716.734 160.449 718.167 161.51 719.669 161.255L733.265 158.946L734.227 164.611L720.631 166.92C719.129 167.175 718.127 168.65 718.393 170.214C718.658 171.779 720.091 172.84 721.593 172.585L735.189 170.276L738.236 188.215C738.501 189.779 739.934 190.841 741.436 190.586C742.937 190.331 743.94 188.856 743.674 187.291L740.627 169.352L754.223 167.043C755.725 166.788 756.727 165.313 756.461 163.749C756.196 162.185 754.763 161.123 753.261 161.378Z" fill="#FF0000" fill-opacity="0.3"/>
</g>
<g clip-path="url(#clip3)">
<path d="M179.238 518.82L169.089 514.236L170.959 510.094L181.109 514.677C182.23 515.183 183.558 514.666 184.074 513.522C184.591 512.378 184.101 511.041 182.98 510.534L174.199 506.569L188.788 495.221C189.774 494.454 189.972 493.031 189.23 492.043C188.487 491.055 187.086 490.876 186.1 491.643L171.837 502.737L170.729 484.702C170.652 483.455 169.591 482.522 168.359 482.619C167.127 482.715 166.191 483.805 166.267 485.052L167.401 503.5L158.621 499.535C157.5 499.029 156.172 499.546 155.655 500.69C155.139 501.834 155.629 503.172 156.75 503.678L166.899 508.261L165.029 512.403L154.879 507.82C153.758 507.314 152.431 507.831 151.914 508.975C151.398 510.119 151.888 511.457 153.009 511.963L163.158 516.546L157.234 529.665C156.718 530.808 157.208 532.146 158.329 532.652C159.45 533.159 160.778 532.642 161.294 531.498L167.218 518.379L177.368 522.962C178.489 523.469 179.816 522.952 180.333 521.808C180.849 520.664 180.359 519.326 179.238 518.82Z" fill="#FF0000" fill-opacity="0.3"/>
</g>
<circle cx="667" cy="66" r="32.5" stroke="black" stroke-opacity="0.3" stroke-width="3"/>
<path d="M31.5585 195.424L29.5486 198.405C28.5921 199.836 29.0636 201.402 30.3162 202.148C31.4807 202.84 32.9762 202.469 33.7001 201.325C34.2526 200.451 34.2047 199.29 33.5806 198.436C33.5476 198.392 33.1233 197.757 31.5585 195.424V195.424Z" fill="black" fill-opacity="0.3"/>
<path d="M53.3789 186.754C54.382 186.754 55.1953 185.941 55.1953 184.938C55.1953 183.934 54.382 183.121 53.3789 183.121C48.2698 183.121 14.3434 183.121 8.81641 183.121C7.81327 183.121 7 183.934 7 184.938C7 185.941 7.81327 186.754 8.81641 186.754H10.3137C11.0873 190.065 12.8775 199.638 10.5513 209.523C10.4853 209.804 10.4534 210.087 10.4532 210.367H8.81641C7.81327 210.367 7 211.18 7 212.184C7 213.187 7.81327 214 8.81641 214H53.3789C54.382 214 55.1953 213.187 55.1953 212.184C55.1953 211.18 54.382 210.367 53.3789 210.367H51.742C51.7418 210.087 51.7099 209.804 51.6439 209.523C49.3175 199.638 51.1079 190.065 51.8816 186.754H53.3789ZM36.7704 203.267C35.0324 206.015 31.3865 207.014 28.4163 205.245C25.2942 203.39 24.487 199.282 26.5478 196.357C30.0123 191.219 29.715 191.659 29.7357 191.631C30.6512 190.351 32.5582 190.396 33.4187 191.676L36.5368 196.325C38.0111 198.37 38.1063 201.154 36.7704 203.267V203.267Z" fill="black" fill-opacity="0.3"/>
<path d="M32.9141 156.238V155.633C32.9141 153.63 31.2844 152 29.2812 152H22.2578C20.2547 152 18.625 153.63 18.625 155.633V156.238H32.9141Z" fill="black" fill-opacity="0.3"/>
<path d="M53.3789 159.871H8.81641C7.81327 159.871 7 160.684 7 161.688C7 162.691 7.81327 163.504 8.81641 163.504H10.5634C10.564 163.808 10.6016 164.114 10.68 164.417C11.4173 167.264 12.3039 172.629 11.1335 179.488H51.0618C49.8913 172.629 50.7779 167.264 51.5153 164.417C51.5937 164.114 51.6313 163.808 51.6319 163.504H53.3789C54.382 163.504 55.1953 162.691 55.1953 161.688C55.1953 160.684 54.382 159.871 53.3789 159.871V159.871Z" fill="black" fill-opacity="0.3"/>
<defs>
<clipPath id="clip0">
<rect width="81" height="81" fill="white" transform="translate(45 372.359) rotate(-18.9907)"/>
</clipPath>
<clipPath id="clip1">
<rect width="59.9994" height="61.621" fill="white" transform="translate(618 206.036) rotate(-17.4934)"/>
</clipPath>
<clipPath id="clip2">
<rect width="60.679" height="63.2073" fill="white" transform="translate(700.942 133.35) rotate(-9.63842)"/>
</clipPath>
<clipPath id="clip3">
<rect width="49" height="50" fill="white" transform="translate(156.577 477) rotate(24.302)"/>
</clipPath>
</defs>
</svg>
