<svg width="1526" height="1193" viewBox="0 0 1526 1193" fill="none" fill-opacity="0.65"  xmlns="http://www.w3.org/2000/svg">
<g style="mix-blend-mode:darken">
<g opacity="0.1">
<path fill-rule="evenodd" clip-rule="evenodd" d="M820.12 1193C820.619 1193 821.117 1193 821.616 1193C1275.18 1193 1643 825.349 1643 372C1643 -81.3446 1275.18 -449 821.616 -449C821.117 -449 820.619 -449 820.12 -448.999C1272.99 -448.191 1640.01 -80.846 1640.01 372C1640.01 824.85 1272.99 1192.19 820.12 1193ZM820.12 1103.28C819.621 1103.28 819.123 1103.28 818.624 1103.28C414.629 1103.28 87 775.806 87 372C87 -31.8064 414.629 -359.282 818.624 -359.282C819.123 -359.282 819.621 -359.281 820.12 -359.28C416.813 -358.473 89.9925 -31.3077 89.9925 372C89.9925 775.308 416.813 1102.47 820.12 1103.28Z" fill="#A6C8E8"/>
<path fill-rule="evenodd" clip-rule="evenodd" d="M822.883 1193C822.384 1193 821.886 1193 821.387 1193C367.825 1193 0 825.349 0 372C0 -81.3446 367.825 -449 821.387 -449C821.886 -449 822.384 -449 822.883 -448.999C370.009 -448.191 2.99246 -80.846 2.99246 372C2.99246 824.85 370.009 1192.19 822.883 1193ZM822.883 1103.28C823.382 1103.28 823.88 1103.28 824.379 1103.28C1228.38 1103.28 1556 775.806 1556 372C1556 -31.8064 1228.38 -359.282 824.379 -359.282C823.88 -359.282 823.382 -359.281 822.883 -359.28C1226.19 -358.473 1553.01 -31.3077 1553.01 372C1553.01 775.308 1226.19 1102.47 822.883 1103.28Z" fill="#A6C8E8"/>
</g>
<g opacity="0.2">
<path fill-rule="evenodd" clip-rule="evenodd" d="M820.561 946.999C820.91 947 821.26 947 821.609 947C1139.33 947 1397 689.51 1397 372C1397 54.4931 1139.33 -203 821.609 -203C821.26 -203 820.91 -203 820.561 -202.999C1137.81 -202.434 1394.9 54.8423 1394.9 372C1394.9 689.161 1137.81 946.433 820.561 946.999ZM820.561 884.163C820.212 884.164 819.862 884.165 819.513 884.165C536.508 884.165 307 654.812 307 372C307 89.188 536.508 -140.165 819.513 -140.165C819.862 -140.165 820.212 -140.164 820.561 -140.163C538.038 -139.598 309.096 89.5373 309.096 372C309.096 654.463 538.038 883.598 820.561 884.163Z" fill="#A6C8E8"/>
<path fill-rule="evenodd" clip-rule="evenodd" d="M822.441 946.999C822.092 947 821.743 947 821.393 947C503.667 947 246 689.51 246 372C246 54.4931 503.667 -203 821.393 -203C821.743 -203 822.092 -203 822.441 -202.999C505.196 -202.434 248.096 54.8423 248.096 372C248.096 689.161 505.196 946.433 822.441 946.999ZM822.441 884.163C822.791 884.164 823.14 884.165 823.489 884.165C1106.49 884.165 1336 654.812 1336 372C1336 89.188 1106.49 -140.165 823.489 -140.165C823.14 -140.165 822.791 -140.164 822.441 -140.163C1104.96 -139.598 1333.9 89.5373 1333.9 372C1333.9 654.463 1104.96 883.598 822.441 884.163Z" fill="#A6C8E8"/>
</g>
<g opacity="0.5">
<path fill-rule="evenodd" clip-rule="evenodd" d="M820.925 793.999C821.182 794 821.438 794 821.695 794C1054.89 794 1244 605.025 1244 372C1244 138.978 1054.89 -50 821.695 -50C821.438 -50 821.182 -49.9998 820.925 -49.9993C1053.77 -49.5842 1242.46 139.234 1242.46 372C1242.46 604.768 1053.77 793.584 820.925 793.999ZM820.926 747.883C820.669 747.884 820.413 747.884 820.156 747.884C612.447 747.884 444 579.559 444 372C444 164.441 612.447 -3.88422 820.156 -3.88422C820.413 -3.88422 820.669 -3.88397 820.926 -3.88345C613.569 -3.46842 445.539 164.697 445.539 372C445.539 579.303 613.569 747.468 820.926 747.883Z" fill="#A6C8E8"/>
<path fill-rule="evenodd" clip-rule="evenodd" d="M822.076 793.999C821.82 794 821.563 794 821.307 794C588.113 794 399 605.025 399 372C399 138.978 588.113 -50 821.307 -50C821.563 -50 821.82 -49.9998 822.076 -49.9993C589.236 -49.5842 400.539 139.234 400.539 372C400.539 604.768 589.236 793.584 822.076 793.999ZM822.076 747.883C822.333 747.884 822.589 747.884 822.845 747.884C1030.56 747.884 1199 579.559 1199 372C1199 164.441 1030.56 -3.88422 822.845 -3.88422C822.589 -3.88422 822.333 -3.88397 822.076 -3.88345C1029.43 -3.46842 1197.46 164.697 1197.46 372C1197.46 579.303 1029.43 747.468 822.076 747.883Z" fill="#A6C8E8"/>
</g>
<g opacity="0.7">
<path fill-rule="evenodd" clip-rule="evenodd" d="M821.29 695.999C821.487 696 821.684 696 821.881 696C1000.86 696 1146 550.91 1146 372C1146 193.092 1000.86 48 821.881 48C821.684 48 821.487 48.0002 821.29 48.0005C999.995 48.3192 1144.82 193.289 1144.82 372C1144.82 550.713 999.995 695.681 821.29 695.999ZM821.29 660.593C821.094 660.593 820.897 660.594 820.7 660.594C661.283 660.594 532 531.358 532 372C532 212.642 661.283 83.4064 820.7 83.4064C820.897 83.4064 821.094 83.4066 821.29 83.407C662.145 83.7256 533.181 212.838 533.181 372C533.181 531.162 662.145 660.274 821.29 660.593Z" fill="#A6C8E8"/>
<path fill-rule="evenodd" clip-rule="evenodd" d="M821.711 695.999C821.514 696 821.317 696 821.121 696C642.144 696 497 550.91 497 372C497 193.092 642.144 48 821.121 48C821.317 48 821.514 48.0002 821.711 48.0005C643.006 48.3192 498.181 193.289 498.181 372C498.181 550.713 643.006 695.681 821.711 695.999ZM821.711 660.593C821.908 660.593 822.104 660.594 822.301 660.594C981.719 660.594 1111 531.358 1111 372C1111 212.642 981.719 83.4064 822.301 83.4064C822.104 83.4064 821.908 83.4066 821.711 83.407C980.857 83.7256 1109.82 212.838 1109.82 372C1109.82 531.162 980.857 660.274 821.711 660.593Z" fill="#A6C8E8"/>
</g>
<path fill-rule="evenodd" clip-rule="evenodd" d="M821.444 620C821.594 620 821.745 620 821.896 620C958.897 620 1070 508.943 1070 372C1070 235.058 958.897 124 821.896 124C821.745 124 821.594 124 821.444 124C958.237 124.244 1069.1 235.209 1069.1 372C1069.1 508.793 958.237 619.756 821.444 620ZM821.444 592.898C821.293 592.899 821.142 592.899 820.992 592.899C698.962 592.899 600 493.978 600 372C600 250.022 698.962 151.101 820.992 151.101C821.142 151.101 821.293 151.101 821.444 151.102C699.622 151.346 600.904 250.173 600.904 372C600.904 493.827 699.622 592.654 821.444 592.898Z" fill="#A6C8E8"/>
<path fill-rule="evenodd" clip-rule="evenodd" d="M821.557 620C821.407 620 821.256 620 821.105 620C684.104 620 573 508.943 573 372C573 235.058 684.104 124 821.105 124C821.256 124 821.407 124 821.557 124C684.764 124.244 573.904 235.209 573.904 372C573.904 508.793 684.764 619.756 821.557 620ZM821.557 592.898C821.708 592.899 821.858 592.899 822.009 592.899C944.039 592.899 1043 493.978 1043 372C1043 250.022 944.039 151.101 822.009 151.101C821.859 151.101 821.708 151.101 821.557 151.102C943.379 151.346 1042.1 250.173 1042.1 372C1042.1 493.827 943.379 592.654 821.557 592.898Z" fill="#A6C8E8"/>
</g>
</svg>
