<svg viewBox="0 0 412 113" fill="none" xmlns="http://www.w3.org/2000/svg">
<style>
    .label { font-family: "Open Sans", sans-serif; font-weight: "bold" }
</style>
<path d="M371 60H84V62H371V60Z" fill="#E6E6E6"/>
<path d="M3.48259 0C2.55926 0.00091128 1.67404 0.330913 1.02114 0.917614C0.368249 1.50431 0.0010141 2.29979 0 3.1295V109.87C0.0010141 110.7 0.368249 111.496 1.02114 112.082C1.67404 112.669 2.55926 112.999 3.48259 113H408.517C409.441 112.999 410.326 112.669 410.979 112.082C411.632 111.496 411.999 110.7 412 109.87V3.1295C411.999 2.29979 411.632 1.50431 410.979 0.917614C410.326 0.330913 409.441 0.00091128 408.517 0H3.48259Z" fill="#E6E6E6"/>
<path d="M9 104H404V9H9V104Z" fill="white"/>
<path d="M44.3897 82.7397C57.8598 82.7397 68.7794 71.829 68.7794 58.3699C68.7794 44.9108 57.8598 34 44.3897 34C30.9196 34 20 44.9108 20 58.3699C20 71.829 30.9196 82.7397 44.3897 82.7397Z" fill="#0037FF"/>
<!-- <path d="M29.5078 64H27.1641V52.625H29.5078V64ZM40.2969 52.625V60.1172C40.2969 61.362 39.9062 62.3464 39.125 63.0703C38.349 63.7943 37.2865 64.1562 35.9375 64.1562C34.6094 64.1562 33.5547 63.8047 32.7734 63.1016C31.9922 62.3984 31.5938 61.4323 31.5781 60.2031V52.625H33.9219V60.1328C33.9219 60.8776 34.099 61.4219 34.4531 61.7656C34.8125 62.1042 35.3073 62.2734 35.9375 62.2734C37.2552 62.2734 37.9245 61.5807 37.9453 60.1953V52.625H40.2969ZM48.1172 61.0156C48.1172 60.5729 47.9609 60.2344 47.6484 60C47.3359 59.7604 46.7734 59.5104 45.9609 59.25C45.1484 58.9844 44.5052 58.724 44.0312 58.4688C42.7396 57.7708 42.0938 56.8307 42.0938 55.6484C42.0938 55.0339 42.2656 54.487 42.6094 54.0078C42.9583 53.5234 43.4557 53.1458 44.1016 52.875C44.7526 52.6042 45.4818 52.4688 46.2891 52.4688C47.1016 52.4688 47.8255 52.6172 48.4609 52.9141C49.0964 53.2057 49.5885 53.6198 49.9375 54.1562C50.2917 54.6927 50.4688 55.3021 50.4688 55.9844H48.125C48.125 55.4635 47.9609 55.0599 47.6328 54.7734C47.3047 54.4818 46.8438 54.3359 46.25 54.3359C45.6771 54.3359 45.2318 54.4583 44.9141 54.7031C44.5964 54.9427 44.4375 55.2604 44.4375 55.6562C44.4375 56.026 44.6224 56.3359 44.9922 56.5859C45.3672 56.8359 45.9167 57.0703 46.6406 57.2891C47.974 57.6901 48.9453 58.1875 49.5547 58.7812C50.1641 59.375 50.4688 60.1146 50.4688 61C50.4688 61.9844 50.0964 62.7578 49.3516 63.3203C48.6068 63.8776 47.6042 64.1562 46.3438 64.1562C45.4688 64.1562 44.6719 63.9974 43.9531 63.6797C43.2344 63.3568 42.6849 62.9167 42.3047 62.3594C41.9297 61.8021 41.7422 61.1562 41.7422 60.4219H44.0938C44.0938 61.6771 44.8438 62.3047 46.3438 62.3047C46.901 62.3047 47.3359 62.1927 47.6484 61.9688C47.9609 61.7396 48.1172 61.4219 48.1172 61.0156ZM52.0625 64V52.625H55.5625C56.5625 52.625 57.4557 52.8516 58.2422 53.3047C59.0339 53.7526 59.651 54.3932 60.0938 55.2266C60.5365 56.0547 60.7578 56.9974 60.7578 58.0547V58.5781C60.7578 59.6354 60.5391 60.5755 60.1016 61.3984C59.6693 62.2214 59.0573 62.8594 58.2656 63.3125C57.474 63.7656 56.5807 63.9948 55.5859 64H52.0625ZM54.4062 54.5234V62.1172H55.5391C56.4557 62.1172 57.1562 61.8177 57.6406 61.2188C58.125 60.6198 58.3724 59.763 58.3828 58.6484V58.0469C58.3828 56.8906 58.1432 56.0156 57.6641 55.4219C57.1849 54.8229 56.4844 54.5234 55.5625 54.5234H54.4062Z" fill="white"/> -->
<text fill="white" x="25" y="66" class="label">IUSD</text>
<path d="M373.167 91C372.062 91 371.002 91.4214 370.22 92.1716C369.439 92.9217 369 93.9391 369 95C369 96.0609 369.439 97.0783 370.22 97.8284C371.002 98.5786 372.062 99 373.167 99H389.833C390.938 99 391.998 98.5786 392.78 97.8284C393.561 97.0783 394 96.0609 394 95C394 93.9391 393.561 92.9217 392.78 92.1716C391.998 91.4214 390.938 91 389.833 91H373.167Z" fill="#0037FF"/>
<path d="M81 92.4999C265 84 314 82.5 381.5 40.5" stroke="black"/>
</svg>
