<svg  viewBox="0 0 413 113" fill="none" xmlns="http://www.w3.org/2000/svg">
<path d="M3.49105 0C2.56547 0.00091128 1.6781 0.330922 1.02362 0.917623C0.369143 1.50432 0.00101656 2.29979 0 3.12951V109.87C0.00101656 110.7 0.369143 111.496 1.02362 112.082C1.6781 112.669 2.56547 112.999 3.49105 113H409.509C410.434 112.999 411.322 112.669 411.976 112.082C412.631 111.496 412.999 110.7 413 109.87V3.12951C412.999 2.29979 412.631 1.50432 411.976 0.917623C411.322 0.330922 410.434 0.00091128 409.509 0H3.49105Z" fill="#E6E6E6"/>
<path d="M9 105H404V8H9V105Z" fill="white"/>
<path d="M373.167 92C372.062 92 371.002 92.4214 370.22 93.1716C369.439 93.9217 369 94.9391 369 96C369 97.0609 369.439 98.0783 370.22 98.8284C371.002 99.5786 372.062 100 373.167 100H389.833C390.938 100 391.998 99.5786 392.78 98.8284C393.561 98.0783 394 97.0609 394 96C394 94.9391 393.561 93.9217 392.78 93.1716C391.998 92.4214 390.938 92 389.833 92H373.167Z" fill="#0037FF"/>
<path d="M44.3897 80.7398C57.8598 80.7398 68.7794 69.829 68.7794 56.3699C68.7794 42.9108 57.8598 32 44.3897 32C30.9196 32 20 42.9108 20 56.3699C20 69.829 30.9196 80.7398 44.3897 80.7398Z" fill="#0037FF"/>
<path d="M33.3594 56.5703C33.3594 57.6901 33.1615 58.6719 32.7656 59.5156C32.3698 60.3594 31.8021 61.0104 31.0625 61.4688C30.3281 61.9271 29.4844 62.1562 28.5312 62.1562C27.5885 62.1562 26.7474 61.9297 26.0078 61.4766C25.2682 61.0234 24.6953 60.3776 24.2891 59.5391C23.8828 58.6953 23.6771 57.7266 23.6719 56.6328V56.0703C23.6719 54.9505 23.8724 53.9661 24.2734 53.1172C24.6797 52.263 25.25 51.6094 25.9844 51.1562C26.724 50.6979 27.5677 50.4688 28.5156 50.4688C29.4635 50.4688 30.3047 50.6979 31.0391 51.1562C31.7786 51.6094 32.349 52.263 32.75 53.1172C33.1562 53.9661 33.3594 54.9479 33.3594 56.0625V56.5703ZM30.9844 56.0547C30.9844 54.862 30.7708 53.9557 30.3438 53.3359C29.9167 52.7161 29.3073 52.4062 28.5156 52.4062C27.7292 52.4062 27.1224 52.7135 26.6953 53.3281C26.2682 53.9375 26.0521 54.8333 26.0469 56.0156V56.5703C26.0469 57.7318 26.2604 58.6328 26.6875 59.2734C27.1146 59.9141 27.7292 60.2344 28.5312 60.2344C29.3177 60.2344 29.9219 59.9271 30.3438 59.3125C30.7656 58.6927 30.9792 57.7917 30.9844 56.6094V56.0547ZM43.6719 50.625V58.1172C43.6719 59.362 43.2812 60.3464 42.5 61.0703C41.724 61.7943 40.6615 62.1562 39.3125 62.1562C37.9844 62.1562 36.9297 61.8047 36.1484 61.1016C35.3672 60.3984 34.9688 59.4323 34.9531 58.2031V50.625H37.2969V58.1328C37.2969 58.8776 37.474 59.4219 37.8281 59.7656C38.1875 60.1042 38.6823 60.2734 39.3125 60.2734C40.6302 60.2734 41.2995 59.5807 41.3203 58.1953V50.625H43.6719ZM51.4922 59.0156C51.4922 58.5729 51.3359 58.2344 51.0234 58C50.7109 57.7604 50.1484 57.5104 49.3359 57.25C48.5234 56.9844 47.8802 56.724 47.4062 56.4688C46.1146 55.7708 45.4688 54.8307 45.4688 53.6484C45.4688 53.0339 45.6406 52.487 45.9844 52.0078C46.3333 51.5234 46.8307 51.1458 47.4766 50.875C48.1276 50.6042 48.8568 50.4688 49.6641 50.4688C50.4766 50.4688 51.2005 50.6172 51.8359 50.9141C52.4714 51.2057 52.9635 51.6198 53.3125 52.1562C53.6667 52.6927 53.8438 53.3021 53.8438 53.9844H51.5C51.5 53.4635 51.3359 53.0599 51.0078 52.7734C50.6797 52.4818 50.2188 52.3359 49.625 52.3359C49.0521 52.3359 48.6068 52.4583 48.2891 52.7031C47.9714 52.9427 47.8125 53.2604 47.8125 53.6562C47.8125 54.026 47.9974 54.3359 48.3672 54.5859C48.7422 54.8359 49.2917 55.0703 50.0156 55.2891C51.349 55.6901 52.3203 56.1875 52.9297 56.7812C53.5391 57.375 53.8438 58.1146 53.8438 59C53.8438 59.9844 53.4714 60.7578 52.7266 61.3203C51.9818 61.8776 50.9792 62.1562 49.7188 62.1562C48.8438 62.1562 48.0469 61.9974 47.3281 61.6797C46.6094 61.3568 46.0599 60.9167 45.6797 60.3594C45.3047 59.8021 45.1172 59.1562 45.1172 58.4219H47.4688C47.4688 59.6771 48.2188 60.3047 49.7188 60.3047C50.276 60.3047 50.7109 60.1927 51.0234 59.9688C51.3359 59.7396 51.4922 59.4219 51.4922 59.0156ZM55.4375 62V50.625H58.9375C59.9375 50.625 60.8307 50.8516 61.6172 51.3047C62.4089 51.7526 63.026 52.3932 63.4688 53.2266C63.9115 54.0547 64.1328 54.9974 64.1328 56.0547V56.5781C64.1328 57.6354 63.9141 58.5755 63.4766 59.3984C63.0443 60.2214 62.4323 60.8594 61.6406 61.3125C60.849 61.7656 59.9557 61.9948 58.9609 62H55.4375ZM57.7812 52.5234V60.1172H58.9141C59.8307 60.1172 60.5312 59.8177 61.0156 59.2188C61.5 58.6198 61.7474 57.763 61.7578 56.6484V56.0469C61.7578 54.8906 61.5182 54.0156 61.0391 53.4219C60.5599 52.8229 59.8594 52.5234 58.9375 52.5234H57.7812Z" fill="white"/>
<path d="M85 56L386 56" stroke="black"/>
</svg>
