<svg width="383" height="383" viewBox="0 0 383 383" fill="none" xmlns="http://www.w3.org/2000/svg">
<path d="M186.131 177.555C183.344 177.563 180.653 176.536 178.58 174.674C177.42 173.639 176.483 172.378 175.828 170.968C175.173 169.558 174.812 168.029 174.769 166.475L130.393 134.201C129.054 133.227 127.942 131.975 127.134 130.53C126.325 129.085 125.839 127.483 125.71 125.832C125.58 124.182 125.81 122.523 126.383 120.969C126.957 119.416 127.86 118.006 129.03 116.835L162.069 83.7969C163.43 82.4354 165.164 81.5083 167.053 81.1327C168.941 80.7571 170.898 80.9498 172.677 81.6866C174.456 82.4234 175.976 83.6711 177.046 85.2719C178.115 86.8728 178.686 88.7549 178.686 90.6802C178.416 95.7307 176.426 100.537 173.045 104.299L150.613 126.731L185.821 154.796C185.93 154.789 186.038 154.783 186.148 154.783C189.055 154.783 191.852 155.895 193.966 157.89C196.08 159.886 197.35 162.614 197.517 165.517C197.684 168.419 196.734 171.275 194.863 173.499C192.992 175.724 190.341 177.149 187.453 177.481C187.014 177.53 186.572 177.555 186.131 177.555V177.555Z" fill="#FFB8B8"/>
<path d="M238.863 368.183L250.77 363.738L239.291 315.695L221.717 322.256L238.863 368.183Z" fill="#FFB8B8"/>
<path d="M277.861 366.222L240.439 380.192L235.041 365.734L258.517 356.97C262.216 355.589 266.312 355.734 269.904 357.373C273.495 359.012 276.289 362.011 277.67 365.71L277.861 366.222V366.222Z" fill="#2F2E41"/>
<path d="M131.741 370.363H144.451L150.497 321.339L131.739 321.34L131.741 370.363Z" fill="#FFB8B8"/>
<path d="M168.963 382.164L129.018 382.165L129.017 366.732L154.075 366.731C158.024 366.731 161.81 368.299 164.602 371.091C167.394 373.882 168.963 377.669 168.963 381.617L168.963 382.164V382.164Z" fill="#2F2E41"/>
<path d="M145.459 356.986C145.316 356.986 145.173 356.979 145.03 356.965L131.557 355.682C130.464 355.578 129.447 355.078 128.697 354.276C127.947 353.475 127.516 352.426 127.485 351.329C126.708 322.153 124.749 174.9 162.642 141.156C163.299 140.578 164.114 140.21 164.981 140.099V140.098C171.845 139.157 195.001 136.85 204.803 146.709C205.425 147.33 205.856 148.116 206.044 148.974L248.952 347.362C249.084 347.972 249.088 348.603 248.963 349.215C248.837 349.827 248.586 350.406 248.225 350.916C247.864 351.425 247.401 351.854 246.865 352.174C246.329 352.495 245.732 352.701 245.112 352.778L228.661 354.834C228.067 354.909 227.464 354.865 226.887 354.704C226.31 354.542 225.772 354.267 225.303 353.895C224.834 353.523 224.444 353.06 224.156 352.535C223.869 352.01 223.689 351.433 223.627 350.837C221.99 334.89 212.154 253.887 179.192 225.174C178.746 224.782 178.208 224.508 177.629 224.378C177.049 224.247 176.446 224.265 175.875 224.428C175.316 224.583 174.805 224.879 174.392 225.286C173.978 225.693 173.675 226.199 173.511 226.755C167.409 246.722 147.675 314.776 149.943 352.217C149.981 352.829 149.893 353.442 149.685 354.019C149.477 354.596 149.152 355.124 148.732 355.571C148.312 356.018 147.805 356.374 147.242 356.617C146.679 356.861 146.072 356.986 145.459 356.986V356.986Z" fill="#DF824E"/>
<path d="M171.388 59.9818C184.953 59.9818 195.949 48.9855 195.949 35.4208C195.949 21.8561 184.953 10.8597 171.388 10.8597C157.823 10.8597 146.827 21.8561 146.827 35.4208C146.827 48.9855 157.823 59.9818 171.388 59.9818Z" fill="#FFB8B8"/>
<path d="M147.272 81.6767C147.272 81.6767 170.079 54.7223 188.74 76.4932C200.747 90.5012 207.097 108.484 206.55 126.925L205.846 150.618L162.822 143.879L147.272 81.6767Z" fill="#6C63FF"/>
<path d="M207.208 133.906C207.029 133.906 206.85 133.902 206.671 133.895C204.833 133.819 203.033 133.345 201.396 132.505C199.759 131.666 198.324 130.481 197.189 129.033L169.274 93.44C168.086 91.925 167.373 90.0918 167.227 88.172C167.081 86.2523 167.507 84.3323 168.452 82.6549C169.397 80.9774 170.818 79.6178 172.535 78.7479C174.253 77.8781 176.19 77.5371 178.101 77.7681L182.032 78.2432C184.541 78.6836 186.825 79.9699 188.502 81.8882L210.523 109.965L242.61 78.3794C242.616 78.271 242.624 78.1626 242.637 78.0532C242.905 75.8303 243.823 73.7358 245.275 72.0316C246.727 70.3275 248.65 69.0894 250.802 68.4721C252.954 67.8548 255.241 67.8859 257.375 68.5613C259.51 69.2367 261.398 70.5265 262.804 72.2694C264.21 74.0123 265.07 76.1309 265.278 78.3603C265.486 80.5897 265.031 82.8308 263.972 84.8035C262.913 86.7761 261.296 88.3927 259.322 89.4509C257.349 90.5092 255.108 90.9623 252.879 90.7534L216.526 129.845C215.336 131.127 213.894 132.149 212.291 132.848C210.688 133.547 208.957 133.907 207.208 133.906V133.906Z" fill="#FFB8B8"/>
<path d="M175.369 39.6699L185.922 27.2382C188.641 24.0344 191.486 20.5449 191.87 16.3602C192.292 11.7729 189.502 7.31403 185.687 4.7314C181.873 2.14877 177.189 1.17689 172.596 0.820268C164.078 0.158838 155.114 1.56655 148.112 6.46169C141.109 11.3568 136.528 20.1943 138.235 28.5658C139.58 35.1575 144.534 41.4719 142.608 47.9178C140.501 54.9708 131.861 57.1347 124.807 59.238C112.967 62.7683 101.661 69.7182 95.4558 80.4025C89.2506 91.0867 89.2777 105.819 97.5494 114.997C102.906 120.94 110.984 123.946 118.972 124.398C126.959 124.85 134.91 122.969 142.485 120.396C149.462 118.026 156.363 114.978 161.856 110.067C167.348 105.155 171.305 98.1271 171.134 90.761C170.97 83.7411 167.21 77.3465 165.665 70.4967C164.447 64.7609 164.766 58.8049 166.592 53.2325C168.418 47.6601 171.684 42.6696 176.061 38.7667" fill="black"/>
<path d="M382 382H1C0.734784 382 0.480436 381.895 0.2929 381.707C0.105364 381.52 0 381.265 0 381C0 380.735 0.105364 380.48 0.2929 380.293C0.480436 380.105 0.734784 380 1 380H382C382.265 380 382.52 380.105 382.707 380.293C382.895 380.48 383 380.735 383 381C383 381.265 382.895 381.52 382.707 381.707C382.52 381.895 382.265 382 382 382Z" fill="#3F3D56"/>
</svg>
