<svg width="220" height="220" viewBox="0 0 220 220" fill="none" xmlns="http://www.w3.org/2000/svg">
<path d="M177.5 96C177.5 133.279 147.279 163.5 110 163.5C72.7208 163.5 42.5 133.279 42.5 96C42.5 58.7208 72.7208 28.5 110 28.5C147.279 28.5 177.5 58.7208 177.5 96Z" fill="white" stroke="black" stroke-width="25"/>
<path d="M0 207.503C0 200.601 5.59507 195.006 12.4969 195.006H207.503C214.405 195.006 220 200.601 220 207.503V207.503C220 214.405 214.405 220 207.503 220H12.4969C5.59507 220 0 214.405 0 207.503V207.503Z" fill="black"/>
<path d="M175 22.1691C175 19.2453 177.37 16.875 180.294 16.875H214.706C217.63 16.875 220 19.2453 220 22.1691V22.1691C220 25.093 217.63 27.4632 214.706 27.4632H180.294C177.37 27.4632 175 25.093 175 22.1691V22.1691Z" fill="black"/>
<path d="M197.169 45C194.245 45 191.875 42.6297 191.875 39.7059L191.875 5.29412C191.875 2.37026 194.245 1.5602e-08 197.169 -1.12204e-07V-1.12204e-07C200.093 -2.4001e-07 202.463 2.37026 202.463 5.29412L202.463 39.7059C202.463 42.6297 200.093 45 197.169 45V45Z" fill="black"/>
<path fill-rule="evenodd" clip-rule="evenodd" d="M110 55C132.64 55 151 73.3602 151 96C151 118.64 132.64 137 110 137C87.3602 137 69 118.64 69 96C69 73.3602 87.3602 55 110 55ZM110 59.4804C130.166 59.4804 146.519 75.8343 146.519 96C146.519 116.166 130.166 132.52 110 132.52C89.8343 132.52 73.4805 116.166 73.4805 96C73.4805 75.8343 89.8343 59.4804 110 59.4804Z" fill="#456C91"/>
</svg>
